<?xml version="1.0" encoding="utf-8"?>
<!-- Generator: Adobe Illustrator 24.2.1, SVG Export Plug-In . SVG Version: 6.00 Build 0)  -->
<svg version="1.1" id="Layer_1" xmlns="http://www.w3.org/2000/svg" xmlns:xlink="http://www.w3.org/1999/xlink" x="0px" y="0px"
	 viewBox="0 0 601.5 283.5" style="enable-background:new 0 0 601.5 283.5;" xml:space="preserve">
<style type="text/css">
	.st0{fill:#00A9CE;}
	.st1{fill:#FFFFFF;}
</style>
<g>
	<g>
		<g>
			<path id="XMLID_12_" class="st0" d="M416,80.5h-22.1c-0.8,0-1.4,0.6-1.4,1.4v49.5c0,0.8,0.6,1.4,1.4,1.4H416c5,0,8.7-3.7,8.7-8.7
				V89.2C424.8,84.1,421.1,80.5,416,80.5z M419.3,123.1c0,2.8-1.7,4.6-4.6,4.6H398V85.6h16.7c2.8,0,4.6,1.7,4.6,4.6V123.1z"/>
			<path id="XMLID_11_" class="st0" d="M446.6,150.6h-16.8c-0.8,0-1.4,0.6-1.4,1.4v5.4c0,0.8,0.6,1.4,1.4,1.4h9.1v42.6
				c0,0.8,0.6,1.4,1.4,1.4h6.2c0.8,0,1.4-0.6,1.4-1.4V152C448,151.2,447.4,150.6,446.6,150.6z"/>
			<path id="XMLID_8_" class="st0" d="M415.1,172.9c-3.8,0-9.3,0.9-13.6,2.3v-14.3c0-1.2,0.9-2,2.1-2h15.1c0.8,0,1.4-0.6,1.4-1.4
				V152c0-0.8-0.6-1.4-1.4-1.4h-17.9c-4.6,0-8.3,3.7-8.3,8.2v35.8c0,4.6,3.6,8.2,8.2,8.2h14.4c4.6,0,8.3-3.7,8.3-8.2v-13.5
				C423.4,176.6,420.4,172.9,415.1,172.9z M414.4,192.6c0,1.2-0.9,2-2.1,2h-8.6c-1.2,0-2.1-0.9-2.1-2v-7c0-1.2,0.6-2.1,2.1-2.6
				c1.9-0.6,6.7-1.6,8.6-1.6c1.3,0,2.1,0.9,2.1,2V192.6z"/>
			<path id="XMLID_7_" class="st0" d="M504.2,80.5h-33.9c-0.8,0-1.4,0.6-1.4,1.4v2.3c0,0.8,0.6,1.4,1.4,1.4h14.2v45.8
				c0,0.8,0.6,1.4,1.4,1.4h2.7c0.8,0,1.4-0.6,1.4-1.4V85.6h14.1c0.8,0,1.4-0.6,1.4-1.4v-2.3C505.6,81.1,505,80.5,504.2,80.5z"/>
			<path id="XMLID_4_" class="st0" d="M472.3,130.9L472.3,130.9l-17.1-49.5c-0.2-0.5-0.7-0.9-1.3-0.9h-3.2c-0.6,0-1.1,0.4-1.3,0.9
				l-17.1,49.5l0,0c-0.1,0.1-0.1,0.3-0.1,0.5c0,0.8,0.6,1.4,1.4,1.4h2.6c0.6,0,1.1-0.4,1.3-0.9l0,0l4.2-12.6h20.9l4.4,12.5v0
				c0.2,0.6,0.7,1,1.3,1h2.6c0.8,0,1.4-0.6,1.4-1.4C472.3,131.2,472.3,131.1,472.3,130.9z M443.5,114.3l8.8-26.9l8.7,26.9H443.5z"/>
			<path id="XMLID_1_" class="st0" d="M543,130.9L543,130.9l-17.1-49.5c-0.2-0.5-0.7-0.9-1.3-0.9h-3.2c-0.6,0-1.1,0.4-1.3,0.9
				l-17.2,49.4l0.2,0.1c-0.1,0.1-0.1,0.3-0.1,0.5c0,0.8,0.6,1.4,1.4,1.4h2.6c0.6,0,1.1-0.4,1.3-0.9l0,0l4.2-12.6h20.9l4.4,12.5v0
				c0.2,0.6,0.7,1,1.3,1h2.6c0.8,0,1.4-0.6,1.4-1.4C543,131.2,543,131.1,543,130.9z M514.2,114.3l8.8-26.9l8.7,26.9H514.2z"/>
		</g>
		<g>
			<path class="st0" d="M600.4,88.6L600.4,88.6L600.4,88.6L600.4,88.6l-5-2.9c-0.3-0.2-0.7-0.3-1.1-0.3c-0.4,0-0.8,0.1-1.1,0.3
				l-5,2.9h0l0,0h0c-0.6,0.4-1,1-1,1.8V193c0,0.8,0.4,1.4,1,1.8l0,0l0,0h0l5,2.9c0.3,0.2,0.7,0.3,1.1,0.3c0.4,0,0.8-0.1,1.1-0.3
				l5-2.9h0h0h0c0.6-0.4,1-1,1-1.8c0-11.6,0-102.6,0-102.6C601.5,89.7,601,89,600.4,88.6z"/>
			<g>
				<g>
					<path class="st0" d="M355.4,53.4L355.4,53.4L355.4,53.4L355.4,53.4l0,5.8c0,0.4,0.1,0.7,0.3,1.1c0.2,0.3,0.5,0.6,0.8,0.8l5,2.9
						l0,0h0l0,0c0.6,0.3,1.4,0.4,2.1,0l88.8-51.3c0.7-0.4,1-1.1,1-1.8l0,0v0l0,0l0-5.8c0-0.4-0.1-0.7-0.3-1.1
						c-0.2-0.3-0.5-0.6-0.8-0.8l-5-2.9l0,0l0,0v0c-0.6-0.3-1.4-0.4-2.1,0c-10,5.8-88.8,51.3-88.8,51.3
						C355.8,51.9,355.4,52.6,355.4,53.4z"/>
					<path class="st0" d="M361.5,219.5L361.5,219.5L361.5,219.5L361.5,219.5l-5,2.9c-0.3,0.2-0.6,0.5-0.8,0.8
						c-0.2,0.3-0.3,0.7-0.3,1.1v5.8l0,0l0,0l0,0c0,0.7,0.4,1.4,1,1.8l88.8,51.3c0.7,0.4,1.4,0.3,2.1,0h0h0l0,0l5-2.9
						c0.3-0.2,0.6-0.5,0.8-0.8c0.2-0.3,0.3-0.7,0.3-1.1l0-5.8l0,0h0h0c0-0.7-0.4-1.4-1-1.8c-10-5.8-88.8-51.3-88.8-51.3
						C362.9,219.2,362.1,219.2,361.5,219.5z"/>
					<g>
						<path class="st0" d="M482,272.6L482,272.6L482,272.6L482,272.6l0,5.8c0,0.4,0.1,0.7,0.3,1.1c0.2,0.3,0.5,0.6,0.8,0.8l5,2.9
							l0,0h0l0,0c0.6,0.3,1.4,0.4,2.1,0l88.8-51.3c0.7-0.4,1-1.1,1-1.8v0v0l0,0l0-5.8c0-0.4-0.1-0.7-0.3-1.1
							c-0.2-0.3-0.5-0.6-0.8-0.8l-5-2.9l0,0h0v0c-0.6-0.3-1.4-0.4-2.1,0c-10,5.8-88.8,51.3-88.8,51.3
							C482.4,271.2,482,271.9,482,272.6z"/>
					</g>
				</g>
				<path class="st0" d="M347.2,88.6L347.2,88.6L347.2,88.6L347.2,88.6l-5-2.9c-0.3-0.2-0.7-0.3-1.1-0.3c-0.4,0-0.8,0.1-1.1,0.3
					l-5,2.9h0v0l0,0c-0.6,0.4-1,1-1,1.8V193c0,0.8,0.4,1.4,1,1.8h0h0h0l5,2.9c0.3,0.2,0.7,0.3,1.1,0.3c0.4,0,0.8-0.1,1.1-0.3l5-2.9
					h0h0h0c0.6-0.4,1-1,1-1.8c0-11.6,0-102.6,0-102.6C348.3,89.7,347.8,89,347.2,88.6z"/>
			</g>
		</g>
	</g>
	<g>
		<g>
			<circle class="st0" cx="141.7" cy="141.7" r="141.7"/>
		</g>
		<g>
			<g>
				<path class="st1" d="M63.2,215.8c-12.9,0-22.5-10-22.5-22.5v-0.1c0-12.5,9.4-22.7,22.9-22.7c8.3,0,13.2,2.8,17.3,6.8l-6.1,7.1
					c-3.4-3.1-6.8-4.9-11.2-4.9c-7.4,0-12.7,6.1-12.7,13.7v0.1c0,7.5,5.2,13.8,12.7,13.8c5,0,8.1-2,11.5-5.1l6.1,6.2
					C76.7,212.8,71.7,215.8,63.2,215.8z"/>
				<path class="st1" d="M106.1,215.7c-6.6,0-13.3-2.3-18.6-7l5.7-6.8c4,3.3,8.1,5.3,13.1,5.3c3.9,0,6.3-1.6,6.3-4.1v-0.1
					c0-2.4-1.5-3.7-8.8-5.6c-8.8-2.3-14.5-4.7-14.5-13.4v-0.1c0-8,6.4-13.2,15.3-13.2c6.4,0,11.8,2,16.3,5.6l-5,7.3
					c-3.9-2.7-7.7-4.3-11.4-4.3c-3.7,0-5.6,1.7-5.6,3.8v0.1c0,2.9,1.9,3.8,9.5,5.7c8.9,2.3,13.9,5.5,13.9,13.2v0.1
					C122.2,210.8,115.6,215.7,106.1,215.7z"/>
				<path class="st1" d="M132.9,215.1v-22.5v-21.3h9.6v21.3v22.5H132.9z"/>
				<path class="st1" d="M181.5,215.1l-9.4-14h-7.6v14h-9.6v-43.8h20c10.3,0,16.5,5.5,16.5,14.5v0.1c0,7.1-3.8,11.5-9.4,13.6
					l10.7,15.7H181.5z M181.7,186.2c0-4.1-2.9-6.3-7.6-6.3h-9.6v12.6h9.8c4.7,0,7.4-2.5,7.4-6.2V186.2z"/>
				<path class="st1" d="M221.5,215.8c-13.5,0-23.2-10.1-23.2-22.5v-0.1c0-12.5,9.8-22.7,23.4-22.7c13.5,0,23.2,10.1,23.2,22.6v0.1
					C244.8,205.6,235,215.8,221.5,215.8z M234.8,193.2c0-7.5-5.5-13.8-13.3-13.8c-7.8,0-13.2,6.1-13.2,13.7v0.1
					c0,7.5,5.5,13.8,13.3,13.8c7.8,0,13.2-6.1,13.2-13.7V193.2z"/>
			</g>
			<g>
				<path class="st1" d="M185.1,148.8c0,4.2-3.4,7.6-7.6,7.6c-4.2,0-7.6-3.4-7.6-7.6c0-4.2,3.4-7.6,7.6-7.6
					C181.7,141.2,185.1,144.6,185.1,148.8z"/>
				<path class="st1" d="M154,53.5c-3.9,0-7,3.2-7,7v60.2c0,3.9,3.2,7,7,7c3.9,0,7-3.2,7-7V60.5C161,56.6,157.9,53.5,154,53.5z"/>
				<path class="st1" d="M106.9,46.7c-3.9,0-7,3.2-7,7v53.4c0,3.9,3.2,7,7,7c3.9,0,7-3.2,7-7V53.8C113.9,49.9,110.8,46.7,106.9,46.7
					z"/>
				<path class="st1" d="M201.1,67c-3.9,0-7,3.1-7,7V114c0,3.9,3.2,7,7,7c3.9,0,7-3.2,7-7V74C208.1,70.1,205,67,201.1,67z"/>
				<path class="st1" d="M83.4,67c-3.9,0-7,3.1-7,7V114c0,3.9,3.1,7,7,7c3.9,0,7-3.2,7-7V74C90.4,70.1,87.2,67,83.4,67z"/>
				<path class="st1" d="M177.5,33.2c-3.9,0-7,3.2-7,7v87.2c0,3.9,3.2,7,7,7c3.9,0,7-3.2,7-7V40.3C184.6,36.4,181.4,33.2,177.5,33.2
					z"/>
				<path class="st1" d="M130.5,33.2c-3.9,0-7,3.2-7,7v60.2c0,3.9,3.2,7,7,7c3.9,0,7-3.1,7-7V40.3C137.5,36.4,134.3,33.2,130.5,33.2
					z"/>
			</g>
		</g>
	</g>
</g>
</svg>
