<?xml version="1.0" encoding="utf-8"?>
<!-- Generator: Adobe Illustrator 19.0.1, SVG Export Plug-In . SVG Version: 6.00 Build 0)  -->
<svg xmlns="http://www.w3.org/2000/svg" fill="none" viewBox="0 0 372 51" class="css-aszptt"><path fill="currentColor" d="M21.9 20.3c-6.4-1.2-12-2.2-12-6.7 0-5.6 6-6.3 9.4-6.3 6.4 0 10.2 2.5 10.6 7.3l.2 1h9.4l-.1-1.1C38 5 31.2 0 19.4 0 8 0 1 5.6 1 14.5c0 10.5 9.6 12.4 18 14 6.7 1.2 12.6 2.3 12.6 7.3 0 4.7-3.5 7-10.6 7-7.5 0-11-2.8-11.7-9.5v-1H0v1.1c.5 10.8 8 16.7 21 16.7 12.2 0 19.5-5.8 19.5-15.5 0-10.8-10-12.7-18.6-14.3zm38.6-7.7C50 12.6 43.1 20 43.1 31.3c0 11.4 6.8 18.4 17.7 18.4C69.5 49.7 76 45 77 37.5l.1-1.1h-8.5l-.1 1c-1 4-3.5 6-7.7 6-5.6 0-8.6-3.4-9-10.5h26v-1.1c-.2-12-6.6-19.2-17.4-19.2zm0 6.5c3.6 0 7.4 2 8 8H52.2c1-5.4 3.8-8 8.2-8zm53.8 16H106c0 4.4-3 8.3-7.5 8.3-5.8 0-8.6-4-8.6-12 0-8.3 2.9-12.2 8.6-12.2 3.7 0 6.3 2.2 7.2 6.2v1h8.2v-1.2c-1-7.8-6.9-12.6-15.5-12.6-11 0-17.6 7.2-17.6 18.7 0 11.4 6.7 18.4 17.4 18.4 8.2 0 16.2-5.8 16.2-14.6zm20.1-22.5c-10.9 0-17.6 7.2-17.6 18.7 0 11.4 6.8 18.4 17.6 18.4 5.4 0 9.9-1.7 12.9-5 3-3.2 4.5-8 4.5-13.6 0-11.5-6.4-18.5-17.4-18.5zm0 30.8c-5.8 0-8.7-4-8.7-12 0-8.1 2.9-12.2 8.6-12.3 5.7 0 8.5 4 8.5 12.2s-2.7 12.1-8.4 12.1zm147.5-16.7c0-9.1-4.2-14-11.5-14-4.7 0-8.2 2.1-10.8 6.5-1.6-4.2-5-6.5-10-6.5-4.2 0-7.6 1.8-10 5.2v-4.3h-8.3v35.5h8.6v-19c.5-5.1 3-10.4 7.2-10.4 3.6 0 5.3 2.5 5.3 7.2V49h8.6V28.6c1.1-6.2 4.2-9 7-9 3.5 0 5.4 2.6 5.4 7.3V49h8.5V26.7zm14-25h-9v8.7h9V1.7zm0 11.8h-9V49h9V13.5zm37.4 13.2c0-8.8-4.9-14-12.4-14-4.4 0-8.2 2-10.8 5.2v-4.4h-8.5V49h8.5V30c.5-4.8 3-10.3 8.4-10.3 3.9 0 6.2 2.7 6.2 7.2V49h8.6V26.7zM371.2 1h-8.7v16.3a13 13 0 0 0-10.2-4.4c-8.9 0-15.2 7.6-15.2 18.5 0 11.2 6 18.3 15 18.3a13 13 0 0 0 10.5-4.7v4.1h8.8L371.2 1zm-17 42.4c-5.4 0-8.3-4.4-8.3-12.5 0-4.4 1-7.9 3-9.7 1.4-1.5 3.4-2 5.4-2 5.3.1 8.3 4.4 8.3 12.4 0 7.8-2.9 11.8-8.3 11.8zM187.6 26.7c0-8.8-4.8-14-12.4-14-4.3 0-8.1 2-10.7 5.2v-4.4h-8.6V49h8.6V30c.5-4.8 3-10.3 8.4-10.3 3.8 0 6.2 2.7 6.2 7.2V49h8.5V26.7zM225.5 1h-8.8v16.3a13 13 0 0 0-10.2-4.4c-8.9 0-15.2 7.6-15.2 18.5 0 11.2 6 18.3 15.1 18.3a13 13 0 0 0 10.4-4.7v4.1h8.8L225.5 1zm-16.9 42.4c-5.4 0-8.4-4.4-8.4-12.5 0-4.4 1-7.9 3-9.7 1.5-1.5 3.4-2 5.4-2 5.4.1 8.3 4.4 8.3 12.4 0 7.8-2.8 11.8-8.3 11.8z"></path></svg>
