<?xml version="1.0" encoding="utf-8" standalone="no"?>
<!DOCTYPE svg PUBLIC "-//W3C//DTD SVG 1.1//EN"
  "http://www.w3.org/Graphics/SVG/1.1/DTD/svg11.dtd">
<!-- Created with matplotlib (http://matplotlib.org/) -->
<svg height="401pt" version="1.1" viewBox="0 0 652 401" width="652pt" xmlns="http://www.w3.org/2000/svg" xmlns:xlink="http://www.w3.org/1999/xlink">
 <defs>
  <style type="text/css">
*{stroke-linecap:butt;stroke-linejoin:round;}
  </style>
 </defs>
 <g id="figure_1">
  <g id="patch_1">
   <path d="M 0 401.329079 
L 652.195596 401.329079 
L 652.195596 0 
L 0 0 
z
" style="fill:#ffffff;"/>
  </g>
  <g id="axes_1">
   <g id="patch_2">
    <path d="M 60.116574 375.960015 
L 544.599092 375.960015 
L 544.599092 71.576669 
L 60.116574 71.576669 
z
" style="fill:#ffffff;"/>
   </g>
   <g id="matplotlib.axis_1">
    <g id="text_1">
     <!-- epoch -->
     <defs>
      <path d="M 38.09375 23 
C 38.5 23.40625 38.5 23.609375 38.5 24.625 
C 38.5 34.96875 33.09375 44 21.703125 44 
C 11.09375 44 2.703125 33.890625 2.703125 21.609375 
C 2.703125 8.609375 12.203125 -1 22.796875 -1 
C 34 -1 38.40625 9.484375 38.40625 11.5625 
C 38.40625 12.25 37.796875 12.25 37.59375 12.25 
C 36.90625 12.25 36.796875 12.046875 36.40625 10.875 
C 34.203125 4.140625 28.703125 0.796875 23.5 0.796875 
C 19.203125 0.796875 14.90625 3.171875 12.203125 7.5 
C 9.09375 12.546875 9.09375 18.375 9.09375 23 
z
M 9.203125 24.5 
C 9.90625 39.140625 17.59375 42.40625 21.59375 42.40625 
C 28.40625 42.40625 33 35.890625 33.09375 24.5 
z
" id="CMR17-101"/>
      <path d="M 22 -16.609375 
C 15.59375 -16.609375 15.203125 -16.203125 15.203125 -12.328125 
L 15.203125 6.28125 
C 18.09375 2.09375 22.296875 -0.59375 27.59375 -0.59375 
C 37.59375 -0.59375 47.703125 8.171875 47.703125 21.6875 
C 47.703125 34.234375 39 43.78125 28.703125 43.78125 
C 22.703125 43.78125 17.796875 40.5 15 36.53125 
L 15 43.78125 
L 3.09375 42.6875 
L 3.09375 40.109375 
C 9 40.109375 9.90625 39.5 9.90625 34.734375 
L 9.90625 -12.328125 
C 9.90625 -16.109375 9.5 -16.609375 3.09375 -16.609375 
L 3.09375 -19.1875 
C 5.5 -19 9.90625 -19 12.5 -19 
C 15.09375 -19 19.59375 -19 22 -19.1875 
z
M 15.203125 31.4375 
C 15.203125 32.84375 15.203125 34.921875 19.09375 38.609375 
C 19.59375 39.015625 23 42 28 42 
C 35.296875 42 41.296875 32.9375 41.296875 21.59375 
C 41.296875 10.25 34.90625 1 27 1 
C 23.40625 1 19.5 2.6875 16.5 7.375 
C 15.203125 9.5625 15.203125 10.15625 15.203125 11.75 
z
" id="CMR17-112"/>
      <path d="M 43.09375 21.1875 
C 43.09375 34 33.796875 44 22.90625 44 
C 12 44 2.703125 34 2.703125 21.1875 
C 2.703125 8.609375 12 -1 22.90625 -1 
C 33.796875 -1 43.09375 8.609375 43.09375 21.1875 
M 22.90625 0.796875 
C 18.203125 0.796875 14.203125 3.59375 11.90625 7.5 
C 9.40625 11.984375 9.09375 17.59375 9.09375 22 
C 9.09375 26.203125 9.296875 31.40625 11.90625 35.90625 
C 13.90625 39.203125 17.796875 42.40625 22.90625 42.40625 
C 27.40625 42.40625 31.203125 39.90625 33.59375 36.40625 
C 36.703125 31.703125 36.703125 25.109375 36.703125 22 
C 36.703125 18.09375 36.5 12.109375 33.796875 7.296875 
C 31 2.703125 26.703125 0.796875 22.90625 0.796875 
" id="CMR17-111"/>
      <path d="M 34.90625 35 
C 33 35 30.203125 35 30.203125 31.515625 
C 30.203125 28.71875 32.5 27.921875 33.796875 27.921875 
C 34.5 27.921875 37.40625 28.234375 37.40625 31.625 
C 37.40625 38.546875 30.59375 43.796875 22.90625 43.796875 
C 12.296875 43.796875 3.296875 34.03125 3.296875 21.296875 
C 3.296875 8.0625 12.703125 -1 22.90625 -1 
C 35.296875 -1 38.40625 10.578125 38.40625 11.6875 
C 38.40625 12.09375 38.296875 12.390625 37.59375 12.390625 
C 36.90625 12.390625 36.796875 12.296875 36.40625 10.984375 
C 33.796875 2.8125 28.09375 0.796875 23.796875 0.796875 
C 17.40625 0.796875 9.703125 6.671875 9.703125 21.390625 
C 9.703125 36.53125 17.09375 42 23 42 
C 26.90625 42 32.703125 40.203125 34.90625 35 
" id="CMR17-99"/>
      <path d="M 41.5 30.203125 
C 41.5 35.296875 40.5 43.59375 28.703125 43.59375 
C 20.5 43.59375 16.5 37 15.296875 33.703125 
L 15.203125 33.703125 
L 15.203125 68.6875 
L 3.296875 67.59375 
L 3.296875 65 
C 9.203125 65 10.09375 64.40625 10.09375 59.640625 
L 10.09375 6.65625 
C 10.09375 2.875 9.703125 2.390625 3.296875 2.390625 
L 3.296875 -0.203125 
C 5.703125 0 10.09375 0 12.703125 0 
C 15.296875 0 19.796875 0 22.203125 -0.203125 
L 22.203125 2.390625 
C 15.796875 2.390625 15.40625 2.78125 15.40625 6.6875 
L 15.40625 25.90625 
C 15.40625 35.109375 21 42 28 42 
C 35.40625 42 36.203125 35.40625 36.203125 30.59375 
L 36.203125 6.6875 
C 36.203125 2.875 35.796875 2.390625 29.40625 2.390625 
L 29.40625 -0.203125 
C 31.796875 0 36.203125 0 38.796875 0 
C 41.40625 0 45.90625 0 48.296875 -0.203125 
L 48.296875 2.390625 
C 41.90625 2.390625 41.5 2.78125 41.5 6.6875 
z
" id="CMR17-104"/>
     </defs>
     <g transform="translate(282.631088 391.029603)scale(0.16 -0.16)">
      <use transform="scale(0.996264)" xlink:href="#CMR17-101"/>
      <use transform="translate(40.48566 0)scale(0.996264)" xlink:href="#CMR17-112"/>
      <use transform="translate(93.983469 0)scale(0.996264)" xlink:href="#CMR17-111"/>
      <use transform="translate(142.276385 0)scale(0.996264)" xlink:href="#CMR17-99"/>
      <use transform="translate(180.159591 0)scale(0.996264)" xlink:href="#CMR17-104"/>
     </g>
    </g>
   </g>
   <g id="matplotlib.axis_2">
    <g id="ytick_1">
     <g id="line2d_1">
      <defs>
       <path d="M 0 0 
L -3.5 0 
" id="meb4481f3f0" style="stroke:#000000;stroke-width:0.8;"/>
      </defs>
      <g>
       <use style="stroke:#000000;stroke-width:0.8;" x="60.116574" xlink:href="#meb4481f3f0" y="370.971856"/>
      </g>
     </g>
     <g id="text_2">
      <!-- $1.00$ -->
      <defs>
       <path d="M 26.59375 63.40625 
C 26.59375 65.5 26.5 65.5 25.09375 65.5 
C 21.203125 61.1875 15.296875 59.796875 9.703125 59.796875 
C 9.40625 59.796875 8.90625 59.796875 8.796875 59.5 
C 8.703125 59.296875 8.703125 59.09375 8.703125 57 
C 11.796875 57 17 57.59375 21 59.984375 
L 21 7.203125 
C 21 3.6875 20.796875 2.5 12.203125 2.5 
L 9.203125 2.5 
L 9.203125 0 
C 14 0 19 0 23.796875 0 
C 28.59375 0 33.59375 0 38.40625 0 
L 38.40625 2.5 
L 35.40625 2.5 
C 26.796875 2.5 26.59375 3.59375 26.59375 7.15625 
z
" id="CMR17-49"/>
       <path d="M 18.40625 4.796875 
C 18.40625 7.6875 16 9.671875 13.59375 9.671875 
C 10.703125 9.671875 8.703125 7.28125 8.703125 4.890625 
C 8.703125 2 11.09375 0 13.5 0 
C 16.40625 0 18.40625 2.390625 18.40625 4.796875 
" id="CMMI12-58"/>
       <path d="M 42 31.640625 
C 42 37.75 41.90625 48.125 37.703125 56.109375 
C 34 63.109375 28.09375 65.59375 22.90625 65.59375 
C 18.09375 65.59375 12 63.40625 8.203125 56.203125 
C 4.203125 48.71875 3.796875 39.4375 3.796875 31.640625 
C 3.796875 25.953125 3.90625 17.28125 7 9.671875 
C 11.296875 -0.609375 19 -2 22.90625 -2 
C 27.5 -2 34.5 -0.109375 38.59375 9.375 
C 41.59375 16.28125 42 24.359375 42 31.640625 
M 22.90625 -0.40625 
C 16.5 -0.40625 12.703125 5.078125 11.296875 12.6875 
C 10.203125 18.5625 10.203125 27.15625 10.203125 32.75 
C 10.203125 40.4375 10.203125 46.828125 11.5 52.921875 
C 13.40625 61.390625 19 64 22.90625 64 
C 27 64 32.296875 61.296875 34.203125 53.125 
C 35.5 47.4375 35.59375 40.734375 35.59375 32.75 
C 35.59375 26.25 35.59375 18.265625 34.40625 12.375 
C 32.296875 1.484375 26.40625 -0.40625 22.90625 -0.40625 
" id="CMR17-48"/>
      </defs>
      <g transform="translate(25.369064 376.50665)scale(0.16 -0.16)">
       <use transform="scale(0.996264)" xlink:href="#CMR17-49"/>
       <use transform="translate(45.690477 0)scale(0.996264)" xlink:href="#CMMI12-58"/>
       <use transform="translate(72.787654 0)scale(0.996264)" xlink:href="#CMR17-48"/>
       <use transform="translate(118.478131 0)scale(0.996264)" xlink:href="#CMR17-48"/>
      </g>
     </g>
    </g>
    <g id="ytick_2">
     <g id="line2d_2">
      <g>
       <use style="stroke:#000000;stroke-width:0.8;" x="60.116574" xlink:href="#meb4481f3f0" y="336.518322"/>
      </g>
     </g>
     <g id="text_3">
      <!-- $1.05$ -->
      <defs>
       <path d="M 11.40625 57.6875 
C 12.40625 57.28125 16.5 56 20.703125 56 
C 30 56 35.09375 61.109375 38 64.0625 
C 38 64.953125 38 65.5 37.40625 65.5 
C 37.296875 65.5 37.09375 65.5 36.296875 65.046875 
C 32.796875 63.40625 28.703125 62.078125 23.703125 62.078125 
C 20.703125 62.078125 16.203125 62.484375 11.296875 64.671875 
C 10.203125 65.171875 10 65.171875 9.90625 65.171875 
C 9.40625 65.171875 9.296875 65.0625 9.296875 63.078125 
L 9.296875 34.421875 
C 9.296875 32.640625 9.296875 32.140625 10.296875 32.140625 
C 10.796875 32.140625 11 32.34375 11.5 33.03125 
C 14.703125 37.515625 19.09375 39.40625 24.09375 39.40625 
C 27.59375 39.40625 35.09375 37.21875 35.09375 20.140625 
C 35.09375 16.953125 35.09375 11.171875 32.09375 6.578125 
C 29.59375 2.484375 25.703125 0.390625 21.40625 0.390625 
C 14.796875 0.390625 8.09375 5 6.296875 12.71875 
C 6.703125 12.609375 7.5 12.421875 7.90625 12.421875 
C 9.203125 12.421875 11.703125 13.125 11.703125 16.21875 
C 11.703125 18.90625 9.796875 20 7.90625 20 
C 5.59375 20 4.09375 18.59375 4.09375 15.796875 
C 4.09375 7.09375 11 -2 21.59375 -2 
C 31.90625 -2 41.703125 6.875 41.703125 19.75 
C 41.703125 31.71875 33.90625 41 24.203125 41 
C 19.09375 41 14.796875 39.109375 11.40625 35.53125 
z
" id="CMR17-53"/>
      </defs>
      <g transform="translate(25.369064 342.053116)scale(0.16 -0.16)">
       <use transform="scale(0.996264)" xlink:href="#CMR17-49"/>
       <use transform="translate(45.690477 0)scale(0.996264)" xlink:href="#CMMI12-58"/>
       <use transform="translate(72.787654 0)scale(0.996264)" xlink:href="#CMR17-48"/>
       <use transform="translate(118.478131 0)scale(0.996264)" xlink:href="#CMR17-53"/>
      </g>
     </g>
    </g>
    <g id="ytick_3">
     <g id="line2d_3">
      <g>
       <use style="stroke:#000000;stroke-width:0.8;" x="60.116574" xlink:href="#meb4481f3f0" y="302.064788"/>
      </g>
     </g>
     <g id="text_4">
      <!-- $1.10$ -->
      <g transform="translate(25.369064 307.599582)scale(0.16 -0.16)">
       <use transform="scale(0.996264)" xlink:href="#CMR17-49"/>
       <use transform="translate(45.690477 0)scale(0.996264)" xlink:href="#CMMI12-58"/>
       <use transform="translate(72.787654 0)scale(0.996264)" xlink:href="#CMR17-49"/>
       <use transform="translate(118.478131 0)scale(0.996264)" xlink:href="#CMR17-48"/>
      </g>
     </g>
    </g>
    <g id="ytick_4">
     <g id="line2d_4">
      <g>
       <use style="stroke:#000000;stroke-width:0.8;" x="60.116574" xlink:href="#meb4481f3f0" y="267.611254"/>
      </g>
     </g>
     <g id="text_5">
      <!-- $1.15$ -->
      <g transform="translate(25.369064 273.146048)scale(0.16 -0.16)">
       <use transform="scale(0.996264)" xlink:href="#CMR17-49"/>
       <use transform="translate(45.690477 0)scale(0.996264)" xlink:href="#CMMI12-58"/>
       <use transform="translate(72.787654 0)scale(0.996264)" xlink:href="#CMR17-49"/>
       <use transform="translate(118.478131 0)scale(0.996264)" xlink:href="#CMR17-53"/>
      </g>
     </g>
    </g>
    <g id="ytick_5">
     <g id="line2d_5">
      <g>
       <use style="stroke:#000000;stroke-width:0.8;" x="60.116574" xlink:href="#meb4481f3f0" y="233.15772"/>
      </g>
     </g>
     <g id="text_6">
      <!-- $1.20$ -->
      <defs>
       <path d="M 41.703125 15.453125 
L 39.90625 15.453125 
C 38.90625 8.375 38.09375 7.171875 37.703125 6.5625 
C 37.203125 5.765625 30 5.765625 28.59375 5.765625 
L 9.40625 5.765625 
C 13 9.671875 20 16.75 28.5 24.953125 
C 34.59375 30.734375 41.703125 37.53125 41.703125 47.421875 
C 41.703125 59.21875 32.296875 66 21.796875 66 
C 10.796875 66 4.09375 56.3125 4.09375 47.34375 
C 4.09375 43.4375 7 42.9375 8.203125 42.9375 
C 9.203125 42.9375 12.203125 43.546875 12.203125 47.03125 
C 12.203125 50.109375 9.59375 51 8.203125 51 
C 7.59375 51 7 50.90625 6.59375 50.703125 
C 8.5 59.21875 14.296875 63.40625 20.40625 63.40625 
C 29.09375 63.40625 34.796875 56.515625 34.796875 47.421875 
C 34.796875 38.734375 29.703125 31.25 24 24.75 
L 4.09375 2.28125 
L 4.09375 0 
L 39.296875 0 
z
" id="CMR17-50"/>
      </defs>
      <g transform="translate(25.369064 238.692514)scale(0.16 -0.16)">
       <use transform="scale(0.996264)" xlink:href="#CMR17-49"/>
       <use transform="translate(45.690477 0)scale(0.996264)" xlink:href="#CMMI12-58"/>
       <use transform="translate(72.787654 0)scale(0.996264)" xlink:href="#CMR17-50"/>
       <use transform="translate(118.478131 0)scale(0.996264)" xlink:href="#CMR17-48"/>
      </g>
     </g>
    </g>
    <g id="ytick_6">
     <g id="line2d_6">
      <g>
       <use style="stroke:#000000;stroke-width:0.8;" x="60.116574" xlink:href="#meb4481f3f0" y="198.704186"/>
      </g>
     </g>
     <g id="text_7">
      <!-- $1.25$ -->
      <g transform="translate(25.369064 204.23898)scale(0.16 -0.16)">
       <use transform="scale(0.996264)" xlink:href="#CMR17-49"/>
       <use transform="translate(45.690477 0)scale(0.996264)" xlink:href="#CMMI12-58"/>
       <use transform="translate(72.787654 0)scale(0.996264)" xlink:href="#CMR17-50"/>
       <use transform="translate(118.478131 0)scale(0.996264)" xlink:href="#CMR17-53"/>
      </g>
     </g>
    </g>
    <g id="ytick_7">
     <g id="line2d_7">
      <g>
       <use style="stroke:#000000;stroke-width:0.8;" x="60.116574" xlink:href="#meb4481f3f0" y="164.250652"/>
      </g>
     </g>
     <g id="text_8">
      <!-- $1.30$ -->
      <defs>
       <path d="M 22.09375 33.703125 
C 31 33.703125 34.90625 25.96875 34.90625 17.03125 
C 34.90625 5 28.5 0.390625 22.703125 0.390625 
C 17.40625 0.390625 8.796875 3.03125 6.09375 10.828125 
C 6.59375 10.625 7.09375 10.625 7.59375 10.625 
C 10 10.625 11.796875 12.21875 11.796875 14.8125 
C 11.796875 17.703125 9.59375 19 7.59375 19 
C 5.90625 19 3.296875 18.203125 3.296875 14.46875 
C 3.296875 5.234375 12.296875 -2 22.90625 -2 
C 34 -2 42.5 6.71875 42.5 16.953125 
C 42.5 26.671875 34.5 33.703125 25 34.796875 
C 32.59375 36.375 39.90625 43.0625 39.90625 52.015625 
C 39.90625 59.6875 32 65.296875 23 65.296875 
C 13.90625 65.296875 5.90625 59.828125 5.90625 52.015625 
C 5.90625 48.59375 8.5 48 9.796875 48 
C 11.90625 48 13.703125 49.296875 13.703125 51.890625 
C 13.703125 54.46875 11.90625 55.765625 9.796875 55.765625 
C 9.40625 55.765625 8.90625 55.765625 8.5 55.578125 
C 11.40625 61.859375 19.296875 63 22.796875 63 
C 26.296875 63 32.90625 61.328125 32.90625 51.875 
C 32.90625 49.109375 32.5 44.1875 29.09375 39.84375 
C 26.09375 36 22.703125 36 19.40625 35.6875 
C 18.90625 35.6875 16.59375 35.453125 16.203125 35.453125 
C 15.5 35.359375 15.09375 35.265625 15.09375 34.5 
C 15.09375 33.796875 15.203125 33.703125 17.203125 33.703125 
z
" id="CMR17-51"/>
      </defs>
      <g transform="translate(25.369064 169.785446)scale(0.16 -0.16)">
       <use transform="scale(0.996264)" xlink:href="#CMR17-49"/>
       <use transform="translate(45.690477 0)scale(0.996264)" xlink:href="#CMMI12-58"/>
       <use transform="translate(72.787654 0)scale(0.996264)" xlink:href="#CMR17-51"/>
       <use transform="translate(118.478131 0)scale(0.996264)" xlink:href="#CMR17-48"/>
      </g>
     </g>
    </g>
    <g id="ytick_8">
     <g id="line2d_8">
      <g>
       <use style="stroke:#000000;stroke-width:0.8;" x="60.116574" xlink:href="#meb4481f3f0" y="129.797118"/>
      </g>
     </g>
     <g id="text_9">
      <!-- $1.35$ -->
      <g transform="translate(25.369064 135.331912)scale(0.16 -0.16)">
       <use transform="scale(0.996264)" xlink:href="#CMR17-49"/>
       <use transform="translate(45.690477 0)scale(0.996264)" xlink:href="#CMMI12-58"/>
       <use transform="translate(72.787654 0)scale(0.996264)" xlink:href="#CMR17-51"/>
       <use transform="translate(118.478131 0)scale(0.996264)" xlink:href="#CMR17-53"/>
      </g>
     </g>
    </g>
    <g id="ytick_9">
     <g id="line2d_9">
      <g>
       <use style="stroke:#000000;stroke-width:0.8;" x="60.116574" xlink:href="#meb4481f3f0" y="95.343584"/>
      </g>
     </g>
     <g id="text_10">
      <!-- $1.40$ -->
      <defs>
       <path d="M 33.59375 64.40625 
C 33.59375 66.5 33.5 66.5 31.703125 66.5 
L 2 19.59375 
L 2 17 
L 27.796875 17 
L 27.796875 7.140625 
C 27.796875 3.5 27.59375 2.5 20.59375 2.5 
L 18.703125 2.5 
L 18.703125 0 
C 21.90625 0 27.296875 0 30.703125 0 
C 34.09375 0 39.5 0 42.703125 0 
L 42.703125 2.5 
L 40.796875 2.5 
C 33.796875 2.5 33.59375 3.5 33.59375 7.140625 
L 33.59375 17 
L 43.796875 17 
L 43.796875 19.59375 
L 33.59375 19.59375 
z
M 28.09375 57.859375 
L 28.09375 19.59375 
L 4 19.59375 
z
" id="CMR17-52"/>
      </defs>
      <g transform="translate(25.369064 100.878378)scale(0.16 -0.16)">
       <use transform="scale(0.996264)" xlink:href="#CMR17-49"/>
       <use transform="translate(45.690477 0)scale(0.996264)" xlink:href="#CMMI12-58"/>
       <use transform="translate(72.787654 0)scale(0.996264)" xlink:href="#CMR17-52"/>
       <use transform="translate(118.478131 0)scale(0.996264)" xlink:href="#CMR17-48"/>
      </g>
     </g>
    </g>
    <g id="text_11">
     <!-- loss -->
     <defs>
      <path d="M 15.296875 68.6875 
L 3.40625 67.59375 
L 3.40625 65 
C 9.296875 65 10.203125 64.40625 10.203125 59.640625 
L 10.203125 6.65625 
C 10.203125 2.875 9.796875 2.390625 3.40625 2.390625 
L 3.40625 -0.203125 
C 5.796875 0 10.203125 0 12.703125 0 
C 15.296875 0 19.703125 0 22.09375 -0.203125 
L 22.09375 2.390625 
C 15.703125 2.390625 15.296875 2.78125 15.296875 6.65625 
z
" id="CMR17-108"/>
      <path d="M 30.90625 42.140625 
C 30.90625 43.953125 30.796875 44.046875 30.203125 44.046875 
C 29.796875 44.046875 29.703125 43.953125 28.5 42.453125 
C 28.203125 42.046875 27.296875 41.03125 27 40.640625 
C 23.796875 44.046875 19.296875 44.046875 17.59375 44.046875 
C 6.5 44.046875 2.5 38.234375 2.5 32.4375 
C 2.5 23.40625 12.703125 21.328125 15.59375 20.703125 
C 21.90625 19.421875 24.09375 19.015625 26.203125 17.203125 
C 27.5 16.015625 29.703125 13.8125 29.703125 10.21875 
C 29.703125 6 27.296875 0.59375 18.09375 0.59375 
C 9.40625 0.59375 6.296875 7.1875 4.5 15.953125 
C 4.203125 17.34375 4.203125 17.453125 3.40625 17.453125 
C 2.59375 17.453125 2.5 17.34375 2.5 15.359375 
L 2.5 0.984375 
C 2.5 -0.796875 2.59375 -0.90625 3.203125 -0.90625 
C 3.703125 -0.90625 3.796875 -0.796875 4.296875 0 
C 4.90625 0.890625 6.40625 3.296875 7 4.3125 
C 9 1.609375 12.5 -1 18.09375 -1 
C 28 -1 33.296875 4.421875 33.296875 12.25 
C 33.296875 17.375 30.59375 20.078125 29.296875 21.28125 
C 26.296875 24.390625 22.796875 25.09375 18.59375 25.890625 
C 13.09375 27.109375 6.09375 28.515625 6.09375 34.640625 
C 6.09375 37.234375 7.5 42.765625 17.59375 42.765625 
C 28.296875 42.765625 28.90625 32.71875 29.09375 29.5 
C 29.203125 29 29.703125 28.890625 30 28.890625 
C 30.90625 28.890625 30.90625 29.203125 30.90625 30.90625 
z
" id="CMR17-115"/>
     </defs>
     <g transform="translate(18.269588 235.994588)rotate(-90)scale(0.16 -0.16)">
      <use transform="scale(0.996264)" xlink:href="#CMR17-108"/>
      <use transform="translate(24.871058 0)scale(0.996264)" xlink:href="#CMR17-111"/>
      <use transform="translate(70.561536 0)scale(0.996264)" xlink:href="#CMR17-115"/>
      <use transform="translate(106.362873 0)scale(0.996264)" xlink:href="#CMR17-115"/>
     </g>
    </g>
   </g>
   <g id="line2d_10">
    <path clip-path="url(#p14f88a7944)" d="M 155.619926 115.491542 
L 156.208054 124.599299 
L 157.38431 136.958054 
L 157.972437 139.247479 
L 158.560565 144.974861 
L 159.148693 145.591924 
L 159.736821 155.618457 
L 160.324949 151.391839 
L 160.913077 154.83415 
L 161.501205 162.352263 
L 162.089333 155.614679 
L 162.677461 162.887593 
L 163.265588 171.844945 
L 163.853716 163.985279 
L 164.441844 180.393796 
L 165.029972 173.414463 
L 165.6181 184.058634 
L 166.206228 171.668254 
L 166.794356 176.05842 
L 167.382484 186.839114 
L 167.970611 187.916428 
L 168.558739 193.789204 
L 169.146867 185.074669 
L 169.734995 190.521613 
L 170.323123 185.880169 
L 171.499379 195.503377 
L 172.087507 184.466149 
L 173.263762 196.287849 
L 173.85189 191.274377 
L 174.440018 213.335526 
L 175.028146 209.091494 
L 175.616274 203.748626 
L 176.204402 186.718856 
L 176.79253 214.226867 
L 177.380658 212.528712 
L 177.968786 214.207727 
L 178.556913 192.112406 
L 179.145041 213.820338 
L 179.733169 187.260511 
L 180.321297 214.557988 
L 180.909425 222.925795 
L 181.497553 213.694494 
L 182.085681 208.465559 
L 182.673809 220.70882 
L 183.261936 202.467925 
L 183.850064 234.111621 
L 184.438192 211.278075 
L 185.02632 209.921391 
L 185.614448 236.893661 
L 186.202576 235.584538 
L 186.790704 214.616145 
L 187.96696 241.799032 
L 188.555087 240.448098 
L 189.143215 223.046135 
L 189.731343 216.351019 
L 190.319471 254.786514 
L 190.907599 267.114794 
L 191.495727 242.209093 
L 192.083855 226.961182 
L 192.671983 247.78221 
L 193.26011 244.889193 
L 193.848238 223.287144 
L 194.436366 227.477537 
L 195.024494 221.487788 
L 195.612622 241.166444 
L 196.20075 237.509245 
L 196.788878 250.30139 
L 197.377006 258.028313 
L 197.965134 242.117421 
L 198.553261 250.211114 
L 199.141389 225.888633 
L 199.729517 230.025797 
L 200.317645 258.098874 
L 200.905773 250.879106 
L 201.493901 229.59175 
L 202.082029 259.394197 
L 202.670157 257.865586 
L 203.258285 261.999135 
L 203.846412 240.887566 
L 204.43454 241.579955 
L 205.022668 282.149706 
L 205.610796 273.1236 
L 206.787052 218.668783 
L 207.37518 245.102356 
L 207.963308 265.499933 
L 208.551435 252.024271 
L 209.139563 257.07175 
L 209.727691 266.753198 
L 210.315819 263.023384 
L 210.903947 284.166332 
L 212.080203 234.019456 
L 212.668331 258.99654 
L 213.256459 224.109074 
L 213.844586 277.590817 
L 214.432714 220.114018 
L 215.020842 287.262243 
L 215.60897 259.830379 
L 216.785226 278.104461 
L 217.373354 247.915282 
L 217.961482 243.329614 
L 218.54961 270.161748 
L 219.137737 271.462246 
L 219.725865 236.856861 
L 220.313993 253.135756 
L 220.902121 285.867445 
L 221.490249 286.504715 
L 222.078377 271.212365 
L 222.666505 264.651471 
L 223.254633 239.548297 
L 223.84276 251.506191 
L 225.019016 287.839631 
L 225.607144 271.40302 
L 226.195272 264.658946 
L 226.7834 260.933076 
L 227.371528 258.070534 
L 227.959656 303.40092 
L 228.547784 260.389203 
L 229.135911 291.851444 
L 229.724039 282.240804 
L 230.312167 252.555576 
L 230.900295 247.885628 
L 231.488423 309.799415 
L 232.076551 273.742388 
L 232.664679 280.278146 
L 233.840934 239.204526 
L 234.429062 271.79887 
L 235.01719 274.352633 
L 235.605318 299.665685 
L 236.193446 301.572731 
L 236.781574 262.596895 
L 237.369702 239.133389 
L 237.95783 226.96455 
L 238.545958 293.510252 
L 239.134085 243.042687 
L 239.722213 262.000532 
L 240.898469 285.013069 
L 242.074725 261.796241 
L 242.662853 271.295987 
L 243.250981 298.778451 
L 243.839109 240.035655 
L 244.427236 268.625908 
L 245.015364 288.715118 
L 245.603492 274.723101 
L 246.19162 271.237172 
L 246.779748 280.532134 
L 247.367876 280.608281 
L 247.956004 253.605864 
L 248.544132 296.190845 
L 249.132259 291.172198 
L 249.720387 292.313501 
L 250.308515 307.307588 
L 250.896643 289.064967 
L 251.484771 289.080164 
L 252.072899 270.455165 
L 252.661027 299.905215 
L 253.249155 269.665518 
L 253.837283 273.722099 
L 254.42541 302.27243 
L 255.013538 275.465844 
L 255.601666 274.57631 
L 256.189794 233.665006 
L 256.777922 250.406534 
L 257.36605 242.948632 
L 257.954178 268.062485 
L 258.542306 298.675115 
L 259.130434 256.715575 
L 259.718561 254.804668 
L 260.306689 248.398944 
L 260.894817 275.897673 
L 261.482945 289.239687 
L 262.071073 276.001831 
L 262.659201 314.335304 
L 263.247329 273.379067 
L 263.835457 282.112249 
L 264.423584 285.180231 
L 265.011712 332.045141 
L 265.59984 268.345881 
L 266.187968 252.339374 
L 266.776096 256.632939 
L 267.364224 253.675358 
L 267.952352 242.593854 
L 268.54048 289.027839 
L 269.128608 309.600381 
L 269.716735 269.832516 
L 270.304863 239.036213 
L 270.892991 285.314207 
L 271.481119 272.715429 
L 272.069247 286.204973 
L 272.657375 296.766918 
L 273.245503 269.907185 
L 273.833631 274.661083 
L 274.421758 276.335663 
L 275.009886 250.650994 
L 275.598014 268.601019 
L 276.186142 263.734337 
L 276.77427 257.527894 
L 277.362398 287.953811 
L 277.950526 252.95389 
L 278.538654 319.163789 
L 279.126782 206.312328 
L 279.714909 241.919865 
L 280.303037 250.302458 
L 280.891165 260.532872 
L 281.479293 259.252088 
L 282.067421 283.297171 
L 282.655549 288.155063 
L 283.243677 280.827194 
L 283.831805 259.466894 
L 284.419933 286.027707 
L 285.00806 275.792529 
L 285.596188 258.059034 
L 286.184316 260.629226 
L 286.772444 276.237583 
L 287.360572 272.997181 
L 287.9487 274.542385 
L 288.536828 244.361913 
L 289.124956 264.545752 
L 289.713083 279.858967 
L 290.301211 281.648712 
L 290.889339 285.588156 
L 291.477467 299.039586 
L 292.065595 269.602021 
L 292.653723 295.996247 
L 293.241851 271.155932 
L 293.829979 264.661 
L 294.418107 283.197613 
L 295.006234 296.508659 
L 295.594362 273.608576 
L 296.18249 244.260137 
L 296.770618 261.300093 
L 297.358746 255.287837 
L 297.946874 274.33834 
L 298.535002 277.089166 
L 299.711258 268.102407 
L 300.299385 293.528734 
L 300.887513 301.257874 
L 301.475641 285.109095 
L 302.063769 289.676198 
L 302.651897 254.177419 
L 303.240025 263.99769 
L 303.828153 243.773601 
L 304.416281 280.570988 
L 305.004408 245.505188 
L 305.592536 249.779614 
L 306.180664 268.779188 
L 306.768792 255.423127 
L 307.35692 274.778959 
L 307.945048 274.611796 
L 308.533176 285.540513 
L 309.121304 293.080641 
L 309.709432 296.112151 
L 310.297559 293.232935 
L 310.885687 269.31649 
L 311.473815 281.286295 
L 312.061943 280.876973 
L 312.650071 246.469637 
L 313.238199 230.926912 
L 313.826327 291.519173 
L 314.414455 299.049443 
L 315.002582 261.081838 
L 315.59071 267.730461 
L 316.178838 293.769744 
L 316.766966 280.751786 
L 317.355094 252.122843 
L 317.943222 281.4896 
L 318.53135 299.818472 
L 319.119478 267.171473 
L 319.707606 282.965475 
L 320.295733 277.916681 
L 320.883861 283.208291 
L 321.471989 272.172952 
L 322.060117 289.292095 
L 322.648245 313.873246 
L 323.236373 279.587072 
L 323.824501 286.53749 
L 324.412629 261.808727 
L 325.000757 284.399374 
L 325.588884 282.470395 
L 326.76514 294.8694 
L 327.353268 284.365366 
L 327.941396 283.761857 
L 328.529524 312.152419 
L 329.117652 266.887338 
L 329.70578 255.219658 
L 330.293907 299.4448 
L 330.882035 268.411267 
L 331.470163 245.705454 
L 332.058291 288.471726 
L 332.646419 280.021365 
L 333.234547 264.575981 
L 333.822675 272.465219 
L 334.410803 304.017818 
L 334.998931 295.663976 
L 335.587058 285.722215 
L 336.175186 255.855778 
L 336.763314 278.816893 
L 337.351442 290.958378 
L 337.93957 315.498458 
L 338.527698 277.994225 
L 339.115826 253.054598 
L 339.703954 267.240227 
L 340.292081 310.860547 
L 340.880209 261.013987 
L 341.468337 261.475388 
L 342.056465 300.184011 
L 342.644593 268.446342 
L 343.232721 302.261834 
L 343.820849 262.810386 
L 344.408977 285.989428 
L 344.997105 300.229683 
L 345.585232 265.79606 
L 346.17336 300.06482 
L 346.761488 265.973408 
L 347.349616 321.268062 
L 347.937744 262.842093 
L 348.525872 253.334954 
L 349.114 302.335845 
L 349.702128 268.399767 
L 350.290256 251.999299 
L 350.878383 276.780717 
L 351.466511 273.012789 
L 352.054639 287.974757 
L 352.642767 264.977417 
L 353.230895 270.06564 
L 353.819023 280.198877 
L 354.407151 265.909419 
L 354.995279 275.366943 
L 355.583406 270.167498 
L 356.171534 262.381432 
L 356.759662 307.113729 
L 357.34779 278.917026 
L 357.935918 286.754103 
L 358.524046 280.525234 
L 359.112174 283.20517 
L 359.700302 284.042706 
L 360.28843 275.370146 
L 360.876557 296.3976 
L 361.464685 299.233691 
L 362.052813 292.635669 
L 362.640941 268.402724 
L 363.229069 293.96352 
L 363.817197 297.530772 
L 364.405325 249.928951 
L 364.993453 311.844134 
L 365.581581 299.128055 
L 366.169708 304.214634 
L 366.757836 300.278147 
L 367.345964 261.924056 
L 367.934092 264.627403 
L 368.52222 277.267746 
L 369.110348 249.883279 
L 369.698476 263.773109 
L 370.286604 301.079623 
L 370.874731 267.624085 
L 371.462859 273.127543 
L 372.050987 290.33154 
L 372.639115 289.265562 
L 373.227243 295.124703 
L 373.815371 235.065555 
L 374.991627 307.864029 
L 375.579755 297.589176 
L 376.167882 324.703637 
L 376.75601 273.158183 
L 377.344138 277.409855 
L 377.932266 247.200961 
L 378.520394 257.895486 
L 379.108522 287.054749 
L 379.69665 290.956899 
L 380.284778 276.934407 
L 380.872905 276.513668 
L 381.461033 264.624035 
L 382.049161 274.518974 
L 382.637289 254.757682 
L 383.225417 285.808301 
L 383.813545 252.37757 
L 384.401673 272.537588 
L 384.989801 302.139933 
L 385.577929 295.796802 
L 386.166056 275.264263 
L 386.754184 280.930941 
L 387.342312 275.960184 
L 387.93044 247.299534 
L 388.518568 280.81594 
L 389.106696 278.042771 
L 389.694824 263.964668 
L 390.282952 270.918537 
L 390.87108 255.493196 
L 391.459207 290.262868 
L 392.047335 279.035641 
L 392.635463 274.81617 
L 393.223591 266.771762 
L 393.811719 286.521062 
L 394.399847 271.114532 
L 394.987975 244.483814 
L 395.576103 289.934129 
L 396.16423 287.572007 
L 396.752358 242.998986 
L 397.340486 259.587645 
L 397.928614 246.493622 
L 398.516742 284.383766 
L 399.10487 302.854911 
L 399.692998 264.319939 
L 400.281126 296.735539 
L 400.869254 283.902158 
L 401.457381 285.06983 
L 402.045509 306.745069 
L 402.633637 294.387299 
L 403.221765 249.389842 
L 403.809893 269.837198 
L 404.398021 300.240033 
L 404.986149 289.712259 
L 405.574277 291.036825 
L 406.162405 272.155127 
L 406.750532 266.812423 
L 407.33866 248.519531 
L 408.514916 314.152042 
L 409.103044 263.875214 
L 409.691172 281.003885 
L 410.2793 275.423375 
L 410.867428 239.128707 
L 411.455555 275.738643 
L 412.043683 302.111347 
L 412.631811 266.999793 
L 413.219939 282.216982 
L 413.808067 287.624579 
L 414.396195 291.082086 
L 414.984323 272.146338 
L 415.572451 299.114337 
L 416.160579 266.841831 
L 416.748706 280.61132 
L 417.924962 283.721196 
L 418.51309 315.072707 
L 419.101218 278.53818 
L 419.689346 289.132572 
L 420.277474 291.486233 
L 420.865602 301.502991 
L 421.453729 272.264624 
L 422.041857 272.047519 
L 422.629985 254.161812 
L 423.218113 260.889129 
L 423.806241 280.496073 
L 424.982497 294.227694 
L 425.570625 260.690505 
L 426.158753 310.541419 
L 426.74688 249.327742 
L 427.335008 289.060367 
L 427.923136 259.747414 
L 428.511264 256.42109 
L 429.099392 265.858407 
L 429.68752 280.257035 
L 430.275648 263.066181 
L 430.863776 278.730231 
L 431.451904 243.845476 
L 432.040031 255.037792 
L 432.628159 249.99138 
L 433.216287 299.809682 
L 433.804415 293.077766 
L 434.392543 309.561034 
L 434.980671 261.734222 
L 435.568799 302.133854 
L 436.745054 276.509396 
L 437.333182 272.901648 
L 437.92131 290.051595 
L 438.509438 273.421946 
L 439.097566 260.581829 
L 439.685694 293.807119 
L 440.273822 261.395873 
L 440.86195 284.747334 
L 441.450078 283.921709 
L 442.038205 277.406076 
L 442.626333 288.256428 
L 443.214461 262.947648 
L 443.802589 276.509889 
L 444.390717 320.226727 
L 445.566973 254.812472 
L 446.155101 268.403381 
L 446.743228 296.520241 
L 447.331356 294.94448 
L 447.919484 275.324064 
L 448.507612 245.851095 
L 449.09574 302.986505 
L 449.09574 302.986505 
" style="fill:none;stroke:#0072b2;stroke-linecap:square;stroke-width:1.5;"/>
   </g>
   <g id="line2d_11">
    <path clip-path="url(#p14f88a7944)" d="M 60.116574 282.736212 
L 544.599092 282.736212 
" style="fill:none;stroke:#000000;stroke-linecap:square;stroke-width:2;"/>
   </g>
   <g id="patch_3">
    <path d="M 60.116574 375.960015 
L 60.116574 71.576669 
" style="fill:none;stroke:#000000;stroke-linecap:square;stroke-linejoin:miter;stroke-width:0.8;"/>
   </g>
   <g id="patch_4">
    <path d="M 60.116574 375.960015 
L 544.599092 375.960015 
" style="fill:none;stroke:#000000;stroke-linecap:square;stroke-linejoin:miter;stroke-width:0.8;"/>
   </g>
   <g id="legend_1">
    <g id="patch_5">
     <path d="M 343.059854 130.616369 
L 533.399092 130.616369 
Q 536.599092 130.616369 536.599092 127.416369 
L 536.599092 82.776669 
Q 536.599092 79.576669 533.399092 79.576669 
L 343.059854 79.576669 
Q 339.859854 79.576669 339.859854 82.776669 
L 339.859854 127.416369 
Q 339.859854 130.616369 343.059854 130.616369 
z
" style="fill:#ffffff;opacity:0.8;stroke:#cccccc;stroke-linejoin:miter;"/>
    </g>
    <g id="line2d_12">
     <path d="M 346.259854 91.576669 
L 378.259854 91.576669 
" style="fill:none;stroke:#0072b2;stroke-linecap:square;stroke-width:1.5;"/>
    </g>
    <g id="line2d_13"/>
    <g id="text_12">
     <!-- binary cross-entropy -->
     <defs>
      <path d="M 15 68.6875 
L 3.09375 67.59375 
L 3.09375 65 
C 9 65 9.90625 64.40625 9.90625 59.640625 
L 9.90625 -0.203125 
L 11.703125 -0.203125 
L 14.59375 6.890625 
C 17.5 2.203125 21.796875 -1 27.59375 -1 
C 37.59375 -1 47.703125 7.8125 47.703125 21.40625 
C 47.703125 34.1875 38.703125 43.59375 28.59375 43.59375 
C 22.40625 43.59375 18 40.296875 15 36.40625 
z
M 15.203125 31.3125 
C 15.203125 33.09375 15.203125 33.40625 16.59375 35.5 
C 20.5 41.515625 26.09375 42 28 42 
C 31 42 41.296875 40.390625 41.296875 21.5 
C 41.296875 1.6875 29.5 0.59375 27.09375 0.59375 
C 24 0.59375 19.5 1.78125 16.296875 7.59375 
C 15.203125 9.5 15.203125 9.703125 15.203125 11.484375 
z
" id="CMR17-98"/>
      <path d="M 15.5 61.078125 
C 15.5 63.265625 13.703125 65.15625 11.40625 65.15625 
C 9.203125 65.15625 7.296875 63.375 7.296875 61.078125 
C 7.296875 58.890625 9.09375 57 11.40625 57 
C 13.59375 57 15.5 58.796875 15.5 61.078125 
M 3.796875 42.28125 
L 3.796875 39.703125 
C 9.40625 39.703125 10.203125 39.09375 10.203125 34.328125 
L 10.203125 6.671875 
C 10.203125 2.875 9.796875 2.390625 3.40625 2.390625 
L 3.40625 -0.203125 
C 5.796875 0 10.09375 0 12.59375 0 
C 15 0 19.09375 0 21.40625 -0.203125 
L 21.40625 2.390625 
C 15.5 2.390625 15.296875 2.984375 15.296875 6.5625 
L 15.296875 43.375 
z
" id="CMR17-105"/>
      <path d="M 41.5 30.203125 
C 41.5 35.296875 40.5 43.59375 28.703125 43.59375 
C 20.796875 43.59375 16.703125 37.5 15.203125 33.5 
L 15.09375 33.5 
L 15.09375 43.59375 
L 3.296875 42.5 
L 3.296875 39.90625 
C 9.203125 39.90625 10.09375 39.296875 10.09375 34.5 
L 10.09375 6.6875 
C 10.09375 2.875 9.703125 2.390625 3.296875 2.390625 
L 3.296875 -0.203125 
C 5.703125 0 10.09375 0 12.703125 0 
C 15.296875 0 19.796875 0 22.203125 -0.203125 
L 22.203125 2.390625 
C 15.796875 2.390625 15.40625 2.78125 15.40625 6.6875 
L 15.40625 25.90625 
C 15.40625 35.109375 21 42 28 42 
C 35.40625 42 36.203125 35.40625 36.203125 30.59375 
L 36.203125 6.6875 
C 36.203125 2.875 35.796875 2.390625 29.40625 2.390625 
L 29.40625 -0.203125 
C 31.796875 0 36.203125 0 38.796875 0 
C 41.40625 0 45.90625 0 48.296875 -0.203125 
L 48.296875 2.390625 
C 41.90625 2.390625 41.5 2.78125 41.5 6.6875 
z
" id="CMR17-110"/>
      <path d="M 36 25.828125 
C 36 32.375 36 35.84375 31.796875 39.734375 
C 28.09375 43 23.796875 44 20.40625 44 
C 12.5 44 6.796875 37.609375 6.796875 30.796875 
C 6.796875 27 9.796875 27 10.40625 27 
C 11.703125 27 14 27.78125 14 30.53125 
C 14 33 12.09375 34.078125 10.40625 34.078125 
C 10 34.078125 9.5 33.96875 9.203125 33.875 
C 11.296875 40.5 16.703125 42.40625 20.203125 42.40625 
C 25.203125 42.40625 30.703125 37.953125 30.703125 29.453125 
L 30.703125 25 
C 24.796875 25 17.703125 24.203125 12.09375 21.203125 
C 5.796875 17.703125 4 12.703125 4 8.90625 
C 4 1.203125 13 -1 18.296875 -1 
C 23.796875 -1 28.90625 2.171875 31.09375 7.984375 
C 31.296875 3.640625 34.09375 -0.28125 38.5 -0.28125 
C 40.59375 -0.28125 45.90625 1.09375 45.90625 8.859375 
L 45.90625 14.375 
L 44.09375 14.375 
L 44.09375 8.78125 
C 44.09375 2.78125 41.40625 2 40.09375 2 
C 36 2 36 7.15625 36 11.53125 
z
M 30.703125 13.59375 
C 30.703125 4.953125 24.5 0.59375 19 0.59375 
C 14 0.59375 10.09375 4.296875 10.09375 8.90625 
C 10.09375 11.890625 11.40625 17.1875 17.203125 20.390625 
C 22 23.09375 27.5 23.5 30.703125 23.5 
z
" id="CMR17-97"/>
      <path d="M 15 23.390625 
C 15 33 19.09375 42 26.59375 42 
C 27.296875 42 28 41.90625 28.703125 41.59375 
C 28.703125 41.59375 26.5 40.890625 26.5 38.3125 
C 26.5 35.90625 28.40625 34.90625 29.90625 34.90625 
C 31.09375 34.90625 33.296875 35.609375 33.296875 38.40625 
C 33.296875 41.609375 30.09375 43.59375 26.703125 43.59375 
C 19.09375 43.59375 15.796875 36.203125 14.796875 32.703125 
L 14.703125 32.703125 
L 14.703125 43.59375 
L 3.09375 42.5 
L 3.09375 39.90625 
C 9 39.90625 9.90625 39.296875 9.90625 34.5 
L 9.90625 6.6875 
C 9.90625 2.875 9.5 2.390625 3.09375 2.390625 
L 3.09375 -0.203125 
C 5.5 0 10.09375 0 12.703125 0 
C 15.59375 0 20.703125 0 23.40625 -0.203125 
L 23.40625 2.390625 
C 16.203125 2.390625 15 2.390625 15 6.875 
z
" id="CMR17-114"/>
      <path d="M 39 34.328125 
C 41.5 40.40625 46 40.40625 47.40625 40.40625 
L 47.40625 43 
C 45.5 43 43 43 41.09375 43 
C 39 43 35.703125 43 33.703125 43.09375 
L 33.703125 40.5 
C 37.5 40.203125 37.59375 37.40625 37.59375 36.609375 
C 37.59375 35.625 37.40625 35.125 36.90625 33.921875 
L 26 7.015625 
L 14.09375 36.03125 
C 13.59375 37.21875 13.59375 37.90625 13.59375 38.015625 
C 13.59375 40.203125 15.90625 40.40625 18.296875 40.40625 
L 18.296875 43.09375 
C 15.90625 43 11.59375 43 9.09375 43 
C 6.40625 43 3.203125 43 1 43.09375 
L 1 40.40625 
C 6.40625 40.40625 7 39.90625 8.296875 36.71875 
L 23.203125 0.234375 
C 18.703125 -11.53125 16.09375 -18.40625 9.796875 -18.40625 
C 8.703125 -18.40625 6.203125 -18.109375 4.40625 -16.3125 
C 6.703125 -16.109375 7.703125 -14.71875 7.703125 -13.015625 
C 7.703125 -11.328125 6.5 -9.828125 4.5 -9.828125 
C 2.296875 -9.828125 1.203125 -11.328125 1.203125 -13.125 
C 1.203125 -17.109375 5.296875 -20 9.796875 -20 
C 15.59375 -20 19.203125 -14.40625 21.203125 -9.4375 
z
" id="CMR17-121"/>
      <path d="M 25.5 19 
L 25.5 23.375 
L 0.40625 23.375 
L 0.40625 19 
z
" id="CMR17-45"/>
      <path d="M 15.09375 40 
L 29.09375 40 
L 29.09375 42.578125 
L 15.09375 42.578125 
L 15.09375 61 
L 13.296875 61 
C 13.09375 50.703125 9.59375 41.6875 1.09375 41.6875 
L 1.09375 40 
L 9.796875 40 
L 9.796875 12.046875 
C 9.796875 10.15625 9.796875 -1 21.40625 -1 
C 27.296875 -1 30.703125 4.78125 30.703125 12.140625 
L 30.703125 17.8125 
L 28.90625 17.8125 
L 28.90625 12.234375 
C 28.90625 5.375 26.203125 0.796875 22 0.796875 
C 19.09375 0.796875 15.09375 2.78125 15.09375 11.84375 
z
" id="CMR17-116"/>
     </defs>
     <g transform="translate(391.059854 97.176669)scale(0.16 -0.16)">
      <use transform="scale(0.996264)" xlink:href="#CMR17-98"/>
      <use transform="translate(50.89537 0)scale(0.996264)" xlink:href="#CMR17-105"/>
      <use transform="translate(75.766428 0)scale(0.996264)" xlink:href="#CMR17-110"/>
      <use transform="translate(126.661798 0)scale(0.996264)" xlink:href="#CMR17-97"/>
      <use transform="translate(172.352275 0)scale(0.996264)" xlink:href="#CMR17-114"/>
      <use transform="translate(207.633043 0)scale(0.996264)" xlink:href="#CMR17-121"/>
      <use transform="translate(286.001925 0)scale(0.996264)" xlink:href="#CMR17-99"/>
      <use transform="translate(326.487586 0)scale(0.996264)" xlink:href="#CMR17-114"/>
      <use transform="translate(361.768353 0)scale(0.996264)" xlink:href="#CMR17-111"/>
      <use transform="translate(407.458831 0)scale(0.996264)" xlink:href="#CMR17-115"/>
      <use transform="translate(443.260168 0)scale(0.996264)" xlink:href="#CMR17-115"/>
      <use transform="translate(479.061506 0)scale(0.996264)" xlink:href="#CMR17-45"/>
      <use transform="translate(509.137472 0)scale(0.996264)" xlink:href="#CMR17-101"/>
      <use transform="translate(549.623133 0)scale(0.996264)" xlink:href="#CMR17-110"/>
      <use transform="translate(597.916048 0)scale(0.996264)" xlink:href="#CMR17-116"/>
      <use transform="translate(633.196816 0)scale(0.996264)" xlink:href="#CMR17-114"/>
      <use transform="translate(668.477584 0)scale(0.996264)" xlink:href="#CMR17-111"/>
      <use transform="translate(714.168061 0)scale(0.996264)" xlink:href="#CMR17-112"/>
      <use transform="translate(762.460977 0)scale(0.996264)" xlink:href="#CMR17-121"/>
     </g>
    </g>
    <g id="line2d_14">
     <path d="M 346.259854 115.516893 
L 378.259854 115.516893 
" style="fill:none;stroke:#000000;stroke-linecap:square;stroke-width:2;"/>
    </g>
    <g id="line2d_15"/>
    <g id="text_13">
     <!-- $- 2 \cdot \mathcal{D}_{\mathrm{JS}}[p || q ] + \log{4}$ -->
     <defs>
      <path d="M 65.90625 23 
C 67.59375 23 69.40625 23 69.40625 25 
C 69.40625 27 67.59375 27 65.90625 27 
L 11.796875 27 
C 10.09375 27 8.296875 27 8.296875 25 
C 8.296875 23 10.09375 23 11.796875 23 
z
" id="CMSY10-0"/>
      <path d="M 19.203125 25.296875 
C 19.203125 28.203125 16.796875 30.59375 13.90625 30.59375 
C 11 30.59375 8.59375 28.203125 8.59375 25.296875 
C 8.59375 22.390625 11 20 13.90625 20 
C 16.796875 20 19.203125 22.390625 19.203125 25.296875 
" id="CMSY10-1"/>
      <path d="M 20.40625 0 
C 43.703125 0 76.59375 17.84375 76.59375 45.234375 
C 76.59375 54.15625 72.40625 59.765625 67.5 62.890625 
C 58.90625 68.5 49.703125 68.5 40.203125 68.5 
C 31.59375 68.5 25.703125 68.5 17.296875 64.890625 
C 4 58.984375 2.09375 50.65625 2.09375 49.859375 
C 2.09375 49.25 2.5 49.0625 3.09375 49.0625 
C 4.703125 49.0625 7 50.484375 7.796875 51 
C 9.90625 52.4375 10.203125 53.046875 10.796875 55.015625 
C 12.203125 59.109375 15 62.703125 27.59375 62.703125 
C 26 41.84375 20.90625 22.765625 13.90625 5.296875 
C 10.203125 4 7.796875 1.703125 7.796875 0.703125 
C 7.796875 0.09375 7.90625 0 10.09375 0 
z
M 20.90625 5.5 
C 32.296875 33.5 34.40625 50.953125 35.796875 63 
C 42.5 63 68.09375 63 68.09375 40.921875 
C 68.09375 21.265625 50.5 5.5 26.296875 5.5 
z
" id="CMSY10-68"/>
      <path d="M 29.5 14.21875 
C 29.5 5.0625 24.5 -0.40625 19.40625 -0.40625 
C 16.796875 -0.40625 10.796875 0.765625 8.203125 6.734375 
C 8.59375 6.640625 9.09375 6.53125 9.5 6.53125 
C 11.40625 6.53125 13.796875 7.828125 13.796875 10.8125 
C 13.796875 13.203125 12.09375 15 9.59375 15 
C 7.203125 15 5.296875 13.515625 5.296875 10.65625 
C 5.296875 4.03125 11.40625 -2 19.59375 -2 
C 27.40625 -2 34.59375 3.578125 35.796875 11.9375 
C 35.90625 12.640625 35.90625 12.828125 35.90625 16.21875 
L 35.90625 58.046875 
C 35.90625 59.734375 35.90625 62.515625 36.09375 63.109375 
C 36.5 65 38.796875 65 41.90625 65 
L 41.90625 67.5 
C 41.703125 67.5 34.59375 67.5 32.09375 67.5 
C 27.90625 67.5 23.296875 67.5 19.09375 67.5 
L 19.09375 65 
L 21.5 65 
C 29.296875 65 29.5 63.90625 29.5 60.328125 
z
" id="CMR17-74"/>
      <path d="M 43.796875 67.03125 
C 43.796875 68.8125 43.703125 68.921875 43.09375 68.921875 
C 42.5 68.921875 42.296875 68.515625 41.90625 67.625 
L 38.90625 61.046875 
C 35.09375 66.515625 29.296875 69 23 69 
C 12.796875 69 4.59375 60.953125 4.59375 50.828125 
C 4.59375 47.75 5.296875 43.375 8.703125 39.21875 
C 12.40625 34.65625 15.90625 33.859375 23.90625 31.765625 
C 26.90625 30.96875 31.90625 29.671875 32.90625 29.28125 
C 38.59375 26.90625 41.59375 20.953125 41.59375 15.390625 
C 41.59375 8.234375 36.5 0.59375 27.796875 0.59375 
C 17.09375 0.59375 7.09375 6.546875 6.40625 20.484375 
C 6.296875 22.078125 6.203125 22.171875 5.5 22.171875 
C 4.703125 22.171875 4.59375 22.078125 4.59375 20.078125 
L 4.59375 -0.015625 
C 4.59375 -1.796875 4.703125 -1.90625 5.296875 -1.90625 
C 6 -1.90625 6.203125 -1.40625 7.59375 1.6875 
C 7.703125 1.984375 7.703125 2.1875 9.59375 5.953125 
C 14.59375 -0.609375 23 -2 27.796875 -2 
C 38.703125 -2 46.40625 7.046875 46.40625 17.5625 
C 46.40625 22.71875 44.5 26.6875 43.40625 28.484375 
C 39.203125 34.84375 34.703125 36.03125 29.90625 37.21875 
C 29.203125 37.53125 29 37.53125 23.40625 38.90625 
C 18 40.296875 15.703125 41 13.203125 43.6875 
C 10.40625 46.75 9.40625 49.9375 9.40625 53.109375 
C 9.40625 59.5625 14.59375 66.609375 23.09375 66.609375 
C 33.703125 66.609375 40.296875 59.15625 41.796875 46.765625 
C 42.09375 44.96875 42.203125 44.875 42.90625 44.875 
C 43.796875 44.875 43.796875 45.171875 43.796875 46.859375 
z
" id="CMR17-83"/>
      <path d="M 23.5 -25 
L 23.5 -21.515625 
L 14.09375 -21.515625 
L 14.09375 71 
L 23.5 71 
L 23.5 74.484375 
L 10.59375 74.484375 
L 10.59375 -25 
z
" id="CMR17-91"/>
      <path d="M 4.296875 -12.328125 
C 3.59375 -15.3125 3.203125 -16.109375 -0.90625 -16.109375 
C -2.09375 -16.109375 -3.09375 -16.109375 -3.09375 -18 
C -3.09375 -18.203125 -3 -19 -1.90625 -19 
C -0.59375 -19 0.796875 -19 2.09375 -19 
L 6.40625 -19 
C 8.5 -19 13.59375 -19 15.703125 -19 
C 16.296875 -19 17.5 -19 17.5 -17.203125 
C 17.5 -16.109375 16.796875 -16.109375 15.09375 -16.109375 
C 10.5 -16.109375 10.203125 -15.421875 10.203125 -14.640625 
C 10.203125 -13.453125 14.703125 3.421875 15.296875 5.6875 
C 16.40625 2.890625 19.09375 -1 24.296875 -1 
C 35.59375 -1 47.796875 13.671875 47.796875 28.34375 
C 47.796875 37.515625 42.59375 44 35.09375 44 
C 28.703125 44 23.296875 37.8125 22.203125 36.421875 
C 21.40625 41.40625 17.5 44 13.5 44 
C 10.59375 44 8.296875 42.609375 6.40625 38.8125 
C 4.59375 35.21875 3.203125 29.140625 3.203125 28.734375 
C 3.203125 28.34375 3.59375 27.84375 4.296875 27.84375 
C 5.09375 27.84375 5.203125 27.9375 5.796875 30.234375 
C 7.296875 36.125 9.203125 42.015625 13.203125 42.015625 
C 15.5 42.015625 16.296875 40.421875 16.296875 37.453125 
C 16.296875 35.078125 16 34.078125 15.59375 32.296875 
z
M 21.59375 31.140625 
C 22.296875 33.921875 25.09375 36.828125 26.703125 38.21875 
C 27.796875 39.21875 31.09375 42.015625 34.90625 42.015625 
C 39.296875 42.015625 41.296875 37.625 41.296875 32.4375 
C 41.296875 27.640625 38.5 16.359375 36 11.171875 
C 33.5 5.78125 28.90625 1 24.296875 1 
C 17.5 1 16.40625 9.578125 16.40625 9.984375 
C 16.40625 10.28125 16.59375 11.078125 16.703125 11.578125 
z
" id="CMMI12-112"/>
      <path d="M 15.90625 71.40625 
C 15.90625 73.203125 15.90625 75 13.90625 75 
C 11.90625 75 11.90625 73.203125 11.90625 71.40625 
L 11.90625 -21.40625 
C 11.90625 -23.203125 11.90625 -25 13.90625 -25 
C 15.90625 -25 15.90625 -23.203125 15.90625 -21.40625 
z
" id="CMSY10-106"/>
      <path d="M 44.09375 43.109375 
C 44.09375 43.59375 43.703125 44 43.203125 44 
C 42.40625 44 38.5 40.390625 36.59375 36.90625 
C 34.796875 41.34375 31.703125 44 27.40625 44 
C 16.09375 44 3.90625 29.4375 3.90625 14.671875 
C 3.90625 4.796875 9.703125 -1 16.5 -1 
C 21.796875 -1 26.203125 3.015625 28.296875 5.296875 
L 28.40625 5.203125 
L 24.59375 -9.609375 
L 23.703125 -13.15625 
C 22.796875 -16.109375 21.296875 -16.109375 16.59375 -16.109375 
C 15.5 -16.109375 14.5 -16.109375 14.5 -18 
C 14.5 -18.703125 15.09375 -19 15.796875 -19 
C 17.203125 -19 19 -19 20.40625 -19 
L 30.59375 -19 
C 32.09375 -19 33.796875 -19 35.296875 -19 
C 35.90625 -19 37.09375 -19 37.09375 -17.109375 
C 37.09375 -16.109375 36.296875 -16.109375 34.796875 -16.109375 
C 30.09375 -16.109375 29.796875 -15.40625 29.796875 -14.609375 
C 29.796875 -14.125 29.90625 -14.03125 30.203125 -12.734375 
z
M 30 11.90625 
C 29.5 10.1875 29.5 10 28.09375 8.09375 
C 25.90625 5.296875 21.5 1 16.796875 1 
C 12.703125 1 10.40625 4.703125 10.40625 10.59375 
C 10.40625 16.09375 13.5 27.296875 15.40625 31.5 
C 18.796875 38.5 23.5 42.109375 27.40625 42.109375 
C 34 42.109375 35.296875 33.90625 35.296875 33.109375 
C 35.296875 33.015625 35 31.6875 34.90625 31.5 
z
" id="CMMI12-113"/>
      <path d="M 14.296875 74.484375 
L 1.40625 74.484375 
L 1.40625 71 
L 10.796875 71 
L 10.796875 -21.515625 
L 1.40625 -21.515625 
L 1.40625 -25 
L 14.296875 -25 
z
" id="CMR17-93"/>
      <path d="M 37.703125 23 
L 64.203125 23 
C 65.59375 23 67.296875 23 67.296875 24.6875 
C 67.296875 26.484375 65.703125 26.484375 64.203125 26.484375 
L 37.703125 26.484375 
L 37.703125 52.90625 
C 37.703125 54.296875 37.703125 56 36 56 
C 34.203125 56 34.203125 54.40625 34.203125 52.90625 
L 34.203125 26.484375 
L 7.703125 26.484375 
C 6.296875 26.484375 4.59375 26.484375 4.59375 24.796875 
C 4.59375 23 6.203125 23 7.703125 23 
L 34.203125 23 
L 34.203125 -3.40625 
C 34.203125 -4.796875 34.203125 -6.5 35.90625 -6.5 
C 37.703125 -6.5 37.703125 -4.90625 37.703125 -3.40625 
z
" id="CMR17-43"/>
      <path d="M 11.09375 18.1875 
C 13 16.6875 16.296875 15 20.296875 15 
C 28.203125 15 35 21.203125 35 29.5 
C 35 32.09375 34.203125 36.09375 31.203125 39.203125 
C 34 42.0625 38.09375 43 40.40625 43 
C 40.796875 43 41.40625 43 41.90625 42.71875 
C 41.5 42.625 40.59375 42.234375 40.59375 40.703125 
C 40.59375 39.484375 41.5 38.609375 42.796875 38.609375 
C 44.296875 38.609375 45.09375 39.578125 45.09375 40.84375 
C 45.09375 42.671875 43.59375 44.59375 40.40625 44.59375 
C 36.40625 44.59375 32.90625 42.78125 30.09375 40.3125 
C 27.09375 43.015625 23.5 44 20.296875 44 
C 12.40625 44 5.59375 37.796875 5.59375 29.5 
C 5.59375 23.78125 8.90625 20.1875 9.90625 19.1875 
C 6.90625 15.6875 6.90625 11.609375 6.90625 11.109375 
C 6.90625 8.515625 7.90625 4.71875 11.296875 2.625 
C 6.09375 1.328125 2 -2.640625 2 -7.59375 
C 2 -14.734375 11.5 -20 22.90625 -20 
C 33.90625 -20 43.796875 -14.9375 43.796875 -7.484375 
C 43.796875 6 29 6 21.296875 6 
C 19 6 14.90625 6 14.40625 6.109375 
C 11.296875 6.609375 9.203125 9.40625 9.203125 12.90625 
C 9.203125 13.796875 9.203125 16 11.09375 18.1875 
M 20.296875 16.6875 
C 11.5 16.6875 11.5 27.5 11.5 29.515625 
C 11.5 31.5 11.5 42.3125 20.296875 42.3125 
C 29.09375 42.3125 29.09375 31.5 29.09375 29.515625 
C 29.09375 27.5 29.09375 16.6875 20.296875 16.6875 
M 22.90625 -18.296875 
C 12.90625 -18.296875 6 -13.046875 6 -7.59375 
C 6 -4.515625 7.703125 -1.640625 9.90625 -0.0625 
C 12.40625 1.625 13.40625 1.625 20.203125 1.625 
C 28.40625 1.625 39.796875 1.625 39.796875 -7.59375 
C 39.796875 -13.046875 32.90625 -18.296875 22.90625 -18.296875 
" id="CMR17-103"/>
     </defs>
     <g transform="translate(391.059854 121.116893)scale(0.16 -0.16)">
      <use transform="translate(0 14.943915)scale(0.996264)" xlink:href="#CMSY10-0"/>
      <use transform="translate(77.487468 14.943915)scale(0.996264)" xlink:href="#CMR17-50"/>
      <use transform="translate(145.317152 14.943915)scale(0.996264)" xlink:href="#CMSY10-1"/>
      <use transform="translate(195.130443 14.943915)scale(0.996264)" xlink:href="#CMSY10-68"/>
      <use transform="translate(271.981534 0)scale(0.697382)" xlink:href="#CMR17-74"/>
      <use transform="translate(304.861636 0)scale(0.697382)" xlink:href="#CMR17-83"/>
      <use transform="translate(340.986377 14.943915)scale(0.996264)" xlink:href="#CMR17-91"/>
      <use transform="translate(365.857435 14.943915)scale(0.996264)" xlink:href="#CMMI12-112"/>
      <use transform="translate(414.816949 14.943915)scale(0.996264)" xlink:href="#CMSY10-106"/>
      <use transform="translate(442.491034 14.943915)scale(0.996264)" xlink:href="#CMSY10-106"/>
      <use transform="translate(470.165119 14.943915)scale(0.996264)" xlink:href="#CMMI12-113"/>
      <use transform="translate(516.991443 14.943915)scale(0.996264)" xlink:href="#CMR17-93"/>
      <use transform="translate(564.001708 14.943915)scale(0.996264)" xlink:href="#CMR17-43"/>
      <use transform="translate(657.855703 14.943915)scale(0.996264)" xlink:href="#CMR17-108"/>
      <use transform="translate(682.726762 14.943915)scale(0.996264)" xlink:href="#CMR17-111"/>
      <use transform="translate(728.417239 14.943915)scale(0.996264)" xlink:href="#CMR17-103"/>
      <use transform="translate(792.013288 14.943915)scale(0.996264)" xlink:href="#CMR17-52"/>
     </g>
    </g>
   </g>
  </g>
  <g id="axes_2">
   <g id="patch_6">
    <path d="M 60.116574 71.576669 
L 544.599092 71.576669 
L 544.599092 10.7 
L 60.116574 10.7 
z
" style="fill:#ffffff;"/>
   </g>
   <g id="matplotlib.axis_3"/>
   <g id="matplotlib.axis_4"/>
   <g id="patch_7">
    <path d="M 60.116574 71.576669 
L 544.599092 71.576669 
" style="fill:none;stroke:#000000;stroke-linecap:square;stroke-linejoin:miter;stroke-width:0.8;"/>
   </g>
  </g>
  <g id="axes_3">
   <g id="patch_8">
    <path d="M 544.599092 375.960015 
L 641.495596 375.960015 
L 641.495596 71.576669 
L 544.599092 71.576669 
z
" style="fill:#ffffff;"/>
   </g>
   <g id="patch_9">
    <path clip-path="url(#p1c7836fb2d)" d="M 544.599092 332.045141 
L 547.198596 332.045141 
L 547.198596 323.382997 
L 544.599092 323.382997 
z
" style="fill:#0072b2;opacity:0.4;"/>
   </g>
   <g id="patch_10">
    <path clip-path="url(#p1c7836fb2d)" d="M 544.599092 323.382997 
L 551.097852 323.382997 
L 551.097852 314.720853 
L 544.599092 314.720853 
z
" style="fill:#0072b2;opacity:0.4;"/>
   </g>
   <g id="patch_11">
    <path clip-path="url(#p1c7836fb2d)" d="M 544.599092 314.720853 
L 562.795619 314.720853 
L 562.795619 306.058709 
L 544.599092 306.058709 
z
" style="fill:#0072b2;opacity:0.4;"/>
   </g>
   <g id="patch_12">
    <path clip-path="url(#p1c7836fb2d)" d="M 544.599092 306.058709 
L 588.790657 306.058709 
L 588.790657 297.396565 
L 544.599092 297.396565 
z
" style="fill:#0072b2;opacity:0.4;"/>
   </g>
   <g id="patch_13">
    <path clip-path="url(#p1c7836fb2d)" d="M 544.599092 297.396565 
L 608.286935 297.396565 
L 608.286935 288.734422 
L 544.599092 288.734422 
z
" style="fill:#0072b2;opacity:0.4;"/>
   </g>
   <g id="patch_14">
    <path clip-path="url(#p1c7836fb2d)" d="M 544.599092 288.734422 
L 635.581725 288.734422 
L 635.581725 280.072278 
L 544.599092 280.072278 
z
" style="fill:#0072b2;opacity:0.4;"/>
   </g>
   <g id="patch_15">
    <path clip-path="url(#p1c7836fb2d)" d="M 544.599092 280.072278 
L 636.881477 280.072278 
L 636.881477 271.410134 
L 544.599092 271.410134 
z
" style="fill:#0072b2;opacity:0.4;"/>
   </g>
   <g id="patch_16">
    <path clip-path="url(#p1c7836fb2d)" d="M 544.599092 271.410134 
L 627.783213 271.410134 
L 627.783213 262.74799 
L 544.599092 262.74799 
z
" style="fill:#0072b2;opacity:0.4;"/>
   </g>
   <g id="patch_17">
    <path clip-path="url(#p1c7836fb2d)" d="M 544.599092 262.74799 
L 612.186191 262.74799 
L 612.186191 254.085846 
L 544.599092 254.085846 
z
" style="fill:#0072b2;opacity:0.4;"/>
   </g>
   <g id="patch_18">
    <path clip-path="url(#p1c7836fb2d)" d="M 544.599092 254.085846 
L 593.989664 254.085846 
L 593.989664 245.423702 
L 544.599092 245.423702 
z
" style="fill:#0072b2;opacity:0.4;"/>
   </g>
   <g id="patch_19">
    <path clip-path="url(#p1c7836fb2d)" d="M 544.599092 245.423702 
L 582.291897 245.423702 
L 582.291897 236.761558 
L 544.599092 236.761558 
z
" style="fill:#0072b2;opacity:0.4;"/>
   </g>
   <g id="patch_20">
    <path clip-path="url(#p1c7836fb2d)" d="M 544.599092 236.761558 
L 554.997107 236.761558 
L 554.997107 228.099414 
L 544.599092 228.099414 
z
" style="fill:#0072b2;opacity:0.4;"/>
   </g>
   <g id="patch_21">
    <path clip-path="url(#p1c7836fb2d)" d="M 544.599092 228.099414 
L 560.196115 228.099414 
L 560.196115 219.43727 
L 544.599092 219.43727 
z
" style="fill:#0072b2;opacity:0.4;"/>
   </g>
   <g id="patch_22">
    <path clip-path="url(#p1c7836fb2d)" d="M 544.599092 219.43727 
L 558.896363 219.43727 
L 558.896363 210.775126 
L 544.599092 210.775126 
z
" style="fill:#0072b2;opacity:0.4;"/>
   </g>
   <g id="patch_23">
    <path clip-path="url(#p1c7836fb2d)" d="M 544.599092 210.775126 
L 552.397603 210.775126 
L 552.397603 202.112982 
L 544.599092 202.112982 
z
" style="fill:#0072b2;opacity:0.4;"/>
   </g>
   <g id="patch_24">
    <path clip-path="url(#p1c7836fb2d)" d="M 544.599092 202.112982 
L 548.498348 202.112982 
L 548.498348 193.450838 
L 544.599092 193.450838 
z
" style="fill:#0072b2;opacity:0.4;"/>
   </g>
   <g id="patch_25">
    <path clip-path="url(#p1c7836fb2d)" d="M 544.599092 193.450838 
L 558.896363 193.450838 
L 558.896363 184.788694 
L 544.599092 184.788694 
z
" style="fill:#0072b2;opacity:0.4;"/>
   </g>
   <g id="patch_26">
    <path clip-path="url(#p1c7836fb2d)" d="M 544.599092 184.788694 
L 548.498348 184.788694 
L 548.498348 176.12655 
L 544.599092 176.12655 
z
" style="fill:#0072b2;opacity:0.4;"/>
   </g>
   <g id="patch_27">
    <path clip-path="url(#p1c7836fb2d)" d="M 544.599092 176.12655 
L 549.7981 176.12655 
L 549.7981 167.464406 
L 544.599092 167.464406 
z
" style="fill:#0072b2;opacity:0.4;"/>
   </g>
   <g id="patch_28">
    <path clip-path="url(#p1c7836fb2d)" d="M 544.599092 167.464406 
L 548.498348 167.464406 
L 548.498348 158.802262 
L 544.599092 158.802262 
z
" style="fill:#0072b2;opacity:0.4;"/>
   </g>
   <g id="patch_29">
    <path clip-path="url(#p1c7836fb2d)" d="M 544.599092 158.802262 
L 549.7981 158.802262 
L 549.7981 150.140118 
L 544.599092 150.140118 
z
" style="fill:#0072b2;opacity:0.4;"/>
   </g>
   <g id="patch_30">
    <path clip-path="url(#p1c7836fb2d)" d="M 544.599092 150.140118 
L 547.198596 150.140118 
L 547.198596 141.477974 
L 544.599092 141.477974 
z
" style="fill:#0072b2;opacity:0.4;"/>
   </g>
   <g id="patch_31">
    <path clip-path="url(#p1c7836fb2d)" d="M 544.599092 141.477974 
L 547.198596 141.477974 
L 547.198596 132.81583 
L 544.599092 132.81583 
z
" style="fill:#0072b2;opacity:0.4;"/>
   </g>
   <g id="patch_32">
    <path clip-path="url(#p1c7836fb2d)" d="M 544.599092 132.81583 
L 547.198596 132.81583 
L 547.198596 124.153686 
L 544.599092 124.153686 
z
" style="fill:#0072b2;opacity:0.4;"/>
   </g>
   <g id="patch_33">
    <path clip-path="url(#p1c7836fb2d)" d="M 544.599092 124.153686 
L 545.898844 124.153686 
L 545.898844 115.491542 
L 544.599092 115.491542 
z
" style="fill:#0072b2;opacity:0.4;"/>
   </g>
   <g id="matplotlib.axis_5">
    <g id="xtick_1"/>
    <g id="xtick_2"/>
   </g>
   <g id="matplotlib.axis_6">
    <g id="ytick_10">
     <g id="line2d_16">
      <g>
       <use style="stroke:#000000;stroke-width:0.8;" x="544.599092" xlink:href="#meb4481f3f0" y="370.971856"/>
      </g>
     </g>
    </g>
    <g id="ytick_11">
     <g id="line2d_17">
      <g>
       <use style="stroke:#000000;stroke-width:0.8;" x="544.599092" xlink:href="#meb4481f3f0" y="336.518322"/>
      </g>
     </g>
    </g>
    <g id="ytick_12">
     <g id="line2d_18">
      <g>
       <use style="stroke:#000000;stroke-width:0.8;" x="544.599092" xlink:href="#meb4481f3f0" y="302.064788"/>
      </g>
     </g>
    </g>
    <g id="ytick_13">
     <g id="line2d_19">
      <g>
       <use style="stroke:#000000;stroke-width:0.8;" x="544.599092" xlink:href="#meb4481f3f0" y="267.611254"/>
      </g>
     </g>
    </g>
    <g id="ytick_14">
     <g id="line2d_20">
      <g>
       <use style="stroke:#000000;stroke-width:0.8;" x="544.599092" xlink:href="#meb4481f3f0" y="233.15772"/>
      </g>
     </g>
    </g>
    <g id="ytick_15">
     <g id="line2d_21">
      <g>
       <use style="stroke:#000000;stroke-width:0.8;" x="544.599092" xlink:href="#meb4481f3f0" y="198.704186"/>
      </g>
     </g>
    </g>
    <g id="ytick_16">
     <g id="line2d_22">
      <g>
       <use style="stroke:#000000;stroke-width:0.8;" x="544.599092" xlink:href="#meb4481f3f0" y="164.250652"/>
      </g>
     </g>
    </g>
    <g id="ytick_17">
     <g id="line2d_23">
      <g>
       <use style="stroke:#000000;stroke-width:0.8;" x="544.599092" xlink:href="#meb4481f3f0" y="129.797118"/>
      </g>
     </g>
    </g>
    <g id="ytick_18">
     <g id="line2d_24">
      <g>
       <use style="stroke:#000000;stroke-width:0.8;" x="544.599092" xlink:href="#meb4481f3f0" y="95.343584"/>
      </g>
     </g>
    </g>
   </g>
   <g id="line2d_25">
    <path clip-path="url(#p1c7836fb2d)" d="M 544.60481 362.124408 
L 544.61223 359.329336 
L 544.627323 356.534264 
L 544.655988 353.739192 
L 544.707048 350.94412 
L 544.79282 348.149048 
L 544.929629 345.353976 
L 545.138432 342.558904 
L 545.445792 339.763832 
L 545.885256 336.96876 
L 546.498836 334.173688 
L 547.338085 331.378616 
L 548.464399 328.583543 
L 549.9486 325.788471 
L 551.869954 322.993399 
L 554.313986 320.198327 
L 557.366982 317.403255 
L 561.104507 314.608183 
L 565.573229 311.813111 
L 570.769824 309.018039 
L 576.624975 306.222967 
L 583.000678 303.427895 
L 589.703634 300.632823 
L 596.509583 297.837751 
L 603.18857 295.042679 
L 609.522509 292.247607 
L 615.31235 289.452535 
L 620.377721 286.657463 
L 624.554333 283.862391 
L 627.69411 281.067319 
L 629.671803 278.272247 
L 630.399724 275.477175 
L 629.848156 272.682103 
L 628.063861 269.887031 
L 625.176389 267.091959 
L 621.384951 264.296886 
L 616.926571 261.501814 
L 612.034845 258.706742 
L 606.903091 255.91167 
L 601.664336 253.116598 
L 596.3945 250.321526 
L 591.136755 247.526454 
L 585.936741 244.731382 
L 580.873269 241.93631 
L 576.069862 239.141238 
L 571.680245 236.346166 
L 567.852586 233.551094 
L 564.687334 230.756022 
L 562.206269 227.96095 
L 560.344791 225.165878 
L 558.969445 222.370806 
L 557.913631 219.575734 
L 557.019962 216.780662 
L 556.177397 213.98559 
L 555.343213 211.190518 
L 554.54323 208.395446 
L 553.84921 205.600374 
L 553.339823 202.805302 
L 553.058872 200.010229 
L 552.987354 197.215157 
L 553.04156 194.420085 
L 553.098659 191.625013 
L 553.038894 188.829941 
L 552.786075 186.034869 
L 552.329522 183.239797 
L 551.720165 180.444725 
L 551.045686 177.649653 
L 550.397849 174.854581 
L 549.845678 172.059509 
L 549.42234 169.264437 
L 549.125955 166.469365 
L 548.929535 163.674293 
L 548.794137 160.879221 
L 548.680855 158.084149 
L 548.559284 155.289077 
L 548.411578 152.494005 
L 548.232276 149.698933 
L 548.025068 146.903861 
L 547.798324 144.108789 
L 547.561243 141.313717 
L 547.321624 138.518645 
L 547.085175 135.723572 
L 546.855603 132.9285 
L 546.634778 130.133428 
L 546.422779 127.338356 
L 546.218078 124.543284 
L 546.0182 121.748212 
L 545.820942 118.95314 
L 545.625807 116.158068 
L 545.435068 113.362996 
L 545.253837 110.567924 
L 545.088955 107.772852 
L 544.947033 104.97778 
L 544.832467 102.182708 
L 544.746258 99.387636 
L 544.686033 96.592564 
L 544.647075 93.797492 
L 544.623777 91.00242 
L 544.610909 88.207348 
L 544.604349 85.412276 
" style="fill:none;stroke:#0072b2;stroke-linecap:square;stroke-width:1.5;"/>
   </g>
   <g id="patch_34">
    <path d="M 544.599092 375.960015 
L 544.599092 71.576669 
" style="fill:none;stroke:#000000;stroke-linecap:square;stroke-linejoin:miter;stroke-width:0.8;"/>
   </g>
  </g>
 </g>
 <defs>
  <clipPath id="p14f88a7944">
   <rect height="304.383345" width="484.482518" x="60.116574" y="71.576669"/>
  </clipPath>
  <clipPath id="p1c7836fb2d">
   <rect height="304.383345" width="96.896504" x="544.599092" y="71.576669"/>
  </clipPath>
 </defs>
</svg>
