<?xml version="1.0" encoding="utf-8" standalone="no"?>
<!DOCTYPE svg PUBLIC "-//W3C//DTD SVG 1.1//EN"
  "http://www.w3.org/Graphics/SVG/1.1/DTD/svg11.dtd">
<!-- Created with matplotlib (http://matplotlib.org/) -->
<svg height="355pt" version="1.1" viewBox="0 0 576 355" width="576pt" xmlns="http://www.w3.org/2000/svg" xmlns:xlink="http://www.w3.org/1999/xlink">
 <defs>
  <style type="text/css">
*{stroke-linecap:butt;stroke-linejoin:round;}
  </style>
 </defs>
 <g id="figure_1">
  <g id="patch_1">
   <path d="M 0 355.987578 
L 576 355.987578 
L 576 0 
L 0 0 
z
" style="fill:#ffffff;"/>
  </g>
  <g id="axes_1">
   <g id="patch_2">
    <path d="M 72 311.48913 
L 518.4 311.48913 
L 518.4 42.718509 
L 72 42.718509 
z
" style="fill:#ffffff;"/>
   </g>
   <g id="matplotlib.axis_1">
    <g id="xtick_1">
     <g id="line2d_1">
      <defs>
       <path d="M 0 0 
L 0 3.5 
" id="m72f88d1130" style="stroke:#000000;stroke-width:0.8;"/>
      </defs>
      <g>
       <use style="stroke:#000000;stroke-width:0.8;" x="72" xlink:href="#m72f88d1130" y="311.48913"/>
      </g>
     </g>
     <g id="text_1">
      <!-- $0$ -->
      <defs>
       <path d="M 42 31.640625 
C 42 37.75 41.90625 48.125 37.703125 56.109375 
C 34 63.109375 28.09375 65.59375 22.90625 65.59375 
C 18.09375 65.59375 12 63.40625 8.203125 56.203125 
C 4.203125 48.71875 3.796875 39.4375 3.796875 31.640625 
C 3.796875 25.953125 3.90625 17.28125 7 9.671875 
C 11.296875 -0.609375 19 -2 22.90625 -2 
C 27.5 -2 34.5 -0.109375 38.59375 9.375 
C 41.59375 16.28125 42 24.359375 42 31.640625 
M 22.90625 -0.40625 
C 16.5 -0.40625 12.703125 5.078125 11.296875 12.6875 
C 10.203125 18.5625 10.203125 27.15625 10.203125 32.75 
C 10.203125 40.4375 10.203125 46.828125 11.5 52.921875 
C 13.40625 61.390625 19 64 22.90625 64 
C 27 64 32.296875 61.296875 34.203125 53.125 
C 35.5 47.4375 35.59375 40.734375 35.59375 32.75 
C 35.59375 26.25 35.59375 18.265625 34.40625 12.375 
C 32.296875 1.484375 26.40625 -0.40625 22.90625 -0.40625 
" id="CMR17-48"/>
      </defs>
      <g transform="translate(68.098006 329.558719)scale(0.16 -0.16)">
       <use transform="scale(0.996264)" xlink:href="#CMR17-48"/>
      </g>
     </g>
    </g>
    <g id="xtick_2">
     <g id="line2d_2">
      <g>
       <use style="stroke:#000000;stroke-width:0.8;" x="161.458918" xlink:href="#m72f88d1130" y="311.48913"/>
      </g>
     </g>
     <g id="text_2">
      <!-- $100$ -->
      <defs>
       <path d="M 26.59375 63.40625 
C 26.59375 65.5 26.5 65.5 25.09375 65.5 
C 21.203125 61.1875 15.296875 59.796875 9.703125 59.796875 
C 9.40625 59.796875 8.90625 59.796875 8.796875 59.5 
C 8.703125 59.296875 8.703125 59.09375 8.703125 57 
C 11.796875 57 17 57.59375 21 59.984375 
L 21 7.203125 
C 21 3.6875 20.796875 2.5 12.203125 2.5 
L 9.203125 2.5 
L 9.203125 0 
C 14 0 19 0 23.796875 0 
C 28.59375 0 33.59375 0 38.40625 0 
L 38.40625 2.5 
L 35.40625 2.5 
C 26.796875 2.5 26.59375 3.59375 26.59375 7.15625 
z
" id="CMR17-49"/>
      </defs>
      <g transform="translate(149.752937 329.558719)scale(0.16 -0.16)">
       <use transform="scale(0.996264)" xlink:href="#CMR17-49"/>
       <use transform="translate(45.690477 0)scale(0.996264)" xlink:href="#CMR17-48"/>
       <use transform="translate(91.380954 0)scale(0.996264)" xlink:href="#CMR17-48"/>
      </g>
     </g>
    </g>
    <g id="xtick_3">
     <g id="line2d_3">
      <g>
       <use style="stroke:#000000;stroke-width:0.8;" x="250.917836" xlink:href="#m72f88d1130" y="311.48913"/>
      </g>
     </g>
     <g id="text_3">
      <!-- $200$ -->
      <defs>
       <path d="M 41.703125 15.453125 
L 39.90625 15.453125 
C 38.90625 8.375 38.09375 7.171875 37.703125 6.5625 
C 37.203125 5.765625 30 5.765625 28.59375 5.765625 
L 9.40625 5.765625 
C 13 9.671875 20 16.75 28.5 24.953125 
C 34.59375 30.734375 41.703125 37.53125 41.703125 47.421875 
C 41.703125 59.21875 32.296875 66 21.796875 66 
C 10.796875 66 4.09375 56.3125 4.09375 47.34375 
C 4.09375 43.4375 7 42.9375 8.203125 42.9375 
C 9.203125 42.9375 12.203125 43.546875 12.203125 47.03125 
C 12.203125 50.109375 9.59375 51 8.203125 51 
C 7.59375 51 7 50.90625 6.59375 50.703125 
C 8.5 59.21875 14.296875 63.40625 20.40625 63.40625 
C 29.09375 63.40625 34.796875 56.515625 34.796875 47.421875 
C 34.796875 38.734375 29.703125 31.25 24 24.75 
L 4.09375 2.28125 
L 4.09375 0 
L 39.296875 0 
z
" id="CMR17-50"/>
      </defs>
      <g transform="translate(239.211855 329.558719)scale(0.16 -0.16)">
       <use transform="scale(0.996264)" xlink:href="#CMR17-50"/>
       <use transform="translate(45.690477 0)scale(0.996264)" xlink:href="#CMR17-48"/>
       <use transform="translate(91.380954 0)scale(0.996264)" xlink:href="#CMR17-48"/>
      </g>
     </g>
    </g>
    <g id="xtick_4">
     <g id="line2d_4">
      <g>
       <use style="stroke:#000000;stroke-width:0.8;" x="340.376754" xlink:href="#m72f88d1130" y="311.48913"/>
      </g>
     </g>
     <g id="text_4">
      <!-- $300$ -->
      <defs>
       <path d="M 22.09375 33.703125 
C 31 33.703125 34.90625 25.96875 34.90625 17.03125 
C 34.90625 5 28.5 0.390625 22.703125 0.390625 
C 17.40625 0.390625 8.796875 3.03125 6.09375 10.828125 
C 6.59375 10.625 7.09375 10.625 7.59375 10.625 
C 10 10.625 11.796875 12.21875 11.796875 14.8125 
C 11.796875 17.703125 9.59375 19 7.59375 19 
C 5.90625 19 3.296875 18.203125 3.296875 14.46875 
C 3.296875 5.234375 12.296875 -2 22.90625 -2 
C 34 -2 42.5 6.71875 42.5 16.953125 
C 42.5 26.671875 34.5 33.703125 25 34.796875 
C 32.59375 36.375 39.90625 43.0625 39.90625 52.015625 
C 39.90625 59.6875 32 65.296875 23 65.296875 
C 13.90625 65.296875 5.90625 59.828125 5.90625 52.015625 
C 5.90625 48.59375 8.5 48 9.796875 48 
C 11.90625 48 13.703125 49.296875 13.703125 51.890625 
C 13.703125 54.46875 11.90625 55.765625 9.796875 55.765625 
C 9.40625 55.765625 8.90625 55.765625 8.5 55.578125 
C 11.40625 61.859375 19.296875 63 22.796875 63 
C 26.296875 63 32.90625 61.328125 32.90625 51.875 
C 32.90625 49.109375 32.5 44.1875 29.09375 39.84375 
C 26.09375 36 22.703125 36 19.40625 35.6875 
C 18.90625 35.6875 16.59375 35.453125 16.203125 35.453125 
C 15.5 35.359375 15.09375 35.265625 15.09375 34.5 
C 15.09375 33.796875 15.203125 33.703125 17.203125 33.703125 
z
" id="CMR17-51"/>
      </defs>
      <g transform="translate(328.670773 329.558719)scale(0.16 -0.16)">
       <use transform="scale(0.996264)" xlink:href="#CMR17-51"/>
       <use transform="translate(45.690477 0)scale(0.996264)" xlink:href="#CMR17-48"/>
       <use transform="translate(91.380954 0)scale(0.996264)" xlink:href="#CMR17-48"/>
      </g>
     </g>
    </g>
    <g id="xtick_5">
     <g id="line2d_5">
      <g>
       <use style="stroke:#000000;stroke-width:0.8;" x="429.835671" xlink:href="#m72f88d1130" y="311.48913"/>
      </g>
     </g>
     <g id="text_5">
      <!-- $400$ -->
      <defs>
       <path d="M 33.59375 64.40625 
C 33.59375 66.5 33.5 66.5 31.703125 66.5 
L 2 19.59375 
L 2 17 
L 27.796875 17 
L 27.796875 7.140625 
C 27.796875 3.5 27.59375 2.5 20.59375 2.5 
L 18.703125 2.5 
L 18.703125 0 
C 21.90625 0 27.296875 0 30.703125 0 
C 34.09375 0 39.5 0 42.703125 0 
L 42.703125 2.5 
L 40.796875 2.5 
C 33.796875 2.5 33.59375 3.5 33.59375 7.140625 
L 33.59375 17 
L 43.796875 17 
L 43.796875 19.59375 
L 33.59375 19.59375 
z
M 28.09375 57.859375 
L 28.09375 19.59375 
L 4 19.59375 
z
" id="CMR17-52"/>
      </defs>
      <g transform="translate(418.129691 329.558719)scale(0.16 -0.16)">
       <use transform="scale(0.996264)" xlink:href="#CMR17-52"/>
       <use transform="translate(45.690477 0)scale(0.996264)" xlink:href="#CMR17-48"/>
       <use transform="translate(91.380954 0)scale(0.996264)" xlink:href="#CMR17-48"/>
      </g>
     </g>
    </g>
    <g id="text_6">
     <!-- epochs -->
     <defs>
      <path d="M 38.09375 23 
C 38.5 23.40625 38.5 23.609375 38.5 24.625 
C 38.5 34.96875 33.09375 44 21.703125 44 
C 11.09375 44 2.703125 33.890625 2.703125 21.609375 
C 2.703125 8.609375 12.203125 -1 22.796875 -1 
C 34 -1 38.40625 9.484375 38.40625 11.5625 
C 38.40625 12.25 37.796875 12.25 37.59375 12.25 
C 36.90625 12.25 36.796875 12.046875 36.40625 10.875 
C 34.203125 4.140625 28.703125 0.796875 23.5 0.796875 
C 19.203125 0.796875 14.90625 3.171875 12.203125 7.5 
C 9.09375 12.546875 9.09375 18.375 9.09375 23 
z
M 9.203125 24.5 
C 9.90625 39.140625 17.59375 42.40625 21.59375 42.40625 
C 28.40625 42.40625 33 35.890625 33.09375 24.5 
z
" id="CMR17-101"/>
      <path d="M 22 -16.609375 
C 15.59375 -16.609375 15.203125 -16.203125 15.203125 -12.328125 
L 15.203125 6.28125 
C 18.09375 2.09375 22.296875 -0.59375 27.59375 -0.59375 
C 37.59375 -0.59375 47.703125 8.171875 47.703125 21.6875 
C 47.703125 34.234375 39 43.78125 28.703125 43.78125 
C 22.703125 43.78125 17.796875 40.5 15 36.53125 
L 15 43.78125 
L 3.09375 42.6875 
L 3.09375 40.109375 
C 9 40.109375 9.90625 39.5 9.90625 34.734375 
L 9.90625 -12.328125 
C 9.90625 -16.109375 9.5 -16.609375 3.09375 -16.609375 
L 3.09375 -19.1875 
C 5.5 -19 9.90625 -19 12.5 -19 
C 15.09375 -19 19.59375 -19 22 -19.1875 
z
M 15.203125 31.4375 
C 15.203125 32.84375 15.203125 34.921875 19.09375 38.609375 
C 19.59375 39.015625 23 42 28 42 
C 35.296875 42 41.296875 32.9375 41.296875 21.59375 
C 41.296875 10.25 34.90625 1 27 1 
C 23.40625 1 19.5 2.6875 16.5 7.375 
C 15.203125 9.5625 15.203125 10.15625 15.203125 11.75 
z
" id="CMR17-112"/>
      <path d="M 43.09375 21.1875 
C 43.09375 34 33.796875 44 22.90625 44 
C 12 44 2.703125 34 2.703125 21.1875 
C 2.703125 8.609375 12 -1 22.90625 -1 
C 33.796875 -1 43.09375 8.609375 43.09375 21.1875 
M 22.90625 0.796875 
C 18.203125 0.796875 14.203125 3.59375 11.90625 7.5 
C 9.40625 11.984375 9.09375 17.59375 9.09375 22 
C 9.09375 26.203125 9.296875 31.40625 11.90625 35.90625 
C 13.90625 39.203125 17.796875 42.40625 22.90625 42.40625 
C 27.40625 42.40625 31.203125 39.90625 33.59375 36.40625 
C 36.703125 31.703125 36.703125 25.109375 36.703125 22 
C 36.703125 18.09375 36.5 12.109375 33.796875 7.296875 
C 31 2.703125 26.703125 0.796875 22.90625 0.796875 
" id="CMR17-111"/>
      <path d="M 34.90625 35 
C 33 35 30.203125 35 30.203125 31.515625 
C 30.203125 28.71875 32.5 27.921875 33.796875 27.921875 
C 34.5 27.921875 37.40625 28.234375 37.40625 31.625 
C 37.40625 38.546875 30.59375 43.796875 22.90625 43.796875 
C 12.296875 43.796875 3.296875 34.03125 3.296875 21.296875 
C 3.296875 8.0625 12.703125 -1 22.90625 -1 
C 35.296875 -1 38.40625 10.578125 38.40625 11.6875 
C 38.40625 12.09375 38.296875 12.390625 37.59375 12.390625 
C 36.90625 12.390625 36.796875 12.296875 36.40625 10.984375 
C 33.796875 2.8125 28.09375 0.796875 23.796875 0.796875 
C 17.40625 0.796875 9.703125 6.671875 9.703125 21.390625 
C 9.703125 36.53125 17.09375 42 23 42 
C 26.90625 42 32.703125 40.203125 34.90625 35 
" id="CMR17-99"/>
      <path d="M 41.5 30.203125 
C 41.5 35.296875 40.5 43.59375 28.703125 43.59375 
C 20.5 43.59375 16.5 37 15.296875 33.703125 
L 15.203125 33.703125 
L 15.203125 68.6875 
L 3.296875 67.59375 
L 3.296875 65 
C 9.203125 65 10.09375 64.40625 10.09375 59.640625 
L 10.09375 6.65625 
C 10.09375 2.875 9.703125 2.390625 3.296875 2.390625 
L 3.296875 -0.203125 
C 5.703125 0 10.09375 0 12.703125 0 
C 15.296875 0 19.796875 0 22.203125 -0.203125 
L 22.203125 2.390625 
C 15.796875 2.390625 15.40625 2.78125 15.40625 6.6875 
L 15.40625 25.90625 
C 15.40625 35.109375 21 42 28 42 
C 35.40625 42 36.203125 35.40625 36.203125 30.59375 
L 36.203125 6.6875 
C 36.203125 2.875 35.796875 2.390625 29.40625 2.390625 
L 29.40625 -0.203125 
C 31.796875 0 36.203125 0 38.796875 0 
C 41.40625 0 45.90625 0 48.296875 -0.203125 
L 48.296875 2.390625 
C 41.90625 2.390625 41.5 2.78125 41.5 6.6875 
z
" id="CMR17-104"/>
      <path d="M 30.90625 42.140625 
C 30.90625 43.953125 30.796875 44.046875 30.203125 44.046875 
C 29.796875 44.046875 29.703125 43.953125 28.5 42.453125 
C 28.203125 42.046875 27.296875 41.03125 27 40.640625 
C 23.796875 44.046875 19.296875 44.046875 17.59375 44.046875 
C 6.5 44.046875 2.5 38.234375 2.5 32.4375 
C 2.5 23.40625 12.703125 21.328125 15.59375 20.703125 
C 21.90625 19.421875 24.09375 19.015625 26.203125 17.203125 
C 27.5 16.015625 29.703125 13.8125 29.703125 10.21875 
C 29.703125 6 27.296875 0.59375 18.09375 0.59375 
C 9.40625 0.59375 6.296875 7.1875 4.5 15.953125 
C 4.203125 17.34375 4.203125 17.453125 3.40625 17.453125 
C 2.59375 17.453125 2.5 17.34375 2.5 15.359375 
L 2.5 0.984375 
C 2.5 -0.796875 2.59375 -0.90625 3.203125 -0.90625 
C 3.703125 -0.90625 3.796875 -0.796875 4.296875 0 
C 4.90625 0.890625 6.40625 3.296875 7 4.3125 
C 9 1.609375 12.5 -1 18.09375 -1 
C 28 -1 33.296875 4.421875 33.296875 12.25 
C 33.296875 17.375 30.59375 20.078125 29.296875 21.28125 
C 26.296875 24.390625 22.796875 25.09375 18.59375 25.890625 
C 13.09375 27.109375 6.09375 28.515625 6.09375 34.640625 
C 6.09375 37.234375 7.5 42.765625 17.59375 42.765625 
C 28.296875 42.765625 28.90625 32.71875 29.09375 29.5 
C 29.203125 29 29.703125 28.890625 30 28.890625 
C 30.90625 28.890625 30.90625 29.203125 30.90625 30.90625 
z
" id="CMR17-115"/>
     </defs>
     <g transform="translate(272.395016 347.727783)scale(0.16 -0.16)">
      <use transform="scale(0.996264)" xlink:href="#CMR17-101"/>
      <use transform="translate(40.48566 0)scale(0.996264)" xlink:href="#CMR17-112"/>
      <use transform="translate(93.983469 0)scale(0.996264)" xlink:href="#CMR17-111"/>
      <use transform="translate(142.276385 0)scale(0.996264)" xlink:href="#CMR17-99"/>
      <use transform="translate(180.159591 0)scale(0.996264)" xlink:href="#CMR17-104"/>
      <use transform="translate(231.054961 0)scale(0.996264)" xlink:href="#CMR17-115"/>
     </g>
    </g>
   </g>
   <g id="matplotlib.axis_2">
    <g id="ytick_1">
     <g id="line2d_6">
      <defs>
       <path d="M 0 0 
L -3.5 0 
" id="md141dddffb" style="stroke:#000000;stroke-width:0.8;"/>
      </defs>
      <g>
       <use style="stroke:#000000;stroke-width:0.8;" x="72" xlink:href="#md141dddffb" y="304.319363"/>
      </g>
     </g>
     <g id="text_7">
      <!-- $1.05$ -->
      <defs>
       <path d="M 18.40625 4.796875 
C 18.40625 7.6875 16 9.671875 13.59375 9.671875 
C 10.703125 9.671875 8.703125 7.28125 8.703125 4.890625 
C 8.703125 2 11.09375 0 13.5 0 
C 16.40625 0 18.40625 2.390625 18.40625 4.796875 
" id="CMMI12-58"/>
       <path d="M 11.40625 57.6875 
C 12.40625 57.28125 16.5 56 20.703125 56 
C 30 56 35.09375 61.109375 38 64.0625 
C 38 64.953125 38 65.5 37.40625 65.5 
C 37.296875 65.5 37.09375 65.5 36.296875 65.046875 
C 32.796875 63.40625 28.703125 62.078125 23.703125 62.078125 
C 20.703125 62.078125 16.203125 62.484375 11.296875 64.671875 
C 10.203125 65.171875 10 65.171875 9.90625 65.171875 
C 9.40625 65.171875 9.296875 65.0625 9.296875 63.078125 
L 9.296875 34.421875 
C 9.296875 32.640625 9.296875 32.140625 10.296875 32.140625 
C 10.796875 32.140625 11 32.34375 11.5 33.03125 
C 14.703125 37.515625 19.09375 39.40625 24.09375 39.40625 
C 27.59375 39.40625 35.09375 37.21875 35.09375 20.140625 
C 35.09375 16.953125 35.09375 11.171875 32.09375 6.578125 
C 29.59375 2.484375 25.703125 0.390625 21.40625 0.390625 
C 14.796875 0.390625 8.09375 5 6.296875 12.71875 
C 6.703125 12.609375 7.5 12.421875 7.90625 12.421875 
C 9.203125 12.421875 11.703125 13.125 11.703125 16.21875 
C 11.703125 18.90625 9.796875 20 7.90625 20 
C 5.59375 20 4.09375 18.59375 4.09375 15.796875 
C 4.09375 7.09375 11 -2 21.59375 -2 
C 31.90625 -2 41.703125 6.875 41.703125 19.75 
C 41.703125 31.71875 33.90625 41 24.203125 41 
C 19.09375 41 14.796875 39.109375 11.40625 35.53125 
z
" id="CMR17-53"/>
      </defs>
      <g transform="translate(37.252491 309.854157)scale(0.16 -0.16)">
       <use transform="scale(0.996264)" xlink:href="#CMR17-49"/>
       <use transform="translate(45.690477 0)scale(0.996264)" xlink:href="#CMMI12-58"/>
       <use transform="translate(72.787654 0)scale(0.996264)" xlink:href="#CMR17-48"/>
       <use transform="translate(118.478131 0)scale(0.996264)" xlink:href="#CMR17-53"/>
      </g>
     </g>
    </g>
    <g id="ytick_2">
     <g id="line2d_7">
      <g>
       <use style="stroke:#000000;stroke-width:0.8;" x="72" xlink:href="#md141dddffb" y="265.44552"/>
      </g>
     </g>
     <g id="text_8">
      <!-- $1.10$ -->
      <g transform="translate(37.252491 270.980314)scale(0.16 -0.16)">
       <use transform="scale(0.996264)" xlink:href="#CMR17-49"/>
       <use transform="translate(45.690477 0)scale(0.996264)" xlink:href="#CMMI12-58"/>
       <use transform="translate(72.787654 0)scale(0.996264)" xlink:href="#CMR17-49"/>
       <use transform="translate(118.478131 0)scale(0.996264)" xlink:href="#CMR17-48"/>
      </g>
     </g>
    </g>
    <g id="ytick_3">
     <g id="line2d_8">
      <g>
       <use style="stroke:#000000;stroke-width:0.8;" x="72" xlink:href="#md141dddffb" y="226.571677"/>
      </g>
     </g>
     <g id="text_9">
      <!-- $1.15$ -->
      <g transform="translate(37.252491 232.106471)scale(0.16 -0.16)">
       <use transform="scale(0.996264)" xlink:href="#CMR17-49"/>
       <use transform="translate(45.690477 0)scale(0.996264)" xlink:href="#CMMI12-58"/>
       <use transform="translate(72.787654 0)scale(0.996264)" xlink:href="#CMR17-49"/>
       <use transform="translate(118.478131 0)scale(0.996264)" xlink:href="#CMR17-53"/>
      </g>
     </g>
    </g>
    <g id="ytick_4">
     <g id="line2d_9">
      <g>
       <use style="stroke:#000000;stroke-width:0.8;" x="72" xlink:href="#md141dddffb" y="187.697833"/>
      </g>
     </g>
     <g id="text_10">
      <!-- $1.20$ -->
      <g transform="translate(37.252491 193.232627)scale(0.16 -0.16)">
       <use transform="scale(0.996264)" xlink:href="#CMR17-49"/>
       <use transform="translate(45.690477 0)scale(0.996264)" xlink:href="#CMMI12-58"/>
       <use transform="translate(72.787654 0)scale(0.996264)" xlink:href="#CMR17-50"/>
       <use transform="translate(118.478131 0)scale(0.996264)" xlink:href="#CMR17-48"/>
      </g>
     </g>
    </g>
    <g id="ytick_5">
     <g id="line2d_10">
      <g>
       <use style="stroke:#000000;stroke-width:0.8;" x="72" xlink:href="#md141dddffb" y="148.82399"/>
      </g>
     </g>
     <g id="text_11">
      <!-- $1.25$ -->
      <g transform="translate(37.252491 154.358784)scale(0.16 -0.16)">
       <use transform="scale(0.996264)" xlink:href="#CMR17-49"/>
       <use transform="translate(45.690477 0)scale(0.996264)" xlink:href="#CMMI12-58"/>
       <use transform="translate(72.787654 0)scale(0.996264)" xlink:href="#CMR17-50"/>
       <use transform="translate(118.478131 0)scale(0.996264)" xlink:href="#CMR17-53"/>
      </g>
     </g>
    </g>
    <g id="ytick_6">
     <g id="line2d_11">
      <g>
       <use style="stroke:#000000;stroke-width:0.8;" x="72" xlink:href="#md141dddffb" y="109.950147"/>
      </g>
     </g>
     <g id="text_12">
      <!-- $1.30$ -->
      <g transform="translate(37.252491 115.484941)scale(0.16 -0.16)">
       <use transform="scale(0.996264)" xlink:href="#CMR17-49"/>
       <use transform="translate(45.690477 0)scale(0.996264)" xlink:href="#CMMI12-58"/>
       <use transform="translate(72.787654 0)scale(0.996264)" xlink:href="#CMR17-51"/>
       <use transform="translate(118.478131 0)scale(0.996264)" xlink:href="#CMR17-48"/>
      </g>
     </g>
    </g>
    <g id="ytick_7">
     <g id="line2d_12">
      <g>
       <use style="stroke:#000000;stroke-width:0.8;" x="72" xlink:href="#md141dddffb" y="71.076304"/>
      </g>
     </g>
     <g id="text_13">
      <!-- $1.35$ -->
      <g transform="translate(37.252491 76.611098)scale(0.16 -0.16)">
       <use transform="scale(0.996264)" xlink:href="#CMR17-49"/>
       <use transform="translate(45.690477 0)scale(0.996264)" xlink:href="#CMMI12-58"/>
       <use transform="translate(72.787654 0)scale(0.996264)" xlink:href="#CMR17-51"/>
       <use transform="translate(118.478131 0)scale(0.996264)" xlink:href="#CMR17-53"/>
      </g>
     </g>
    </g>
    <g id="text_14">
     <!-- loss -->
     <defs>
      <path d="M 15.296875 68.6875 
L 3.40625 67.59375 
L 3.40625 65 
C 9.296875 65 10.203125 64.40625 10.203125 59.640625 
L 10.203125 6.65625 
C 10.203125 2.875 9.796875 2.390625 3.40625 2.390625 
L 3.40625 -0.203125 
C 5.796875 0 10.203125 0 12.703125 0 
C 15.296875 0 19.703125 0 22.09375 -0.203125 
L 22.09375 2.390625 
C 15.703125 2.390625 15.296875 2.78125 15.296875 6.65625 
z
" id="CMR17-108"/>
     </defs>
     <g transform="translate(30.153014 189.330066)rotate(-90)scale(0.16 -0.16)">
      <use transform="scale(0.996264)" xlink:href="#CMR17-108"/>
      <use transform="translate(24.871058 0)scale(0.996264)" xlink:href="#CMR17-111"/>
      <use transform="translate(70.561536 0)scale(0.996264)" xlink:href="#CMR17-115"/>
      <use transform="translate(106.362873 0)scale(0.996264)" xlink:href="#CMR17-115"/>
     </g>
    </g>
   </g>
   <g id="line2d_13">
    <path clip-path="url(#p16a48ca2ae)" d="M 72 54.935356 
L 72.894589 65.211617 
L 73.789178 71.586317 
L 74.683768 79.155972 
L 75.578357 81.739125 
L 76.472946 88.201317 
L 77.367535 88.897547 
L 78.262124 100.210462 
L 79.156713 95.441578 
L 80.051303 99.32553 
L 80.945892 107.808199 
L 81.840481 100.206198 
L 82.73507 108.412211 
L 83.629659 118.51877 
L 84.524248 109.650727 
L 85.418838 128.16442 
L 86.313427 120.289654 
L 87.208016 132.299448 
L 88.102605 118.31941 
L 88.997194 123.272825 
L 89.891784 135.436657 
L 90.786373 136.652187 
L 91.680962 143.278427 
L 92.575551 133.445837 
L 93.47014 139.591612 
L 94.364729 134.354682 
L 95.259319 139.436832 
L 96.153908 145.212525 
L 97.048497 132.759246 
L 98.837675 146.097643 
L 99.732265 140.440954 
L 100.626854 165.332498 
L 101.521443 160.543966 
L 102.416032 154.51562 
L 103.310621 135.30097 
L 104.20521 166.338195 
L 105.0998 164.422171 
L 105.994389 166.3166 
L 106.888978 141.3865 
L 107.783567 165.87951 
L 108.678156 135.912118 
L 109.572745 166.711798 
L 110.467335 176.153176 
L 111.361924 165.73752 
L 112.256513 159.837725 
L 113.151102 173.651769 
L 114.045691 153.070608 
L 114.940281 188.774118 
L 115.83487 163.01108 
L 116.729459 161.480337 
L 117.624048 191.913087 
L 118.518637 190.436007 
L 119.413226 166.777418 
L 121.202405 197.447806 
L 122.096994 195.92355 
L 122.991583 176.288956 
L 123.886172 168.734871 
L 124.780762 212.101553 
L 125.675351 226.011522 
L 126.56994 197.910477 
L 127.464529 180.706295 
L 128.359118 204.198612 
L 129.253707 200.934428 
L 130.148297 176.560886 
L 131.042886 181.288897 
L 131.937475 174.530677 
L 132.832064 196.734059 
L 133.726653 192.60765 
L 134.621242 207.040997 
L 135.515832 215.759266 
L 136.410421 197.807043 
L 137.30501 206.939139 
L 138.199599 179.49614 
L 139.094188 184.164092 
L 139.988778 215.83888 
L 140.883367 207.692833 
L 141.777956 183.674358 
L 142.672545 217.30039 
L 143.567134 215.575662 
L 144.461723 220.239536 
L 145.356313 196.419402 
L 146.250902 197.200622 
L 147.145491 242.975379 
L 148.04008 232.791245 
L 149.829259 171.35 
L 150.723848 201.174939 
L 151.618437 224.189478 
L 152.513026 208.984919 
L 153.407615 214.679979 
L 154.302204 225.603534 
L 155.196794 221.395194 
L 156.091383 245.250734 
L 156.985972 214.197845 
L 157.880561 188.670128 
L 158.77515 216.851714 
L 159.669739 177.488267 
L 160.564329 237.831595 
L 161.458918 172.980655 
L 162.353507 248.743843 
L 163.248096 217.792534 
L 165.037275 238.411139 
L 165.931864 204.348757 
L 166.826453 199.174759 
L 167.721042 229.449393 
L 168.615631 230.916742 
L 169.51022 191.871566 
L 170.40481 210.239006 
L 171.299399 247.170095 
L 172.193988 247.889125 
L 173.088577 230.634802 
L 173.983166 223.232161 
L 174.877756 194.908307 
L 175.772345 208.400371 
L 176.666934 230.922673 
L 177.561523 249.395308 
L 178.456112 230.849918 
L 179.350701 223.240595 
L 180.245291 219.036703 
L 181.13988 215.806905 
L 182.034469 266.953074 
L 182.929058 218.423053 
L 183.823647 253.921827 
L 184.718236 243.078164 
L 185.612826 209.58439 
L 186.507415 204.315299 
L 187.402004 274.172482 
L 188.296593 233.489422 
L 189.191182 240.863702 
L 190.980361 194.520431 
L 191.87495 231.296555 
L 192.769539 234.17796 
L 193.664128 262.738617 
L 194.558717 264.890333 
L 195.453307 220.913987 
L 196.347896 194.440168 
L 197.242485 180.710095 
L 198.137074 255.793457 
L 199.031663 198.851019 
L 199.926253 220.241112 
L 201.715431 246.206105 
L 203.504609 220.010611 
L 204.399198 230.729152 
L 205.293788 261.737554 
L 206.188377 195.458192 
L 207.082966 227.716509 
L 207.977555 250.383118 
L 208.872144 234.595958 
L 209.766733 230.662792 
L 210.661323 241.150276 
L 211.555912 241.236193 
L 212.450501 210.769428 
L 213.34509 258.817964 
L 214.239679 253.155436 
L 215.134269 254.443166 
L 216.028858 271.36096 
L 216.923447 250.777853 
L 217.818036 250.794999 
L 218.712625 229.780455 
L 219.607214 263.008879 
L 220.501804 228.889498 
L 221.396393 233.466529 
L 222.290982 265.679803 
L 223.185571 235.433992 
L 224.08016 234.430334 
L 224.974749 188.270203 
L 225.869339 207.159631 
L 226.763928 198.744897 
L 227.658517 227.0808 
L 228.553106 261.620959 
L 229.447695 214.278108 
L 230.342285 212.122035 
L 231.236874 204.894472 
L 232.131463 235.921224 
L 233.026052 250.974988 
L 233.920641 236.038746 
L 234.81523 279.290315 
L 235.70982 233.079487 
L 236.604409 242.933116 
L 237.498998 246.394713 
L 238.393587 299.272284 
L 239.288176 227.400554 
L 240.182766 209.340449 
L 241.077355 214.184869 
L 241.971944 210.847837 
L 242.866533 198.344602 
L 243.761122 250.73596 
L 244.655711 273.947913 
L 245.550301 229.077922 
L 246.44489 194.330524 
L 247.339479 246.545878 
L 248.234068 232.330705 
L 249.128657 247.550927 
L 250.023246 259.467946 
L 250.917836 229.16217 
L 251.812425 234.525982 
L 252.707014 236.415407 
L 253.601603 207.435454 
L 254.496192 227.688426 
L 255.390782 222.197361 
L 256.285371 215.194645 
L 257.17996 249.524137 
L 258.074549 210.033807 
L 258.969138 284.738283 
L 259.863727 157.40824 
L 260.758317 197.584142 
L 261.652906 207.042202 
L 262.547495 218.585154 
L 263.442084 217.140049 
L 264.336673 244.270061 
L 265.231263 249.751209 
L 266.125852 241.483192 
L 267.020441 217.382414 
L 267.91503 247.350918 
L 268.809619 235.802591 
L 269.704208 215.793929 
L 270.598798 218.693871 
L 271.493387 236.304744 
L 272.387976 232.648606 
L 273.282565 234.392056 
L 274.177154 200.339499 
L 275.071743 223.112878 
L 275.966333 240.390743 
L 276.860922 242.410109 
L 277.755511 246.854975 
L 278.6501 262.032192 
L 279.544689 228.817855 
L 280.439279 258.598399 
L 281.333868 230.571129 
L 282.228457 223.242912 
L 283.123046 244.157729 
L 284.017635 259.176552 
L 284.912224 233.338442 
L 285.806814 200.224666 
L 286.701403 219.450809 
L 287.595992 212.667194 
L 288.490581 234.161833 
L 289.38517 237.265583 
L 290.27976 231.829015 
L 291.174349 227.125844 
L 292.068938 255.81431 
L 292.963527 264.535081 
L 293.858116 246.31445 
L 294.752705 251.467503 
L 295.647295 211.414312 
L 296.541884 222.494501 
L 297.436473 199.675707 
L 298.331062 241.194115 
L 299.225651 201.629454 
L 300.12024 206.452278 
L 301.01483 227.889454 
L 301.909419 212.819842 
L 302.804008 234.658982 
L 303.698597 234.470373 
L 304.593186 246.801219 
L 305.487776 255.308727 
L 306.382365 258.729174 
L 307.276954 255.480561 
L 308.171543 228.49569 
L 309.066132 242.001194 
L 309.960721 241.539357 
L 310.855311 202.717638 
L 311.7499 185.180819 
L 312.644489 253.546927 
L 313.539078 262.043313 
L 314.433667 219.204551 
L 315.328257 226.706177 
L 316.222846 256.086241 
L 317.117435 241.398109 
L 318.012024 209.096138 
L 318.906613 242.230583 
L 319.801202 262.911007 
L 320.695792 226.075473 
L 321.590381 243.895809 
L 322.48497 238.199266 
L 323.379559 244.169778 
L 324.274148 231.71863 
L 325.168737 251.03412 
L 326.063327 278.768976 
L 326.957916 240.083964 
L 327.852505 247.926106 
L 328.747094 220.024699 
L 329.641683 245.513674 
L 330.536273 243.337212 
L 331.430862 251.013822 
L 332.325451 257.326981 
L 333.22004 245.475303 
L 334.114629 244.794365 
L 335.009218 276.827371 
L 335.903808 225.754885 
L 336.798397 212.590267 
L 337.692986 262.489394 
L 338.587575 227.47433 
L 339.482164 201.855413 
L 340.376754 250.1085 
L 341.271343 240.573977 
L 342.165932 223.146985 
L 343.060521 232.048395 
L 343.95511 267.64912 
L 344.849699 258.223498 
L 345.744289 247.006232 
L 346.638878 213.308 
L 347.533467 239.214974 
L 348.428056 252.914183 
L 349.322645 280.602699 
L 350.217234 238.286759 
L 351.111824 210.147436 
L 352.006413 226.153048 
L 352.901002 275.369754 
L 353.795591 219.127996 
L 354.69018 219.648593 
L 355.58477 263.323444 
L 356.479359 227.513905 
L 357.373948 265.667847 
L 358.268537 221.154868 
L 359.163126 247.307728 
L 360.057715 263.374975 
L 360.952305 224.523598 
L 361.846894 263.188961 
L 362.741483 224.723699 
L 363.636072 287.11253 
L 364.530661 221.190644 
L 365.425251 210.463761 
L 366.31984 265.751353 
L 367.214429 227.461354 
L 368.109018 208.956744 
L 369.003607 236.917561 
L 369.898196 232.666216 
L 370.792786 249.547771 
L 371.687375 223.599925 
L 372.581964 229.340955 
L 373.476553 240.774263 
L 374.371142 224.6515 
L 375.265731 235.322403 
L 376.160321 229.455881 
L 377.05491 220.670881 
L 377.949499 271.142229 
L 378.844088 239.327954 
L 379.738677 248.170509 
L 380.633267 241.142491 
L 381.527856 244.166256 
L 382.422445 245.111247 
L 383.317034 235.326017 
L 384.211623 259.051245 
L 385.106212 262.2512 
L 386.000802 254.806667 
L 386.895391 227.464691 
L 387.78998 256.304879 
L 388.684569 260.3298 
L 389.579158 206.620775 
L 390.473747 276.479534 
L 391.368337 262.132011 
L 392.262926 267.871187 
L 393.157515 263.429658 
L 394.052104 220.154825 
L 394.946693 223.205005 
L 395.841283 237.467075 
L 396.735872 206.569244 
L 397.630461 222.241107 
L 398.52505 264.333961 
L 399.419639 226.586154 
L 400.314228 232.795693 
L 401.208818 252.206923 
L 402.103407 251.004183 
L 402.997996 257.615038 
L 403.892585 189.850439 
L 405.681764 271.988791 
L 406.576353 260.395697 
L 407.470942 290.988881 
L 408.365531 232.830264 
L 409.26012 237.627416 
L 410.154709 203.54279 
L 411.049299 215.609399 
L 411.943888 248.509727 
L 412.838477 252.912515 
L 413.733066 237.09097 
L 414.627655 236.61625 
L 415.522244 223.201205 
L 416.416834 234.365642 
L 417.311423 212.069021 
L 418.206012 247.103364 
L 419.100601 209.383547 
L 419.99519 232.130048 
L 420.88978 265.530306 
L 421.784369 258.373366 
L 422.678958 235.20655 
L 423.573547 241.600249 
L 424.468136 235.991756 
L 425.362725 203.654009 
L 426.257315 241.470494 
L 427.151904 238.341534 
L 428.046493 222.457242 
L 428.941082 230.303277 
L 429.835671 212.8989 
L 430.730261 252.129441 
L 431.62485 239.461787 
L 432.519439 234.700967 
L 433.414028 225.62448 
L 434.308617 247.907569 
L 435.203206 230.524417 
L 436.097796 200.47704 
L 436.992385 251.758526 
L 437.886974 249.093349 
L 438.781563 198.801712 
L 439.676152 217.518657 
L 440.570741 202.744702 
L 441.465331 245.496064 
L 442.35992 266.337014 
L 443.254509 222.858094 
L 444.149098 259.432541 
L 445.043687 244.952667 
L 445.938277 246.270148 
L 446.832866 270.72627 
L 447.727455 256.783027 
L 448.622044 206.0125 
L 449.516633 229.083205 
L 450.411222 263.386653 
L 451.305812 251.50819 
L 452.200401 253.002695 
L 453.09499 231.698518 
L 453.989579 225.670358 
L 454.884168 205.030529 
L 456.673347 279.083541 
L 457.567936 222.356311 
L 458.462525 241.682552 
L 459.357114 235.386076 
L 460.251703 194.434885 
L 461.146293 235.741791 
L 462.040882 265.498052 
L 462.935471 225.881767 
L 463.83006 243.051286 
L 464.724649 249.152665 
L 465.619238 253.053763 
L 466.513828 231.688601 
L 467.408417 262.116533 
L 468.303006 225.703538 
L 469.197595 241.239622 
L 470.986774 244.748487 
L 471.881363 280.122326 
L 472.775952 238.900502 
L 473.670541 250.85413 
L 474.56513 253.509761 
L 475.459719 264.811646 
L 476.354309 231.822064 
L 477.248898 231.577104 
L 478.143487 211.396703 
L 479.038076 218.987118 
L 479.932665 241.109589 
L 481.721844 256.602945 
L 482.616433 218.763012 
L 483.511022 275.009683 
L 484.405611 205.942432 
L 485.3002 250.772662 
L 486.19479 217.698925 
L 487.089379 213.945841 
L 487.983968 224.593944 
L 488.878557 240.839883 
L 489.773146 221.443482 
L 490.667735 239.117194 
L 491.562325 199.756804 
L 492.456914 212.385068 
L 493.351503 206.691214 
L 494.246092 262.90109 
L 495.140681 255.305484 
L 496.035271 273.903518 
L 496.92986 219.940636 
L 497.824449 265.523447 
L 499.613627 236.61143 
L 500.508216 232.540817 
L 501.402806 251.891062 
L 502.297395 233.127867 
L 503.191984 218.640393 
L 504.086573 256.128411 
L 504.981162 219.558876 
L 505.875752 245.906277 
L 506.770341 244.974725 
L 507.66493 237.623152 
L 508.559519 249.865579 
L 509.454108 221.309741 
L 510.348697 236.611987 
L 511.243287 285.937594 
L 513.032465 212.13084 
L 513.927054 227.465432 
L 514.821643 259.18962 
L 515.716232 257.411693 
L 516.610822 235.274022 
L 517.505411 202.01974 
L 518.4 266.485491 
L 518.4 266.485491 
" style="fill:none;stroke:#0072b2;stroke-linecap:square;stroke-width:1.5;"/>
   </g>
   <g id="patch_3">
    <path d="M 72 311.48913 
L 72 42.718509 
" style="fill:none;stroke:#000000;stroke-linecap:square;stroke-linejoin:miter;stroke-width:0.8;"/>
   </g>
   <g id="patch_4">
    <path d="M 518.4 311.48913 
L 518.4 42.718509 
" style="fill:none;stroke:#000000;stroke-linecap:square;stroke-linejoin:miter;stroke-width:0.8;"/>
   </g>
   <g id="patch_5">
    <path d="M 72 311.48913 
L 518.4 311.48913 
" style="fill:none;stroke:#000000;stroke-linecap:square;stroke-linejoin:miter;stroke-width:0.8;"/>
   </g>
   <g id="patch_6">
    <path d="M 72 42.718509 
L 518.4 42.718509 
" style="fill:none;stroke:#000000;stroke-linecap:square;stroke-linejoin:miter;stroke-width:0.8;"/>
   </g>
   <g id="legend_1">
    <g id="patch_7">
     <path d="M 317.089031 77.817986 
L 507.2 77.817986 
Q 510.4 77.817986 510.4 74.617986 
L 510.4 53.918509 
Q 510.4 50.718509 507.2 50.718509 
L 317.089031 50.718509 
Q 313.889031 50.718509 313.889031 53.918509 
L 313.889031 74.617986 
Q 313.889031 77.817986 317.089031 77.817986 
z
" style="fill:#ffffff;opacity:0.8;stroke:#cccccc;stroke-linejoin:miter;"/>
    </g>
    <g id="line2d_14">
     <path d="M 320.289031 62.718509 
L 352.289031 62.718509 
" style="fill:none;stroke:#0072b2;stroke-linecap:square;stroke-width:1.5;"/>
    </g>
    <g id="line2d_15"/>
    <g id="text_15">
     <!-- binary cross-entropy -->
     <defs>
      <path d="M 15 68.6875 
L 3.09375 67.59375 
L 3.09375 65 
C 9 65 9.90625 64.40625 9.90625 59.640625 
L 9.90625 -0.203125 
L 11.703125 -0.203125 
L 14.59375 6.890625 
C 17.5 2.203125 21.796875 -1 27.59375 -1 
C 37.59375 -1 47.703125 7.8125 47.703125 21.40625 
C 47.703125 34.1875 38.703125 43.59375 28.59375 43.59375 
C 22.40625 43.59375 18 40.296875 15 36.40625 
z
M 15.203125 31.3125 
C 15.203125 33.09375 15.203125 33.40625 16.59375 35.5 
C 20.5 41.515625 26.09375 42 28 42 
C 31 42 41.296875 40.390625 41.296875 21.5 
C 41.296875 1.6875 29.5 0.59375 27.09375 0.59375 
C 24 0.59375 19.5 1.78125 16.296875 7.59375 
C 15.203125 9.5 15.203125 9.703125 15.203125 11.484375 
z
" id="CMR17-98"/>
      <path d="M 15.5 61.078125 
C 15.5 63.265625 13.703125 65.15625 11.40625 65.15625 
C 9.203125 65.15625 7.296875 63.375 7.296875 61.078125 
C 7.296875 58.890625 9.09375 57 11.40625 57 
C 13.59375 57 15.5 58.796875 15.5 61.078125 
M 3.796875 42.28125 
L 3.796875 39.703125 
C 9.40625 39.703125 10.203125 39.09375 10.203125 34.328125 
L 10.203125 6.671875 
C 10.203125 2.875 9.796875 2.390625 3.40625 2.390625 
L 3.40625 -0.203125 
C 5.796875 0 10.09375 0 12.59375 0 
C 15 0 19.09375 0 21.40625 -0.203125 
L 21.40625 2.390625 
C 15.5 2.390625 15.296875 2.984375 15.296875 6.5625 
L 15.296875 43.375 
z
" id="CMR17-105"/>
      <path d="M 41.5 30.203125 
C 41.5 35.296875 40.5 43.59375 28.703125 43.59375 
C 20.796875 43.59375 16.703125 37.5 15.203125 33.5 
L 15.09375 33.5 
L 15.09375 43.59375 
L 3.296875 42.5 
L 3.296875 39.90625 
C 9.203125 39.90625 10.09375 39.296875 10.09375 34.5 
L 10.09375 6.6875 
C 10.09375 2.875 9.703125 2.390625 3.296875 2.390625 
L 3.296875 -0.203125 
C 5.703125 0 10.09375 0 12.703125 0 
C 15.296875 0 19.796875 0 22.203125 -0.203125 
L 22.203125 2.390625 
C 15.796875 2.390625 15.40625 2.78125 15.40625 6.6875 
L 15.40625 25.90625 
C 15.40625 35.109375 21 42 28 42 
C 35.40625 42 36.203125 35.40625 36.203125 30.59375 
L 36.203125 6.6875 
C 36.203125 2.875 35.796875 2.390625 29.40625 2.390625 
L 29.40625 -0.203125 
C 31.796875 0 36.203125 0 38.796875 0 
C 41.40625 0 45.90625 0 48.296875 -0.203125 
L 48.296875 2.390625 
C 41.90625 2.390625 41.5 2.78125 41.5 6.6875 
z
" id="CMR17-110"/>
      <path d="M 36 25.828125 
C 36 32.375 36 35.84375 31.796875 39.734375 
C 28.09375 43 23.796875 44 20.40625 44 
C 12.5 44 6.796875 37.609375 6.796875 30.796875 
C 6.796875 27 9.796875 27 10.40625 27 
C 11.703125 27 14 27.78125 14 30.53125 
C 14 33 12.09375 34.078125 10.40625 34.078125 
C 10 34.078125 9.5 33.96875 9.203125 33.875 
C 11.296875 40.5 16.703125 42.40625 20.203125 42.40625 
C 25.203125 42.40625 30.703125 37.953125 30.703125 29.453125 
L 30.703125 25 
C 24.796875 25 17.703125 24.203125 12.09375 21.203125 
C 5.796875 17.703125 4 12.703125 4 8.90625 
C 4 1.203125 13 -1 18.296875 -1 
C 23.796875 -1 28.90625 2.171875 31.09375 7.984375 
C 31.296875 3.640625 34.09375 -0.28125 38.5 -0.28125 
C 40.59375 -0.28125 45.90625 1.09375 45.90625 8.859375 
L 45.90625 14.375 
L 44.09375 14.375 
L 44.09375 8.78125 
C 44.09375 2.78125 41.40625 2 40.09375 2 
C 36 2 36 7.15625 36 11.53125 
z
M 30.703125 13.59375 
C 30.703125 4.953125 24.5 0.59375 19 0.59375 
C 14 0.59375 10.09375 4.296875 10.09375 8.90625 
C 10.09375 11.890625 11.40625 17.1875 17.203125 20.390625 
C 22 23.09375 27.5 23.5 30.703125 23.5 
z
" id="CMR17-97"/>
      <path d="M 15 23.390625 
C 15 33 19.09375 42 26.59375 42 
C 27.296875 42 28 41.90625 28.703125 41.59375 
C 28.703125 41.59375 26.5 40.890625 26.5 38.3125 
C 26.5 35.90625 28.40625 34.90625 29.90625 34.90625 
C 31.09375 34.90625 33.296875 35.609375 33.296875 38.40625 
C 33.296875 41.609375 30.09375 43.59375 26.703125 43.59375 
C 19.09375 43.59375 15.796875 36.203125 14.796875 32.703125 
L 14.703125 32.703125 
L 14.703125 43.59375 
L 3.09375 42.5 
L 3.09375 39.90625 
C 9 39.90625 9.90625 39.296875 9.90625 34.5 
L 9.90625 6.6875 
C 9.90625 2.875 9.5 2.390625 3.09375 2.390625 
L 3.09375 -0.203125 
C 5.5 0 10.09375 0 12.703125 0 
C 15.59375 0 20.703125 0 23.40625 -0.203125 
L 23.40625 2.390625 
C 16.203125 2.390625 15 2.390625 15 6.875 
z
" id="CMR17-114"/>
      <path d="M 39 34.328125 
C 41.5 40.40625 46 40.40625 47.40625 40.40625 
L 47.40625 43 
C 45.5 43 43 43 41.09375 43 
C 39 43 35.703125 43 33.703125 43.09375 
L 33.703125 40.5 
C 37.5 40.203125 37.59375 37.40625 37.59375 36.609375 
C 37.59375 35.625 37.40625 35.125 36.90625 33.921875 
L 26 7.015625 
L 14.09375 36.03125 
C 13.59375 37.21875 13.59375 37.90625 13.59375 38.015625 
C 13.59375 40.203125 15.90625 40.40625 18.296875 40.40625 
L 18.296875 43.09375 
C 15.90625 43 11.59375 43 9.09375 43 
C 6.40625 43 3.203125 43 1 43.09375 
L 1 40.40625 
C 6.40625 40.40625 7 39.90625 8.296875 36.71875 
L 23.203125 0.234375 
C 18.703125 -11.53125 16.09375 -18.40625 9.796875 -18.40625 
C 8.703125 -18.40625 6.203125 -18.109375 4.40625 -16.3125 
C 6.703125 -16.109375 7.703125 -14.71875 7.703125 -13.015625 
C 7.703125 -11.328125 6.5 -9.828125 4.5 -9.828125 
C 2.296875 -9.828125 1.203125 -11.328125 1.203125 -13.125 
C 1.203125 -17.109375 5.296875 -20 9.796875 -20 
C 15.59375 -20 19.203125 -14.40625 21.203125 -9.4375 
z
" id="CMR17-121"/>
      <path d="M 25.5 19 
L 25.5 23.375 
L 0.40625 23.375 
L 0.40625 19 
z
" id="CMR17-45"/>
      <path d="M 15.09375 40 
L 29.09375 40 
L 29.09375 42.578125 
L 15.09375 42.578125 
L 15.09375 61 
L 13.296875 61 
C 13.09375 50.703125 9.59375 41.6875 1.09375 41.6875 
L 1.09375 40 
L 9.796875 40 
L 9.796875 12.046875 
C 9.796875 10.15625 9.796875 -1 21.40625 -1 
C 27.296875 -1 30.703125 4.78125 30.703125 12.140625 
L 30.703125 17.8125 
L 28.90625 17.8125 
L 28.90625 12.234375 
C 28.90625 5.375 26.203125 0.796875 22 0.796875 
C 19.09375 0.796875 15.09375 2.78125 15.09375 11.84375 
z
" id="CMR17-116"/>
     </defs>
     <g transform="translate(365.089031 68.318509)scale(0.16 -0.16)">
      <use transform="scale(0.996264)" xlink:href="#CMR17-98"/>
      <use transform="translate(50.89537 0)scale(0.996264)" xlink:href="#CMR17-105"/>
      <use transform="translate(75.766428 0)scale(0.996264)" xlink:href="#CMR17-110"/>
      <use transform="translate(126.661798 0)scale(0.996264)" xlink:href="#CMR17-97"/>
      <use transform="translate(172.352275 0)scale(0.996264)" xlink:href="#CMR17-114"/>
      <use transform="translate(207.633043 0)scale(0.996264)" xlink:href="#CMR17-121"/>
      <use transform="translate(286.001925 0)scale(0.996264)" xlink:href="#CMR17-99"/>
      <use transform="translate(326.487586 0)scale(0.996264)" xlink:href="#CMR17-114"/>
      <use transform="translate(361.768353 0)scale(0.996264)" xlink:href="#CMR17-111"/>
      <use transform="translate(407.458831 0)scale(0.996264)" xlink:href="#CMR17-115"/>
      <use transform="translate(443.260168 0)scale(0.996264)" xlink:href="#CMR17-115"/>
      <use transform="translate(479.061506 0)scale(0.996264)" xlink:href="#CMR17-45"/>
      <use transform="translate(509.137472 0)scale(0.996264)" xlink:href="#CMR17-101"/>
      <use transform="translate(549.623133 0)scale(0.996264)" xlink:href="#CMR17-110"/>
      <use transform="translate(597.916048 0)scale(0.996264)" xlink:href="#CMR17-116"/>
      <use transform="translate(633.196816 0)scale(0.996264)" xlink:href="#CMR17-114"/>
      <use transform="translate(668.477584 0)scale(0.996264)" xlink:href="#CMR17-111"/>
      <use transform="translate(714.168061 0)scale(0.996264)" xlink:href="#CMR17-112"/>
      <use transform="translate(762.460977 0)scale(0.996264)" xlink:href="#CMR17-121"/>
     </g>
    </g>
   </g>
  </g>
 </g>
 <defs>
  <clipPath id="p16a48ca2ae">
   <rect height="268.770621" width="446.4" x="72" y="42.718509"/>
  </clipPath>
 </defs>
</svg>
