<?xml version="1.0" encoding="UTF-8" standalone="no"?>
<!DOCTYPE svg PUBLIC "-//W3C//DTD SVG 1.1//EN"
 "http://www.w3.org/Graphics/SVG/1.1/DTD/svg11.dtd">
<!-- Generated by graphviz version 2.38.0 (20140413.2041)
 -->
<!-- Title: G Pages: 1 -->
<svg width="189pt" height="294pt"
 viewBox="0.00 0.00 189.00 294.00" xmlns="http://www.w3.org/2000/svg" xmlns:xlink="http://www.w3.org/1999/xlink">
<g id="graph0" class="graph" transform="scale(1 1) rotate(0) translate(4 290)">
<title>G</title>
<polygon fill="white" stroke="none" points="-4,4 -4,-290 185,-290 185,4 -4,4"/>
<!-- 140348801045280 -->
<g id="node1" class="node"><title>140348801045280</title>
<polygon fill="none" stroke="black" points="0,-166.5 0,-212.5 181,-212.5 181,-166.5 0,-166.5"/>
<text text-anchor="middle" x="25" y="-185.8" font-family="Times,serif" font-size="14.00">Dense</text>
<polyline fill="none" stroke="black" points="50,-166.5 50,-212.5 "/>
<text text-anchor="middle" x="77.5" y="-197.3" font-family="Times,serif" font-size="14.00">input:</text>
<polyline fill="none" stroke="black" points="50,-189.5 105,-189.5 "/>
<text text-anchor="middle" x="77.5" y="-174.3" font-family="Times,serif" font-size="14.00">output:</text>
<polyline fill="none" stroke="black" points="105,-166.5 105,-212.5 "/>
<text text-anchor="middle" x="143" y="-197.3" font-family="Times,serif" font-size="14.00">(None, 1)</text>
<polyline fill="none" stroke="black" points="105,-189.5 181,-189.5 "/>
<text text-anchor="middle" x="143" y="-174.3" font-family="Times,serif" font-size="14.00">(None, 16)</text>
</g>
<!-- 140348795460128 -->
<g id="node2" class="node"><title>140348795460128</title>
<polygon fill="none" stroke="black" points="0,-83.5 0,-129.5 181,-129.5 181,-83.5 0,-83.5"/>
<text text-anchor="middle" x="25" y="-102.8" font-family="Times,serif" font-size="14.00">Dense</text>
<polyline fill="none" stroke="black" points="50,-83.5 50,-129.5 "/>
<text text-anchor="middle" x="77.5" y="-114.3" font-family="Times,serif" font-size="14.00">input:</text>
<polyline fill="none" stroke="black" points="50,-106.5 105,-106.5 "/>
<text text-anchor="middle" x="77.5" y="-91.3" font-family="Times,serif" font-size="14.00">output:</text>
<polyline fill="none" stroke="black" points="105,-83.5 105,-129.5 "/>
<text text-anchor="middle" x="143" y="-114.3" font-family="Times,serif" font-size="14.00">(None, 16)</text>
<polyline fill="none" stroke="black" points="105,-106.5 181,-106.5 "/>
<text text-anchor="middle" x="143" y="-91.3" font-family="Times,serif" font-size="14.00">(None, 32)</text>
</g>
<!-- 140348801045280&#45;&gt;140348795460128 -->
<g id="edge2" class="edge"><title>140348801045280&#45;&gt;140348795460128</title>
<path fill="none" stroke="black" d="M90.5,-166.366C90.5,-158.152 90.5,-148.658 90.5,-139.725"/>
<polygon fill="black" stroke="black" points="94.0001,-139.607 90.5,-129.607 87.0001,-139.607 94.0001,-139.607"/>
</g>
<!-- 140348795461248 -->
<g id="node3" class="node"><title>140348795461248</title>
<polygon fill="none" stroke="black" points="0,-0.5 0,-46.5 181,-46.5 181,-0.5 0,-0.5"/>
<text text-anchor="middle" x="25" y="-19.8" font-family="Times,serif" font-size="14.00">Dense</text>
<polyline fill="none" stroke="black" points="50,-0.5 50,-46.5 "/>
<text text-anchor="middle" x="77.5" y="-31.3" font-family="Times,serif" font-size="14.00">input:</text>
<polyline fill="none" stroke="black" points="50,-23.5 105,-23.5 "/>
<text text-anchor="middle" x="77.5" y="-8.3" font-family="Times,serif" font-size="14.00">output:</text>
<polyline fill="none" stroke="black" points="105,-0.5 105,-46.5 "/>
<text text-anchor="middle" x="143" y="-31.3" font-family="Times,serif" font-size="14.00">(None, 32)</text>
<polyline fill="none" stroke="black" points="105,-23.5 181,-23.5 "/>
<text text-anchor="middle" x="143" y="-8.3" font-family="Times,serif" font-size="14.00">(None, 1)</text>
</g>
<!-- 140348795460128&#45;&gt;140348795461248 -->
<g id="edge3" class="edge"><title>140348795460128&#45;&gt;140348795461248</title>
<path fill="none" stroke="black" d="M90.5,-83.3664C90.5,-75.1516 90.5,-65.6579 90.5,-56.7252"/>
<polygon fill="black" stroke="black" points="94.0001,-56.6068 90.5,-46.6068 87.0001,-56.6069 94.0001,-56.6068"/>
</g>
<!-- 140348800562008 -->
<g id="node4" class="node"><title>140348800562008</title>
<polygon fill="none" stroke="black" points="31.5,-249.5 31.5,-285.5 149.5,-285.5 149.5,-249.5 31.5,-249.5"/>
<text text-anchor="middle" x="90.5" y="-263.8" font-family="Times,serif" font-size="14.00">Input</text>
</g>
<!-- 140348800562008&#45;&gt;140348801045280 -->
<g id="edge1" class="edge"><title>140348800562008&#45;&gt;140348801045280</title>
<path fill="none" stroke="black" d="M90.5,-249.254C90.5,-241.363 90.5,-231.749 90.5,-222.602"/>
<polygon fill="black" stroke="black" points="94.0001,-222.591 90.5,-212.591 87.0001,-222.591 94.0001,-222.591"/>
</g>
</g>
</svg>
