<?xml version="1.0" encoding="utf-8" standalone="no"?>
<!DOCTYPE svg PUBLIC "-//W3C//DTD SVG 1.1//EN"
  "http://www.w3.org/Graphics/SVG/1.1/DTD/svg11.dtd">
<!-- Created with matplotlib (http://matplotlib.org/) -->
<svg height="355pt" version="1.1" viewBox="0 0 576 355" width="576pt" xmlns="http://www.w3.org/2000/svg" xmlns:xlink="http://www.w3.org/1999/xlink">
 <defs>
  <style type="text/css">
*{stroke-linecap:butt;stroke-linejoin:round;}
  </style>
 </defs>
 <g id="figure_1">
  <g id="patch_1">
   <path d="M 0 355.987578 
L 576 355.987578 
L 576 0 
L 0 0 
z
" style="fill:#ffffff;"/>
  </g>
  <g id="axes_1">
   <g id="patch_2">
    <path d="M 72 311.48913 
L 518.4 311.48913 
L 518.4 42.718509 
L 72 42.718509 
z
" style="fill:#ffffff;"/>
   </g>
   <g id="matplotlib.axis_1">
    <g id="xtick_1">
     <g id="line2d_1">
      <defs>
       <path d="M 0 0 
L 0 3.5 
" id="macc3470b6a" style="stroke:#000000;stroke-width:0.8;"/>
      </defs>
      <g>
       <use style="stroke:#000000;stroke-width:0.8;" x="132.872727" xlink:href="#macc3470b6a" y="311.48913"/>
      </g>
     </g>
     <g id="text_1">
      <!-- $-4$ -->
      <defs>
       <path d="M 65.90625 23 
C 67.59375 23 69.40625 23 69.40625 25 
C 69.40625 27 67.59375 27 65.90625 27 
L 11.796875 27 
C 10.09375 27 8.296875 27 8.296875 25 
C 8.296875 23 10.09375 23 11.796875 23 
z
" id="CMSY10-0"/>
       <path d="M 33.59375 64.40625 
C 33.59375 66.5 33.5 66.5 31.703125 66.5 
L 2 19.59375 
L 2 17 
L 27.796875 17 
L 27.796875 7.140625 
C 27.796875 3.5 27.59375 2.5 20.59375 2.5 
L 18.703125 2.5 
L 18.703125 0 
C 21.90625 0 27.296875 0 30.703125 0 
C 34.09375 0 39.5 0 42.703125 0 
L 42.703125 2.5 
L 40.796875 2.5 
C 33.796875 2.5 33.59375 3.5 33.59375 7.140625 
L 33.59375 17 
L 43.796875 17 
L 43.796875 19.59375 
L 33.59375 19.59375 
z
M 28.09375 57.859375 
L 28.09375 19.59375 
L 4 19.59375 
z
" id="CMR17-52"/>
      </defs>
      <g transform="translate(122.771736 329.558719)scale(0.16 -0.16)">
       <use transform="scale(0.996264)" xlink:href="#CMSY10-0"/>
       <use transform="translate(77.487468 0)scale(0.996264)" xlink:href="#CMR17-52"/>
      </g>
     </g>
    </g>
    <g id="xtick_2">
     <g id="line2d_2">
      <g>
       <use style="stroke:#000000;stroke-width:0.8;" x="214.036364" xlink:href="#macc3470b6a" y="311.48913"/>
      </g>
     </g>
     <g id="text_2">
      <!-- $-2$ -->
      <defs>
       <path d="M 41.703125 15.453125 
L 39.90625 15.453125 
C 38.90625 8.375 38.09375 7.171875 37.703125 6.5625 
C 37.203125 5.765625 30 5.765625 28.59375 5.765625 
L 9.40625 5.765625 
C 13 9.671875 20 16.75 28.5 24.953125 
C 34.59375 30.734375 41.703125 37.53125 41.703125 47.421875 
C 41.703125 59.21875 32.296875 66 21.796875 66 
C 10.796875 66 4.09375 56.3125 4.09375 47.34375 
C 4.09375 43.4375 7 42.9375 8.203125 42.9375 
C 9.203125 42.9375 12.203125 43.546875 12.203125 47.03125 
C 12.203125 50.109375 9.59375 51 8.203125 51 
C 7.59375 51 7 50.90625 6.59375 50.703125 
C 8.5 59.21875 14.296875 63.40625 20.40625 63.40625 
C 29.09375 63.40625 34.796875 56.515625 34.796875 47.421875 
C 34.796875 38.734375 29.703125 31.25 24 24.75 
L 4.09375 2.28125 
L 4.09375 0 
L 39.296875 0 
z
" id="CMR17-50"/>
      </defs>
      <g transform="translate(203.935372 329.558719)scale(0.16 -0.16)">
       <use transform="scale(0.996264)" xlink:href="#CMSY10-0"/>
       <use transform="translate(77.487468 0)scale(0.996264)" xlink:href="#CMR17-50"/>
      </g>
     </g>
    </g>
    <g id="xtick_3">
     <g id="line2d_3">
      <g>
       <use style="stroke:#000000;stroke-width:0.8;" x="295.2" xlink:href="#macc3470b6a" y="311.48913"/>
      </g>
     </g>
     <g id="text_3">
      <!-- $0$ -->
      <defs>
       <path d="M 42 31.640625 
C 42 37.75 41.90625 48.125 37.703125 56.109375 
C 34 63.109375 28.09375 65.59375 22.90625 65.59375 
C 18.09375 65.59375 12 63.40625 8.203125 56.203125 
C 4.203125 48.71875 3.796875 39.4375 3.796875 31.640625 
C 3.796875 25.953125 3.90625 17.28125 7 9.671875 
C 11.296875 -0.609375 19 -2 22.90625 -2 
C 27.5 -2 34.5 -0.109375 38.59375 9.375 
C 41.59375 16.28125 42 24.359375 42 31.640625 
M 22.90625 -0.40625 
C 16.5 -0.40625 12.703125 5.078125 11.296875 12.6875 
C 10.203125 18.5625 10.203125 27.15625 10.203125 32.75 
C 10.203125 40.4375 10.203125 46.828125 11.5 52.921875 
C 13.40625 61.390625 19 64 22.90625 64 
C 27 64 32.296875 61.296875 34.203125 53.125 
C 35.5 47.4375 35.59375 40.734375 35.59375 32.75 
C 35.59375 26.25 35.59375 18.265625 34.40625 12.375 
C 32.296875 1.484375 26.40625 -0.40625 22.90625 -0.40625 
" id="CMR17-48"/>
      </defs>
      <g transform="translate(291.298006 329.558719)scale(0.16 -0.16)">
       <use transform="scale(0.996264)" xlink:href="#CMR17-48"/>
      </g>
     </g>
    </g>
    <g id="xtick_4">
     <g id="line2d_4">
      <g>
       <use style="stroke:#000000;stroke-width:0.8;" x="376.363636" xlink:href="#macc3470b6a" y="311.48913"/>
      </g>
     </g>
     <g id="text_4">
      <!-- $2$ -->
      <g transform="translate(372.461643 329.558719)scale(0.16 -0.16)">
       <use transform="scale(0.996264)" xlink:href="#CMR17-50"/>
      </g>
     </g>
    </g>
    <g id="xtick_5">
     <g id="line2d_5">
      <g>
       <use style="stroke:#000000;stroke-width:0.8;" x="457.527273" xlink:href="#macc3470b6a" y="311.48913"/>
      </g>
     </g>
     <g id="text_5">
      <!-- $4$ -->
      <g transform="translate(453.625279 329.558719)scale(0.16 -0.16)">
       <use transform="scale(0.996264)" xlink:href="#CMR17-52"/>
      </g>
     </g>
    </g>
    <g id="text_6">
     <!-- $x$ -->
     <defs>
      <path d="M 47.40625 40.71875 
C 44.203125 40.109375 43 37.71875 43 35.828125 
C 43 33.421875 44.90625 32.625 46.296875 32.625 
C 49.296875 32.625 51.40625 35.21875 51.40625 37.921875 
C 51.40625 42.109375 46.59375 44 42.40625 44 
C 36.296875 44 32.90625 38.015625 32 36.125 
C 29.703125 44 23.5 44 21.703125 44 
C 11.5 44 6.09375 30.9375 6.09375 28.734375 
C 6.09375 28.34375 6.5 27.84375 7.203125 27.84375 
C 8 27.84375 8.203125 28.4375 8.40625 28.84375 
C 11.796875 39.921875 18.5 42.015625 21.40625 42.015625 
C 25.90625 42.015625 26.796875 37.8125 26.796875 35.421875 
C 26.796875 33.234375 26.203125 30.9375 25 26.140625 
L 21.59375 12.46875 
C 20.09375 6.484375 17.203125 1 11.90625 1 
C 11.40625 1 8.90625 1 6.796875 2.296875 
C 10.40625 3 11.203125 5.984375 11.203125 7.1875 
C 11.203125 9.1875 9.703125 10.375 7.796875 10.375 
C 5.40625 10.375 2.796875 8.28125 2.796875 5.09375 
C 2.796875 0.890625 7.5 -1 11.796875 -1 
C 16.59375 -1 20 2.796875 22.09375 6.890625 
C 23.703125 1 28.703125 -1 32.40625 -1 
C 42.59375 -1 48 12.078125 48 14.265625 
C 48 14.765625 47.59375 15.171875 47 15.171875 
C 46.09375 15.171875 46 14.671875 45.703125 13.875 
C 43 5.09375 37.203125 1 32.703125 1 
C 29.203125 1 27.296875 3.59375 27.296875 7.6875 
C 27.296875 9.875 27.703125 11.46875 29.296875 18.0625 
L 32.796875 31.625 
C 34.296875 37.625 37.703125 42.015625 42.296875 42.015625 
C 42.5 42.015625 45.296875 42.015625 47.40625 40.71875 
" id="CMMI12-120"/>
     </defs>
     <g transform="translate(290.765275 347.727783)scale(0.16 -0.16)">
      <use transform="scale(0.996264)" xlink:href="#CMMI12-120"/>
     </g>
    </g>
   </g>
   <g id="matplotlib.axis_2">
    <g id="ytick_1">
     <g id="line2d_6">
      <defs>
       <path d="M 0 0 
L -3.5 0 
" id="m723216514b" style="stroke:#000000;stroke-width:0.8;"/>
      </defs>
      <g>
       <use style="stroke:#000000;stroke-width:0.8;" x="72" xlink:href="#m723216514b" y="272.013702"/>
      </g>
     </g>
     <g id="text_7">
      <!-- $-12.5$ -->
      <defs>
       <path d="M 26.59375 63.40625 
C 26.59375 65.5 26.5 65.5 25.09375 65.5 
C 21.203125 61.1875 15.296875 59.796875 9.703125 59.796875 
C 9.40625 59.796875 8.90625 59.796875 8.796875 59.5 
C 8.703125 59.296875 8.703125 59.09375 8.703125 57 
C 11.796875 57 17 57.59375 21 59.984375 
L 21 7.203125 
C 21 3.6875 20.796875 2.5 12.203125 2.5 
L 9.203125 2.5 
L 9.203125 0 
C 14 0 19 0 23.796875 0 
C 28.59375 0 33.59375 0 38.40625 0 
L 38.40625 2.5 
L 35.40625 2.5 
C 26.796875 2.5 26.59375 3.59375 26.59375 7.15625 
z
" id="CMR17-49"/>
       <path d="M 18.40625 4.796875 
C 18.40625 7.6875 16 9.671875 13.59375 9.671875 
C 10.703125 9.671875 8.703125 7.28125 8.703125 4.890625 
C 8.703125 2 11.09375 0 13.5 0 
C 16.40625 0 18.40625 2.390625 18.40625 4.796875 
" id="CMMI12-58"/>
       <path d="M 11.40625 57.6875 
C 12.40625 57.28125 16.5 56 20.703125 56 
C 30 56 35.09375 61.109375 38 64.0625 
C 38 64.953125 38 65.5 37.40625 65.5 
C 37.296875 65.5 37.09375 65.5 36.296875 65.046875 
C 32.796875 63.40625 28.703125 62.078125 23.703125 62.078125 
C 20.703125 62.078125 16.203125 62.484375 11.296875 64.671875 
C 10.203125 65.171875 10 65.171875 9.90625 65.171875 
C 9.40625 65.171875 9.296875 65.0625 9.296875 63.078125 
L 9.296875 34.421875 
C 9.296875 32.640625 9.296875 32.140625 10.296875 32.140625 
C 10.796875 32.140625 11 32.34375 11.5 33.03125 
C 14.703125 37.515625 19.09375 39.40625 24.09375 39.40625 
C 27.59375 39.40625 35.09375 37.21875 35.09375 20.140625 
C 35.09375 16.953125 35.09375 11.171875 32.09375 6.578125 
C 29.59375 2.484375 25.703125 0.390625 21.40625 0.390625 
C 14.796875 0.390625 8.09375 5 6.296875 12.71875 
C 6.703125 12.609375 7.5 12.421875 7.90625 12.421875 
C 9.203125 12.421875 11.703125 13.125 11.703125 16.21875 
C 11.703125 18.90625 9.796875 20 7.90625 20 
C 5.59375 20 4.09375 18.59375 4.09375 15.796875 
C 4.09375 7.09375 11 -2 21.59375 -2 
C 31.90625 -2 41.703125 6.875 41.703125 19.75 
C 41.703125 31.71875 33.90625 41 24.203125 41 
C 19.09375 41 14.796875 39.109375 11.40625 35.53125 
z
" id="CMR17-53"/>
      </defs>
      <g transform="translate(24.854495 277.548496)scale(0.16 -0.16)">
       <use transform="scale(0.996264)" xlink:href="#CMSY10-0"/>
       <use transform="translate(77.487468 0)scale(0.996264)" xlink:href="#CMR17-49"/>
       <use transform="translate(123.177945 0)scale(0.996264)" xlink:href="#CMR17-50"/>
       <use transform="translate(168.868422 0)scale(0.996264)" xlink:href="#CMMI12-58"/>
       <use transform="translate(195.965599 0)scale(0.996264)" xlink:href="#CMR17-53"/>
      </g>
     </g>
    </g>
    <g id="ytick_2">
     <g id="line2d_7">
      <g>
       <use style="stroke:#000000;stroke-width:0.8;" x="72" xlink:href="#m723216514b" y="231.495012"/>
      </g>
     </g>
     <g id="text_8">
      <!-- $-10.0$ -->
      <g transform="translate(24.854495 237.029806)scale(0.16 -0.16)">
       <use transform="scale(0.996264)" xlink:href="#CMSY10-0"/>
       <use transform="translate(77.487468 0)scale(0.996264)" xlink:href="#CMR17-49"/>
       <use transform="translate(123.177945 0)scale(0.996264)" xlink:href="#CMR17-48"/>
       <use transform="translate(168.868422 0)scale(0.996264)" xlink:href="#CMMI12-58"/>
       <use transform="translate(195.965599 0)scale(0.996264)" xlink:href="#CMR17-48"/>
      </g>
     </g>
    </g>
    <g id="ytick_3">
     <g id="line2d_8">
      <g>
       <use style="stroke:#000000;stroke-width:0.8;" x="72" xlink:href="#m723216514b" y="190.976322"/>
      </g>
     </g>
     <g id="text_9">
      <!-- $-7.5$ -->
      <defs>
       <path d="M 45.09375 61.578125 
L 45.09375 63.765625 
L 21.59375 63.765625 
C 9.90625 63.765625 9.703125 65.078125 9.296875 67 
L 7.5 67 
L 4.59375 48.34375 
L 6.40625 48.34375 
C 6.703125 50.234375 7.40625 55.3125 8.59375 57.203125 
C 9.203125 58 16.59375 58 18.296875 58 
L 40.296875 58 
L 29.203125 41.578125 
C 21.796875 30.53125 16.703125 15.609375 16.703125 2.578125 
C 16.703125 1.390625 16.703125 -2 20.296875 -2 
C 23.90625 -2 23.90625 1.390625 23.90625 2.671875 
L 23.90625 7.265625 
C 23.90625 23.5625 26.703125 34.3125 31.296875 41.1875 
z
" id="CMR17-55"/>
      </defs>
      <g transform="translate(32.658482 196.511116)scale(0.16 -0.16)">
       <use transform="scale(0.996264)" xlink:href="#CMSY10-0"/>
       <use transform="translate(77.487468 0)scale(0.996264)" xlink:href="#CMR17-55"/>
       <use transform="translate(123.177945 0)scale(0.996264)" xlink:href="#CMMI12-58"/>
       <use transform="translate(150.275122 0)scale(0.996264)" xlink:href="#CMR17-53"/>
      </g>
     </g>
    </g>
    <g id="ytick_4">
     <g id="line2d_9">
      <g>
       <use style="stroke:#000000;stroke-width:0.8;" x="72" xlink:href="#m723216514b" y="150.457632"/>
      </g>
     </g>
     <g id="text_10">
      <!-- $-5.0$ -->
      <g transform="translate(32.658482 155.992426)scale(0.16 -0.16)">
       <use transform="scale(0.996264)" xlink:href="#CMSY10-0"/>
       <use transform="translate(77.487468 0)scale(0.996264)" xlink:href="#CMR17-53"/>
       <use transform="translate(123.177945 0)scale(0.996264)" xlink:href="#CMMI12-58"/>
       <use transform="translate(150.275122 0)scale(0.996264)" xlink:href="#CMR17-48"/>
      </g>
     </g>
    </g>
    <g id="ytick_5">
     <g id="line2d_10">
      <g>
       <use style="stroke:#000000;stroke-width:0.8;" x="72" xlink:href="#m723216514b" y="109.938942"/>
      </g>
     </g>
     <g id="text_11">
      <!-- $-2.5$ -->
      <g transform="translate(32.658482 115.473736)scale(0.16 -0.16)">
       <use transform="scale(0.996264)" xlink:href="#CMSY10-0"/>
       <use transform="translate(77.487468 0)scale(0.996264)" xlink:href="#CMR17-50"/>
       <use transform="translate(123.177945 0)scale(0.996264)" xlink:href="#CMMI12-58"/>
       <use transform="translate(150.275122 0)scale(0.996264)" xlink:href="#CMR17-53"/>
      </g>
     </g>
    </g>
    <g id="ytick_6">
     <g id="line2d_11">
      <g>
       <use style="stroke:#000000;stroke-width:0.8;" x="72" xlink:href="#m723216514b" y="69.420251"/>
      </g>
     </g>
     <g id="text_12">
      <!-- $0.0$ -->
      <g transform="translate(45.056478 74.955046)scale(0.16 -0.16)">
       <use transform="scale(0.996264)" xlink:href="#CMR17-48"/>
       <use transform="translate(45.690477 0)scale(0.996264)" xlink:href="#CMMI12-58"/>
       <use transform="translate(72.787654 0)scale(0.996264)" xlink:href="#CMR17-48"/>
      </g>
     </g>
    </g>
    <g id="text_13">
     <!-- $\log r(x)$ -->
     <defs>
      <path d="M 15.296875 68.6875 
L 3.40625 67.59375 
L 3.40625 65 
C 9.296875 65 10.203125 64.40625 10.203125 59.640625 
L 10.203125 6.65625 
C 10.203125 2.875 9.796875 2.390625 3.40625 2.390625 
L 3.40625 -0.203125 
C 5.796875 0 10.203125 0 12.703125 0 
C 15.296875 0 19.703125 0 22.09375 -0.203125 
L 22.09375 2.390625 
C 15.703125 2.390625 15.296875 2.78125 15.296875 6.65625 
z
" id="CMR17-108"/>
      <path d="M 43.09375 21.1875 
C 43.09375 34 33.796875 44 22.90625 44 
C 12 44 2.703125 34 2.703125 21.1875 
C 2.703125 8.609375 12 -1 22.90625 -1 
C 33.796875 -1 43.09375 8.609375 43.09375 21.1875 
M 22.90625 0.796875 
C 18.203125 0.796875 14.203125 3.59375 11.90625 7.5 
C 9.40625 11.984375 9.09375 17.59375 9.09375 22 
C 9.09375 26.203125 9.296875 31.40625 11.90625 35.90625 
C 13.90625 39.203125 17.796875 42.40625 22.90625 42.40625 
C 27.40625 42.40625 31.203125 39.90625 33.59375 36.40625 
C 36.703125 31.703125 36.703125 25.109375 36.703125 22 
C 36.703125 18.09375 36.5 12.109375 33.796875 7.296875 
C 31 2.703125 26.703125 0.796875 22.90625 0.796875 
" id="CMR17-111"/>
      <path d="M 11.09375 18.1875 
C 13 16.6875 16.296875 15 20.296875 15 
C 28.203125 15 35 21.203125 35 29.5 
C 35 32.09375 34.203125 36.09375 31.203125 39.203125 
C 34 42.0625 38.09375 43 40.40625 43 
C 40.796875 43 41.40625 43 41.90625 42.71875 
C 41.5 42.625 40.59375 42.234375 40.59375 40.703125 
C 40.59375 39.484375 41.5 38.609375 42.796875 38.609375 
C 44.296875 38.609375 45.09375 39.578125 45.09375 40.84375 
C 45.09375 42.671875 43.59375 44.59375 40.40625 44.59375 
C 36.40625 44.59375 32.90625 42.78125 30.09375 40.3125 
C 27.09375 43.015625 23.5 44 20.296875 44 
C 12.40625 44 5.59375 37.796875 5.59375 29.5 
C 5.59375 23.78125 8.90625 20.1875 9.90625 19.1875 
C 6.90625 15.6875 6.90625 11.609375 6.90625 11.109375 
C 6.90625 8.515625 7.90625 4.71875 11.296875 2.625 
C 6.09375 1.328125 2 -2.640625 2 -7.59375 
C 2 -14.734375 11.5 -20 22.90625 -20 
C 33.90625 -20 43.796875 -14.9375 43.796875 -7.484375 
C 43.796875 6 29 6 21.296875 6 
C 19 6 14.90625 6 14.40625 6.109375 
C 11.296875 6.609375 9.203125 9.40625 9.203125 12.90625 
C 9.203125 13.796875 9.203125 16 11.09375 18.1875 
M 20.296875 16.6875 
C 11.5 16.6875 11.5 27.5 11.5 29.515625 
C 11.5 31.5 11.5 42.3125 20.296875 42.3125 
C 29.09375 42.3125 29.09375 31.5 29.09375 29.515625 
C 29.09375 27.5 29.09375 16.6875 20.296875 16.6875 
M 22.90625 -18.296875 
C 12.90625 -18.296875 6 -13.046875 6 -7.59375 
C 6 -4.515625 7.703125 -1.640625 9.90625 -0.0625 
C 12.40625 1.625 13.40625 1.625 20.203125 1.625 
C 28.40625 1.625 39.796875 1.625 39.796875 -7.59375 
C 39.796875 -13.046875 32.90625 -18.296875 22.90625 -18.296875 
" id="CMR17-103"/>
      <path d="M 38.90625 40.8125 
C 35.796875 40.21875 34.203125 38.015625 34.203125 35.828125 
C 34.203125 33.421875 36.09375 32.625 37.5 32.625 
C 40.296875 32.625 42.59375 35.03125 42.59375 38.015625 
C 42.59375 41.21875 39.5 44 34.5 44 
C 30.5 44 25.90625 42.203125 21.703125 36.125 
C 21 41.40625 17 44 13 44 
C 9.09375 44 7.09375 41.015625 5.90625 38.8125 
C 4.203125 35.21875 2.703125 29.234375 2.703125 28.734375 
C 2.703125 28.34375 3.09375 27.84375 3.796875 27.84375 
C 4.59375 27.84375 4.703125 27.9375 5.296875 30.234375 
C 6.796875 36.21875 8.703125 42.015625 12.703125 42.015625 
C 15.09375 42.015625 15.796875 40.3125 15.796875 37.421875 
C 15.796875 35.21875 14.796875 31.328125 14.09375 28.234375 
L 11.296875 17.46875 
C 10.90625 15.5625 9.796875 11.078125 9.296875 9.28125 
C 8.59375 6.6875 7.5 2 7.5 1.5 
C 7.5 0.09375 8.59375 -1 10.09375 -1 
C 11.203125 -1 13.09375 -0.296875 13.703125 1.703125 
C 14 2.5 17.703125 17.5625 18.296875 19.859375 
C 18.796875 22.046875 19.40625 24.15625 19.90625 26.34375 
C 20.296875 27.734375 20.703125 29.34375 21 30.640625 
C 21.296875 31.53125 24 36.421875 26.5 38.625 
C 27.703125 39.71875 30.296875 42.015625 34.40625 42.015625 
C 36 42.015625 37.59375 41.71875 38.90625 40.8125 
" id="CMMI12-114"/>
      <path d="M 30.59375 -24.390625 
C 30.59375 -24.296875 30.59375 -24.09375 30.296875 -23.796875 
C 25.703125 -19.125 13.40625 -6.359375 13.40625 24.703125 
C 13.40625 55.765625 25.5 68.421875 30.40625 73.390625 
C 30.40625 73.5 30.59375 73.703125 30.59375 74 
C 30.59375 74.296875 30.296875 74.5 29.90625 74.5 
C 28.796875 74.5 20.296875 67.125 15.40625 56.15625 
C 10.40625 45.109375 9 34.359375 9 24.8125 
C 9 17.625 9.703125 5.484375 15.703125 -7.359375 
C 20.5 -17.734375 28.703125 -25 29.90625 -25 
C 30.40625 -25 30.59375 -24.796875 30.59375 -24.390625 
" id="CMR17-40"/>
      <path d="M 26.296875 24.703125 
C 26.296875 31.875 25.59375 44.015625 19.59375 56.859375 
C 14.796875 67.234375 6.59375 74.5 5.40625 74.5 
C 5.09375 74.5 4.703125 74.390625 4.703125 73.890625 
C 4.703125 73.703125 4.796875 73.59375 4.90625 73.390625 
C 9.703125 68.40625 21.90625 55.75 21.90625 24.75 
C 21.90625 -6.359375 9.796875 -19.015625 4.90625 -24.015625 
C 4.796875 -24.203125 4.703125 -24.3125 4.703125 -24.5 
C 4.703125 -25 5.09375 -25 5.40625 -25 
C 6.5 -25 15 -17.625 19.90625 -6.65625 
C 24.90625 4.390625 26.296875 15.140625 26.296875 24.703125 
" id="CMR17-41"/>
     </defs>
     <g transform="translate(16.869439 202.750458)rotate(-90)scale(0.16 -0.16)">
      <use transform="scale(0.996264)" xlink:href="#CMR17-108"/>
      <use transform="translate(24.871058 0)scale(0.996264)" xlink:href="#CMR17-111"/>
      <use transform="translate(70.561536 0)scale(0.996264)" xlink:href="#CMR17-103"/>
      <use transform="translate(134.157584 0)scale(0.996264)" xlink:href="#CMMI12-114"/>
      <use transform="translate(180.828196 0)scale(0.996264)" xlink:href="#CMR17-40"/>
      <use transform="translate(216.108964 0)scale(0.996264)" xlink:href="#CMMI12-120"/>
      <use transform="translate(271.543023 0)scale(0.996264)" xlink:href="#CMR17-41"/>
     </g>
    </g>
   </g>
   <g id="line2d_12">
    <path clip-path="url(#pe8d7e8d04e)" d="M 92.290909 299.272284 
L 100.423539 284.088394 
L 108.556169 269.392718 
L 116.688799 255.185209 
L 124.821429 241.465852 
L 132.140798 229.535835 
L 139.460157 218.00123 
L 146.779517 206.862068 
L 154.098886 196.118318 
L 161.418255 185.769965 
L 168.737624 175.817054 
L 176.056983 166.259572 
L 183.376352 157.097501 
L 189.88245 149.285407 
L 196.388558 141.78573 
L 202.894666 134.598487 
L 209.400764 127.72368 
L 215.906862 121.161318 
L 222.41297 114.91137 
L 228.919078 108.973848 
L 235.425176 103.348777 
L 241.931274 98.036136 
L 248.437382 93.035916 
L 254.94349 88.348131 
L 260.636318 84.502623 
L 266.329164 80.89631 
L 272.022011 77.529198 
L 277.714839 74.401304 
L 283.407686 71.512608 
L 289.100532 68.863115 
L 294.79336 66.452837 
L 300.486207 64.281758 
L 306.179053 62.349883 
L 311.871881 60.657221 
L 317.564728 59.203759 
L 323.257575 57.989504 
L 328.950402 57.014457 
L 334.643249 56.278615 
L 340.336096 55.781977 
L 346.028923 55.524547 
L 351.72177 55.506321 
L 357.414617 55.727302 
L 363.107444 56.187489 
L 368.800291 56.886881 
L 374.493138 57.825481 
L 380.185965 59.003279 
L 385.878812 60.420289 
L 391.57164 62.076502 
L 397.264486 63.971924 
L 402.957333 66.106554 
L 408.650161 68.480383 
L 414.343008 71.093424 
L 420.035835 73.945663 
L 425.728682 77.037109 
L 431.421529 80.367771 
L 437.114375 83.937635 
L 442.807222 87.746703 
L 448.500069 91.794986 
L 455.006158 96.71448 
L 461.512246 101.946407 
L 468.018373 107.490793 
L 474.524462 113.347574 
L 481.03055 119.516788 
L 487.536678 125.998474 
L 494.042766 132.792555 
L 498.109091 137.197531 
L 498.109091 137.197531 
" style="fill:none;stroke:#0072b2;stroke-linecap:square;stroke-width:1.5;"/>
   </g>
   <g id="line2d_13">
    <path clip-path="url(#pe8d7e8d04e)" d="M 92.290909 220.428373 
L 108.556169 207.95238 
L 196.388558 139.346802 
L 215.906862 123.582545 
L 261.449598 86.350044 
L 265.515903 83.526437 
L 275.275055 77.105866 
L 279.34138 74.751445 
L 282.594424 72.834402 
L 288.287271 69.169891 
L 291.540316 67.729522 
L 300.486207 63.916356 
L 302.112729 63.502331 
L 314.311683 61.062457 
L 328.950402 57.460636 
L 337.896293 55.745153 
L 342.775879 55.005258 
L 345.215662 54.936736 
L 356.601336 55.326828 
L 374.493138 56.955808 
L 376.932921 57.458535 
L 379.372704 58.158202 
L 389.131856 61.273081 
L 394.824703 63.474028 
L 462.325527 93.469736 
L 498.109091 109.38363 
L 498.109091 109.38363 
" style="fill:none;stroke:#009e73;stroke-dasharray:5.6,2.4;stroke-dashoffset:0;stroke-width:1.5;"/>
   </g>
   <g id="patch_3">
    <path d="M 72 311.48913 
L 72 42.718509 
" style="fill:none;stroke:#000000;stroke-linecap:square;stroke-linejoin:miter;stroke-width:0.8;"/>
   </g>
   <g id="patch_4">
    <path d="M 518.4 311.48913 
L 518.4 42.718509 
" style="fill:none;stroke:#000000;stroke-linecap:square;stroke-linejoin:miter;stroke-width:0.8;"/>
   </g>
   <g id="patch_5">
    <path d="M 72 311.48913 
L 518.4 311.48913 
" style="fill:none;stroke:#000000;stroke-linecap:square;stroke-linejoin:miter;stroke-width:0.8;"/>
   </g>
   <g id="patch_6">
    <path d="M 72 42.718509 
L 518.4 42.718509 
" style="fill:none;stroke:#000000;stroke-linecap:square;stroke-linejoin:miter;stroke-width:0.8;"/>
   </g>
   <g id="legend_1">
    <g id="patch_7">
     <path d="M 294.519857 303.48913 
L 507.2 303.48913 
Q 510.4 303.48913 510.4 300.28913 
L 510.4 254.008682 
Q 510.4 250.808682 507.2 250.808682 
L 294.519857 250.808682 
Q 291.319857 250.808682 291.319857 254.008682 
L 291.319857 300.28913 
Q 291.319857 303.48913 294.519857 303.48913 
z
" style="fill:#ffffff;opacity:0.8;stroke:#cccccc;stroke-linejoin:miter;"/>
    </g>
    <g id="line2d_14">
     <path d="M 297.719857 263.56385 
L 329.719857 263.56385 
" style="fill:none;stroke:#0072b2;stroke-linecap:square;stroke-width:1.5;"/>
    </g>
    <g id="line2d_15"/>
    <g id="text_14">
     <!-- true: $\log p(x) - \log q(x)$ -->
     <defs>
      <path d="M 15.09375 40 
L 29.09375 40 
L 29.09375 42.578125 
L 15.09375 42.578125 
L 15.09375 61 
L 13.296875 61 
C 13.09375 50.703125 9.59375 41.6875 1.09375 41.6875 
L 1.09375 40 
L 9.796875 40 
L 9.796875 12.046875 
C 9.796875 10.15625 9.796875 -1 21.40625 -1 
C 27.296875 -1 30.703125 4.78125 30.703125 12.140625 
L 30.703125 17.8125 
L 28.90625 17.8125 
L 28.90625 12.234375 
C 28.90625 5.375 26.203125 0.796875 22 0.796875 
C 19.09375 0.796875 15.09375 2.78125 15.09375 11.84375 
z
" id="CMR17-116"/>
      <path d="M 15 23.390625 
C 15 33 19.09375 42 26.59375 42 
C 27.296875 42 28 41.90625 28.703125 41.59375 
C 28.703125 41.59375 26.5 40.890625 26.5 38.3125 
C 26.5 35.90625 28.40625 34.90625 29.90625 34.90625 
C 31.09375 34.90625 33.296875 35.609375 33.296875 38.40625 
C 33.296875 41.609375 30.09375 43.59375 26.703125 43.59375 
C 19.09375 43.59375 15.796875 36.203125 14.796875 32.703125 
L 14.703125 32.703125 
L 14.703125 43.59375 
L 3.09375 42.5 
L 3.09375 39.90625 
C 9 39.90625 9.90625 39.296875 9.90625 34.5 
L 9.90625 6.6875 
C 9.90625 2.875 9.5 2.390625 3.09375 2.390625 
L 3.09375 -0.203125 
C 5.5 0 10.09375 0 12.703125 0 
C 15.59375 0 20.703125 0 23.40625 -0.203125 
L 23.40625 2.390625 
C 16.203125 2.390625 15 2.390625 15 6.875 
z
" id="CMR17-114"/>
      <path d="M 29.40625 42.078125 
L 29.40625 39.5 
C 35.296875 39.5 36.203125 38.890625 36.203125 34.15625 
L 36.203125 16.125 
C 36.203125 7.8125 31.703125 0.59375 24.296875 0.59375 
C 16.09375 0.59375 15.40625 5.4375 15.40625 10.59375 
L 15.40625 43.171875 
L 3.296875 42.078125 
L 3.296875 39.5 
C 7.296875 39.5 10 39.5 10.09375 35.53125 
L 10.09375 16.53125 
C 10.09375 9.890625 10.09375 5.640625 12.703125 2.859375 
C 14 1.578125 16.5 -1 23.703125 -1 
C 32.203125 -1 35.5 5.890625 36.296875 7.90625 
L 36.40625 7.90625 
L 36.40625 -0.984375 
L 48.296875 -0.984375 
L 48.296875 2 
C 42.40625 2 41.5 2.59375 41.5 7.390625 
L 41.5 43.171875 
z
" id="CMR17-117"/>
      <path d="M 38.09375 23 
C 38.5 23.40625 38.5 23.609375 38.5 24.625 
C 38.5 34.96875 33.09375 44 21.703125 44 
C 11.09375 44 2.703125 33.890625 2.703125 21.609375 
C 2.703125 8.609375 12.203125 -1 22.796875 -1 
C 34 -1 38.40625 9.484375 38.40625 11.5625 
C 38.40625 12.25 37.796875 12.25 37.59375 12.25 
C 36.90625 12.25 36.796875 12.046875 36.40625 10.875 
C 34.203125 4.140625 28.703125 0.796875 23.5 0.796875 
C 19.203125 0.796875 14.90625 3.171875 12.203125 7.5 
C 9.09375 12.546875 9.09375 18.375 9.09375 23 
z
M 9.203125 24.5 
C 9.90625 39.140625 17.59375 42.40625 21.59375 42.40625 
C 28.40625 42.40625 33 35.890625 33.09375 24.5 
z
" id="CMR17-101"/>
      <path d="M 16.59375 38.921875 
C 16.59375 41.40625 14.59375 43 12.5 43 
C 10.5 43 8.40625 41.40625 8.40625 38.921875 
C 8.40625 36.4375 10.40625 34.84375 12.5 34.84375 
C 14.5 34.84375 16.59375 36.4375 16.59375 38.921875 
M 16.59375 4.078125 
C 16.59375 6.5625 14.59375 8.15625 12.5 8.15625 
C 10.5 8.15625 8.40625 6.5625 8.40625 4.078125 
C 8.40625 1.59375 10.40625 0 12.5 0 
C 14.5 0 16.59375 1.59375 16.59375 4.078125 
" id="CMR17-58"/>
      <path d="M 4.296875 -12.328125 
C 3.59375 -15.3125 3.203125 -16.109375 -0.90625 -16.109375 
C -2.09375 -16.109375 -3.09375 -16.109375 -3.09375 -18 
C -3.09375 -18.203125 -3 -19 -1.90625 -19 
C -0.59375 -19 0.796875 -19 2.09375 -19 
L 6.40625 -19 
C 8.5 -19 13.59375 -19 15.703125 -19 
C 16.296875 -19 17.5 -19 17.5 -17.203125 
C 17.5 -16.109375 16.796875 -16.109375 15.09375 -16.109375 
C 10.5 -16.109375 10.203125 -15.421875 10.203125 -14.640625 
C 10.203125 -13.453125 14.703125 3.421875 15.296875 5.6875 
C 16.40625 2.890625 19.09375 -1 24.296875 -1 
C 35.59375 -1 47.796875 13.671875 47.796875 28.34375 
C 47.796875 37.515625 42.59375 44 35.09375 44 
C 28.703125 44 23.296875 37.8125 22.203125 36.421875 
C 21.40625 41.40625 17.5 44 13.5 44 
C 10.59375 44 8.296875 42.609375 6.40625 38.8125 
C 4.59375 35.21875 3.203125 29.140625 3.203125 28.734375 
C 3.203125 28.34375 3.59375 27.84375 4.296875 27.84375 
C 5.09375 27.84375 5.203125 27.9375 5.796875 30.234375 
C 7.296875 36.125 9.203125 42.015625 13.203125 42.015625 
C 15.5 42.015625 16.296875 40.421875 16.296875 37.453125 
C 16.296875 35.078125 16 34.078125 15.59375 32.296875 
z
M 21.59375 31.140625 
C 22.296875 33.921875 25.09375 36.828125 26.703125 38.21875 
C 27.796875 39.21875 31.09375 42.015625 34.90625 42.015625 
C 39.296875 42.015625 41.296875 37.625 41.296875 32.4375 
C 41.296875 27.640625 38.5 16.359375 36 11.171875 
C 33.5 5.78125 28.90625 1 24.296875 1 
C 17.5 1 16.40625 9.578125 16.40625 9.984375 
C 16.40625 10.28125 16.59375 11.078125 16.703125 11.578125 
z
" id="CMMI12-112"/>
      <path d="M 44.09375 43.109375 
C 44.09375 43.59375 43.703125 44 43.203125 44 
C 42.40625 44 38.5 40.390625 36.59375 36.90625 
C 34.796875 41.34375 31.703125 44 27.40625 44 
C 16.09375 44 3.90625 29.4375 3.90625 14.671875 
C 3.90625 4.796875 9.703125 -1 16.5 -1 
C 21.796875 -1 26.203125 3.015625 28.296875 5.296875 
L 28.40625 5.203125 
L 24.59375 -9.609375 
L 23.703125 -13.15625 
C 22.796875 -16.109375 21.296875 -16.109375 16.59375 -16.109375 
C 15.5 -16.109375 14.5 -16.109375 14.5 -18 
C 14.5 -18.703125 15.09375 -19 15.796875 -19 
C 17.203125 -19 19 -19 20.40625 -19 
L 30.59375 -19 
C 32.09375 -19 33.796875 -19 35.296875 -19 
C 35.90625 -19 37.09375 -19 37.09375 -17.109375 
C 37.09375 -16.109375 36.296875 -16.109375 34.796875 -16.109375 
C 30.09375 -16.109375 29.796875 -15.40625 29.796875 -14.609375 
C 29.796875 -14.125 29.90625 -14.03125 30.203125 -12.734375 
z
M 30 11.90625 
C 29.5 10.1875 29.5 10 28.09375 8.09375 
C 25.90625 5.296875 21.5 1 16.796875 1 
C 12.703125 1 10.40625 4.703125 10.40625 10.59375 
C 10.40625 16.09375 13.5 27.296875 15.40625 31.5 
C 18.796875 38.5 23.5 42.109375 27.40625 42.109375 
C 34 42.109375 35.296875 33.90625 35.296875 33.109375 
C 35.296875 33.015625 35 31.6875 34.90625 31.5 
z
" id="CMMI12-113"/>
     </defs>
     <g transform="translate(342.519857 269.16385)scale(0.16 -0.16)">
      <use transform="scale(0.996264)" xlink:href="#CMR17-116"/>
      <use transform="translate(35.280768 0)scale(0.996264)" xlink:href="#CMR17-114"/>
      <use transform="translate(70.561536 0)scale(0.996264)" xlink:href="#CMR17-117"/>
      <use transform="translate(121.456905 0)scale(0.996264)" xlink:href="#CMR17-101"/>
      <use transform="translate(161.942566 0)scale(0.996264)" xlink:href="#CMR17-58"/>
      <use transform="translate(227.299285 0)scale(0.996264)" xlink:href="#CMR17-108"/>
      <use transform="translate(252.170343 0)scale(0.996264)" xlink:href="#CMR17-111"/>
      <use transform="translate(297.86082 0)scale(0.996264)" xlink:href="#CMR17-103"/>
      <use transform="translate(361.456869 0)scale(0.996264)" xlink:href="#CMMI12-112"/>
      <use transform="translate(410.416383 0)scale(0.996264)" xlink:href="#CMR17-40"/>
      <use transform="translate(445.697151 0)scale(0.996264)" xlink:href="#CMMI12-120"/>
      <use transform="translate(501.13121 0)scale(0.996264)" xlink:href="#CMR17-41"/>
      <use transform="translate(558.551185 0)scale(0.996264)" xlink:href="#CMSY10-0"/>
      <use transform="translate(658.17786 0)scale(0.996264)" xlink:href="#CMR17-108"/>
      <use transform="translate(683.048918 0)scale(0.996264)" xlink:href="#CMR17-111"/>
      <use transform="translate(728.739395 0)scale(0.996264)" xlink:href="#CMR17-103"/>
      <use transform="translate(792.335444 0)scale(0.996264)" xlink:href="#CMMI12-113"/>
      <use transform="translate(839.161768 0)scale(0.996264)" xlink:href="#CMR17-40"/>
      <use transform="translate(874.442535 0)scale(0.996264)" xlink:href="#CMMI12-120"/>
      <use transform="translate(929.876595 0)scale(0.996264)" xlink:href="#CMR17-41"/>
     </g>
    </g>
    <g id="line2d_16">
     <path d="M 297.719857 288.389654 
L 329.719857 288.389654 
" style="fill:none;stroke:#009e73;stroke-dasharray:5.6,2.4;stroke-dashoffset:0;stroke-width:1.5;"/>
    </g>
    <g id="line2d_17"/>
    <g id="text_15">
     <!-- estimator: $\log r_{\theta}(x)$ -->
     <defs>
      <path d="M 30.90625 42.140625 
C 30.90625 43.953125 30.796875 44.046875 30.203125 44.046875 
C 29.796875 44.046875 29.703125 43.953125 28.5 42.453125 
C 28.203125 42.046875 27.296875 41.03125 27 40.640625 
C 23.796875 44.046875 19.296875 44.046875 17.59375 44.046875 
C 6.5 44.046875 2.5 38.234375 2.5 32.4375 
C 2.5 23.40625 12.703125 21.328125 15.59375 20.703125 
C 21.90625 19.421875 24.09375 19.015625 26.203125 17.203125 
C 27.5 16.015625 29.703125 13.8125 29.703125 10.21875 
C 29.703125 6 27.296875 0.59375 18.09375 0.59375 
C 9.40625 0.59375 6.296875 7.1875 4.5 15.953125 
C 4.203125 17.34375 4.203125 17.453125 3.40625 17.453125 
C 2.59375 17.453125 2.5 17.34375 2.5 15.359375 
L 2.5 0.984375 
C 2.5 -0.796875 2.59375 -0.90625 3.203125 -0.90625 
C 3.703125 -0.90625 3.796875 -0.796875 4.296875 0 
C 4.90625 0.890625 6.40625 3.296875 7 4.3125 
C 9 1.609375 12.5 -1 18.09375 -1 
C 28 -1 33.296875 4.421875 33.296875 12.25 
C 33.296875 17.375 30.59375 20.078125 29.296875 21.28125 
C 26.296875 24.390625 22.796875 25.09375 18.59375 25.890625 
C 13.09375 27.109375 6.09375 28.515625 6.09375 34.640625 
C 6.09375 37.234375 7.5 42.765625 17.59375 42.765625 
C 28.296875 42.765625 28.90625 32.71875 29.09375 29.5 
C 29.203125 29 29.703125 28.890625 30 28.890625 
C 30.90625 28.890625 30.90625 29.203125 30.90625 30.90625 
z
" id="CMR17-115"/>
      <path d="M 15.5 61.078125 
C 15.5 63.265625 13.703125 65.15625 11.40625 65.15625 
C 9.203125 65.15625 7.296875 63.375 7.296875 61.078125 
C 7.296875 58.890625 9.09375 57 11.40625 57 
C 13.59375 57 15.5 58.796875 15.5 61.078125 
M 3.796875 42.28125 
L 3.796875 39.703125 
C 9.40625 39.703125 10.203125 39.09375 10.203125 34.328125 
L 10.203125 6.671875 
C 10.203125 2.875 9.796875 2.390625 3.40625 2.390625 
L 3.40625 -0.203125 
C 5.796875 0 10.09375 0 12.59375 0 
C 15 0 19.09375 0 21.40625 -0.203125 
L 21.40625 2.390625 
C 15.5 2.390625 15.296875 2.984375 15.296875 6.5625 
L 15.296875 43.375 
z
" id="CMR17-105"/>
      <path d="M 67.59375 30.203125 
C 67.59375 35.1875 66.703125 43.59375 54.796875 43.59375 
C 48 43.59375 43.296875 39 41.5 33.609375 
L 41.40625 33.609375 
C 40.203125 41.8125 34.296875 43.59375 28.703125 43.59375 
C 20.796875 43.59375 16.703125 37.5 15.203125 33.5 
L 15.09375 33.5 
L 15.09375 43.59375 
L 3.296875 42.5 
L 3.296875 39.90625 
C 9.203125 39.90625 10.09375 39.296875 10.09375 34.5 
L 10.09375 6.6875 
C 10.09375 2.875 9.703125 2.390625 3.296875 2.390625 
L 3.296875 -0.203125 
C 5.703125 0 10.09375 0 12.703125 0 
C 15.296875 0 19.796875 0 22.203125 -0.203125 
L 22.203125 2.390625 
C 15.796875 2.390625 15.40625 2.78125 15.40625 6.6875 
L 15.40625 25.90625 
C 15.40625 35.109375 21 42 28 42 
C 35.40625 42 36.203125 35.40625 36.203125 30.59375 
L 36.203125 6.6875 
C 36.203125 2.875 35.796875 2.390625 29.40625 2.390625 
L 29.40625 -0.203125 
C 31.796875 0 36.203125 0 38.796875 0 
C 41.40625 0 45.90625 0 48.296875 -0.203125 
L 48.296875 2.390625 
C 41.90625 2.390625 41.5 2.78125 41.5 6.6875 
L 41.5 25.90625 
C 41.5 35.109375 47.09375 42 54.09375 42 
C 61.5 42 62.296875 35.40625 62.296875 30.59375 
L 62.296875 6.6875 
C 62.296875 2.875 61.90625 2.390625 55.5 2.390625 
L 55.5 -0.203125 
C 57.90625 0 62.296875 0 64.90625 0 
C 67.5 0 72 0 74.40625 -0.203125 
L 74.40625 2.390625 
C 68 2.390625 67.59375 2.78125 67.59375 6.6875 
z
" id="CMR17-109"/>
      <path d="M 36 25.828125 
C 36 32.375 36 35.84375 31.796875 39.734375 
C 28.09375 43 23.796875 44 20.40625 44 
C 12.5 44 6.796875 37.609375 6.796875 30.796875 
C 6.796875 27 9.796875 27 10.40625 27 
C 11.703125 27 14 27.78125 14 30.53125 
C 14 33 12.09375 34.078125 10.40625 34.078125 
C 10 34.078125 9.5 33.96875 9.203125 33.875 
C 11.296875 40.5 16.703125 42.40625 20.203125 42.40625 
C 25.203125 42.40625 30.703125 37.953125 30.703125 29.453125 
L 30.703125 25 
C 24.796875 25 17.703125 24.203125 12.09375 21.203125 
C 5.796875 17.703125 4 12.703125 4 8.90625 
C 4 1.203125 13 -1 18.296875 -1 
C 23.796875 -1 28.90625 2.171875 31.09375 7.984375 
C 31.296875 3.640625 34.09375 -0.28125 38.5 -0.28125 
C 40.59375 -0.28125 45.90625 1.09375 45.90625 8.859375 
L 45.90625 14.375 
L 44.09375 14.375 
L 44.09375 8.78125 
C 44.09375 2.78125 41.40625 2 40.09375 2 
C 36 2 36 7.15625 36 11.53125 
z
M 30.703125 13.59375 
C 30.703125 4.953125 24.5 0.59375 19 0.59375 
C 14 0.59375 10.09375 4.296875 10.09375 8.90625 
C 10.09375 11.890625 11.40625 17.1875 17.203125 20.390625 
C 22 23.09375 27.5 23.5 30.703125 23.5 
z
" id="CMR17-97"/>
      <path d="M 44.296875 50 
C 44.296875 60.15625 41.09375 70 32.90625 70 
C 18.90625 70 4 40.859375 4 19 
C 4 14.421875 5 -1 15.5 -1 
C 29.09375 -1 44.296875 27.4375 44.296875 50 
M 14 36 
C 15.5 41.859375 17.59375 50.21875 21.59375 57.265625 
C 24.90625 63.234375 28.40625 68 32.796875 68 
C 36.09375 68 38.296875 65.21875 38.296875 55.6875 
C 38.296875 52.09375 38 47.140625 35.09375 36 
z
M 34.40625 33.015625 
C 31.90625 23.28125 29.796875 17 26.203125 10.734375 
C 23.296875 5.671875 19.796875 1 15.59375 1 
C 12.5 1 10 3.390625 10 13.21875 
C 10 19.6875 11.59375 26.453125 13.203125 33.015625 
z
" id="CMMI12-18"/>
     </defs>
     <g transform="translate(342.519857 293.989654)scale(0.16 -0.16)">
      <use transform="translate(0 14.943915)scale(0.996264)" xlink:href="#CMR17-101"/>
      <use transform="translate(40.48566 14.943915)scale(0.996264)" xlink:href="#CMR17-115"/>
      <use transform="translate(76.286998 14.943915)scale(0.996264)" xlink:href="#CMR17-116"/>
      <use transform="translate(111.567766 14.943915)scale(0.996264)" xlink:href="#CMR17-105"/>
      <use transform="translate(136.438824 14.943915)scale(0.996264)" xlink:href="#CMR17-109"/>
      <use transform="translate(213.358414 14.943915)scale(0.996264)" xlink:href="#CMR17-97"/>
      <use transform="translate(259.048891 14.943915)scale(0.996264)" xlink:href="#CMR17-116"/>
      <use transform="translate(294.329659 14.943915)scale(0.996264)" xlink:href="#CMR17-111"/>
      <use transform="translate(340.020136 14.943915)scale(0.996264)" xlink:href="#CMR17-114"/>
      <use transform="translate(375.300904 14.943915)scale(0.996264)" xlink:href="#CMR17-58"/>
      <use transform="translate(440.657623 14.943915)scale(0.996264)" xlink:href="#CMR17-108"/>
      <use transform="translate(465.528682 14.943915)scale(0.996264)" xlink:href="#CMR17-111"/>
      <use transform="translate(511.219159 14.943915)scale(0.996264)" xlink:href="#CMR17-103"/>
      <use transform="translate(574.815207 14.943915)scale(0.996264)" xlink:href="#CMMI12-114"/>
      <use transform="translate(618.776101 0)scale(0.697382)" xlink:href="#CMMI12-18"/>
      <use transform="translate(652.992729 14.943915)scale(0.996264)" xlink:href="#CMR17-40"/>
      <use transform="translate(688.273497 14.943915)scale(0.996264)" xlink:href="#CMMI12-120"/>
      <use transform="translate(743.707557 14.943915)scale(0.996264)" xlink:href="#CMR17-41"/>
     </g>
    </g>
   </g>
  </g>
 </g>
 <defs>
  <clipPath id="pe8d7e8d04e">
   <rect height="268.770621" width="446.4" x="72" y="42.718509"/>
  </clipPath>
 </defs>
</svg>
