<?xml version="1.0" encoding="utf-8" standalone="no"?>
<!DOCTYPE svg PUBLIC "-//W3C//DTD SVG 1.1//EN"
  "http://www.w3.org/Graphics/SVG/1.1/DTD/svg11.dtd">
<!-- Created with matplotlib (http://matplotlib.org/) -->
<svg height="288pt" version="1.1" viewBox="0 0 720 288" width="720pt" xmlns="http://www.w3.org/2000/svg" xmlns:xlink="http://www.w3.org/1999/xlink">
 <defs>
  <style type="text/css">
*{stroke-linecap:butt;stroke-linejoin:round;}
  </style>
 </defs>
 <g id="figure_1">
  <g id="patch_1">
   <path d="M 0 288 
L 720 288 
L 720 0 
L 0 0 
z
" style="fill:#ffffff;"/>
  </g>
  <g id="axes_1">
   <g id="patch_2">
    <path d="M 90 252 
L 292.909091 252 
L 292.909091 34.56 
L 90 34.56 
z
" style="fill:#ffffff;"/>
   </g>
   <g id="matplotlib.axis_1">
    <g id="xtick_1">
     <g id="line2d_1">
      <defs>
       <path d="M 0 0 
L 0 3.5 
" id="me45860b956" style="stroke:#000000;stroke-width:0.8;"/>
      </defs>
      <g>
       <use style="stroke:#000000;stroke-width:0.8;" x="123.818182" xlink:href="#me45860b956" y="252"/>
      </g>
     </g>
     <g id="text_1">
      <!-- $-2$ -->
      <defs>
       <path d="M 65.90625 23 
C 67.59375 23 69.40625 23 69.40625 25 
C 69.40625 27 67.59375 27 65.90625 27 
L 11.796875 27 
C 10.09375 27 8.296875 27 8.296875 25 
C 8.296875 23 10.09375 23 11.796875 23 
z
" id="CMSY10-0"/>
       <path d="M 41.703125 15.453125 
L 39.90625 15.453125 
C 38.90625 8.375 38.09375 7.171875 37.703125 6.5625 
C 37.203125 5.765625 30 5.765625 28.59375 5.765625 
L 9.40625 5.765625 
C 13 9.671875 20 16.75 28.5 24.953125 
C 34.59375 30.734375 41.703125 37.53125 41.703125 47.421875 
C 41.703125 59.21875 32.296875 66 21.796875 66 
C 10.796875 66 4.09375 56.3125 4.09375 47.34375 
C 4.09375 43.4375 7 42.9375 8.203125 42.9375 
C 9.203125 42.9375 12.203125 43.546875 12.203125 47.03125 
C 12.203125 50.109375 9.59375 51 8.203125 51 
C 7.59375 51 7 50.90625 6.59375 50.703125 
C 8.5 59.21875 14.296875 63.40625 20.40625 63.40625 
C 29.09375 63.40625 34.796875 56.515625 34.796875 47.421875 
C 34.796875 38.734375 29.703125 31.25 24 24.75 
L 4.09375 2.28125 
L 4.09375 0 
L 39.296875 0 
z
" id="CMR17-50"/>
      </defs>
      <g transform="translate(113.71719 270.069588)scale(0.16 -0.16)">
       <use transform="scale(0.996264)" xlink:href="#CMSY10-0"/>
       <use transform="translate(77.487468 0)scale(0.996264)" xlink:href="#CMR17-50"/>
      </g>
     </g>
    </g>
    <g id="xtick_2">
     <g id="line2d_2">
      <g>
       <use style="stroke:#000000;stroke-width:0.8;" x="191.454545" xlink:href="#me45860b956" y="252"/>
      </g>
     </g>
     <g id="text_2">
      <!-- $0$ -->
      <defs>
       <path d="M 42 31.640625 
C 42 37.75 41.90625 48.125 37.703125 56.109375 
C 34 63.109375 28.09375 65.59375 22.90625 65.59375 
C 18.09375 65.59375 12 63.40625 8.203125 56.203125 
C 4.203125 48.71875 3.796875 39.4375 3.796875 31.640625 
C 3.796875 25.953125 3.90625 17.28125 7 9.671875 
C 11.296875 -0.609375 19 -2 22.90625 -2 
C 27.5 -2 34.5 -0.109375 38.59375 9.375 
C 41.59375 16.28125 42 24.359375 42 31.640625 
M 22.90625 -0.40625 
C 16.5 -0.40625 12.703125 5.078125 11.296875 12.6875 
C 10.203125 18.5625 10.203125 27.15625 10.203125 32.75 
C 10.203125 40.4375 10.203125 46.828125 11.5 52.921875 
C 13.40625 61.390625 19 64 22.90625 64 
C 27 64 32.296875 61.296875 34.203125 53.125 
C 35.5 47.4375 35.59375 40.734375 35.59375 32.75 
C 35.59375 26.25 35.59375 18.265625 34.40625 12.375 
C 32.296875 1.484375 26.40625 -0.40625 22.90625 -0.40625 
" id="CMR17-48"/>
      </defs>
      <g transform="translate(187.552552 270.069588)scale(0.16 -0.16)">
       <use transform="scale(0.996264)" xlink:href="#CMR17-48"/>
      </g>
     </g>
    </g>
    <g id="xtick_3">
     <g id="line2d_3">
      <g>
       <use style="stroke:#000000;stroke-width:0.8;" x="259.090909" xlink:href="#me45860b956" y="252"/>
      </g>
     </g>
     <g id="text_3">
      <!-- $2$ -->
      <g transform="translate(255.188916 270.069588)scale(0.16 -0.16)">
       <use transform="scale(0.996264)" xlink:href="#CMR17-50"/>
      </g>
     </g>
    </g>
    <g id="text_4">
     <!-- $x_1$ -->
     <defs>
      <path d="M 47.40625 40.71875 
C 44.203125 40.109375 43 37.71875 43 35.828125 
C 43 33.421875 44.90625 32.625 46.296875 32.625 
C 49.296875 32.625 51.40625 35.21875 51.40625 37.921875 
C 51.40625 42.109375 46.59375 44 42.40625 44 
C 36.296875 44 32.90625 38.015625 32 36.125 
C 29.703125 44 23.5 44 21.703125 44 
C 11.5 44 6.09375 30.9375 6.09375 28.734375 
C 6.09375 28.34375 6.5 27.84375 7.203125 27.84375 
C 8 27.84375 8.203125 28.4375 8.40625 28.84375 
C 11.796875 39.921875 18.5 42.015625 21.40625 42.015625 
C 25.90625 42.015625 26.796875 37.8125 26.796875 35.421875 
C 26.796875 33.234375 26.203125 30.9375 25 26.140625 
L 21.59375 12.46875 
C 20.09375 6.484375 17.203125 1 11.90625 1 
C 11.40625 1 8.90625 1 6.796875 2.296875 
C 10.40625 3 11.203125 5.984375 11.203125 7.1875 
C 11.203125 9.1875 9.703125 10.375 7.796875 10.375 
C 5.40625 10.375 2.796875 8.28125 2.796875 5.09375 
C 2.796875 0.890625 7.5 -1 11.796875 -1 
C 16.59375 -1 20 2.796875 22.09375 6.890625 
C 23.703125 1 28.703125 -1 32.40625 -1 
C 42.59375 -1 48 12.078125 48 14.265625 
C 48 14.765625 47.59375 15.171875 47 15.171875 
C 46.09375 15.171875 46 14.671875 45.703125 13.875 
C 43 5.09375 37.203125 1 32.703125 1 
C 29.203125 1 27.296875 3.59375 27.296875 7.6875 
C 27.296875 9.875 27.703125 11.46875 29.296875 18.0625 
L 32.796875 31.625 
C 34.296875 37.625 37.703125 42.015625 42.296875 42.015625 
C 42.5 42.015625 45.296875 42.015625 47.40625 40.71875 
" id="CMMI12-120"/>
      <path d="M 26.59375 63.40625 
C 26.59375 65.5 26.5 65.5 25.09375 65.5 
C 21.203125 61.1875 15.296875 59.796875 9.703125 59.796875 
C 9.40625 59.796875 8.90625 59.796875 8.796875 59.5 
C 8.703125 59.296875 8.703125 59.09375 8.703125 57 
C 11.796875 57 17 57.59375 21 59.984375 
L 21 7.203125 
C 21 3.6875 20.796875 2.5 12.203125 2.5 
L 9.203125 2.5 
L 9.203125 0 
C 14 0 19 0 23.796875 0 
C 28.59375 0 33.59375 0 38.40625 0 
L 38.40625 2.5 
L 35.40625 2.5 
C 26.796875 2.5 26.59375 3.59375 26.59375 7.15625 
z
" id="CMR17-49"/>
     </defs>
     <g transform="translate(184.230286 288.238653)scale(0.16 -0.16)">
      <use transform="translate(0 14.943915)scale(0.996264)" xlink:href="#CMMI12-120"/>
      <use transform="translate(55.43406 0)scale(0.697382)" xlink:href="#CMR17-49"/>
     </g>
    </g>
   </g>
   <g id="matplotlib.axis_2">
    <g id="ytick_1">
     <g id="line2d_4">
      <defs>
       <path d="M 0 0 
L -3.5 0 
" id="m8eb3ea8816" style="stroke:#000000;stroke-width:0.8;"/>
      </defs>
      <g>
       <use style="stroke:#000000;stroke-width:0.8;" x="90" xlink:href="#m8eb3ea8816" y="252"/>
      </g>
     </g>
     <g id="text_5">
      <!-- $-10$ -->
      <g transform="translate(54.99403 257.534794)scale(0.16 -0.16)">
       <use transform="scale(0.996264)" xlink:href="#CMSY10-0"/>
       <use transform="translate(77.487468 0)scale(0.996264)" xlink:href="#CMR17-49"/>
       <use transform="translate(123.177945 0)scale(0.996264)" xlink:href="#CMR17-48"/>
      </g>
     </g>
    </g>
    <g id="ytick_2">
     <g id="line2d_5">
      <g>
       <use style="stroke:#000000;stroke-width:0.8;" x="90" xlink:href="#m8eb3ea8816" y="215.76"/>
      </g>
     </g>
     <g id="text_6">
      <!-- $-8$ -->
      <defs>
       <path d="M 27.203125 35.375 
C 33.5 38.546875 39.90625 43.328125 39.90625 50.984375 
C 39.90625 60.015625 31.09375 65.296875 23 65.296875 
C 13.90625 65.296875 5.90625 58.734375 5.90625 49.6875 
C 5.90625 47.203125 6.5 42.921875 10.40625 39.140625 
C 11.40625 38.15625 15.59375 35.171875 18.296875 33.28125 
C 13.796875 30.984375 3.296875 25.53125 3.296875 14.59375 
C 3.296875 4.359375 13.09375 -2 22.796875 -2 
C 33.5 -2 42.5 5.65625 42.5 15.78125 
C 42.5 24.84375 36.40625 29.015625 32.40625 31.703125 
z
M 14.09375 44.09375 
C 13.296875 44.59375 9.296875 47.671875 9.296875 52.359375 
C 9.296875 58.421875 15.59375 63 22.796875 63 
C 30.703125 63 36.5 57.4375 36.5 50.96875 
C 36.5 41.703125 26.09375 36.421875 25.59375 36.421875 
C 25.5 36.421875 25.40625 36.421875 24.59375 37.03125 
z
M 32.5 23.734375 
C 34 22.640625 38.796875 19.375 38.796875 13.296875 
C 38.796875 5.953125 31.40625 0.390625 23 0.390625 
C 13.90625 0.390625 7 6.84375 7 14.6875 
C 7 22.546875 13.09375 29.09375 20 32.1875 
z
" id="CMR17-56"/>
      </defs>
      <g transform="translate(62.798017 221.294794)scale(0.16 -0.16)">
       <use transform="scale(0.996264)" xlink:href="#CMSY10-0"/>
       <use transform="translate(77.487468 0)scale(0.996264)" xlink:href="#CMR17-56"/>
      </g>
     </g>
    </g>
    <g id="ytick_3">
     <g id="line2d_6">
      <g>
       <use style="stroke:#000000;stroke-width:0.8;" x="90" xlink:href="#m8eb3ea8816" y="179.52"/>
      </g>
     </g>
     <g id="text_7">
      <!-- $-6$ -->
      <defs>
       <path d="M 10.59375 34 
C 10.59375 57.65625 21.796875 63 28.296875 63 
C 30.40625 63 35.5 62.640625 37.5 59 
C 35.90625 59 32.90625 59 32.90625 55.515625 
C 32.90625 52.828125 35.09375 51.921875 36.5 51.921875 
C 37.40625 51.921875 40.09375 52.3125 40.09375 55.625 
C 40.09375 61.78125 35.09375 65.296875 28.203125 65.296875 
C 16.296875 65.296875 3.796875 52.96875 3.796875 31 
C 3.796875 3.953125 15.09375 -2 23.09375 -2 
C 32.796875 -2 42 6.671875 42 20.046875 
C 42 32.515625 33.90625 41.59375 23.703125 41.59375 
C 17.59375 41.59375 13.09375 37.609375 10.59375 30.625 
z
M 23.09375 0.390625 
C 10.796875 0.390625 10.796875 18.75 10.796875 22.4375 
C 10.796875 29.625 14.203125 40 23.5 40 
C 25.203125 40 30.09375 40 33.40625 33.125 
C 35.203125 29.21875 35.203125 25.140625 35.203125 20.140625 
C 35.203125 14.75 35.203125 10.78125 33.09375 6.78125 
C 30.90625 2.671875 27.703125 0.390625 23.09375 0.390625 
" id="CMR17-54"/>
      </defs>
      <g transform="translate(62.798017 185.054794)scale(0.16 -0.16)">
       <use transform="scale(0.996264)" xlink:href="#CMSY10-0"/>
       <use transform="translate(77.487468 0)scale(0.996264)" xlink:href="#CMR17-54"/>
      </g>
     </g>
    </g>
    <g id="ytick_4">
     <g id="line2d_7">
      <g>
       <use style="stroke:#000000;stroke-width:0.8;" x="90" xlink:href="#m8eb3ea8816" y="143.28"/>
      </g>
     </g>
     <g id="text_8">
      <!-- $-4$ -->
      <defs>
       <path d="M 33.59375 64.40625 
C 33.59375 66.5 33.5 66.5 31.703125 66.5 
L 2 19.59375 
L 2 17 
L 27.796875 17 
L 27.796875 7.140625 
C 27.796875 3.5 27.59375 2.5 20.59375 2.5 
L 18.703125 2.5 
L 18.703125 0 
C 21.90625 0 27.296875 0 30.703125 0 
C 34.09375 0 39.5 0 42.703125 0 
L 42.703125 2.5 
L 40.796875 2.5 
C 33.796875 2.5 33.59375 3.5 33.59375 7.140625 
L 33.59375 17 
L 43.796875 17 
L 43.796875 19.59375 
L 33.59375 19.59375 
z
M 28.09375 57.859375 
L 28.09375 19.59375 
L 4 19.59375 
z
" id="CMR17-52"/>
      </defs>
      <g transform="translate(62.798017 148.814794)scale(0.16 -0.16)">
       <use transform="scale(0.996264)" xlink:href="#CMSY10-0"/>
       <use transform="translate(77.487468 0)scale(0.996264)" xlink:href="#CMR17-52"/>
      </g>
     </g>
    </g>
    <g id="ytick_5">
     <g id="line2d_8">
      <g>
       <use style="stroke:#000000;stroke-width:0.8;" x="90" xlink:href="#m8eb3ea8816" y="107.04"/>
      </g>
     </g>
     <g id="text_9">
      <!-- $-2$ -->
      <g transform="translate(62.798017 112.574794)scale(0.16 -0.16)">
       <use transform="scale(0.996264)" xlink:href="#CMSY10-0"/>
       <use transform="translate(77.487468 0)scale(0.996264)" xlink:href="#CMR17-50"/>
      </g>
     </g>
    </g>
    <g id="ytick_6">
     <g id="line2d_9">
      <g>
       <use style="stroke:#000000;stroke-width:0.8;" x="90" xlink:href="#m8eb3ea8816" y="70.8"/>
      </g>
     </g>
     <g id="text_10">
      <!-- $0$ -->
      <g transform="translate(75.196013 76.334794)scale(0.16 -0.16)">
       <use transform="scale(0.996264)" xlink:href="#CMR17-48"/>
      </g>
     </g>
    </g>
    <g id="ytick_7">
     <g id="line2d_10">
      <g>
       <use style="stroke:#000000;stroke-width:0.8;" x="90" xlink:href="#m8eb3ea8816" y="34.56"/>
      </g>
     </g>
     <g id="text_11">
      <!-- $2$ -->
      <g transform="translate(75.196013 40.094794)scale(0.16 -0.16)">
       <use transform="scale(0.996264)" xlink:href="#CMR17-50"/>
      </g>
     </g>
    </g>
    <g id="text_12">
     <!-- $x_2$ -->
     <g transform="translate(47.894554 150.504259)rotate(-90)scale(0.16 -0.16)">
      <use transform="translate(0 14.943915)scale(0.996264)" xlink:href="#CMMI12-120"/>
      <use transform="translate(55.43406 0)scale(0.697382)" xlink:href="#CMR17-50"/>
     </g>
    </g>
   </g>
   <g id="LineCollection_1">
    <path clip-path="url(#pa2d8c91c52)" d="M 110.613501 252 
L 111.442447 249.329612 
L 112.359983 246.468262 
L 117.511613 230.724065 
L 122.95784 215.142612 
L 124.111037 212.00125 
L 125.377827 208.597105 
L 127.988389 201.788808 
L 129.313785 198.384655 
L 131.035707 194.129468 
L 134.076144 186.79565 
L 135.88003 182.640475 
L 137.384931 179.236322 
L 140.429462 172.580186 
L 143.379971 166.470761 
L 145.591529 162.055656 
L 153.204093 148.173462 
L 157.106918 141.784742 
L 162.26899 134.104213 
L 166.714606 128.174087 
L 169.502399 124.769943 
L 172.593132 121.278939 
L 175.808294 117.961645 
L 179.00488 114.983018 
L 182.604594 112.004382 
L 186.158346 109.451271 
L 189.667674 107.307748 
L 193.241417 105.514172 
L 196.111778 104.345042 
L 199.197654 103.375434 
L 201.977228 102.742423 
L 204.359722 102.387212 
L 207.139296 102.181425 
L 210.042368 102.217457 
L 212.698452 102.480069 
L 215.478026 102.972968 
L 217.860519 103.58123 
L 221.037182 104.658679 
L 223.419675 105.661955 
L 226.695163 107.323678 
L 230.188147 109.451271 
L 233.753886 112.004382 
L 237.363476 114.983018 
L 240.891305 118.278478 
L 244.067952 121.57018 
L 247.269371 125.19546 
L 250.421278 129.079605 
L 254.491052 134.556868 
L 257.171669 138.440957 
L 262.010358 146.045869 
L 265.510399 152.007396 
L 271.466644 163.096222 
L 278.217035 177.120735 
L 285.863677 194.98051 
L 290.52659 206.910942 
L 292.909091 213.338616 
L 292.909091 213.338616 
" style="fill:none;stroke:#d9e8f5;stroke-width:1.5;"/>
    <path clip-path="url(#pa2d8c91c52)" d="M 292.909091 189.026438 
L 290.710461 183.065992 
L 286.479161 172.002508 
L 283.270882 163.917651 
L 279.04081 153.705209 
L 275.437469 145.398058 
L 273.245491 140.514131 
L 264.995757 123.493383 
L 260.194767 114.557492 
L 254.392103 104.754167 
L 251.947682 100.940906 
L 248.435858 95.818204 
L 245.624349 92.005015 
L 242.230549 87.749828 
L 238.865537 83.920158 
L 235.554794 80.516005 
L 232.793742 77.962904 
L 230.170074 75.775074 
L 227.381188 73.707717 
L 225.008007 72.147595 
L 221.694967 70.303564 
L 219.448851 69.255712 
L 216.560599 68.175979 
L 214.286783 67.512945 
L 211.507201 66.954389 
L 208.727627 66.651178 
L 205.948053 66.615535 
L 203.56556 66.794853 
L 200.785978 67.247853 
L 197.609323 68.085105 
L 194.43266 69.26288 
L 191.256005 70.78847 
L 188.873512 72.150442 
L 185.696849 74.26838 
L 182.123113 77.059288 
L 178.549369 80.270413 
L 175.370634 83.494641 
L 172.196051 87.035767 
L 169.019388 90.917073 
L 166.239814 94.5901 
L 163.46024 98.505877 
L 160.97457 102.217457 
L 156.21989 109.876788 
L 151.855862 117.536128 
L 147.791956 125.19546 
L 139.388063 142.641725 
L 136.729673 148.598979 
L 131.137401 161.790057 
L 123.127317 182.214949 
L 121.369508 186.968006 
L 120.290712 189.874281 
L 118.902327 193.703951 
L 116.322538 200.937774 
L 114.992473 204.767435 
L 113.655767 208.597105 
L 102.779627 241.787558 
L 101.850608 244.766177 
L 100.522287 249.021364 
L 99.615117 252 
L 99.615117 252 
" style="fill:none;stroke:#d9e8f5;stroke-width:1.5;"/>
   </g>
   <g id="LineCollection_2">
    <path clip-path="url(#pa2d8c91c52)" d="M 110.072227 252 
L 112.236609 245.024859 
L 114.366681 238.383405 
L 117.795765 228.003675 
L 121.581247 217.10747 
L 124.149083 209.999461 
L 132.884894 187.707782 
L 139.238211 173.234102 
L 144.98678 161.36454 
L 147.868314 155.832802 
L 150.753601 150.572862 
L 155.518591 142.494746 
L 159.886497 135.738605 
L 163.857321 130.128698 
L 167.683605 125.19546 
L 170.60772 121.731334 
L 174.085127 117.961645 
L 177.112872 114.983018 
L 180.137701 112.287657 
L 183.154962 109.876788 
L 186.161814 107.749195 
L 189.270593 105.840341 
L 192.114731 104.345042 
L 195.22683 102.99138 
L 198.006404 102.028427 
L 200.785978 101.294068 
L 203.56556 100.793176 
L 206.418852 100.515389 
L 209.124708 100.478993 
L 211.90429 100.670257 
L 214.683864 101.08949 
L 217.661958 101.79194 
L 220.640101 102.762264 
L 223.457151 103.919525 
L 226.59633 105.492095 
L 229.375912 107.128763 
L 232.200082 109.025754 
L 235.537081 111.578865 
L 238.509773 114.131975 
L 241.685467 117.15668 
L 244.888004 120.514756 
L 248.22154 124.344426 
L 251.295157 128.174087 
L 254.464361 132.429274 
L 257.993609 137.535504 
L 261.803546 143.492758 
L 265.113318 149.040536 
L 269.129913 156.258319 
L 273.097676 163.917651 
L 277.208609 172.428025 
L 280.683096 180.087356 
L 284.853709 189.874281 
L 288.27003 198.384655 
L 292.51201 209.598036 
L 292.909091 210.68489 
L 292.909091 210.68489 
" style="fill:none;stroke:#b7d4ea;stroke-width:1.5;"/>
    <path clip-path="url(#pa2d8c91c52)" d="M 292.909091 191.678157 
L 287.105372 176.257695 
L 281.522774 162.215574 
L 276.131079 149.450022 
L 272.131169 140.514131 
L 267.8929 131.571288 
L 264.482259 124.769943 
L 259.921827 116.259569 
L 256.496438 110.302314 
L 252.275764 103.494008 
L 248.435858 97.812696 
L 245.259211 93.483702 
L 242.046241 89.451896 
L 238.701383 85.622226 
L 235.729222 82.539004 
L 232.552575 79.57593 
L 229.375912 76.95614 
L 226.199249 74.682361 
L 223.204465 72.856683 
L 220.733271 71.580114 
L 218.654689 70.666681 
L 216.272196 69.803498 
L 213.889694 69.134925 
L 211.095544 68.601496 
L 208.727627 68.354035 
L 206.345134 68.302511 
L 203.962641 68.444431 
L 201.183059 68.856012 
L 198.403485 69.533053 
L 196.020991 70.323483 
L 193.638498 71.303838 
L 190.858924 72.694052 
L 187.682261 74.606205 
L 184.902687 76.556325 
L 181.726024 79.106054 
L 178.549369 81.99471 
L 175.372706 85.223619 
L 172.196051 88.783856 
L 169.019388 92.680113 
L 165.842734 96.907949 
L 162.666071 101.465715 
L 159.489416 106.348088 
L 156.548093 111.153348 
L 151.942549 119.238205 
L 148.983513 124.769943 
L 143.606121 135.526536 
L 140.653259 141.790682 
L 134.797626 154.98176 
L 130.706982 164.768693 
L 123.688213 182.640475 
L 119.579017 193.703951 
L 110.800438 218.809556 
L 100.111511 252 
L 100.111511 252 
" style="fill:none;stroke:#b7d4ea;stroke-width:1.5;"/>
   </g>
   <g id="LineCollection_3">
    <path clip-path="url(#pa2d8c91c52)" d="M 109.630769 252 
L 113.427859 239.816052 
L 118.380589 224.76681 
L 122.560759 212.814206 
L 126.316716 202.639842 
L 130.5024 191.937392 
L 134.076144 183.310933 
L 137.72573 174.981135 
L 141.282022 167.321804 
L 144.846591 160.087989 
L 148.416496 153.279683 
L 151.988222 146.896912 
L 155.557642 140.939648 
L 159.119805 135.40791 
L 162.668689 130.301681 
L 166.196454 125.620977 
L 169.416477 121.689301 
L 172.747633 117.961645 
L 175.769787 114.874689 
L 178.94645 111.932005 
L 182.123113 109.296195 
L 185.400303 106.898161 
L 188.079342 105.177171 
L 191.104442 103.494008 
L 193.816579 102.217457 
L 196.418072 101.198229 
L 199.197654 100.333112 
L 202.16376 99.664338 
L 204.756802 99.291926 
L 207.536385 99.114259 
L 210.315959 99.165807 
L 213.095533 99.445585 
L 215.875107 99.953683 
L 218.654689 100.690117 
L 221.434263 101.654472 
L 224.213837 102.84711 
L 227.130885 104.345042 
L 229.975531 106.047127 
L 232.949656 108.081987 
L 236.126303 110.545595 
L 239.302966 113.309799 
L 242.479629 116.373355 
L 245.656292 119.739157 
L 248.904378 123.493383 
L 252.406682 127.898807 
L 255.734294 132.429274 
L 259.55417 138.052926 
L 262.730833 143.075682 
L 266.014548 148.598979 
L 270.031132 155.832802 
L 274.414776 164.343168 
L 279.270574 174.555618 
L 284.649948 186.895662 
L 287.930869 194.98051 
L 292.909091 208.142044 
L 292.909091 208.142044 
" style="fill:none;stroke:#7fb9da;stroke-width:1.5;"/>
    <path clip-path="url(#pa2d8c91c52)" d="M 292.909091 194.22228 
L 289.543736 185.193577 
L 286.158684 176.323097 
L 276.063326 151.577615 
L 272.657887 143.848352 
L 266.892739 131.57824 
L 263.68379 125.19546 
L 260.294173 118.812679 
L 256.377507 111.907983 
L 252.406682 105.430172 
L 248.562723 99.664338 
L 245.259211 95.108007 
L 241.793549 90.728447 
L 238.843991 87.324311 
L 235.729222 84.053786 
L 232.894643 81.367039 
L 229.772993 78.728447 
L 226.993411 76.661688 
L 224.213837 74.862133 
L 221.340714 73.2822 
L 218.654689 72.062739 
L 216.162877 71.154597 
L 213.492614 70.419254 
L 211.11012 69.970906 
L 208.727627 69.718402 
L 206.345134 69.661849 
L 203.962641 69.800436 
L 201.580148 70.135015 
L 198.95728 70.729081 
L 196.418072 71.528374 
L 193.638498 72.657733 
L 190.858924 74.050728 
L 188.079342 75.707828 
L 185.299768 77.62793 
L 182.520194 79.810096 
L 179.740612 82.25307 
L 176.563957 85.364281 
L 173.387294 88.81316 
L 170.210639 92.598113 
L 166.74302 97.111236 
L 163.720161 101.366423 
L 160.283577 106.563843 
L 156.423962 112.855424 
L 153.136098 118.584281 
L 149.116839 126.046494 
L 144.797368 134.615704 
L 140.006709 144.769318 
L 134.870306 156.391498 
L 129.623107 169.023872 
L 123.958437 183.491509 
L 119.674425 194.98051 
L 113.427859 212.565309 
L 107.452131 230.298548 
L 100.646501 251.574483 
L 100.516106 252 
L 100.516106 252 
" style="fill:none;stroke:#7fb9da;stroke-width:1.5;"/>
   </g>
   <g id="LineCollection_4">
    <path clip-path="url(#pa2d8c91c52)" d="M 109.181737 252 
L 112.588613 240.936524 
L 114.623258 234.553735 
L 116.418695 229.021997 
L 124.264273 206.469512 
L 127.956875 196.682587 
L 135.840327 177.534246 
L 141.620709 164.956407 
L 144.225688 159.662464 
L 149.865866 149.024505 
L 154.84711 140.514131 
L 159.224292 133.705834 
L 163.427605 127.74857 
L 167.043045 123.067866 
L 170.264035 119.238205 
L 173.784383 115.420939 
L 176.961038 112.297723 
L 180.17921 109.451271 
L 182.917275 107.272442 
L 186.09393 105.025913 
L 189.302135 103.068491 
L 192.050167 101.629383 
L 195.22683 100.248993 
L 198.403485 99.168338 
L 201.183059 98.465923 
L 204.210708 97.96227 
L 206.742215 97.741754 
L 209.521789 97.720749 
L 212.301371 97.928443 
L 215.214819 98.387787 
L 217.860519 99.014655 
L 220.640101 99.897569 
L 223.816756 101.182723 
L 226.993411 102.762823 
L 230.170074 104.636087 
L 233.473404 106.898161 
L 236.228002 109.025754 
L 239.21072 111.578865 
L 242.082548 114.280714 
L 245.259211 117.55409 
L 248.649382 121.36579 
L 252.120599 125.620977 
L 255.980426 130.770764 
L 259.157089 135.334884 
L 261.994849 139.663088 
L 265.668545 145.620352 
L 271.221269 155.407277 
L 277.134333 166.896278 
L 281.356102 175.832169 
L 283.826962 181.363916 
L 285.834783 186.044619 
L 288.103301 191.576366 
L 289.458353 194.98051 
L 292.813121 203.916401 
L 292.909091 204.212249 
L 292.909091 204.212249 
" style="fill:none;stroke:#4a98c9;stroke-width:1.5;"/>
    <path clip-path="url(#pa2d8c91c52)" d="M 292.909091 198.15203 
L 291.877023 195.406027 
L 290.52659 191.72474 
L 289.506889 189.023247 
L 288.085682 185.193577 
L 285.513083 178.385288 
L 284.17328 174.846148 
L 282.736616 171.151465 
L 281.393698 167.689842 
L 279.203487 162.215574 
L 277.025792 156.861585 
L 267.495819 135.273081 
L 261.142494 122.558027 
L 255.980426 113.244947 
L 251.311939 105.62161 
L 248.435858 101.295962 
L 244.465033 95.801025 
L 240.891305 91.329072 
L 237.714642 87.723362 
L 234.537979 84.47502 
L 231.612273 81.792556 
L 228.463435 79.239454 
L 225.405088 77.090648 
L 222.603757 75.409784 
L 219.845931 74.025194 
L 216.961744 72.856683 
L 214.178506 72.005631 
L 211.507201 71.444989 
L 208.727627 71.120722 
L 206.345134 71.059659 
L 203.962641 71.193089 
L 201.183059 71.598285 
L 198.403485 72.274255 
L 196.020991 73.064213 
L 193.451209 74.133234 
L 190.858924 75.444024 
L 188.069179 77.111852 
L 184.902687 79.331188 
L 182.123113 81.560458 
L 179.343531 84.050875 
L 176.471676 86.898794 
L 173.354898 90.30293 
L 170.15976 94.1326 
L 167.033976 98.207635 
L 163.303493 103.494008 
L 160.283577 108.098247 
L 155.84439 115.408535 
L 151.944847 122.33853 
L 146.26568 133.280317 
L 142.757145 140.514131 
L 137.137831 152.854166 
L 132.762933 163.066617 
L 128.421052 173.704584 
L 122.488398 189.023247 
L 114.160222 212.00125 
L 103.485747 243.915143 
L 101.195264 251.148966 
L 100.931225 252 
L 100.931225 252 
" style="fill:none;stroke:#4a98c9;stroke-width:1.5;"/>
   </g>
   <g id="LineCollection_5">
    <path clip-path="url(#pa2d8c91c52)" d="M 108.616717 252 
L 109.504605 249.021364 
L 110.913417 244.34066 
L 111.959049 240.936524 
L 115.590697 229.447514 
L 123.592907 206.043995 
L 125.340329 201.309992 
L 126.746985 197.533621 
L 129.049777 191.576366 
L 133.919897 179.661839 
L 142.888196 160.087989 
L 146.138383 153.705209 
L 152.035809 143.067242 
L 156.194152 136.258944 
L 161.077747 128.984528 
L 163.857321 125.177805 
L 166.829757 121.36579 
L 170.440732 117.110611 
L 173.784383 113.523861 
L 177.100515 110.302314 
L 180.006765 107.749195 
L 182.681659 105.62161 
L 185.299768 103.741091 
L 188.873512 101.506291 
L 192.447248 99.651434 
L 194.829749 98.614466 
L 198.006404 97.501027 
L 200.388897 96.851874 
L 203.523203 96.260202 
L 205.948053 95.987562 
L 208.727627 95.893473 
L 211.507201 96.016711 
L 214.286783 96.366722 
L 217.066357 96.936067 
L 220.24302 97.860613 
L 223.419675 99.070549 
L 226.993411 100.776533 
L 230.567155 102.843935 
L 234.140899 105.273609 
L 237.336122 107.749195 
L 240.310907 110.302314 
L 243.273791 113.088395 
L 246.847534 116.768041 
L 250.421278 120.780203 
L 253.721025 124.769943 
L 258.620027 131.152723 
L 265.907496 141.138796 
L 267.376909 142.641725 
L 267.495819 142.736119 
L 267.598609 142.641725 
L 267.657293 142.216208 
L 267.382385 140.939648 
L 266.304577 137.854398 
L 262.333752 128.760757 
L 257.546893 119.238205 
L 252.803763 110.838853 
L 248.435858 103.90024 
L 244.465033 98.232745 
L 240.891305 93.628822 
L 237.66618 89.877413 
L 234.537979 86.603372 
L 231.683545 83.920158 
L 228.581751 81.337949 
L 225.685137 79.239454 
L 222.625514 77.350727 
L 220.24302 76.107674 
L 217.660685 74.984267 
L 215.080945 74.102234 
L 212.301371 73.418568 
L 209.918878 73.047353 
L 207.536385 72.870249 
L 205.153883 72.899427 
L 202.374309 73.185885 
L 199.991816 73.644036 
L 197.609323 74.30464 
L 195.22683 75.160873 
L 192.740874 76.260818 
L 189.600559 77.962904 
L 186.344409 80.090488 
L 183.314356 82.400691 
L 180.534782 84.790408 
L 177.358119 87.854548 
L 174.275705 91.153981 
L 171.368381 94.558117 
L 168.225227 98.564088 
L 164.254402 104.091856 
L 159.653138 111.153348 
L 157.068994 115.408535 
L 152.341932 123.755029 
L 145.47778 137.109978 
L 142.01779 144.345625 
L 131.251222 169.023872 
L 120.575339 196.333918 
L 119.033612 200.512257 
L 117.784948 203.916401 
L 116.1045 208.597105 
L 109.059954 228.797698 
L 107.709504 232.851667 
L 105.026435 240.936524 
L 102.4101 249.021364 
L 101.515393 251.787145 
L 101.455128 252 
L 101.455128 252 
" style="fill:none;stroke:#2070b4;stroke-width:1.5;"/>
   </g>
   <g id="LineCollection_6">
    <path clip-path="url(#pa2d8c91c52)" d="M 107.489445 252 
L 108.443946 248.595847 
L 111.442447 238.354836 
L 112.427395 234.979252 
L 114.630589 227.745446 
L 115.664243 224.341293 
L 116.607283 221.362657 
L 117.664057 217.958504 
L 118.622837 214.979886 
L 119.853534 211.150216 
L 121.671834 205.618478 
L 122.560759 203.000224 
L 123.529173 200.086731 
L 126.202266 192.4274 
L 127.568417 188.59773 
L 128.198912 186.895662 
L 129.630804 183.065992 
L 130.130619 181.789432 
L 130.768911 180.087356 
L 131.300967 178.810805 
L 131.951853 177.108729 
L 132.501563 175.832169 
L 133.188545 174.130101 
L 133.679059 173.019591 
L 134.271813 171.576991 
L 134.870306 170.299664 
L 135.408163 169.023872 
L 137.252803 165.08561 
L 138.046965 163.422534 
L 139.024544 161.36454 
L 140.093866 159.236947 
L 142.265382 154.98176 
L 143.628991 152.428649 
L 145.468497 149.024505 
L 147.62929 145.194835 
L 150.629255 140.088614 
L 158.061188 128.599613 
L 163.063151 121.777977 
L 166.108188 117.961645 
L 169.813558 113.691623 
L 173.022896 110.302314 
L 176.166876 107.265947 
L 179.740612 104.152959 
L 183.376688 101.366423 
L 186.09393 99.518942 
L 189.667674 97.41295 
L 192.872973 95.834685 
L 195.22683 94.848808 
L 198.006404 93.890021 
L 201.183059 93.058533 
L 203.962641 92.561276 
L 207.139296 92.251518 
L 209.918878 92.207083 
L 212.698452 92.376166 
L 215.875107 92.818701 
L 219.448851 93.630824 
L 223.022594 94.768567 
L 226.667346 96.260202 
L 229.375912 97.559605 
L 232.155494 99.042678 
L 240.494225 103.787401 
L 241.288386 104.013433 
L 241.785457 103.919525 
L 241.977326 103.494008 
L 241.835706 102.642974 
L 241.288386 101.297101 
L 240.097128 99.161661 
L 238.111723 96.208616 
L 235.729222 93.144738 
L 233.231102 90.30293 
L 230.567155 87.623192 
L 228.18467 85.498321 
L 225.642472 83.494641 
L 222.625514 81.462966 
L 220.640101 80.323517 
L 218.257608 79.152733 
L 215.478026 78.063669 
L 213.492614 77.463186 
L 210.713039 76.873876 
L 208.330546 76.592406 
L 205.948053 76.523904 
L 203.275589 76.686335 
L 200.785978 77.079564 
L 198.800565 77.552365 
L 196.020991 78.45904 
L 193.18738 79.664971 
L 190.007012 81.367039 
L 186.741834 83.494641 
L 183.422633 86.047743 
L 180.519957 88.600862 
L 177.358119 91.733516 
L 174.400252 94.983634 
L 171.401882 98.593516 
L 167.701699 103.494008 
L 165.030497 107.323678 
L 160.680658 114.112704 
L 155.502648 123.067866 
L 149.165273 135.30377 
L 140.361071 154.556243 
L 134.994237 167.321804 
L 134.442942 168.598355 
L 133.573419 170.725948 
L 119.312892 205.192961 
L 108.662873 233.939276 
L 107.721833 236.681337 
L 105.380067 243.489626 
L 102.531839 252 
L 102.531839 252 
" style="fill:none;stroke:#084a91;stroke-width:1.5;"/>
   </g>
   <g id="patch_3">
    <path d="M 90 252 
L 90 34.56 
" style="fill:none;stroke:#000000;stroke-linecap:square;stroke-linejoin:miter;stroke-width:0.8;"/>
   </g>
   <g id="patch_4">
    <path d="M 292.909091 252 
L 292.909091 34.56 
" style="fill:none;stroke:#000000;stroke-linecap:square;stroke-linejoin:miter;stroke-width:0.8;"/>
   </g>
   <g id="patch_5">
    <path d="M 90 252 
L 292.909091 252 
" style="fill:none;stroke:#000000;stroke-linecap:square;stroke-linejoin:miter;stroke-width:0.8;"/>
   </g>
   <g id="patch_6">
    <path d="M 90 34.56 
L 292.909091 34.56 
" style="fill:none;stroke:#000000;stroke-linecap:square;stroke-linejoin:miter;stroke-width:0.8;"/>
   </g>
   <g id="text_13">
    <!-- true: $\frac{p(\mathbf{x})}{p(\mathbf{x}) + q(\mathbf{x})}$ -->
    <defs>
     <path d="M 15.09375 40 
L 29.09375 40 
L 29.09375 42.578125 
L 15.09375 42.578125 
L 15.09375 61 
L 13.296875 61 
C 13.09375 50.703125 9.59375 41.6875 1.09375 41.6875 
L 1.09375 40 
L 9.796875 40 
L 9.796875 12.046875 
C 9.796875 10.15625 9.796875 -1 21.40625 -1 
C 27.296875 -1 30.703125 4.78125 30.703125 12.140625 
L 30.703125 17.8125 
L 28.90625 17.8125 
L 28.90625 12.234375 
C 28.90625 5.375 26.203125 0.796875 22 0.796875 
C 19.09375 0.796875 15.09375 2.78125 15.09375 11.84375 
z
" id="CMR17-116"/>
     <path d="M 15 23.390625 
C 15 33 19.09375 42 26.59375 42 
C 27.296875 42 28 41.90625 28.703125 41.59375 
C 28.703125 41.59375 26.5 40.890625 26.5 38.3125 
C 26.5 35.90625 28.40625 34.90625 29.90625 34.90625 
C 31.09375 34.90625 33.296875 35.609375 33.296875 38.40625 
C 33.296875 41.609375 30.09375 43.59375 26.703125 43.59375 
C 19.09375 43.59375 15.796875 36.203125 14.796875 32.703125 
L 14.703125 32.703125 
L 14.703125 43.59375 
L 3.09375 42.5 
L 3.09375 39.90625 
C 9 39.90625 9.90625 39.296875 9.90625 34.5 
L 9.90625 6.6875 
C 9.90625 2.875 9.5 2.390625 3.09375 2.390625 
L 3.09375 -0.203125 
C 5.5 0 10.09375 0 12.703125 0 
C 15.59375 0 20.703125 0 23.40625 -0.203125 
L 23.40625 2.390625 
C 16.203125 2.390625 15 2.390625 15 6.875 
z
" id="CMR17-114"/>
     <path d="M 29.40625 42.078125 
L 29.40625 39.5 
C 35.296875 39.5 36.203125 38.890625 36.203125 34.15625 
L 36.203125 16.125 
C 36.203125 7.8125 31.703125 0.59375 24.296875 0.59375 
C 16.09375 0.59375 15.40625 5.4375 15.40625 10.59375 
L 15.40625 43.171875 
L 3.296875 42.078125 
L 3.296875 39.5 
C 7.296875 39.5 10 39.5 10.09375 35.53125 
L 10.09375 16.53125 
C 10.09375 9.890625 10.09375 5.640625 12.703125 2.859375 
C 14 1.578125 16.5 -1 23.703125 -1 
C 32.203125 -1 35.5 5.890625 36.296875 7.90625 
L 36.40625 7.90625 
L 36.40625 -0.984375 
L 48.296875 -0.984375 
L 48.296875 2 
C 42.40625 2 41.5 2.59375 41.5 7.390625 
L 41.5 43.171875 
z
" id="CMR17-117"/>
     <path d="M 38.09375 23 
C 38.5 23.40625 38.5 23.609375 38.5 24.625 
C 38.5 34.96875 33.09375 44 21.703125 44 
C 11.09375 44 2.703125 33.890625 2.703125 21.609375 
C 2.703125 8.609375 12.203125 -1 22.796875 -1 
C 34 -1 38.40625 9.484375 38.40625 11.5625 
C 38.40625 12.25 37.796875 12.25 37.59375 12.25 
C 36.90625 12.25 36.796875 12.046875 36.40625 10.875 
C 34.203125 4.140625 28.703125 0.796875 23.5 0.796875 
C 19.203125 0.796875 14.90625 3.171875 12.203125 7.5 
C 9.09375 12.546875 9.09375 18.375 9.09375 23 
z
M 9.203125 24.5 
C 9.90625 39.140625 17.59375 42.40625 21.59375 42.40625 
C 28.40625 42.40625 33 35.890625 33.09375 24.5 
z
" id="CMR17-101"/>
     <path d="M 16.59375 38.921875 
C 16.59375 41.40625 14.59375 43 12.5 43 
C 10.5 43 8.40625 41.40625 8.40625 38.921875 
C 8.40625 36.4375 10.40625 34.84375 12.5 34.84375 
C 14.5 34.84375 16.59375 36.4375 16.59375 38.921875 
M 16.59375 4.078125 
C 16.59375 6.5625 14.59375 8.15625 12.5 8.15625 
C 10.5 8.15625 8.40625 6.5625 8.40625 4.078125 
C 8.40625 1.59375 10.40625 0 12.5 0 
C 14.5 0 16.59375 1.59375 16.59375 4.078125 
" id="CMR17-58"/>
     <path d="M 4.296875 -12.328125 
C 3.59375 -15.3125 3.203125 -16.109375 -0.90625 -16.109375 
C -2.09375 -16.109375 -3.09375 -16.109375 -3.09375 -18 
C -3.09375 -18.203125 -3 -19 -1.90625 -19 
C -0.59375 -19 0.796875 -19 2.09375 -19 
L 6.40625 -19 
C 8.5 -19 13.59375 -19 15.703125 -19 
C 16.296875 -19 17.5 -19 17.5 -17.203125 
C 17.5 -16.109375 16.796875 -16.109375 15.09375 -16.109375 
C 10.5 -16.109375 10.203125 -15.421875 10.203125 -14.640625 
C 10.203125 -13.453125 14.703125 3.421875 15.296875 5.6875 
C 16.40625 2.890625 19.09375 -1 24.296875 -1 
C 35.59375 -1 47.796875 13.671875 47.796875 28.34375 
C 47.796875 37.515625 42.59375 44 35.09375 44 
C 28.703125 44 23.296875 37.8125 22.203125 36.421875 
C 21.40625 41.40625 17.5 44 13.5 44 
C 10.59375 44 8.296875 42.609375 6.40625 38.8125 
C 4.59375 35.21875 3.203125 29.140625 3.203125 28.734375 
C 3.203125 28.34375 3.59375 27.84375 4.296875 27.84375 
C 5.09375 27.84375 5.203125 27.9375 5.796875 30.234375 
C 7.296875 36.125 9.203125 42.015625 13.203125 42.015625 
C 15.5 42.015625 16.296875 40.421875 16.296875 37.453125 
C 16.296875 35.078125 16 34.078125 15.59375 32.296875 
z
M 21.59375 31.140625 
C 22.296875 33.921875 25.09375 36.828125 26.703125 38.21875 
C 27.796875 39.21875 31.09375 42.015625 34.90625 42.015625 
C 39.296875 42.015625 41.296875 37.625 41.296875 32.4375 
C 41.296875 27.640625 38.5 16.359375 36 11.171875 
C 33.5 5.78125 28.90625 1 24.296875 1 
C 17.5 1 16.40625 9.578125 16.40625 9.984375 
C 16.40625 10.28125 16.59375 11.078125 16.703125 11.578125 
z
" id="CMMI12-112"/>
     <path d="M 30.59375 -24.390625 
C 30.59375 -24.296875 30.59375 -24.09375 30.296875 -23.796875 
C 25.703125 -19.125 13.40625 -6.359375 13.40625 24.703125 
C 13.40625 55.765625 25.5 68.421875 30.40625 73.390625 
C 30.40625 73.5 30.59375 73.703125 30.59375 74 
C 30.59375 74.296875 30.296875 74.5 29.90625 74.5 
C 28.796875 74.5 20.296875 67.125 15.40625 56.15625 
C 10.40625 45.109375 9 34.359375 9 24.8125 
C 9 17.625 9.703125 5.484375 15.703125 -7.359375 
C 20.5 -17.734375 28.703125 -25 29.90625 -25 
C 30.40625 -25 30.59375 -24.796875 30.59375 -24.390625 
" id="CMR17-40"/>
     <path d="M 33.703125 24.484375 
L 45.296875 37.734375 
C 46.40625 39.03125 47.296875 39.828125 55.59375 39.828125 
L 55.59375 44 
C 50 44 49.796875 44 46.40625 44 
C 43.5 44 39.203125 44 36.40625 44.09375 
L 36.40625 39.828125 
C 38.296875 39.828125 40.40625 39.328125 40.40625 38.625 
C 40.40625 38.4375 39.90625 37.734375 39.703125 37.53125 
L 31 27.78125 
L 21.09375 39.828125 
L 25.296875 39.828125 
L 25.296875 44.09375 
C 23 44 16.203125 44 13.5 44 
C 10.5 44 5.09375 44 2.296875 44.09375 
L 2.296875 39.828125 
L 9.40625 39.828125 
L 25 20.90625 
L 12 6.265625 
C 10.796875 4.875 10.09375 4.171875 1.796875 4.171875 
L 1.796875 0 
C 7.796875 0 8 0 11.09375 0 
C 14 0 18.203125 0 21 -0.09375 
L 21 4.171875 
C 19.09375 4.171875 17 4.671875 17 5.375 
C 17 5.46875 17 5.5625 17.703125 6.359375 
L 27.703125 17.625 
L 38.796875 4.171875 
L 34.59375 4.171875 
L 34.59375 -0.09375 
C 37 0 43.703125 0 46.5 0 
C 49.5 0 54.796875 0 57.59375 -0.09375 
L 57.59375 4.171875 
L 50.59375 4.171875 
z
" id="CMBX12-120"/>
     <path d="M 26.296875 24.703125 
C 26.296875 31.875 25.59375 44.015625 19.59375 56.859375 
C 14.796875 67.234375 6.59375 74.5 5.40625 74.5 
C 5.09375 74.5 4.703125 74.390625 4.703125 73.890625 
C 4.703125 73.703125 4.796875 73.59375 4.90625 73.390625 
C 9.703125 68.40625 21.90625 55.75 21.90625 24.75 
C 21.90625 -6.359375 9.796875 -19.015625 4.90625 -24.015625 
C 4.796875 -24.203125 4.703125 -24.3125 4.703125 -24.5 
C 4.703125 -25 5.09375 -25 5.40625 -25 
C 6.5 -25 15 -17.625 19.90625 -6.65625 
C 24.90625 4.390625 26.296875 15.140625 26.296875 24.703125 
" id="CMR17-41"/>
     <path d="M 37.703125 23 
L 64.203125 23 
C 65.59375 23 67.296875 23 67.296875 24.6875 
C 67.296875 26.484375 65.703125 26.484375 64.203125 26.484375 
L 37.703125 26.484375 
L 37.703125 52.90625 
C 37.703125 54.296875 37.703125 56 36 56 
C 34.203125 56 34.203125 54.40625 34.203125 52.90625 
L 34.203125 26.484375 
L 7.703125 26.484375 
C 6.296875 26.484375 4.59375 26.484375 4.59375 24.796875 
C 4.59375 23 6.203125 23 7.703125 23 
L 34.203125 23 
L 34.203125 -3.40625 
C 34.203125 -4.796875 34.203125 -6.5 35.90625 -6.5 
C 37.703125 -6.5 37.703125 -4.90625 37.703125 -3.40625 
z
" id="CMR17-43"/>
     <path d="M 44.09375 43.109375 
C 44.09375 43.59375 43.703125 44 43.203125 44 
C 42.40625 44 38.5 40.390625 36.59375 36.90625 
C 34.796875 41.34375 31.703125 44 27.40625 44 
C 16.09375 44 3.90625 29.4375 3.90625 14.671875 
C 3.90625 4.796875 9.703125 -1 16.5 -1 
C 21.796875 -1 26.203125 3.015625 28.296875 5.296875 
L 28.40625 5.203125 
L 24.59375 -9.609375 
L 23.703125 -13.15625 
C 22.796875 -16.109375 21.296875 -16.109375 16.59375 -16.109375 
C 15.5 -16.109375 14.5 -16.109375 14.5 -18 
C 14.5 -18.703125 15.09375 -19 15.796875 -19 
C 17.203125 -19 19 -19 20.40625 -19 
L 30.59375 -19 
C 32.09375 -19 33.796875 -19 35.296875 -19 
C 35.90625 -19 37.09375 -19 37.09375 -17.109375 
C 37.09375 -16.109375 36.296875 -16.109375 34.796875 -16.109375 
C 30.09375 -16.109375 29.796875 -15.40625 29.796875 -14.609375 
C 29.796875 -14.125 29.90625 -14.03125 30.203125 -12.734375 
z
M 30 11.90625 
C 29.5 10.1875 29.5 10 28.09375 8.09375 
C 25.90625 5.296875 21.5 1 16.796875 1 
C 12.703125 1 10.40625 4.703125 10.40625 10.59375 
C 10.40625 16.09375 13.5 27.296875 15.40625 31.5 
C 18.796875 38.5 23.5 42.109375 27.40625 42.109375 
C 34 42.109375 35.296875 33.90625 35.296875 33.109375 
C 35.296875 33.015625 35 31.6875 34.90625 31.5 
z
" id="CMMI12-113"/>
    </defs>
    <g transform="translate(139.353469 28.56)scale(0.192 -0.192)">
     <use transform="translate(0 34.355253)scale(0.996264)" xlink:href="#CMR17-116"/>
     <use transform="translate(35.280768 34.355253)scale(0.996264)" xlink:href="#CMR17-114"/>
     <use transform="translate(70.561536 34.355253)scale(0.996264)" xlink:href="#CMR17-117"/>
     <use transform="translate(121.456905 34.355253)scale(0.996264)" xlink:href="#CMR17-101"/>
     <use transform="translate(161.942566 34.355253)scale(0.996264)" xlink:href="#CMR17-58"/>
     <use transform="translate(315.383945 82.6155)scale(0.697382)" xlink:href="#CMMI12-112"/>
     <use transform="translate(349.655452 82.6155)scale(0.697382)" xlink:href="#CMR17-40"/>
     <use transform="translate(374.351872 82.6155)scale(0.697382)" xlink:href="#CMBX12-120"/>
     <use transform="translate(415.758913 82.6155)scale(0.697382)" xlink:href="#CMR17-41"/>
     <use transform="translate(228.494799 0)scale(0.697382)" xlink:href="#CMMI12-112"/>
     <use transform="translate(262.766305 0)scale(0.697382)" xlink:href="#CMR17-40"/>
     <use transform="translate(287.462725 0)scale(0.697382)" xlink:href="#CMBX12-120"/>
     <use transform="translate(328.869766 0)scale(0.697382)" xlink:href="#CMR17-41"/>
     <use transform="translate(353.566186 0)scale(0.697382)" xlink:href="#CMR17-43"/>
     <use transform="translate(403.766318 0)scale(0.697382)" xlink:href="#CMMI12-113"/>
     <use transform="translate(436.544583 0)scale(0.697382)" xlink:href="#CMR17-40"/>
     <use transform="translate(461.241004 0)scale(0.697382)" xlink:href="#CMBX12-120"/>
     <use transform="translate(502.648044 0)scale(0.697382)" xlink:href="#CMR17-41"/>
     <path d="M 228.494799 57.269386 
L 527.344464 57.269386 
L 527.344464 61.254336 
L 228.494799 61.254336 
L 228.494799 57.269386 
z
"/>
    </g>
   </g>
  </g>
  <g id="axes_2">
   <g id="patch_7">
    <path d="M 333.490909 252 
L 536.4 252 
L 536.4 34.56 
L 333.490909 34.56 
z
" style="fill:#ffffff;"/>
   </g>
   <g id="matplotlib.axis_3">
    <g id="xtick_4">
     <g id="line2d_11">
      <g>
       <use style="stroke:#000000;stroke-width:0.8;" x="367.309091" xlink:href="#me45860b956" y="252"/>
      </g>
     </g>
     <g id="text_14">
      <!-- $-2$ -->
      <g transform="translate(357.208099 270.069588)scale(0.16 -0.16)">
       <use transform="scale(0.996264)" xlink:href="#CMSY10-0"/>
       <use transform="translate(77.487468 0)scale(0.996264)" xlink:href="#CMR17-50"/>
      </g>
     </g>
    </g>
    <g id="xtick_5">
     <g id="line2d_12">
      <g>
       <use style="stroke:#000000;stroke-width:0.8;" x="434.945455" xlink:href="#me45860b956" y="252"/>
      </g>
     </g>
     <g id="text_15">
      <!-- $0$ -->
      <g transform="translate(431.043461 270.069588)scale(0.16 -0.16)">
       <use transform="scale(0.996264)" xlink:href="#CMR17-48"/>
      </g>
     </g>
    </g>
    <g id="xtick_6">
     <g id="line2d_13">
      <g>
       <use style="stroke:#000000;stroke-width:0.8;" x="502.581818" xlink:href="#me45860b956" y="252"/>
      </g>
     </g>
     <g id="text_16">
      <!-- $2$ -->
      <g transform="translate(498.679825 270.069588)scale(0.16 -0.16)">
       <use transform="scale(0.996264)" xlink:href="#CMR17-50"/>
      </g>
     </g>
    </g>
    <g id="text_17">
     <!-- $x_1$ -->
     <g transform="translate(427.721195 288.238653)scale(0.16 -0.16)">
      <use transform="translate(0 14.943915)scale(0.996264)" xlink:href="#CMMI12-120"/>
      <use transform="translate(55.43406 0)scale(0.697382)" xlink:href="#CMR17-49"/>
     </g>
    </g>
   </g>
   <g id="matplotlib.axis_4">
    <g id="ytick_8">
     <g id="line2d_14">
      <g>
       <use style="stroke:#000000;stroke-width:0.8;" x="333.490909" xlink:href="#m8eb3ea8816" y="252"/>
      </g>
     </g>
    </g>
    <g id="ytick_9">
     <g id="line2d_15">
      <g>
       <use style="stroke:#000000;stroke-width:0.8;" x="333.490909" xlink:href="#m8eb3ea8816" y="215.76"/>
      </g>
     </g>
    </g>
    <g id="ytick_10">
     <g id="line2d_16">
      <g>
       <use style="stroke:#000000;stroke-width:0.8;" x="333.490909" xlink:href="#m8eb3ea8816" y="179.52"/>
      </g>
     </g>
    </g>
    <g id="ytick_11">
     <g id="line2d_17">
      <g>
       <use style="stroke:#000000;stroke-width:0.8;" x="333.490909" xlink:href="#m8eb3ea8816" y="143.28"/>
      </g>
     </g>
    </g>
    <g id="ytick_12">
     <g id="line2d_18">
      <g>
       <use style="stroke:#000000;stroke-width:0.8;" x="333.490909" xlink:href="#m8eb3ea8816" y="107.04"/>
      </g>
     </g>
    </g>
    <g id="ytick_13">
     <g id="line2d_19">
      <g>
       <use style="stroke:#000000;stroke-width:0.8;" x="333.490909" xlink:href="#m8eb3ea8816" y="70.8"/>
      </g>
     </g>
    </g>
    <g id="ytick_14">
     <g id="line2d_20">
      <g>
       <use style="stroke:#000000;stroke-width:0.8;" x="333.490909" xlink:href="#m8eb3ea8816" y="34.56"/>
      </g>
     </g>
    </g>
   </g>
   <g id="LineCollection_7">
    <path clip-path="url(#pee982e709b)" d="M 354.457481 252 
L 355.877936 247.319296 
L 359.719435 234.979252 
L 363.202404 224.341293 
L 364.860418 219.444654 
L 367.481977 212.00125 
L 369.228323 207.181719 
L 377.567053 186.216632 
L 384.881973 170.300431 
L 387.226015 165.619727 
L 390.352493 159.662464 
L 394.392068 152.428649 
L 397.024088 147.968536 
L 402.583244 139.233671 
L 407.34823 132.502246 
L 411.41989 127.323053 
L 414.49571 123.768446 
L 417.672373 120.424557 
L 420.849028 117.411756 
L 423.690341 114.983018 
L 427.202346 112.320983 
L 430.227586 110.302314 
L 433.906548 108.174721 
L 437.40416 106.472644 
L 440.703151 105.151146 
L 443.879806 104.149913 
L 446.65938 103.492555 
L 449.836043 103.026962 
L 452.615617 102.878104 
L 455.395199 102.975421 
L 457.777692 103.270908 
L 460.160186 103.762965 
L 462.542679 104.458509 
L 465.322253 105.534082 
L 467.307665 106.476075 
L 470.282901 108.174721 
L 473.263902 110.213065 
L 475.646403 112.082862 
L 478.454482 114.557492 
L 481.602632 117.679288 
L 484.779295 121.179544 
L 488.095708 125.19546 
L 491.132605 129.177012 
L 495.224141 134.982385 
L 498.306921 139.663088 
L 503.026326 147.322428 
L 506.23788 152.854166 
L 511.828442 163.066617 
L 517.340038 173.81036 
L 524.487526 188.647267 
L 534.41458 210.540781 
L 536.4 215.02981 
L 536.4 215.02981 
" style="fill:none;stroke:#f7fbff;stroke-width:1.5;"/>
    <path clip-path="url(#pee982e709b)" d="M 536.4 186.825585 
L 529.252512 169.856881 
L 515.173428 134.556868 
L 511.656196 126.897536 
L 508.604227 120.973401 
L 506.67998 117.536128 
L 502.486357 110.727831 
L 497.785416 103.919525 
L 492.323864 96.71204 
L 488.533638 92.005015 
L 483.588037 86.262226 
L 480.41139 82.908512 
L 477.234727 79.91022 
L 474.058064 77.285722 
L 470.087239 74.460437 
L 466.513503 72.243556 
L 461.748517 69.667605 
L 458.174773 68.064064 
L 455.79228 67.245358 
L 453.806868 66.769514 
L 451.821455 66.516777 
L 449.836043 66.487239 
L 447.850631 66.661004 
L 445.468138 67.117183 
L 442.688563 67.919219 
L 439.511901 69.122622 
L 436.335246 70.579181 
L 431.967332 72.966694 
L 428.393596 75.245626 
L 424.422772 78.157006 
L 420.849028 81.17183 
L 417.672373 84.223012 
L 414.801881 87.324311 
L 411.975246 90.728447 
L 408.808941 94.983634 
L 405.127476 100.515389 
L 400.804934 107.749195 
L 393.683118 120.940273 
L 389.479523 129.171336 
L 387.619397 132.8548 
L 385.508699 137.122401 
L 383.623122 140.939648 
L 381.537874 145.261673 
L 380.134411 148.173462 
L 378.343419 152.003132 
L 376.561595 155.832802 
L 374.390394 160.663175 
L 372.942478 163.917651 
L 371.103419 168.172838 
L 366.680597 178.810805 
L 355.14295 208.597105 
L 352.099069 216.681953 
L 349.528448 223.490259 
L 348.090182 227.319912 
L 341.850346 243.915143 
L 340.562831 247.319296 
L 338.795635 252 
L 338.795635 252 
" style="fill:none;stroke:#f7fbff;stroke-width:1.5;"/>
   </g>
   <g id="LineCollection_8">
    <path clip-path="url(#pee982e709b)" d="M 353.272117 252 
L 355.732579 243.915143 
L 363.669167 219.429764 
L 370.026693 201.788808 
L 375.581641 187.886721 
L 380.90288 175.832169 
L 383.936222 169.449397 
L 388.928684 159.662464 
L 391.942515 154.130726 
L 395.870865 147.322428 
L 400.200747 140.336156 
L 404.668761 133.705834 
L 407.776724 129.450647 
L 411.319055 124.980694 
L 414.84134 120.940273 
L 417.700327 117.961645 
L 420.855808 114.983018 
L 424.025691 112.309556 
L 426.805265 110.211564 
L 429.981928 108.082993 
L 433.158583 106.226447 
L 436.026359 104.770576 
L 439.511901 103.286872 
L 442.291475 102.325217 
L 445.071057 101.571218 
L 447.850631 101.031678 
L 450.630205 100.720894 
L 453.409787 100.646328 
L 456.189361 100.819358 
L 458.571854 101.172099 
L 461.232635 101.79194 
L 463.843766 102.642974 
L 466.513503 103.766551 
L 468.895997 104.986425 
L 471.371203 106.472644 
L 474.058064 108.344749 
L 476.837646 110.558306 
L 479.617212 113.050459 
L 482.418686 115.834052 
L 485.573457 119.286229 
L 489.079979 123.493383 
L 492.353683 127.74857 
L 496.30719 133.280317 
L 500.55178 139.663088 
L 504.633403 146.2004 
L 509.05673 153.705209 
L 513.56277 161.790057 
L 518.272637 170.725948 
L 523.138655 180.512873 
L 528.512343 192.001883 
L 533.242165 202.639842 
L 536.4 209.937992 
L 536.4 209.937992 
" style="fill:none;stroke:#d0e1f2;stroke-width:1.5;"/>
    <path clip-path="url(#pee982e709b)" d="M 536.4 192.004711 
L 533.191123 184.76806 
L 529.591445 176.257695 
L 525.843426 166.896278 
L 520.11962 151.79665 
L 515.31827 139.237572 
L 512.499026 132.429274 
L 509.994664 126.897536 
L 507.228653 121.36579 
L 504.148375 115.834052 
L 501.275902 111.153348 
L 497.562788 105.62161 
L 493.118026 99.538015 
L 489.147201 94.447282 
L 485.021835 89.451896 
L 481.205552 85.183628 
L 478.259354 82.21809 
L 475.646403 79.88087 
L 472.64722 77.537387 
L 470.087239 75.78402 
L 466.910584 73.868214 
L 462.93976 71.801915 
L 459.366016 70.235199 
L 456.586442 69.26263 
L 454.203949 68.672262 
L 451.821455 68.347145 
L 449.836043 68.297643 
L 447.850631 68.444233 
L 445.468138 68.859241 
L 442.688563 69.625929 
L 439.908981 70.646782 
L 436.335246 72.270641 
L 432.761502 74.213657 
L 429.492355 76.260818 
L 426.475689 78.38842 
L 423.62861 80.626362 
L 420.378133 83.494641 
L 417.672373 86.165126 
L 414.681763 89.451896 
L 411.893249 92.856049 
L 408.936562 96.835319 
L 406.142406 100.940906 
L 403.187196 105.62161 
L 399.205286 112.429899 
L 394.109416 121.791315 
L 386.907346 135.833427 
L 378.11707 154.130726 
L 371.371754 169.449397 
L 363.817653 188.172213 
L 339.614993 252 
L 339.614993 252 
" style="fill:none;stroke:#d0e1f2;stroke-width:1.5;"/>
   </g>
   <g id="LineCollection_9">
    <path clip-path="url(#pee982e709b)" d="M 352.38409 252 
L 356.918768 237.254367 
L 361.683755 222.593567 
L 365.794813 210.724699 
L 369.403499 200.937774 
L 373.081876 191.576366 
L 377.023961 182.214949 
L 380.871682 173.704584 
L 384.5731 166.045244 
L 388.521147 158.385913 
L 392.496843 151.152098 
L 396.487951 144.343801 
L 400.218193 138.386538 
L 403.933336 132.8548 
L 407.34823 128.137621 
L 410.921974 123.596433 
L 414.320344 119.663722 
L 417.275292 116.551618 
L 420.451947 113.523675 
L 423.62861 110.814773 
L 426.805265 108.410421 
L 429.981928 106.293821 
L 433.158583 104.449331 
L 436.335246 102.865732 
L 439.511901 101.539206 
L 442.688563 100.472952 
L 445.468138 99.761666 
L 448.449027 99.238821 
L 451.027294 98.994905 
L 453.806868 98.958209 
L 456.586442 99.163695 
L 459.366016 99.619251 
L 462.145598 100.33161 
L 464.925172 101.3068 
L 467.704746 102.550858 
L 470.48432 104.068489 
L 473.263902 105.862219 
L 476.043484 107.932578 
L 478.85223 110.302314 
L 481.602632 112.886033 
L 484.852093 116.259569 
L 488.210452 120.089239 
L 491.650477 124.344426 
L 495.500511 129.468676 
L 499.471335 135.107142 
L 503.641418 141.365165 
L 509.546204 150.726573 
L 518.438835 165.619727 
L 521.310863 170.532129 
L 523.459256 174.130101 
L 524.884607 176.448631 
L 526.075849 178.061206 
L 526.327816 177.959762 
L 526.259797 177.108729 
L 525.834356 175.406652 
L 525.069734 172.853542 
L 523.693364 168.514277 
L 521.707944 162.475109 
L 517.474468 149.875539 
L 514.957553 142.708937 
L 511.78089 134.356772 
L 509.156745 128.174087 
L 506.958352 123.493383 
L 504.305441 118.387162 
L 501.614068 113.706458 
L 498.66752 109.025754 
L 495.10343 103.827176 
L 491.084604 98.387787 
L 486.728076 92.856049 
L 482.786825 88.175345 
L 479.617212 84.731075 
L 476.837646 82.03354 
L 474.455145 79.989397 
L 471.675579 77.908074 
L 468.895997 76.112631 
L 465.719334 74.346415 
L 462.542679 72.830907 
L 459.366016 71.549293 
L 456.586442 70.652849 
L 454.203949 70.101414 
L 451.821455 69.789644 
L 449.438962 69.739106 
L 447.056469 69.951952 
L 444.673968 70.412472 
L 442.1084 71.154597 
L 439.511901 72.129255 
L 436.732326 73.391152 
L 433.555663 75.08302 
L 430.254545 77.111852 
L 427.201695 79.239454 
L 423.95234 81.792556 
L 420.849028 84.540305 
L 418.034163 87.324311 
L 415.28988 90.330275 
L 412.492229 93.707083 
L 409.333643 97.904263 
L 406.080471 102.642974 
L 402.582685 108.174721 
L 398.591412 114.983018 
L 393.697465 123.918909 
L 389.082438 132.790355 
L 383.523286 143.988659 
L 377.964134 155.845095 
L 372.932066 167.321804 
L 369.574542 175.406652 
L 363.520619 190.725323 
L 353.621227 216.681953 
L 340.255931 252 
L 340.255931 252 
" style="fill:none;stroke:#94c4df;stroke-width:1.5;"/>
    <path clip-path="url(#pee982e709b)" d="M 536.4 200.192476 
L 536.189601 200.512257 
L 536.246059 200.937774 
L 536.32752 201.363291 
L 536.4 201.693635 
" style="fill:none;stroke:#94c4df;stroke-width:1.5;"/>
   </g>
   <g id="LineCollection_10">
    <path clip-path="url(#pee982e709b)" d="M 351.516841 252 
L 356.615893 235.404769 
L 360.190285 224.341293 
L 363.507155 214.554369 
L 369.411475 198.384655 
L 374.021307 186.895662 
L 376.772888 180.486357 
L 379.444306 174.555618 
L 384.797074 163.492134 
L 388.685358 156.046547 
L 391.862016 150.291971 
L 395.065184 144.769318 
L 398.612419 138.982245 
L 402.053507 133.705834 
L 405.935787 128.174087 
L 409.510366 123.493383 
L 412.907386 119.425302 
L 416.208266 115.834052 
L 419.260696 112.828868 
L 422.437359 110.014239 
L 425.614022 107.509703 
L 428.951677 105.196093 
L 431.74481 103.494008 
L 434.349833 102.089738 
L 437.526488 100.615646 
L 440.703151 99.398757 
L 443.879806 98.447035 
L 447.056469 97.766254 
L 449.836043 97.405618 
L 452.615617 97.270738 
L 455.395199 97.369043 
L 458.174773 97.706865 
L 460.954347 98.290129 
L 463.733929 99.123019 
L 466.513503 100.211877 
L 469.293078 101.561029 
L 472.07266 103.176213 
L 475.040639 105.196093 
L 477.774042 107.323678 
L 480.695636 109.876788 
L 483.588037 112.676304 
L 486.959178 116.259569 
L 490.629816 120.514756 
L 495.044046 126.046494 
L 501.065461 134.131351 
L 509.895596 146.045869 
L 511.383809 147.692959 
L 512.575052 148.535189 
L 512.972133 148.505865 
L 513.179614 148.173462 
L 513.295688 147.322428 
L 513.111659 145.620352 
L 512.57402 143.067242 
L 511.095157 137.961021 
L 509.795486 134.127175 
L 507.297984 127.74857 
L 505.197452 123.067866 
L 503.292638 119.238205 
L 501.059675 115.142884 
L 497.880016 109.876788 
L 494.176622 104.345042 
L 490.794752 99.664338 
L 486.7647 94.421909 
L 482.318766 89.026379 
L 479.220131 85.602022 
L 476.440565 82.872025 
L 474.058064 80.816791 
L 471.675579 79.026126 
L 469.293078 77.468454 
L 466.373421 75.835301 
L 462.93976 74.233773 
L 460.160186 73.152922 
L 456.983523 72.159785 
L 454.410043 71.580114 
L 452.218536 71.283462 
L 449.836043 71.180886 
L 447.45355 71.326505 
L 445.071057 71.71172 
L 442.688563 72.325087 
L 440.306062 73.145929 
L 437.923569 74.148125 
L 434.583835 75.835301 
L 431.17317 77.870349 
L 428.393596 79.759967 
L 425.216933 82.186769 
L 422.437359 84.569812 
L 419.545513 87.324311 
L 416.481122 90.579724 
L 413.469844 94.1326 
L 410.524885 97.942062 
L 406.951149 103.004205 
L 402.79487 109.451271 
L 399.975152 114.131975 
L 397.282921 118.812679 
L 394.226035 124.344426 
L 386.699945 138.862626 
L 377.877064 157.53487 
L 373.094068 168.598355 
L 368.251447 180.512873 
L 365.242327 188.172213 
L 361.477993 197.959138 
L 358.386303 206.043995 
L 340.903308 252 
L 340.903308 252 
" style="fill:none;stroke:#4a98c9;stroke-width:1.5;"/>
   </g>
   <g id="LineCollection_11">
    <path clip-path="url(#pee982e709b)" d="M 350.458534 252 
L 352.947944 243.722465 
L 354.839511 237.532371 
L 357.380244 229.447514 
L 359.860568 221.788174 
L 364.978076 206.895029 
L 368.608114 197.108104 
L 373.949119 183.917026 
L 381.315875 167.747321 
L 388.086186 154.556243 
L 394.856186 142.641725 
L 400.456959 133.705834 
L 405.154439 126.897536 
L 409.029731 121.791315 
L 412.577408 117.536128 
L 415.697481 114.131975 
L 418.863615 110.992076 
L 422.040278 108.167074 
L 424.819852 105.940244 
L 428.269934 103.494008 
L 430.776089 101.918968 
L 434.349833 99.964159 
L 437.526488 98.502666 
L 441.100232 97.16903 
L 444.673968 96.167533 
L 447.45355 95.627207 
L 450.233124 95.306289 
L 453.012698 95.205 
L 455.79228 95.333733 
L 458.571854 95.688984 
L 461.351428 96.282151 
L 463.733929 96.972229 
L 466.910584 98.169766 
L 470.087239 99.689504 
L 472.46974 101.036589 
L 475.249306 102.841312 
L 478.425969 105.213891 
L 481.436425 107.749195 
L 484.382214 110.491285 
L 487.957295 114.131975 
L 492.323864 118.928239 
L 501.059675 128.622004 
L 502.250917 129.634963 
L 503.045079 130.112183 
L 503.44216 130.223447 
L 503.839241 130.114453 
L 503.998791 129.876164 
L 504.138039 129.02513 
L 503.986902 127.74857 
L 503.57195 126.046494 
L 502.875688 123.918909 
L 501.695076 120.940273 
L 500.265497 117.817314 
L 497.883012 113.27498 
L 494.555701 107.749195 
L 492.020407 103.919525 
L 489.010545 99.664338 
L 485.573457 95.077019 
L 481.602632 90.129525 
L 478.370223 86.473277 
L 475.646403 83.768932 
L 473.360532 81.792556 
L 470.881401 79.961244 
L 468.498916 78.465176 
L 466.513503 77.396848 
L 463.733929 76.123126 
L 460.557266 74.936742 
L 456.983523 73.921168 
L 454.203949 73.370101 
L 451.821455 73.100289 
L 449.438962 73.03455 
L 447.056469 73.187286 
L 444.673968 73.569712 
L 442.291475 74.172557 
L 439.511901 75.151777 
L 436.732326 76.389471 
L 433.781383 77.962904 
L 430.379009 80.094046 
L 426.805265 82.703355 
L 423.809604 85.196709 
L 420.630327 88.175345 
L 417.672373 91.274822 
L 414.48147 94.983634 
L 411.170389 99.238821 
L 408.410963 103.068491 
L 405.530494 107.323678 
L 402.80142 111.578865 
L 400.188779 115.834052 
L 393.847429 126.952404 
L 384.713321 144.769318 
L 381.706832 151.152098 
L 379.945003 154.98176 
L 376.953703 161.790057 
L 375.497224 165.19421 
L 369.946598 178.810805 
L 341.726619 252 
L 341.726619 252 
" style="fill:none;stroke:#1764ab;stroke-width:1.5;"/>
   </g>
   <g id="LineCollection_12">
    <path clip-path="url(#pee982e709b)" d="M 348.403299 252 
L 350.300663 245.191694 
L 354.202759 230.724065 
L 355.046206 226.468878 
L 354.933356 225.855359 
L 354.819076 226.043361 
L 354.456683 226.468878 
L 353.721966 227.745446 
L 351.936733 231.575116 
L 350.962531 233.737107 
L 349.709465 236.681337 
L 343.432651 252 
L 343.432651 252 
" style="fill:none;stroke:#08306b;stroke-width:1.5;"/>
    <path clip-path="url(#pee982e709b)" d="M 382.729121 156.593871 
L 383.126205 156.305422 
L 383.153723 156.258319 
L 384.339815 154.556243 
L 390.434091 144.343801 
L 393.847429 138.701869 
L 396.160729 134.982385 
L 403.020058 124.769943 
L 406.200042 120.514756 
L 409.730724 116.17014 
L 412.907386 112.595526 
L 416.084041 109.330672 
L 419.657785 106.011439 
L 422.83444 103.35509 
L 426.805265 100.423324 
L 429.981928 98.376013 
L 432.761502 96.787092 
L 436.732326 94.857846 
L 439.908981 93.601238 
L 442.688563 92.71372 
L 445.633153 92.005015 
L 448.171904 91.579498 
L 450.630205 91.332373 
L 453.409787 91.266426 
L 456.189361 91.412553 
L 459.366016 91.83524 
L 462.542679 92.519377 
L 465.322253 93.320776 
L 468.101835 94.294652 
L 471.756553 95.834685 
L 474.852226 97.317008 
L 480.41139 100.103708 
L 481.999713 100.625857 
L 482.396794 100.650452 
L 482.836346 100.515389 
L 483.054675 100.089872 
L 482.984674 99.238821 
L 482.54022 97.96227 
L 481.602632 96.080614 
L 480.014309 93.466062 
L 478.028889 90.641932 
L 476.043484 88.171595 
L 474.058064 86.033807 
L 472.07266 84.21316 
L 470.055188 82.643607 
L 467.704746 81.159006 
L 465.645812 80.090488 
L 462.542679 78.845101 
L 460.557266 78.233958 
L 457.697221 77.537387 
L 454.203949 76.975446 
L 451.027294 76.716738 
L 448.247712 76.730747 
L 445.468138 76.998614 
L 443.085644 77.444978 
L 441.100232 77.978074 
L 438.320658 78.994132 
L 435.929243 80.090488 
L 432.761502 81.877865 
L 429.981928 83.735683 
L 427.49411 85.622226 
L 424.422772 88.267956 
L 421.881546 90.728447 
L 418.863615 93.980644 
L 415.891638 97.536753 
L 412.907386 101.4302 
L 408.471472 107.749195 
L 404.563839 113.706458 
L 397.322032 125.620977 
L 394.445444 130.727206 
L 392.656182 134.018765 
L 385.905784 147.80342 
L 382.729121 156.015431 
L 382.729121 156.593871 
L 382.729121 156.593871 
" style="fill:none;stroke:#08306b;stroke-width:1.5;"/>
   </g>
   <g id="patch_8">
    <path d="M 333.490909 252 
L 333.490909 34.56 
" style="fill:none;stroke:#000000;stroke-linecap:square;stroke-linejoin:miter;stroke-width:0.8;"/>
   </g>
   <g id="patch_9">
    <path d="M 536.4 252 
L 536.4 34.56 
" style="fill:none;stroke:#000000;stroke-linecap:square;stroke-linejoin:miter;stroke-width:0.8;"/>
   </g>
   <g id="patch_10">
    <path d="M 333.490909 252 
L 536.4 252 
" style="fill:none;stroke:#000000;stroke-linecap:square;stroke-linejoin:miter;stroke-width:0.8;"/>
   </g>
   <g id="patch_11">
    <path d="M 333.490909 34.56 
L 536.4 34.56 
" style="fill:none;stroke:#000000;stroke-linecap:square;stroke-linejoin:miter;stroke-width:0.8;"/>
   </g>
   <g id="text_18">
    <!-- estimator: $D_{\theta}(\mathbf{x})$ -->
    <defs>
     <path d="M 30.90625 42.140625 
C 30.90625 43.953125 30.796875 44.046875 30.203125 44.046875 
C 29.796875 44.046875 29.703125 43.953125 28.5 42.453125 
C 28.203125 42.046875 27.296875 41.03125 27 40.640625 
C 23.796875 44.046875 19.296875 44.046875 17.59375 44.046875 
C 6.5 44.046875 2.5 38.234375 2.5 32.4375 
C 2.5 23.40625 12.703125 21.328125 15.59375 20.703125 
C 21.90625 19.421875 24.09375 19.015625 26.203125 17.203125 
C 27.5 16.015625 29.703125 13.8125 29.703125 10.21875 
C 29.703125 6 27.296875 0.59375 18.09375 0.59375 
C 9.40625 0.59375 6.296875 7.1875 4.5 15.953125 
C 4.203125 17.34375 4.203125 17.453125 3.40625 17.453125 
C 2.59375 17.453125 2.5 17.34375 2.5 15.359375 
L 2.5 0.984375 
C 2.5 -0.796875 2.59375 -0.90625 3.203125 -0.90625 
C 3.703125 -0.90625 3.796875 -0.796875 4.296875 0 
C 4.90625 0.890625 6.40625 3.296875 7 4.3125 
C 9 1.609375 12.5 -1 18.09375 -1 
C 28 -1 33.296875 4.421875 33.296875 12.25 
C 33.296875 17.375 30.59375 20.078125 29.296875 21.28125 
C 26.296875 24.390625 22.796875 25.09375 18.59375 25.890625 
C 13.09375 27.109375 6.09375 28.515625 6.09375 34.640625 
C 6.09375 37.234375 7.5 42.765625 17.59375 42.765625 
C 28.296875 42.765625 28.90625 32.71875 29.09375 29.5 
C 29.203125 29 29.703125 28.890625 30 28.890625 
C 30.90625 28.890625 30.90625 29.203125 30.90625 30.90625 
z
" id="CMR17-115"/>
     <path d="M 15.5 61.078125 
C 15.5 63.265625 13.703125 65.15625 11.40625 65.15625 
C 9.203125 65.15625 7.296875 63.375 7.296875 61.078125 
C 7.296875 58.890625 9.09375 57 11.40625 57 
C 13.59375 57 15.5 58.796875 15.5 61.078125 
M 3.796875 42.28125 
L 3.796875 39.703125 
C 9.40625 39.703125 10.203125 39.09375 10.203125 34.328125 
L 10.203125 6.671875 
C 10.203125 2.875 9.796875 2.390625 3.40625 2.390625 
L 3.40625 -0.203125 
C 5.796875 0 10.09375 0 12.59375 0 
C 15 0 19.09375 0 21.40625 -0.203125 
L 21.40625 2.390625 
C 15.5 2.390625 15.296875 2.984375 15.296875 6.5625 
L 15.296875 43.375 
z
" id="CMR17-105"/>
     <path d="M 67.59375 30.203125 
C 67.59375 35.1875 66.703125 43.59375 54.796875 43.59375 
C 48 43.59375 43.296875 39 41.5 33.609375 
L 41.40625 33.609375 
C 40.203125 41.8125 34.296875 43.59375 28.703125 43.59375 
C 20.796875 43.59375 16.703125 37.5 15.203125 33.5 
L 15.09375 33.5 
L 15.09375 43.59375 
L 3.296875 42.5 
L 3.296875 39.90625 
C 9.203125 39.90625 10.09375 39.296875 10.09375 34.5 
L 10.09375 6.6875 
C 10.09375 2.875 9.703125 2.390625 3.296875 2.390625 
L 3.296875 -0.203125 
C 5.703125 0 10.09375 0 12.703125 0 
C 15.296875 0 19.796875 0 22.203125 -0.203125 
L 22.203125 2.390625 
C 15.796875 2.390625 15.40625 2.78125 15.40625 6.6875 
L 15.40625 25.90625 
C 15.40625 35.109375 21 42 28 42 
C 35.40625 42 36.203125 35.40625 36.203125 30.59375 
L 36.203125 6.6875 
C 36.203125 2.875 35.796875 2.390625 29.40625 2.390625 
L 29.40625 -0.203125 
C 31.796875 0 36.203125 0 38.796875 0 
C 41.40625 0 45.90625 0 48.296875 -0.203125 
L 48.296875 2.390625 
C 41.90625 2.390625 41.5 2.78125 41.5 6.6875 
L 41.5 25.90625 
C 41.5 35.109375 47.09375 42 54.09375 42 
C 61.5 42 62.296875 35.40625 62.296875 30.59375 
L 62.296875 6.6875 
C 62.296875 2.875 61.90625 2.390625 55.5 2.390625 
L 55.5 -0.203125 
C 57.90625 0 62.296875 0 64.90625 0 
C 67.5 0 72 0 74.40625 -0.203125 
L 74.40625 2.390625 
C 68 2.390625 67.59375 2.78125 67.59375 6.6875 
z
" id="CMR17-109"/>
     <path d="M 36 25.828125 
C 36 32.375 36 35.84375 31.796875 39.734375 
C 28.09375 43 23.796875 44 20.40625 44 
C 12.5 44 6.796875 37.609375 6.796875 30.796875 
C 6.796875 27 9.796875 27 10.40625 27 
C 11.703125 27 14 27.78125 14 30.53125 
C 14 33 12.09375 34.078125 10.40625 34.078125 
C 10 34.078125 9.5 33.96875 9.203125 33.875 
C 11.296875 40.5 16.703125 42.40625 20.203125 42.40625 
C 25.203125 42.40625 30.703125 37.953125 30.703125 29.453125 
L 30.703125 25 
C 24.796875 25 17.703125 24.203125 12.09375 21.203125 
C 5.796875 17.703125 4 12.703125 4 8.90625 
C 4 1.203125 13 -1 18.296875 -1 
C 23.796875 -1 28.90625 2.171875 31.09375 7.984375 
C 31.296875 3.640625 34.09375 -0.28125 38.5 -0.28125 
C 40.59375 -0.28125 45.90625 1.09375 45.90625 8.859375 
L 45.90625 14.375 
L 44.09375 14.375 
L 44.09375 8.78125 
C 44.09375 2.78125 41.40625 2 40.09375 2 
C 36 2 36 7.15625 36 11.53125 
z
M 30.703125 13.59375 
C 30.703125 4.953125 24.5 0.59375 19 0.59375 
C 14 0.59375 10.09375 4.296875 10.09375 8.90625 
C 10.09375 11.890625 11.40625 17.1875 17.203125 20.390625 
C 22 23.09375 27.5 23.5 30.703125 23.5 
z
" id="CMR17-97"/>
     <path d="M 43.09375 21.1875 
C 43.09375 34 33.796875 44 22.90625 44 
C 12 44 2.703125 34 2.703125 21.1875 
C 2.703125 8.609375 12 -1 22.90625 -1 
C 33.796875 -1 43.09375 8.609375 43.09375 21.1875 
M 22.90625 0.796875 
C 18.203125 0.796875 14.203125 3.59375 11.90625 7.5 
C 9.40625 11.984375 9.09375 17.59375 9.09375 22 
C 9.09375 26.203125 9.296875 31.40625 11.90625 35.90625 
C 13.90625 39.203125 17.796875 42.40625 22.90625 42.40625 
C 27.40625 42.40625 31.203125 39.90625 33.59375 36.40625 
C 36.703125 31.703125 36.703125 25.109375 36.703125 22 
C 36.703125 18.09375 36.5 12.109375 33.796875 7.296875 
C 31 2.703125 26.703125 0.796875 22.90625 0.796875 
" id="CMR17-111"/>
     <path d="M 15.703125 7.375 
C 14.796875 3.890625 14.59375 2.890625 7.59375 2.890625 
C 5.703125 2.890625 4.703125 2.890625 4.703125 1.09375 
C 4.703125 0 5.296875 0 7.296875 0 
L 39 0 
C 59.203125 0 78.90625 20.8125 78.90625 43.015625 
C 78.90625 57.359375 70.296875 68 56 68 
L 23.90625 68 
C 22 68 21.09375 68 21.09375 66.109375 
C 21.09375 65.109375 22 65.109375 23.5 65.109375 
C 29.59375 65.109375 29.59375 64.3125 29.59375 63.21875 
C 29.59375 63.03125 29.59375 62.421875 29.203125 60.921875 
z
M 36.796875 61.421875 
C 37.703125 65.109375 38.09375 65.109375 42 65.109375 
L 53 65.109375 
C 62.40625 65.109375 71 60.03125 71 46.296875 
C 71 41.3125 69 24 59.296875 13.046875 
C 56.5 9.765625 48.90625 2.890625 37.40625 2.890625 
L 26 2.890625 
C 24.59375 2.890625 24.40625 2.890625 23.796875 3 
C 22.703125 3.09375 22.59375 3.296875 22.59375 4.09375 
C 22.59375 4.796875 22.796875 5.390625 23 6.28125 
z
" id="CMMI12-68"/>
     <path d="M 44.296875 50 
C 44.296875 60.15625 41.09375 70 32.90625 70 
C 18.90625 70 4 40.859375 4 19 
C 4 14.421875 5 -1 15.5 -1 
C 29.09375 -1 44.296875 27.4375 44.296875 50 
M 14 36 
C 15.5 41.859375 17.59375 50.21875 21.59375 57.265625 
C 24.90625 63.234375 28.40625 68 32.796875 68 
C 36.09375 68 38.296875 65.21875 38.296875 55.6875 
C 38.296875 52.09375 38 47.140625 35.09375 36 
z
M 34.40625 33.015625 
C 31.90625 23.28125 29.796875 17 26.203125 10.734375 
C 23.296875 5.671875 19.796875 1 15.59375 1 
C 12.5 1 10 3.390625 10 13.21875 
C 10 19.6875 11.59375 26.453125 13.203125 33.015625 
z
" id="CMMI12-18"/>
    </defs>
    <g transform="translate(368.928302 28.56)scale(0.192 -0.192)">
     <use transform="translate(0 14.943915)scale(0.996264)" xlink:href="#CMR17-101"/>
     <use transform="translate(40.48566 14.943915)scale(0.996264)" xlink:href="#CMR17-115"/>
     <use transform="translate(76.286998 14.943915)scale(0.996264)" xlink:href="#CMR17-116"/>
     <use transform="translate(111.567766 14.943915)scale(0.996264)" xlink:href="#CMR17-105"/>
     <use transform="translate(136.438824 14.943915)scale(0.996264)" xlink:href="#CMR17-109"/>
     <use transform="translate(213.358414 14.943915)scale(0.996264)" xlink:href="#CMR17-97"/>
     <use transform="translate(259.048891 14.943915)scale(0.996264)" xlink:href="#CMR17-116"/>
     <use transform="translate(294.329659 14.943915)scale(0.996264)" xlink:href="#CMR17-111"/>
     <use transform="translate(340.020136 14.943915)scale(0.996264)" xlink:href="#CMR17-114"/>
     <use transform="translate(375.300904 14.943915)scale(0.996264)" xlink:href="#CMR17-58"/>
     <use transform="translate(440.657623 14.943915)scale(0.996264)" xlink:href="#CMMI12-68"/>
     <use transform="translate(521.651853 0)scale(0.697382)" xlink:href="#CMMI12-18"/>
     <use transform="translate(555.868481 14.943915)scale(0.996264)" xlink:href="#CMR17-40"/>
     <use transform="translate(591.149249 14.943915)scale(0.996264)" xlink:href="#CMBX12-120"/>
     <use transform="translate(650.302424 14.943915)scale(0.996264)" xlink:href="#CMR17-41"/>
    </g>
   </g>
  </g>
  <g id="axes_3">
   <g id="patch_12">
    <path clip-path="url(#pef4d96a031)" d="M 564.3 252 
L 564.3 208.512 
L 564.3 78.048 
L 564.3 34.56 
L 575.172 34.56 
L 575.172 78.048 
L 575.172 208.512 
L 575.172 252 
z
" style="fill:#ffffff;stroke:#ffffff;stroke-linejoin:miter;stroke-width:0.01;"/>
   </g>
   <g id="matplotlib.axis_5"/>
   <g id="matplotlib.axis_6">
    <g id="ytick_15">
     <g id="line2d_21">
      <defs>
       <path d="M 0 0 
L 3.5 0 
" id="m13ac09704f" style="stroke:#000000;stroke-width:0.8;"/>
      </defs>
      <g>
       <use style="stroke:#000000;stroke-width:0.8;" x="575.172" xlink:href="#m13ac09704f" y="252"/>
      </g>
     </g>
     <g id="text_19">
      <!-- $0.15$ -->
      <defs>
       <path d="M 18.40625 4.796875 
C 18.40625 7.6875 16 9.671875 13.59375 9.671875 
C 10.703125 9.671875 8.703125 7.28125 8.703125 4.890625 
C 8.703125 2 11.09375 0 13.5 0 
C 16.40625 0 18.40625 2.390625 18.40625 4.796875 
" id="CMMI12-58"/>
       <path d="M 11.40625 57.6875 
C 12.40625 57.28125 16.5 56 20.703125 56 
C 30 56 35.09375 61.109375 38 64.0625 
C 38 64.953125 38 65.5 37.40625 65.5 
C 37.296875 65.5 37.09375 65.5 36.296875 65.046875 
C 32.796875 63.40625 28.703125 62.078125 23.703125 62.078125 
C 20.703125 62.078125 16.203125 62.484375 11.296875 64.671875 
C 10.203125 65.171875 10 65.171875 9.90625 65.171875 
C 9.40625 65.171875 9.296875 65.0625 9.296875 63.078125 
L 9.296875 34.421875 
C 9.296875 32.640625 9.296875 32.140625 10.296875 32.140625 
C 10.796875 32.140625 11 32.34375 11.5 33.03125 
C 14.703125 37.515625 19.09375 39.40625 24.09375 39.40625 
C 27.59375 39.40625 35.09375 37.21875 35.09375 20.140625 
C 35.09375 16.953125 35.09375 11.171875 32.09375 6.578125 
C 29.59375 2.484375 25.703125 0.390625 21.40625 0.390625 
C 14.796875 0.390625 8.09375 5 6.296875 12.71875 
C 6.703125 12.609375 7.5 12.421875 7.90625 12.421875 
C 9.203125 12.421875 11.703125 13.125 11.703125 16.21875 
C 11.703125 18.90625 9.796875 20 7.90625 20 
C 5.59375 20 4.09375 18.59375 4.09375 15.796875 
C 4.09375 7.09375 11 -2 21.59375 -2 
C 31.90625 -2 41.703125 6.875 41.703125 19.75 
C 41.703125 31.71875 33.90625 41 24.203125 41 
C 19.09375 41 14.796875 39.109375 11.40625 35.53125 
z
" id="CMR17-53"/>
      </defs>
      <g transform="translate(582.172 257.534794)scale(0.16 -0.16)">
       <use transform="scale(0.996264)" xlink:href="#CMR17-48"/>
       <use transform="translate(45.690477 0)scale(0.996264)" xlink:href="#CMMI12-58"/>
       <use transform="translate(72.787654 0)scale(0.996264)" xlink:href="#CMR17-49"/>
       <use transform="translate(118.478131 0)scale(0.996264)" xlink:href="#CMR17-53"/>
      </g>
     </g>
    </g>
    <g id="ytick_16">
     <g id="line2d_22">
      <g>
       <use style="stroke:#000000;stroke-width:0.8;" x="575.172" xlink:href="#m13ac09704f" y="208.512"/>
      </g>
     </g>
     <g id="text_20">
      <!-- $0.30$ -->
      <defs>
       <path d="M 22.09375 33.703125 
C 31 33.703125 34.90625 25.96875 34.90625 17.03125 
C 34.90625 5 28.5 0.390625 22.703125 0.390625 
C 17.40625 0.390625 8.796875 3.03125 6.09375 10.828125 
C 6.59375 10.625 7.09375 10.625 7.59375 10.625 
C 10 10.625 11.796875 12.21875 11.796875 14.8125 
C 11.796875 17.703125 9.59375 19 7.59375 19 
C 5.90625 19 3.296875 18.203125 3.296875 14.46875 
C 3.296875 5.234375 12.296875 -2 22.90625 -2 
C 34 -2 42.5 6.71875 42.5 16.953125 
C 42.5 26.671875 34.5 33.703125 25 34.796875 
C 32.59375 36.375 39.90625 43.0625 39.90625 52.015625 
C 39.90625 59.6875 32 65.296875 23 65.296875 
C 13.90625 65.296875 5.90625 59.828125 5.90625 52.015625 
C 5.90625 48.59375 8.5 48 9.796875 48 
C 11.90625 48 13.703125 49.296875 13.703125 51.890625 
C 13.703125 54.46875 11.90625 55.765625 9.796875 55.765625 
C 9.40625 55.765625 8.90625 55.765625 8.5 55.578125 
C 11.40625 61.859375 19.296875 63 22.796875 63 
C 26.296875 63 32.90625 61.328125 32.90625 51.875 
C 32.90625 49.109375 32.5 44.1875 29.09375 39.84375 
C 26.09375 36 22.703125 36 19.40625 35.6875 
C 18.90625 35.6875 16.59375 35.453125 16.203125 35.453125 
C 15.5 35.359375 15.09375 35.265625 15.09375 34.5 
C 15.09375 33.796875 15.203125 33.703125 17.203125 33.703125 
z
" id="CMR17-51"/>
      </defs>
      <g transform="translate(582.172 214.046794)scale(0.16 -0.16)">
       <use transform="scale(0.996264)" xlink:href="#CMR17-48"/>
       <use transform="translate(45.690477 0)scale(0.996264)" xlink:href="#CMMI12-58"/>
       <use transform="translate(72.787654 0)scale(0.996264)" xlink:href="#CMR17-51"/>
       <use transform="translate(118.478131 0)scale(0.996264)" xlink:href="#CMR17-48"/>
      </g>
     </g>
    </g>
    <g id="ytick_17">
     <g id="line2d_23">
      <g>
       <use style="stroke:#000000;stroke-width:0.8;" x="575.172" xlink:href="#m13ac09704f" y="165.024"/>
      </g>
     </g>
     <g id="text_21">
      <!-- $0.45$ -->
      <g transform="translate(582.172 170.558794)scale(0.16 -0.16)">
       <use transform="scale(0.996264)" xlink:href="#CMR17-48"/>
       <use transform="translate(45.690477 0)scale(0.996264)" xlink:href="#CMMI12-58"/>
       <use transform="translate(72.787654 0)scale(0.996264)" xlink:href="#CMR17-52"/>
       <use transform="translate(118.478131 0)scale(0.996264)" xlink:href="#CMR17-53"/>
      </g>
     </g>
    </g>
    <g id="ytick_18">
     <g id="line2d_24">
      <g>
       <use style="stroke:#000000;stroke-width:0.8;" x="575.172" xlink:href="#m13ac09704f" y="121.536"/>
      </g>
     </g>
     <g id="text_22">
      <!-- $0.60$ -->
      <g transform="translate(582.172 127.070794)scale(0.16 -0.16)">
       <use transform="scale(0.996264)" xlink:href="#CMR17-48"/>
       <use transform="translate(45.690477 0)scale(0.996264)" xlink:href="#CMMI12-58"/>
       <use transform="translate(72.787654 0)scale(0.996264)" xlink:href="#CMR17-54"/>
       <use transform="translate(118.478131 0)scale(0.996264)" xlink:href="#CMR17-48"/>
      </g>
     </g>
    </g>
    <g id="ytick_19">
     <g id="line2d_25">
      <g>
       <use style="stroke:#000000;stroke-width:0.8;" x="575.172" xlink:href="#m13ac09704f" y="78.048"/>
      </g>
     </g>
     <g id="text_23">
      <!-- $0.75$ -->
      <defs>
       <path d="M 45.09375 61.578125 
L 45.09375 63.765625 
L 21.59375 63.765625 
C 9.90625 63.765625 9.703125 65.078125 9.296875 67 
L 7.5 67 
L 4.59375 48.34375 
L 6.40625 48.34375 
C 6.703125 50.234375 7.40625 55.3125 8.59375 57.203125 
C 9.203125 58 16.59375 58 18.296875 58 
L 40.296875 58 
L 29.203125 41.578125 
C 21.796875 30.53125 16.703125 15.609375 16.703125 2.578125 
C 16.703125 1.390625 16.703125 -2 20.296875 -2 
C 23.90625 -2 23.90625 1.390625 23.90625 2.671875 
L 23.90625 7.265625 
C 23.90625 23.5625 26.703125 34.3125 31.296875 41.1875 
z
" id="CMR17-55"/>
      </defs>
      <g transform="translate(582.172 83.582794)scale(0.16 -0.16)">
       <use transform="scale(0.996264)" xlink:href="#CMR17-48"/>
       <use transform="translate(45.690477 0)scale(0.996264)" xlink:href="#CMMI12-58"/>
       <use transform="translate(72.787654 0)scale(0.996264)" xlink:href="#CMR17-55"/>
       <use transform="translate(118.478131 0)scale(0.996264)" xlink:href="#CMR17-53"/>
      </g>
     </g>
    </g>
    <g id="ytick_20">
     <g id="line2d_26">
      <g>
       <use style="stroke:#000000;stroke-width:0.8;" x="575.172" xlink:href="#m13ac09704f" y="34.56"/>
      </g>
     </g>
     <g id="text_24">
      <!-- $0.90$ -->
      <defs>
       <path d="M 35.203125 29.125 
C 35.203125 7.25 26.09375 0.484375 18.59375 0.484375 
C 16.296875 0.484375 10.703125 0.484375 8.40625 4.59375 
C 11 4.1875 12.90625 5.578125 12.90625 8.09375 
C 12.90625 10.8125 10.703125 11.703125 9.296875 11.703125 
C 8.40625 11.703125 5.703125 11.296875 5.703125 7.90625 
C 5.703125 1.109375 11.59375 -2 18.796875 -2 
C 30.296875 -2 42 10.53125 42 32.390625 
C 42 59.640625 30.796875 65.296875 23.203125 65.296875 
C 13.296875 65.296875 3.796875 56.6875 3.796875 43.40625 
C 3.796875 31.109375 11.90625 22 22.09375 22 
C 30.5 22 34.203125 29.734375 35.203125 33 
z
M 22.296875 23.59375 
C 19.59375 23.59375 15.796875 24.09375 12.703125 30.03125 
C 10.59375 33.890625 10.59375 38.453125 10.59375 43.296875 
C 10.59375 49.15625 10.59375 53.203125 13.40625 57.5625 
C 14.796875 59.640625 17.40625 63 23.203125 63 
C 35 63 35 45.078125 35 41.125 
C 35 34.09375 31.796875 23.59375 22.296875 23.59375 
" id="CMR17-57"/>
      </defs>
      <g transform="translate(582.172 40.094794)scale(0.16 -0.16)">
       <use transform="scale(0.996264)" xlink:href="#CMR17-48"/>
       <use transform="translate(45.690477 0)scale(0.996264)" xlink:href="#CMMI12-58"/>
       <use transform="translate(72.787654 0)scale(0.996264)" xlink:href="#CMR17-57"/>
       <use transform="translate(118.478131 0)scale(0.996264)" xlink:href="#CMR17-48"/>
      </g>
     </g>
    </g>
   </g>
   <g id="LineCollection_13">
    <path clip-path="url(#pef4d96a031)" d="M 564.3 252 
L 575.172 252 
" style="fill:none;stroke:#d9e8f5;stroke-width:1.5;"/>
    <path clip-path="url(#pef4d96a031)" d="M 564.3 208.512 
L 575.172 208.512 
" style="fill:none;stroke:#b7d4ea;stroke-width:1.5;"/>
    <path clip-path="url(#pef4d96a031)" d="M 564.3 165.024 
L 575.172 165.024 
" style="fill:none;stroke:#7fb9da;stroke-width:1.5;"/>
    <path clip-path="url(#pef4d96a031)" d="M 564.3 121.536 
L 575.172 121.536 
" style="fill:none;stroke:#4a98c9;stroke-width:1.5;"/>
    <path clip-path="url(#pef4d96a031)" d="M 564.3 78.048 
L 575.172 78.048 
" style="fill:none;stroke:#2070b4;stroke-width:1.5;"/>
    <path clip-path="url(#pef4d96a031)" d="M 564.3 34.56 
L 575.172 34.56 
" style="fill:none;stroke:#084a91;stroke-width:1.5;"/>
   </g>
   <g id="patch_13">
    <path d="M 564.3 252 
L 564.3 208.512 
L 564.3 78.048 
L 564.3 34.56 
L 575.172 34.56 
L 575.172 78.048 
L 575.172 208.512 
L 575.172 252 
z
" style="fill:none;stroke:#000000;stroke-linejoin:miter;stroke-width:0.8;"/>
   </g>
  </g>
 </g>
 <defs>
  <clipPath id="pa2d8c91c52">
   <rect height="217.44" width="202.909091" x="90" y="34.56"/>
  </clipPath>
  <clipPath id="pee982e709b">
   <rect height="217.44" width="202.909091" x="333.490909" y="34.56"/>
  </clipPath>
  <clipPath id="pef4d96a031">
   <rect height="217.44" width="10.872" x="564.3" y="34.56"/>
  </clipPath>
 </defs>
</svg>
