<?xml version="1.0" encoding="utf-8" standalone="no"?>
<!DOCTYPE svg PUBLIC "-//W3C//DTD SVG 1.1//EN"
  "http://www.w3.org/Graphics/SVG/1.1/DTD/svg11.dtd">
<!-- Created with matplotlib (http://matplotlib.org/) -->
<svg height="288pt" version="1.1" viewBox="0 0 720 288" width="720pt" xmlns="http://www.w3.org/2000/svg" xmlns:xlink="http://www.w3.org/1999/xlink">
 <defs>
  <style type="text/css">
*{stroke-linecap:butt;stroke-linejoin:round;}
  </style>
 </defs>
 <g id="figure_1">
  <g id="patch_1">
   <path d="M 0 288 
L 720 288 
L 720 0 
L 0 0 
z
" style="fill:#ffffff;"/>
  </g>
  <g id="axes_1">
   <g id="patch_2">
    <path d="M 90 252 
L 292.909091 252 
L 292.909091 34.56 
L 90 34.56 
z
" style="fill:#ffffff;"/>
   </g>
   <g id="matplotlib.axis_1">
    <g id="xtick_1">
     <g id="line2d_1">
      <defs>
       <path d="M 0 0 
L 0 3.5 
" id="me3b4f4e6c1" style="stroke:#000000;stroke-width:0.8;"/>
      </defs>
      <g>
       <use style="stroke:#000000;stroke-width:0.8;" x="123.818182" xlink:href="#me3b4f4e6c1" y="252"/>
      </g>
     </g>
     <g id="text_1">
      <!-- $-2$ -->
      <defs>
       <path d="M 65.90625 23 
C 67.59375 23 69.40625 23 69.40625 25 
C 69.40625 27 67.59375 27 65.90625 27 
L 11.796875 27 
C 10.09375 27 8.296875 27 8.296875 25 
C 8.296875 23 10.09375 23 11.796875 23 
z
" id="CMSY10-0"/>
       <path d="M 41.703125 15.453125 
L 39.90625 15.453125 
C 38.90625 8.375 38.09375 7.171875 37.703125 6.5625 
C 37.203125 5.765625 30 5.765625 28.59375 5.765625 
L 9.40625 5.765625 
C 13 9.671875 20 16.75 28.5 24.953125 
C 34.59375 30.734375 41.703125 37.53125 41.703125 47.421875 
C 41.703125 59.21875 32.296875 66 21.796875 66 
C 10.796875 66 4.09375 56.3125 4.09375 47.34375 
C 4.09375 43.4375 7 42.9375 8.203125 42.9375 
C 9.203125 42.9375 12.203125 43.546875 12.203125 47.03125 
C 12.203125 50.109375 9.59375 51 8.203125 51 
C 7.59375 51 7 50.90625 6.59375 50.703125 
C 8.5 59.21875 14.296875 63.40625 20.40625 63.40625 
C 29.09375 63.40625 34.796875 56.515625 34.796875 47.421875 
C 34.796875 38.734375 29.703125 31.25 24 24.75 
L 4.09375 2.28125 
L 4.09375 0 
L 39.296875 0 
z
" id="CMR17-50"/>
      </defs>
      <g transform="translate(113.71719 270.069588)scale(0.16 -0.16)">
       <use transform="scale(0.996264)" xlink:href="#CMSY10-0"/>
       <use transform="translate(77.487468 0)scale(0.996264)" xlink:href="#CMR17-50"/>
      </g>
     </g>
    </g>
    <g id="xtick_2">
     <g id="line2d_2">
      <g>
       <use style="stroke:#000000;stroke-width:0.8;" x="191.454545" xlink:href="#me3b4f4e6c1" y="252"/>
      </g>
     </g>
     <g id="text_2">
      <!-- $0$ -->
      <defs>
       <path d="M 42 31.640625 
C 42 37.75 41.90625 48.125 37.703125 56.109375 
C 34 63.109375 28.09375 65.59375 22.90625 65.59375 
C 18.09375 65.59375 12 63.40625 8.203125 56.203125 
C 4.203125 48.71875 3.796875 39.4375 3.796875 31.640625 
C 3.796875 25.953125 3.90625 17.28125 7 9.671875 
C 11.296875 -0.609375 19 -2 22.90625 -2 
C 27.5 -2 34.5 -0.109375 38.59375 9.375 
C 41.59375 16.28125 42 24.359375 42 31.640625 
M 22.90625 -0.40625 
C 16.5 -0.40625 12.703125 5.078125 11.296875 12.6875 
C 10.203125 18.5625 10.203125 27.15625 10.203125 32.75 
C 10.203125 40.4375 10.203125 46.828125 11.5 52.921875 
C 13.40625 61.390625 19 64 22.90625 64 
C 27 64 32.296875 61.296875 34.203125 53.125 
C 35.5 47.4375 35.59375 40.734375 35.59375 32.75 
C 35.59375 26.25 35.59375 18.265625 34.40625 12.375 
C 32.296875 1.484375 26.40625 -0.40625 22.90625 -0.40625 
" id="CMR17-48"/>
      </defs>
      <g transform="translate(187.552552 270.069588)scale(0.16 -0.16)">
       <use transform="scale(0.996264)" xlink:href="#CMR17-48"/>
      </g>
     </g>
    </g>
    <g id="xtick_3">
     <g id="line2d_3">
      <g>
       <use style="stroke:#000000;stroke-width:0.8;" x="259.090909" xlink:href="#me3b4f4e6c1" y="252"/>
      </g>
     </g>
     <g id="text_3">
      <!-- $2$ -->
      <g transform="translate(255.188916 270.069588)scale(0.16 -0.16)">
       <use transform="scale(0.996264)" xlink:href="#CMR17-50"/>
      </g>
     </g>
    </g>
    <g id="text_4">
     <!-- $x_1$ -->
     <defs>
      <path d="M 47.40625 40.71875 
C 44.203125 40.109375 43 37.71875 43 35.828125 
C 43 33.421875 44.90625 32.625 46.296875 32.625 
C 49.296875 32.625 51.40625 35.21875 51.40625 37.921875 
C 51.40625 42.109375 46.59375 44 42.40625 44 
C 36.296875 44 32.90625 38.015625 32 36.125 
C 29.703125 44 23.5 44 21.703125 44 
C 11.5 44 6.09375 30.9375 6.09375 28.734375 
C 6.09375 28.34375 6.5 27.84375 7.203125 27.84375 
C 8 27.84375 8.203125 28.4375 8.40625 28.84375 
C 11.796875 39.921875 18.5 42.015625 21.40625 42.015625 
C 25.90625 42.015625 26.796875 37.8125 26.796875 35.421875 
C 26.796875 33.234375 26.203125 30.9375 25 26.140625 
L 21.59375 12.46875 
C 20.09375 6.484375 17.203125 1 11.90625 1 
C 11.40625 1 8.90625 1 6.796875 2.296875 
C 10.40625 3 11.203125 5.984375 11.203125 7.1875 
C 11.203125 9.1875 9.703125 10.375 7.796875 10.375 
C 5.40625 10.375 2.796875 8.28125 2.796875 5.09375 
C 2.796875 0.890625 7.5 -1 11.796875 -1 
C 16.59375 -1 20 2.796875 22.09375 6.890625 
C 23.703125 1 28.703125 -1 32.40625 -1 
C 42.59375 -1 48 12.078125 48 14.265625 
C 48 14.765625 47.59375 15.171875 47 15.171875 
C 46.09375 15.171875 46 14.671875 45.703125 13.875 
C 43 5.09375 37.203125 1 32.703125 1 
C 29.203125 1 27.296875 3.59375 27.296875 7.6875 
C 27.296875 9.875 27.703125 11.46875 29.296875 18.0625 
L 32.796875 31.625 
C 34.296875 37.625 37.703125 42.015625 42.296875 42.015625 
C 42.5 42.015625 45.296875 42.015625 47.40625 40.71875 
" id="CMMI12-120"/>
      <path d="M 26.59375 63.40625 
C 26.59375 65.5 26.5 65.5 25.09375 65.5 
C 21.203125 61.1875 15.296875 59.796875 9.703125 59.796875 
C 9.40625 59.796875 8.90625 59.796875 8.796875 59.5 
C 8.703125 59.296875 8.703125 59.09375 8.703125 57 
C 11.796875 57 17 57.59375 21 59.984375 
L 21 7.203125 
C 21 3.6875 20.796875 2.5 12.203125 2.5 
L 9.203125 2.5 
L 9.203125 0 
C 14 0 19 0 23.796875 0 
C 28.59375 0 33.59375 0 38.40625 0 
L 38.40625 2.5 
L 35.40625 2.5 
C 26.796875 2.5 26.59375 3.59375 26.59375 7.15625 
z
" id="CMR17-49"/>
     </defs>
     <g transform="translate(184.230286 288.238653)scale(0.16 -0.16)">
      <use transform="translate(0 14.943915)scale(0.996264)" xlink:href="#CMMI12-120"/>
      <use transform="translate(55.43406 0)scale(0.697382)" xlink:href="#CMR17-49"/>
     </g>
    </g>
   </g>
   <g id="matplotlib.axis_2">
    <g id="ytick_1">
     <g id="line2d_4">
      <defs>
       <path d="M 0 0 
L -3.5 0 
" id="mdb76506652" style="stroke:#000000;stroke-width:0.8;"/>
      </defs>
      <g>
       <use style="stroke:#000000;stroke-width:0.8;" x="90" xlink:href="#mdb76506652" y="252"/>
      </g>
     </g>
     <g id="text_5">
      <!-- $-10$ -->
      <g transform="translate(54.99403 257.534794)scale(0.16 -0.16)">
       <use transform="scale(0.996264)" xlink:href="#CMSY10-0"/>
       <use transform="translate(77.487468 0)scale(0.996264)" xlink:href="#CMR17-49"/>
       <use transform="translate(123.177945 0)scale(0.996264)" xlink:href="#CMR17-48"/>
      </g>
     </g>
    </g>
    <g id="ytick_2">
     <g id="line2d_5">
      <g>
       <use style="stroke:#000000;stroke-width:0.8;" x="90" xlink:href="#mdb76506652" y="215.76"/>
      </g>
     </g>
     <g id="text_6">
      <!-- $-8$ -->
      <defs>
       <path d="M 27.203125 35.375 
C 33.5 38.546875 39.90625 43.328125 39.90625 50.984375 
C 39.90625 60.015625 31.09375 65.296875 23 65.296875 
C 13.90625 65.296875 5.90625 58.734375 5.90625 49.6875 
C 5.90625 47.203125 6.5 42.921875 10.40625 39.140625 
C 11.40625 38.15625 15.59375 35.171875 18.296875 33.28125 
C 13.796875 30.984375 3.296875 25.53125 3.296875 14.59375 
C 3.296875 4.359375 13.09375 -2 22.796875 -2 
C 33.5 -2 42.5 5.65625 42.5 15.78125 
C 42.5 24.84375 36.40625 29.015625 32.40625 31.703125 
z
M 14.09375 44.09375 
C 13.296875 44.59375 9.296875 47.671875 9.296875 52.359375 
C 9.296875 58.421875 15.59375 63 22.796875 63 
C 30.703125 63 36.5 57.4375 36.5 50.96875 
C 36.5 41.703125 26.09375 36.421875 25.59375 36.421875 
C 25.5 36.421875 25.40625 36.421875 24.59375 37.03125 
z
M 32.5 23.734375 
C 34 22.640625 38.796875 19.375 38.796875 13.296875 
C 38.796875 5.953125 31.40625 0.390625 23 0.390625 
C 13.90625 0.390625 7 6.84375 7 14.6875 
C 7 22.546875 13.09375 29.09375 20 32.1875 
z
" id="CMR17-56"/>
      </defs>
      <g transform="translate(62.798017 221.294794)scale(0.16 -0.16)">
       <use transform="scale(0.996264)" xlink:href="#CMSY10-0"/>
       <use transform="translate(77.487468 0)scale(0.996264)" xlink:href="#CMR17-56"/>
      </g>
     </g>
    </g>
    <g id="ytick_3">
     <g id="line2d_6">
      <g>
       <use style="stroke:#000000;stroke-width:0.8;" x="90" xlink:href="#mdb76506652" y="179.52"/>
      </g>
     </g>
     <g id="text_7">
      <!-- $-6$ -->
      <defs>
       <path d="M 10.59375 34 
C 10.59375 57.65625 21.796875 63 28.296875 63 
C 30.40625 63 35.5 62.640625 37.5 59 
C 35.90625 59 32.90625 59 32.90625 55.515625 
C 32.90625 52.828125 35.09375 51.921875 36.5 51.921875 
C 37.40625 51.921875 40.09375 52.3125 40.09375 55.625 
C 40.09375 61.78125 35.09375 65.296875 28.203125 65.296875 
C 16.296875 65.296875 3.796875 52.96875 3.796875 31 
C 3.796875 3.953125 15.09375 -2 23.09375 -2 
C 32.796875 -2 42 6.671875 42 20.046875 
C 42 32.515625 33.90625 41.59375 23.703125 41.59375 
C 17.59375 41.59375 13.09375 37.609375 10.59375 30.625 
z
M 23.09375 0.390625 
C 10.796875 0.390625 10.796875 18.75 10.796875 22.4375 
C 10.796875 29.625 14.203125 40 23.5 40 
C 25.203125 40 30.09375 40 33.40625 33.125 
C 35.203125 29.21875 35.203125 25.140625 35.203125 20.140625 
C 35.203125 14.75 35.203125 10.78125 33.09375 6.78125 
C 30.90625 2.671875 27.703125 0.390625 23.09375 0.390625 
" id="CMR17-54"/>
      </defs>
      <g transform="translate(62.798017 185.054794)scale(0.16 -0.16)">
       <use transform="scale(0.996264)" xlink:href="#CMSY10-0"/>
       <use transform="translate(77.487468 0)scale(0.996264)" xlink:href="#CMR17-54"/>
      </g>
     </g>
    </g>
    <g id="ytick_4">
     <g id="line2d_7">
      <g>
       <use style="stroke:#000000;stroke-width:0.8;" x="90" xlink:href="#mdb76506652" y="143.28"/>
      </g>
     </g>
     <g id="text_8">
      <!-- $-4$ -->
      <defs>
       <path d="M 33.59375 64.40625 
C 33.59375 66.5 33.5 66.5 31.703125 66.5 
L 2 19.59375 
L 2 17 
L 27.796875 17 
L 27.796875 7.140625 
C 27.796875 3.5 27.59375 2.5 20.59375 2.5 
L 18.703125 2.5 
L 18.703125 0 
C 21.90625 0 27.296875 0 30.703125 0 
C 34.09375 0 39.5 0 42.703125 0 
L 42.703125 2.5 
L 40.796875 2.5 
C 33.796875 2.5 33.59375 3.5 33.59375 7.140625 
L 33.59375 17 
L 43.796875 17 
L 43.796875 19.59375 
L 33.59375 19.59375 
z
M 28.09375 57.859375 
L 28.09375 19.59375 
L 4 19.59375 
z
" id="CMR17-52"/>
      </defs>
      <g transform="translate(62.798017 148.814794)scale(0.16 -0.16)">
       <use transform="scale(0.996264)" xlink:href="#CMSY10-0"/>
       <use transform="translate(77.487468 0)scale(0.996264)" xlink:href="#CMR17-52"/>
      </g>
     </g>
    </g>
    <g id="ytick_5">
     <g id="line2d_8">
      <g>
       <use style="stroke:#000000;stroke-width:0.8;" x="90" xlink:href="#mdb76506652" y="107.04"/>
      </g>
     </g>
     <g id="text_9">
      <!-- $-2$ -->
      <g transform="translate(62.798017 112.574794)scale(0.16 -0.16)">
       <use transform="scale(0.996264)" xlink:href="#CMSY10-0"/>
       <use transform="translate(77.487468 0)scale(0.996264)" xlink:href="#CMR17-50"/>
      </g>
     </g>
    </g>
    <g id="ytick_6">
     <g id="line2d_9">
      <g>
       <use style="stroke:#000000;stroke-width:0.8;" x="90" xlink:href="#mdb76506652" y="70.8"/>
      </g>
     </g>
     <g id="text_10">
      <!-- $0$ -->
      <g transform="translate(75.196013 76.334794)scale(0.16 -0.16)">
       <use transform="scale(0.996264)" xlink:href="#CMR17-48"/>
      </g>
     </g>
    </g>
    <g id="ytick_7">
     <g id="line2d_10">
      <g>
       <use style="stroke:#000000;stroke-width:0.8;" x="90" xlink:href="#mdb76506652" y="34.56"/>
      </g>
     </g>
     <g id="text_11">
      <!-- $2$ -->
      <g transform="translate(75.196013 40.094794)scale(0.16 -0.16)">
       <use transform="scale(0.996264)" xlink:href="#CMR17-50"/>
      </g>
     </g>
    </g>
    <g id="text_12">
     <!-- $x_2$ -->
     <g transform="translate(47.894554 150.504259)rotate(-90)scale(0.16 -0.16)">
      <use transform="translate(0 14.943915)scale(0.996264)" xlink:href="#CMMI12-120"/>
      <use transform="translate(55.43406 0)scale(0.697382)" xlink:href="#CMR17-50"/>
     </g>
    </g>
   </g>
   <g id="LineCollection_1">
    <path clip-path="url(#p9b8b9a1b1f)" d="M 108.37425 252 
L 115.016191 230.276574 
L 116.941633 224.341293 
L 118.589934 219.357563 
L 121.10709 212.00125 
L 124.751887 201.788808 
L 127.325741 194.896304 
L 134.076144 178.150945 
L 139.881748 165.19421 
L 142.549518 159.662464 
L 145.795221 153.279683 
L 148.53804 148.173462 
L 151.429587 143.067242 
L 154.327344 138.227887 
L 158.695246 131.454404 
L 162.817632 125.620977 
L 165.842734 121.672139 
L 169.64677 117.110611 
L 172.756013 113.706458 
L 176.166967 110.302314 
L 179.494634 107.323678 
L 182.917275 104.600519 
L 185.696849 102.636996 
L 189.270593 100.453819 
L 192.465401 98.813304 
L 195.623911 97.487629 
L 198.800565 96.447109 
L 201.580148 95.770477 
L 204.756802 95.274472 
L 207.536385 95.07541 
L 210.315959 95.09917 
L 213.095533 95.341505 
L 215.875107 95.803588 
L 218.257608 96.377701 
L 221.037182 97.247327 
L 223.94851 98.387787 
L 227.390492 100.045757 
L 229.772993 101.38461 
L 233.066406 103.494008 
L 236.554035 106.047127 
L 240.157403 109.025754 
L 243.855201 112.429899 
L 247.641696 116.259976 
L 251.612521 120.609406 
L 259.951251 129.881404 
L 260.348332 130.081197 
L 260.669582 129.876164 
L 260.593064 129.02513 
L 260.072284 127.323053 
L 259.157089 125.026059 
L 256.854666 120.089239 
L 254.392103 115.358386 
L 251.269566 109.876788 
L 247.80968 104.345042 
L 244.465033 99.484629 
L 241.685467 95.786336 
L 238.905885 92.386937 
L 235.8881 89.026379 
L 232.910495 86.047743 
L 230.053408 83.494641 
L 227.364867 81.367039 
L 224.929299 79.664971 
L 222.625514 78.249603 
L 219.845931 76.800666 
L 217.066357 75.627636 
L 214.286783 74.732197 
L 211.507201 74.116444 
L 209.124708 73.800995 
L 206.742215 73.692798 
L 204.359722 73.780341 
L 201.977228 74.071292 
L 199.197654 74.661966 
L 196.758022 75.409784 
L 194.43266 76.310913 
L 192.050167 77.431379 
L 188.873512 79.240384 
L 186.324499 80.941522 
L 184.06108 82.643607 
L 181.328943 84.929927 
L 178.152288 87.916768 
L 174.975625 91.251641 
L 171.755633 94.983634 
L 168.225227 99.475894 
L 165.314801 103.494008 
L 161.331552 109.451271 
L 156.902196 116.685086 
L 151.896222 125.620977 
L 148.557543 132.003757 
L 142.544345 144.343801 
L 136.04729 158.81143 
L 132.787455 166.470761 
L 127.921617 178.385288 
L 120.048309 198.810172 
L 114.012969 215.405403 
L 102.776621 248.595847 
L 101.673989 252 
L 101.673989 252 
" style="fill:none;stroke:#f7fbff;stroke-width:1.5;"/>
   </g>
   <g id="LineCollection_2">
    <path clip-path="url(#p9b8b9a1b1f)" d="M 107.64588 252 
L 110.859053 240.936524 
L 113.671172 231.575116 
L 116.716715 221.788174 
L 120.594826 209.873665 
L 123.647251 200.937774 
L 130.274478 183.065992 
L 135.048757 171.576991 
L 140.985822 158.81143 
L 146.2947 148.598979 
L 151.676302 139.237572 
L 155.691085 132.8548 
L 159.489416 127.27027 
L 163.063151 122.409796 
L 166.636895 117.925033 
L 170.210639 113.815165 
L 173.557086 110.302314 
L 176.961038 107.060521 
L 180.137701 104.333109 
L 183.461644 101.79194 
L 186.625674 99.664338 
L 189.667674 97.88786 
L 192.95788 96.260202 
L 196.122863 94.983634 
L 199.197654 94.015379 
L 201.977228 93.365793 
L 204.756802 92.931978 
L 207.536385 92.713558 
L 210.315959 92.707311 
L 213.095533 92.911253 
L 215.875107 93.32584 
L 219.05177 94.0538 
L 222.050066 94.983634 
L 225.008007 96.129135 
L 228.18467 97.599944 
L 231.361317 99.307988 
L 234.93506 101.482582 
L 240.097128 104.939601 
L 242.479629 106.482658 
L 243.670871 107.078093 
L 244.465033 107.211571 
L 244.768062 106.898161 
L 244.705042 106.047127 
L 244.24597 104.770576 
L 243.404905 103.068491 
L 241.895251 100.515389 
L 239.880817 97.536753 
L 237.284101 94.1326 
L 234.537979 90.938417 
L 231.87102 88.175345 
L 229.088386 85.622226 
L 226.448613 83.494641 
L 223.816756 81.647993 
L 221.037182 79.990653 
L 218.257608 78.626933 
L 215.478026 77.556415 
L 212.698452 76.770163 
L 209.918878 76.271799 
L 207.139296 76.052416 
L 204.756802 76.091113 
L 202.374309 76.33715 
L 199.991816 76.787006 
L 197.609323 77.442216 
L 194.829749 78.465205 
L 192.248611 79.664971 
L 189.934592 80.941522 
L 187.682261 82.365598 
L 184.902687 84.377477 
L 182.123113 86.660356 
L 178.94645 89.607856 
L 175.769787 92.913602 
L 172.593132 96.573572 
L 169.472621 100.515389 
L 166.072867 105.196093 
L 162.660557 110.302314 
L 159.232007 115.834052 
L 155.518591 122.279915 
L 151.888943 129.02513 
L 147.814118 137.109978 
L 144.36553 144.343801 
L 138.046965 158.433289 
L 134.254063 167.321804 
L 132.458665 171.576991 
L 129.467366 178.810805 
L 127.714325 183.065992 
L 125.141881 189.448764 
L 122.931797 194.98051 
L 111.408643 225.617844 
L 106.938404 238.383405 
L 102.369646 252 
L 102.369646 252 
" style="fill:none;stroke:#d0e1f2;stroke-width:1.5;"/>
   </g>
   <g id="LineCollection_3">
    <path clip-path="url(#p9b8b9a1b1f)" d="M 107.10731 252 
L 117.033092 216.681953 
L 117.501598 214.128852 
L 117.398684 213.789897 
L 117.264773 214.128852 
L 116.952 214.554369 
L 113.315272 223.064743 
L 109.293229 233.702701 
L 105.353771 244.766177 
L 102.877027 252 
L 102.877027 252 
" style="fill:none;stroke:#94c4df;stroke-width:1.5;"/>
    <path clip-path="url(#p9b8b9a1b1f)" d="M 153.533179 131.630002 
L 155.915672 128.960855 
L 160.131168 123.493383 
L 166.410853 115.834052 
L 170.270559 111.578865 
L 173.784383 108.034498 
L 176.961038 105.110845 
L 180.442499 102.217457 
L 183.314356 100.077303 
L 186.506141 97.96227 
L 189.667674 96.141989 
L 192.907472 94.558117 
L 196.088754 93.281566 
L 199.197654 92.300192 
L 202.29927 91.579498 
L 205.072838 91.153981 
L 207.536385 90.947936 
L 210.315959 90.905337 
L 213.095533 91.061429 
L 216.272196 91.477654 
L 219.448851 92.13694 
L 222.625514 93.02212 
L 226.199249 94.251227 
L 233.346737 96.807253 
L 234.140899 96.810731 
L 234.537979 96.526207 
L 234.625501 96.260202 
L 234.471373 95.409168 
L 233.846457 94.1326 
L 232.552575 92.233018 
L 230.964236 90.294909 
L 228.945664 88.175345 
L 226.59633 86.038065 
L 224.213837 84.168302 
L 221.831344 82.561587 
L 219.448851 81.202933 
L 217.066357 80.080305 
L 214.683864 79.186458 
L 212.301371 78.516115 
L 209.918878 78.065802 
L 207.536385 77.832181 
L 205.153883 77.813614 
L 202.77139 78.009126 
L 200.388897 78.415977 
L 198.006404 79.032404 
L 195.623911 79.860097 
L 192.844337 81.090675 
L 190.064754 82.606377 
L 187.28518 84.405534 
L 184.505606 86.489322 
L 181.726024 88.856716 
L 178.877882 91.579498 
L 176.069704 94.558117 
L 172.990213 98.163682 
L 170.160368 101.79194 
L 167.033976 106.160092 
L 163.758565 111.153348 
L 160.677618 116.259569 
L 157.106918 122.770146 
L 154.292701 128.599613 
L 153.390642 131.152723 
L 153.533179 131.630002 
L 153.533179 131.630002 
" style="fill:none;stroke:#94c4df;stroke-width:1.5;"/>
   </g>
   <g id="LineCollection_4">
    <path clip-path="url(#p9b8b9a1b1f)" d="M 106.632124 252 
L 110.287485 237.957888 
L 111.461445 232.42615 
L 111.442447 231.846735 
L 111.346735 232.000633 
L 111.045366 232.174846 
L 110.502545 233.277184 
L 109.854123 234.632625 
L 108.84703 237.106854 
L 107.868703 239.553056 
L 105.148314 246.893779 
L 103.485244 251.574483 
L 103.337706 252 
L 103.337706 252 
" style="fill:none;stroke:#4a98c9;stroke-width:1.5;"/>
    <path clip-path="url(#p9b8b9a1b1f)" d="M 166.239814 112.213457 
L 166.636895 112.094926 
L 166.77056 112.004382 
L 167.828146 111.233283 
L 178.549369 101.880642 
L 182.123113 99.19587 
L 185.299768 97.065989 
L 188.476423 95.18732 
L 191.653086 93.566068 
L 194.829749 92.203748 
L 198.006404 91.101078 
L 201.183059 90.256286 
L 204.359722 89.666015 
L 207.536385 89.325687 
L 210.713039 89.225725 
L 213.889694 89.352209 
L 217.463438 89.730205 
L 224.610926 90.687322 
L 225.405088 90.569974 
L 225.86716 90.30293 
L 226.005021 89.877413 
L 225.758647 89.026379 
L 225.008007 87.927073 
L 224.089696 86.898794 
L 222.169336 85.196709 
L 219.845931 83.560788 
L 218.257608 82.629727 
L 215.875107 81.482452 
L 213.889694 80.72881 
L 211.507201 80.051745 
L 209.124708 79.615511 
L 206.742215 79.41158 
L 204.359722 79.433569 
L 201.977228 79.678206 
L 199.594735 80.144621 
L 197.212242 80.829989 
L 194.69224 81.792556 
L 192.447248 82.854957 
L 189.816954 84.345675 
L 187.262461 86.047743 
L 184.498033 88.175345 
L 181.601082 90.728447 
L 178.94645 93.363507 
L 176.166876 96.438554 
L 173.387294 99.856511 
L 170.726076 103.494008 
L 168.498187 106.898161 
L 167.021915 109.451271 
L 166.108977 111.578865 
L 166.06797 112.004382 
L 166.239814 112.213457 
L 166.239814 112.213457 
" style="fill:none;stroke:#4a98c9;stroke-width:1.5;"/>
   </g>
   <g id="LineCollection_5">
    <path clip-path="url(#p9b8b9a1b1f)" d="M 106.136991 252 
L 106.246138 251.574483 
L 106.28038 251.443413 
L 106.348035 251.148966 
L 106.445429 250.723449 
L 106.546952 250.297932 
L 106.656751 249.872415 
L 106.67746 249.79273 
L 106.753169 249.446881 
L 106.84695 249.021364 
L 106.945764 248.595847 
L 107.054577 248.17033 
L 107.074541 248.092612 
L 107.14585 247.744813 
L 107.233399 247.319296 
L 107.32589 246.893779 
L 107.428849 246.468262 
L 107.471622 246.297853 
L 107.519226 246.042745 
L 107.594767 245.617228 
L 107.672012 245.191694 
L 107.754593 244.766177 
L 107.85137 244.34066 
L 107.868703 244.258946 
L 107.910556 243.915143 
L 107.948173 243.489626 
L 107.959137 243.064109 
L 107.883338 242.638592 
L 107.868703 242.613519 
L 107.85734 242.638592 
L 107.559888 243.064109 
L 107.471622 243.119041 
L 107.321123 243.489626 
L 107.074541 243.878464 
L 107.060916 243.915143 
L 106.894129 244.34066 
L 106.67746 244.738727 
L 106.667469 244.766177 
L 106.507458 245.191694 
L 106.302881 245.617228 
L 106.28038 245.658396 
L 106.140433 246.042745 
L 105.957784 246.468262 
L 105.883299 246.619737 
L 105.784977 246.893779 
L 105.617406 247.319296 
L 105.48621 247.607589 
L 105.437494 247.744813 
L 105.280253 248.17033 
L 105.099062 248.595847 
L 105.089129 248.617691 
L 104.945944 249.021364 
L 104.779937 249.446881 
L 104.692048 249.652335 
L 104.614602 249.872415 
L 104.458515 250.297932 
L 104.294967 250.699723 
L 104.286667 250.723449 
L 104.136717 251.148966 
L 103.975479 251.574483 
L 103.897878 251.765642 
L 103.815999 252 
" style="fill:none;stroke:#1764ab;stroke-width:1.5;"/>
    <path clip-path="url(#p9b8b9a1b1f)" d="M 176.961038 99.729425 
L 177.358119 99.736895 
L 177.586829 99.664338 
L 178.549369 99.232752 
L 190.064754 92.629907 
L 194.035579 90.875262 
L 197.609323 89.599493 
L 201.251555 88.600862 
L 204.359722 87.972106 
L 207.933465 87.494488 
L 212.301371 87.172353 
L 215.580145 86.898794 
L 216.669276 86.582405 
L 217.066357 86.278493 
L 217.214868 86.047743 
L 217.066357 85.422144 
L 216.669276 84.880489 
L 216.097967 84.345675 
L 214.683864 83.417561 
L 213.095533 82.643346 
L 210.713039 81.835409 
L 209.124708 81.477094 
L 207.139296 81.204122 
L 204.756802 81.117299 
L 202.374309 81.278841 
L 199.991816 81.683815 
L 197.609323 82.325441 
L 195.22683 83.201983 
L 192.775567 84.345675 
L 190.064754 85.907954 
L 187.971322 87.324311 
L 185.257683 89.451896 
L 182.473135 92.005015 
L 180.078644 94.558117 
L 178.366621 96.685719 
L 177.243303 98.387787 
L 176.870765 99.238821 
L 176.961038 99.729425 
L 176.961038 99.729425 
" style="fill:none;stroke:#1764ab;stroke-width:1.5;"/>
   </g>
   <g id="LineCollection_6">
    <path clip-path="url(#p9b8b9a1b1f)" d="M 105.478025 252 
L 105.48621 251.956975 
L 105.52798 251.574483 
L 105.560122 251.148966 
L 105.563917 250.723449 
L 105.48621 250.312929 
L 105.173106 250.723449 
L 105.089129 250.76925 
L 104.931572 251.148966 
L 104.692048 251.520121 
L 104.671782 251.574483 
L 104.502194 252 
" style="fill:none;stroke:#08306b;stroke-width:1.5;"/>
    <path clip-path="url(#p9b8b9a1b1f)" d="M 191.256005 88.778795 
L 191.653086 88.852924 
L 192.050167 88.803048 
L 192.447248 88.726271 
L 192.844337 88.640227 
L 193.002252 88.600862 
L 193.241417 88.522271 
L 193.638498 88.396413 
L 194.035579 88.28209 
L 194.430865 88.175345 
L 194.43266 88.174717 
L 194.829749 88.031096 
L 195.22683 87.904956 
L 195.623911 87.790026 
L 195.763535 87.749828 
L 196.020991 87.656793 
L 196.418072 87.524748 
L 196.815153 87.405889 
L 197.103994 87.324311 
L 197.212242 87.285415 
L 197.609323 87.148904 
L 198.006404 87.027009 
L 198.403485 86.915684 
L 198.464535 86.898794 
L 198.800565 86.780313 
L 199.197654 86.654155 
L 199.594735 86.539841 
L 199.839242 86.473277 
L 199.991816 86.418211 
L 200.388897 86.284104 
L 200.785978 86.163615 
L 201.183059 86.053311 
L 201.203504 86.047743 
L 201.580148 85.906068 
L 201.977228 85.772634 
L 202.374309 85.651285 
L 202.472826 85.622226 
L 202.77139 85.486677 
L 203.168471 85.324907 
L 203.514004 85.196709 
L 203.56556 85.156988 
L 203.962641 84.879772 
L 204.136713 84.771192 
L 204.103723 84.345675 
L 203.962641 84.28474 
L 203.56556 84.152626 
L 203.168471 84.063167 
L 202.77139 84.008849 
L 202.374309 83.983139 
L 201.977228 83.980548 
L 201.580148 83.996606 
L 201.183059 84.027715 
L 200.785978 84.071032 
L 200.388897 84.124298 
L 199.991816 84.185775 
L 199.594735 84.254127 
L 199.197654 84.328308 
L 199.11544 84.345675 
L 198.800565 84.431239 
L 198.403485 84.541081 
L 198.006404 84.650724 
L 197.609323 84.76054 
L 197.573729 84.771192 
L 197.212242 84.906833 
L 196.815153 85.049123 
L 196.418072 85.185671 
L 196.387742 85.196709 
L 196.020991 85.362748 
L 195.623911 85.528619 
L 195.39504 85.622226 
L 195.22683 85.709461 
L 194.829749 85.906008 
L 194.520304 86.047743 
L 194.43266 86.099571 
L 194.035579 86.32473 
L 193.744792 86.473277 
L 193.638498 86.544477 
L 193.241417 86.790928 
L 193.051128 86.898794 
L 192.844337 87.054233 
L 192.447248 87.308307 
L 192.42163 87.324311 
L 192.050167 87.63361 
L 191.884171 87.749828 
L 191.653086 87.990967 
L 191.432575 88.175345 
L 191.256005 88.460344 
L 191.138706 88.600862 
L 191.256005 88.778795 
" style="fill:none;stroke:#08306b;stroke-width:1.5;"/>
   </g>
   <g id="patch_3">
    <path d="M 90 252 
L 90 34.56 
" style="fill:none;stroke:#000000;stroke-linecap:square;stroke-linejoin:miter;stroke-width:0.8;"/>
   </g>
   <g id="patch_4">
    <path d="M 292.909091 252 
L 292.909091 34.56 
" style="fill:none;stroke:#000000;stroke-linecap:square;stroke-linejoin:miter;stroke-width:0.8;"/>
   </g>
   <g id="patch_5">
    <path d="M 90 252 
L 292.909091 252 
" style="fill:none;stroke:#000000;stroke-linecap:square;stroke-linejoin:miter;stroke-width:0.8;"/>
   </g>
   <g id="patch_6">
    <path d="M 90 34.56 
L 292.909091 34.56 
" style="fill:none;stroke:#000000;stroke-linecap:square;stroke-linejoin:miter;stroke-width:0.8;"/>
   </g>
   <g id="text_13">
    <!-- true: $p(\mathbf{x})/q(\mathbf{x})$ -->
    <defs>
     <path d="M 15.09375 40 
L 29.09375 40 
L 29.09375 42.578125 
L 15.09375 42.578125 
L 15.09375 61 
L 13.296875 61 
C 13.09375 50.703125 9.59375 41.6875 1.09375 41.6875 
L 1.09375 40 
L 9.796875 40 
L 9.796875 12.046875 
C 9.796875 10.15625 9.796875 -1 21.40625 -1 
C 27.296875 -1 30.703125 4.78125 30.703125 12.140625 
L 30.703125 17.8125 
L 28.90625 17.8125 
L 28.90625 12.234375 
C 28.90625 5.375 26.203125 0.796875 22 0.796875 
C 19.09375 0.796875 15.09375 2.78125 15.09375 11.84375 
z
" id="CMR17-116"/>
     <path d="M 15 23.390625 
C 15 33 19.09375 42 26.59375 42 
C 27.296875 42 28 41.90625 28.703125 41.59375 
C 28.703125 41.59375 26.5 40.890625 26.5 38.3125 
C 26.5 35.90625 28.40625 34.90625 29.90625 34.90625 
C 31.09375 34.90625 33.296875 35.609375 33.296875 38.40625 
C 33.296875 41.609375 30.09375 43.59375 26.703125 43.59375 
C 19.09375 43.59375 15.796875 36.203125 14.796875 32.703125 
L 14.703125 32.703125 
L 14.703125 43.59375 
L 3.09375 42.5 
L 3.09375 39.90625 
C 9 39.90625 9.90625 39.296875 9.90625 34.5 
L 9.90625 6.6875 
C 9.90625 2.875 9.5 2.390625 3.09375 2.390625 
L 3.09375 -0.203125 
C 5.5 0 10.09375 0 12.703125 0 
C 15.59375 0 20.703125 0 23.40625 -0.203125 
L 23.40625 2.390625 
C 16.203125 2.390625 15 2.390625 15 6.875 
z
" id="CMR17-114"/>
     <path d="M 29.40625 42.078125 
L 29.40625 39.5 
C 35.296875 39.5 36.203125 38.890625 36.203125 34.15625 
L 36.203125 16.125 
C 36.203125 7.8125 31.703125 0.59375 24.296875 0.59375 
C 16.09375 0.59375 15.40625 5.4375 15.40625 10.59375 
L 15.40625 43.171875 
L 3.296875 42.078125 
L 3.296875 39.5 
C 7.296875 39.5 10 39.5 10.09375 35.53125 
L 10.09375 16.53125 
C 10.09375 9.890625 10.09375 5.640625 12.703125 2.859375 
C 14 1.578125 16.5 -1 23.703125 -1 
C 32.203125 -1 35.5 5.890625 36.296875 7.90625 
L 36.40625 7.90625 
L 36.40625 -0.984375 
L 48.296875 -0.984375 
L 48.296875 2 
C 42.40625 2 41.5 2.59375 41.5 7.390625 
L 41.5 43.171875 
z
" id="CMR17-117"/>
     <path d="M 38.09375 23 
C 38.5 23.40625 38.5 23.609375 38.5 24.625 
C 38.5 34.96875 33.09375 44 21.703125 44 
C 11.09375 44 2.703125 33.890625 2.703125 21.609375 
C 2.703125 8.609375 12.203125 -1 22.796875 -1 
C 34 -1 38.40625 9.484375 38.40625 11.5625 
C 38.40625 12.25 37.796875 12.25 37.59375 12.25 
C 36.90625 12.25 36.796875 12.046875 36.40625 10.875 
C 34.203125 4.140625 28.703125 0.796875 23.5 0.796875 
C 19.203125 0.796875 14.90625 3.171875 12.203125 7.5 
C 9.09375 12.546875 9.09375 18.375 9.09375 23 
z
M 9.203125 24.5 
C 9.90625 39.140625 17.59375 42.40625 21.59375 42.40625 
C 28.40625 42.40625 33 35.890625 33.09375 24.5 
z
" id="CMR17-101"/>
     <path d="M 16.59375 38.921875 
C 16.59375 41.40625 14.59375 43 12.5 43 
C 10.5 43 8.40625 41.40625 8.40625 38.921875 
C 8.40625 36.4375 10.40625 34.84375 12.5 34.84375 
C 14.5 34.84375 16.59375 36.4375 16.59375 38.921875 
M 16.59375 4.078125 
C 16.59375 6.5625 14.59375 8.15625 12.5 8.15625 
C 10.5 8.15625 8.40625 6.5625 8.40625 4.078125 
C 8.40625 1.59375 10.40625 0 12.5 0 
C 14.5 0 16.59375 1.59375 16.59375 4.078125 
" id="CMR17-58"/>
     <path d="M 4.296875 -12.328125 
C 3.59375 -15.3125 3.203125 -16.109375 -0.90625 -16.109375 
C -2.09375 -16.109375 -3.09375 -16.109375 -3.09375 -18 
C -3.09375 -18.203125 -3 -19 -1.90625 -19 
C -0.59375 -19 0.796875 -19 2.09375 -19 
L 6.40625 -19 
C 8.5 -19 13.59375 -19 15.703125 -19 
C 16.296875 -19 17.5 -19 17.5 -17.203125 
C 17.5 -16.109375 16.796875 -16.109375 15.09375 -16.109375 
C 10.5 -16.109375 10.203125 -15.421875 10.203125 -14.640625 
C 10.203125 -13.453125 14.703125 3.421875 15.296875 5.6875 
C 16.40625 2.890625 19.09375 -1 24.296875 -1 
C 35.59375 -1 47.796875 13.671875 47.796875 28.34375 
C 47.796875 37.515625 42.59375 44 35.09375 44 
C 28.703125 44 23.296875 37.8125 22.203125 36.421875 
C 21.40625 41.40625 17.5 44 13.5 44 
C 10.59375 44 8.296875 42.609375 6.40625 38.8125 
C 4.59375 35.21875 3.203125 29.140625 3.203125 28.734375 
C 3.203125 28.34375 3.59375 27.84375 4.296875 27.84375 
C 5.09375 27.84375 5.203125 27.9375 5.796875 30.234375 
C 7.296875 36.125 9.203125 42.015625 13.203125 42.015625 
C 15.5 42.015625 16.296875 40.421875 16.296875 37.453125 
C 16.296875 35.078125 16 34.078125 15.59375 32.296875 
z
M 21.59375 31.140625 
C 22.296875 33.921875 25.09375 36.828125 26.703125 38.21875 
C 27.796875 39.21875 31.09375 42.015625 34.90625 42.015625 
C 39.296875 42.015625 41.296875 37.625 41.296875 32.4375 
C 41.296875 27.640625 38.5 16.359375 36 11.171875 
C 33.5 5.78125 28.90625 1 24.296875 1 
C 17.5 1 16.40625 9.578125 16.40625 9.984375 
C 16.40625 10.28125 16.59375 11.078125 16.703125 11.578125 
z
" id="CMMI12-112"/>
     <path d="M 30.59375 -24.390625 
C 30.59375 -24.296875 30.59375 -24.09375 30.296875 -23.796875 
C 25.703125 -19.125 13.40625 -6.359375 13.40625 24.703125 
C 13.40625 55.765625 25.5 68.421875 30.40625 73.390625 
C 30.40625 73.5 30.59375 73.703125 30.59375 74 
C 30.59375 74.296875 30.296875 74.5 29.90625 74.5 
C 28.796875 74.5 20.296875 67.125 15.40625 56.15625 
C 10.40625 45.109375 9 34.359375 9 24.8125 
C 9 17.625 9.703125 5.484375 15.703125 -7.359375 
C 20.5 -17.734375 28.703125 -25 29.90625 -25 
C 30.40625 -25 30.59375 -24.796875 30.59375 -24.390625 
" id="CMR17-40"/>
     <path d="M 33.703125 24.484375 
L 45.296875 37.734375 
C 46.40625 39.03125 47.296875 39.828125 55.59375 39.828125 
L 55.59375 44 
C 50 44 49.796875 44 46.40625 44 
C 43.5 44 39.203125 44 36.40625 44.09375 
L 36.40625 39.828125 
C 38.296875 39.828125 40.40625 39.328125 40.40625 38.625 
C 40.40625 38.4375 39.90625 37.734375 39.703125 37.53125 
L 31 27.78125 
L 21.09375 39.828125 
L 25.296875 39.828125 
L 25.296875 44.09375 
C 23 44 16.203125 44 13.5 44 
C 10.5 44 5.09375 44 2.296875 44.09375 
L 2.296875 39.828125 
L 9.40625 39.828125 
L 25 20.90625 
L 12 6.265625 
C 10.796875 4.875 10.09375 4.171875 1.796875 4.171875 
L 1.796875 0 
C 7.796875 0 8 0 11.09375 0 
C 14 0 18.203125 0 21 -0.09375 
L 21 4.171875 
C 19.09375 4.171875 17 4.671875 17 5.375 
C 17 5.46875 17 5.5625 17.703125 6.359375 
L 27.703125 17.625 
L 38.796875 4.171875 
L 34.59375 4.171875 
L 34.59375 -0.09375 
C 37 0 43.703125 0 46.5 0 
C 49.5 0 54.796875 0 57.59375 -0.09375 
L 57.59375 4.171875 
L 50.59375 4.171875 
z
" id="CMBX12-120"/>
     <path d="M 26.296875 24.703125 
C 26.296875 31.875 25.59375 44.015625 19.59375 56.859375 
C 14.796875 67.234375 6.59375 74.5 5.40625 74.5 
C 5.09375 74.5 4.703125 74.390625 4.703125 73.890625 
C 4.703125 73.703125 4.796875 73.59375 4.90625 73.390625 
C 9.703125 68.40625 21.90625 55.75 21.90625 24.75 
C 21.90625 -6.359375 9.796875 -19.015625 4.90625 -24.015625 
C 4.796875 -24.203125 4.703125 -24.3125 4.703125 -24.5 
C 4.703125 -25 5.09375 -25 5.40625 -25 
C 6.5 -25 15 -17.625 19.90625 -6.65625 
C 24.90625 4.390625 26.296875 15.140625 26.296875 24.703125 
" id="CMR17-41"/>
     <path d="M 42.90625 71.28125 
C 42.90625 71.390625 43.5 72.90625 43.5 73.09375 
C 43.5 74.296875 42.5 75 41.703125 75 
C 41.203125 75 40.296875 75 39.5 72.796875 
L 6 -21.296875 
C 6 -21.40625 5.40625 -22.890625 5.40625 -23.09375 
C 5.40625 -24.296875 6.40625 -25 7.203125 -25 
C 7.796875 -25 8.703125 -24.890625 9.40625 -22.796875 
z
" id="CMMI12-61"/>
     <path d="M 44.09375 43.109375 
C 44.09375 43.59375 43.703125 44 43.203125 44 
C 42.40625 44 38.5 40.390625 36.59375 36.90625 
C 34.796875 41.34375 31.703125 44 27.40625 44 
C 16.09375 44 3.90625 29.4375 3.90625 14.671875 
C 3.90625 4.796875 9.703125 -1 16.5 -1 
C 21.796875 -1 26.203125 3.015625 28.296875 5.296875 
L 28.40625 5.203125 
L 24.59375 -9.609375 
L 23.703125 -13.15625 
C 22.796875 -16.109375 21.296875 -16.109375 16.59375 -16.109375 
C 15.5 -16.109375 14.5 -16.109375 14.5 -18 
C 14.5 -18.703125 15.09375 -19 15.796875 -19 
C 17.203125 -19 19 -19 20.40625 -19 
L 30.59375 -19 
C 32.09375 -19 33.796875 -19 35.296875 -19 
C 35.90625 -19 37.09375 -19 37.09375 -17.109375 
C 37.09375 -16.109375 36.296875 -16.109375 34.796875 -16.109375 
C 30.09375 -16.109375 29.796875 -15.40625 29.796875 -14.609375 
C 29.796875 -14.125 29.90625 -14.03125 30.203125 -12.734375 
z
M 30 11.90625 
C 29.5 10.1875 29.5 10 28.09375 8.09375 
C 25.90625 5.296875 21.5 1 16.796875 1 
C 12.703125 1 10.40625 4.703125 10.40625 10.59375 
C 10.40625 16.09375 13.5 27.296875 15.40625 31.5 
C 18.796875 38.5 23.5 42.109375 27.40625 42.109375 
C 34 42.109375 35.296875 33.90625 35.296875 33.109375 
C 35.296875 33.015625 35 31.6875 34.90625 31.5 
z
" id="CMMI12-113"/>
    </defs>
    <g transform="translate(130.850831 28.56)scale(0.192 -0.192)">
     <use transform="scale(0.996264)" xlink:href="#CMR17-116"/>
     <use transform="translate(35.280768 0)scale(0.996264)" xlink:href="#CMR17-114"/>
     <use transform="translate(70.561536 0)scale(0.996264)" xlink:href="#CMR17-117"/>
     <use transform="translate(121.456905 0)scale(0.996264)" xlink:href="#CMR17-101"/>
     <use transform="translate(161.942566 0)scale(0.996264)" xlink:href="#CMR17-58"/>
     <use transform="translate(227.299285 0)scale(0.996264)" xlink:href="#CMMI12-112"/>
     <use transform="translate(276.258799 0)scale(0.996264)" xlink:href="#CMR17-40"/>
     <use transform="translate(311.539567 0)scale(0.996264)" xlink:href="#CMBX12-120"/>
     <use transform="translate(370.692742 0)scale(0.996264)" xlink:href="#CMR17-41"/>
     <use transform="translate(405.97351 0)scale(0.996264)" xlink:href="#CMMI12-61"/>
     <use transform="translate(454.748429 0)scale(0.996264)" xlink:href="#CMMI12-113"/>
     <use transform="translate(501.574753 0)scale(0.996264)" xlink:href="#CMR17-40"/>
     <use transform="translate(536.85552 0)scale(0.996264)" xlink:href="#CMBX12-120"/>
     <use transform="translate(596.008696 0)scale(0.996264)" xlink:href="#CMR17-41"/>
    </g>
   </g>
  </g>
  <g id="axes_2">
   <g id="patch_7">
    <path d="M 333.490909 252 
L 536.4 252 
L 536.4 34.56 
L 333.490909 34.56 
z
" style="fill:#ffffff;"/>
   </g>
   <g id="matplotlib.axis_3">
    <g id="xtick_4">
     <g id="line2d_11">
      <g>
       <use style="stroke:#000000;stroke-width:0.8;" x="367.309091" xlink:href="#me3b4f4e6c1" y="252"/>
      </g>
     </g>
     <g id="text_14">
      <!-- $-2$ -->
      <g transform="translate(357.208099 270.069588)scale(0.16 -0.16)">
       <use transform="scale(0.996264)" xlink:href="#CMSY10-0"/>
       <use transform="translate(77.487468 0)scale(0.996264)" xlink:href="#CMR17-50"/>
      </g>
     </g>
    </g>
    <g id="xtick_5">
     <g id="line2d_12">
      <g>
       <use style="stroke:#000000;stroke-width:0.8;" x="434.945455" xlink:href="#me3b4f4e6c1" y="252"/>
      </g>
     </g>
     <g id="text_15">
      <!-- $0$ -->
      <g transform="translate(431.043461 270.069588)scale(0.16 -0.16)">
       <use transform="scale(0.996264)" xlink:href="#CMR17-48"/>
      </g>
     </g>
    </g>
    <g id="xtick_6">
     <g id="line2d_13">
      <g>
       <use style="stroke:#000000;stroke-width:0.8;" x="502.581818" xlink:href="#me3b4f4e6c1" y="252"/>
      </g>
     </g>
     <g id="text_16">
      <!-- $2$ -->
      <g transform="translate(498.679825 270.069588)scale(0.16 -0.16)">
       <use transform="scale(0.996264)" xlink:href="#CMR17-50"/>
      </g>
     </g>
    </g>
    <g id="text_17">
     <!-- $x_1$ -->
     <g transform="translate(427.721195 288.238653)scale(0.16 -0.16)">
      <use transform="translate(0 14.943915)scale(0.996264)" xlink:href="#CMMI12-120"/>
      <use transform="translate(55.43406 0)scale(0.697382)" xlink:href="#CMR17-49"/>
     </g>
    </g>
   </g>
   <g id="matplotlib.axis_4">
    <g id="ytick_8">
     <g id="line2d_14">
      <g>
       <use style="stroke:#000000;stroke-width:0.8;" x="333.490909" xlink:href="#mdb76506652" y="252"/>
      </g>
     </g>
    </g>
    <g id="ytick_9">
     <g id="line2d_15">
      <g>
       <use style="stroke:#000000;stroke-width:0.8;" x="333.490909" xlink:href="#mdb76506652" y="215.76"/>
      </g>
     </g>
    </g>
    <g id="ytick_10">
     <g id="line2d_16">
      <g>
       <use style="stroke:#000000;stroke-width:0.8;" x="333.490909" xlink:href="#mdb76506652" y="179.52"/>
      </g>
     </g>
    </g>
    <g id="ytick_11">
     <g id="line2d_17">
      <g>
       <use style="stroke:#000000;stroke-width:0.8;" x="333.490909" xlink:href="#mdb76506652" y="143.28"/>
      </g>
     </g>
    </g>
    <g id="ytick_12">
     <g id="line2d_18">
      <g>
       <use style="stroke:#000000;stroke-width:0.8;" x="333.490909" xlink:href="#mdb76506652" y="107.04"/>
      </g>
     </g>
    </g>
    <g id="ytick_13">
     <g id="line2d_19">
      <g>
       <use style="stroke:#000000;stroke-width:0.8;" x="333.490909" xlink:href="#mdb76506652" y="70.8"/>
      </g>
     </g>
    </g>
    <g id="ytick_14">
     <g id="line2d_20">
      <g>
       <use style="stroke:#000000;stroke-width:0.8;" x="333.490909" xlink:href="#mdb76506652" y="34.56"/>
      </g>
     </g>
    </g>
   </g>
   <g id="LineCollection_7">
    <path clip-path="url(#p2e07915b3b)" d="M 350.000386 252 
L 352.405243 243.915143 
L 354.599955 236.681337 
L 361.286674 215.789711 
L 366.516547 200.937774 
L 370.022485 191.80742 
L 373.993309 182.244186 
L 378.221385 172.853542 
L 381.537874 165.956437 
L 386.744642 155.832802 
L 391.692123 146.896912 
L 394.681758 141.790682 
L 399.180929 134.556868 
L 402.292502 129.876164 
L 405.362818 125.536373 
L 409.333643 120.363051 
L 412.907386 116.137179 
L 416.084041 112.727252 
L 419.260696 109.639531 
L 422.391834 106.898161 
L 425.669731 104.345042 
L 429.187758 101.947683 
L 431.967332 100.287889 
L 434.769184 98.813304 
L 438.320658 97.243598 
L 441.100232 96.234238 
L 444.276887 95.334396 
L 447.45355 94.707127 
L 450.233124 94.38773 
L 453.012698 94.288098 
L 455.79228 94.41203 
L 458.571854 94.761839 
L 461.351428 95.335509 
L 463.733929 96.012497 
L 466.513503 97.012072 
L 468.895997 98.054532 
L 471.98993 99.664338 
L 474.852226 101.418068 
L 478.028889 103.658898 
L 481.0271 106.047127 
L 484.391913 109.025754 
L 488.353039 112.871379 
L 497.485931 121.938469 
L 498.677174 122.724503 
L 499.074255 122.861306 
L 499.471335 122.847133 
L 499.690361 122.642349 
L 499.841937 122.216832 
L 499.804466 121.36579 
L 499.395168 119.663722 
L 498.44371 117.110611 
L 497.275326 114.557492 
L 495.485062 111.153348 
L 492.953931 106.898161 
L 489.874613 102.217457 
L 486.236583 97.111236 
L 481.978798 91.579498 
L 478.82305 87.849199 
L 476.440565 85.329629 
L 474.058064 83.119655 
L 471.675579 81.222976 
L 468.895997 79.383599 
L 466.116423 77.887707 
L 463.733929 76.827427 
L 460.160186 75.559683 
L 456.586442 74.629012 
L 453.409787 74.091229 
L 451.027294 73.890834 
L 448.644792 73.893171 
L 446.129368 74.133234 
L 443.847601 74.55875 
L 441.497313 75.204016 
L 438.681232 76.260818 
L 436.335246 77.339195 
L 432.761502 79.328257 
L 429.662835 81.367039 
L 427.202346 83.189397 
L 423.787789 86.047743 
L 421.077613 88.600862 
L 418.224111 91.579498 
L 415.274469 94.983634 
L 412.113217 98.977617 
L 409.122111 103.068491 
L 404.803546 109.451271 
L 400.018688 117.110611 
L 394.858878 126.046494 
L 389.190935 136.684461 
L 383.523286 148.227087 
L 380.79786 154.130726 
L 375.581641 166.170751 
L 372.508024 173.704584 
L 365.854449 190.725323 
L 350.148607 231.149582 
L 346.351396 240.936524 
L 343.72757 247.744813 
L 342.089627 252 
L 342.089627 252 
" style="fill:none;stroke:#f7fbff;stroke-width:1.5;"/>
   </g>
   <g id="LineCollection_8">
    <path clip-path="url(#p2e07915b3b)" d="M 348.684445 252 
L 356.683476 223.490259 
L 357.469226 220.086106 
L 357.575669 219.235073 
L 357.315849 218.875243 
L 356.622447 220.086106 
L 356.401568 220.511623 
L 355.330437 222.68649 
L 353.839915 226.043361 
L 352.912479 228.170963 
L 343.195662 252 
L 343.195662 252 
" style="fill:none;stroke:#d0e1f2;stroke-width:1.5;"/>
    <path clip-path="url(#p2e07915b3b)" d="M 378.7583 165.526409 
L 382.797008 158.81143 
L 389.283089 147.322428 
L 395.899291 136.258944 
L 399.803666 130.19912 
L 403.377406 125.030172 
L 406.750952 120.514756 
L 410.213662 116.259569 
L 413.634035 112.429899 
L 416.987861 109.025754 
L 420.236154 106.047127 
L 423.62861 103.258985 
L 426.805265 100.931155 
L 430.379009 98.637269 
L 433.158583 97.07494 
L 436.732326 95.355913 
L 439.908981 94.098323 
L 443.085644 93.104525 
L 445.970203 92.430532 
L 449.041881 91.967833 
L 451.821455 91.778693 
L 454.601029 91.804206 
L 457.380603 92.04147 
L 460.557266 92.57214 
L 463.733929 93.363024 
L 466.910584 94.408778 
L 469.690158 95.522477 
L 473.066987 97.111236 
L 476.979931 99.238821 
L 483.734401 103.068491 
L 484.382214 103.301962 
L 484.779295 103.381578 
L 485.176376 103.344398 
L 485.471209 103.068491 
L 485.546307 102.642974 
L 485.379095 101.79194 
L 484.779295 100.267136 
L 483.809099 98.387787 
L 482.276027 95.834685 
L 480.267111 92.856049 
L 478.021243 89.877413 
L 475.646403 87.113359 
L 473.660983 85.115149 
L 471.675579 83.399503 
L 469.456112 81.792556 
L 467.704746 80.726325 
L 465.322253 79.526335 
L 462.93976 78.565122 
L 460.160186 77.689345 
L 456.983523 76.95087 
L 453.806868 76.460647 
L 451.027294 76.2488 
L 448.247712 76.263357 
L 445.865218 76.476686 
L 443.482725 76.898322 
L 441.100232 77.539592 
L 438.717739 78.396699 
L 436.335246 79.464314 
L 433.555663 80.973828 
L 430.776089 82.745272 
L 427.996515 84.784215 
L 425.216933 87.08908 
L 422.239258 89.877413 
L 419.397232 92.856049 
L 416.465646 96.260202 
L 413.304467 100.286406 
L 410.0548 104.770576 
L 406.024756 110.727831 
L 401.391993 118.020764 
L 396.862575 125.620977 
L 393.450348 131.714329 
L 389.081518 140.088614 
L 384.631732 149.450022 
L 381.512307 156.683836 
L 378.706586 164.343168 
L 378.561316 165.19421 
L 378.7583 165.526409 
L 378.7583 165.526409 
" style="fill:none;stroke:#d0e1f2;stroke-width:1.5;"/>
   </g>
   <g id="LineCollection_9">
    <path clip-path="url(#p2e07915b3b)" d="M 347.645257 252 
L 347.757272 251.574483 
L 347.785876 251.465895 
L 347.866157 251.148966 
L 347.973327 250.723449 
L 348.082349 250.297932 
L 348.182957 249.917115 
L 348.194254 249.872415 
L 348.298571 249.446881 
L 348.403994 249.021364 
L 348.512615 248.595847 
L 348.580038 248.337646 
L 348.620715 248.17033 
L 348.721843 247.744813 
L 348.825056 247.319296 
L 348.932881 246.893779 
L 348.977119 246.721151 
L 349.035491 246.468262 
L 349.132235 246.042745 
L 349.231765 245.617228 
L 349.337061 245.191694 
L 349.374208 245.04226 
L 349.433481 244.766177 
L 349.522962 244.34066 
L 349.614958 243.915143 
L 349.712588 243.489626 
L 349.771289 243.240693 
L 349.805272 243.064109 
L 349.880792 242.638592 
L 349.955259 242.213075 
L 350.029666 241.787558 
L 350.105605 241.362041 
L 350.16837 241.007673 
L 350.176952 240.936524 
L 350.204893 240.511007 
L 350.199587 240.085473 
L 350.16837 239.899267 
L 349.771289 240.000776 
L 349.726366 240.085473 
L 349.424158 240.511007 
L 349.374208 240.560093 
L 349.187464 240.936524 
L 348.977119 241.25042 
L 348.926923 241.362041 
L 348.714243 241.787558 
L 348.580038 242.006066 
L 348.488909 242.213075 
L 348.277566 242.638592 
L 348.182957 242.803358 
L 348.070059 243.064109 
L 347.863191 243.489626 
L 347.785876 243.631722 
L 347.664767 243.915143 
L 347.463345 244.34066 
L 347.388787 244.483891 
L 347.269453 244.766177 
L 347.073553 245.191694 
L 346.991707 245.35489 
L 346.88176 245.617228 
L 346.690985 246.042745 
L 346.594626 246.241109 
L 346.500106 246.468262 
L 346.313878 246.893779 
L 346.197545 247.139996 
L 346.123372 247.319296 
L 345.941019 247.744813 
L 345.800464 248.049618 
L 345.750766 248.17033 
L 345.571592 248.595847 
L 345.403383 248.968633 
L 345.38176 249.021364 
L 345.205083 249.446881 
L 345.017276 249.872415 
L 345.006302 249.896472 
L 344.84111 250.297932 
L 344.657917 250.723449 
L 344.609213 250.83245 
L 344.479459 251.148966 
L 344.299863 251.574483 
L 344.212132 251.774486 
L 344.119968 252 
" style="fill:none;stroke:#94c4df;stroke-width:1.5;"/>
    <path clip-path="url(#p2e07915b3b)" d="M 400.597828 124.354261 
L 401.102015 123.918909 
L 402.186155 122.768686 
L 403.774486 120.907039 
L 407.017357 117.110611 
L 411.319055 112.404657 
L 415.117254 108.600238 
L 418.863615 105.189056 
L 422.475354 102.217457 
L 426.011103 99.612523 
L 429.584839 97.284786 
L 432.876559 95.409168 
L 436.364156 93.707083 
L 439.511901 92.42801 
L 442.688563 91.394747 
L 445.468138 90.708025 
L 448.247712 90.236111 
L 451.027294 89.982262 
L 453.806868 89.945456 
L 456.586442 90.12003 
L 459.763105 90.560524 
L 462.93976 91.234411 
L 466.513503 92.234424 
L 470.881401 93.710156 
L 475.249306 95.140023 
L 476.440565 95.332139 
L 477.234727 95.211083 
L 477.631808 94.815619 
L 477.712299 94.558117 
L 477.631808 93.656778 
L 477.176274 92.430532 
L 476.235926 90.728447 
L 474.73327 88.600862 
L 473.263902 86.881193 
L 471.552639 85.196709 
L 469.690158 83.677991 
L 467.704746 82.354907 
L 465.719334 81.285665 
L 463.33684 80.275236 
L 460.954347 79.502359 
L 458.063643 78.813937 
L 454.99811 78.314743 
L 451.821455 78.023938 
L 449.041881 77.973984 
L 446.262299 78.146682 
L 443.879806 78.499129 
L 441.497313 79.058054 
L 439.11482 79.837894 
L 436.528344 80.941522 
L 434.349833 82.07108 
L 431.570251 83.77856 
L 428.790677 85.778727 
L 425.900108 88.175345 
L 423.189262 90.728447 
L 420.374855 93.707083 
L 417.495129 97.111236 
L 414.49571 101.035651 
L 411.291682 105.62161 
L 407.724156 111.153348 
L 403.377406 118.467266 
L 400.591316 123.918909 
L 400.597828 124.354261 
L 400.597828 124.354261 
" style="fill:none;stroke:#94c4df;stroke-width:1.5;"/>
   </g>
   <g id="LineCollection_10">
    <path clip-path="url(#p2e07915b3b)" d="M 346.208669 252 
L 346.197545 251.842393 
L 345.800464 251.608516 
L 345.521958 252 
" style="fill:none;stroke:#4a98c9;stroke-width:1.5;"/>
    <path clip-path="url(#p2e07915b3b)" d="M 414.49571 105.564722 
L 414.892791 105.583522 
L 416.084041 104.970995 
L 418.205743 103.494008 
L 425.614022 98.172262 
L 429.584839 95.655749 
L 433.158583 93.663173 
L 436.608819 92.005015 
L 439.511901 90.823433 
L 442.688563 89.770045 
L 445.665186 89.026379 
L 448.247712 88.580314 
L 451.027294 88.316867 
L 453.806868 88.278239 
L 456.586442 88.449466 
L 459.763105 88.87073 
L 463.733929 89.655628 
L 470.087239 90.998309 
L 471.278498 91.034174 
L 472.07266 90.807192 
L 472.18613 90.728447 
L 472.46974 90.215634 
L 472.41415 89.451896 
L 472.066357 88.600862 
L 471.228413 87.324311 
L 470.087239 86.036361 
L 468.498916 84.646818 
L 466.830797 83.494641 
L 464.925172 82.468001 
L 462.93976 81.640183 
L 460.557266 80.897971 
L 457.777692 80.293836 
L 454.601029 79.848216 
L 451.424375 79.611787 
L 448.247712 79.598587 
L 445.468138 79.811882 
L 443.085644 80.192805 
L 440.703151 80.781972 
L 438.320658 81.597582 
L 435.938157 82.649333 
L 433.555663 83.942263 
L 430.963441 85.622226 
L 428.393596 87.571023 
L 426.011103 89.640093 
L 423.600713 92.005015 
L 421.246109 94.608878 
L 418.863615 97.575423 
L 416.783935 100.515389 
L 415.233702 103.068491 
L 414.462963 104.770576 
L 414.38928 105.196093 
L 414.49571 105.564722 
L 414.49571 105.564722 
" style="fill:none;stroke:#4a98c9;stroke-width:1.5;"/>
   </g>
   <g id="LineCollection_11">
    <path clip-path="url(#p2e07915b3b)" d="M 422.437359 97.515586 
L 423.231521 97.318776 
L 424.615077 96.685719 
L 428.430942 94.558117 
L 432.364421 92.402646 
L 435.938157 90.642115 
L 439.11482 89.283297 
L 442.291475 88.151031 
L 445.071057 87.361041 
L 448.247712 86.717304 
L 451.027294 86.416079 
L 453.806868 86.356214 
L 456.586442 86.525115 
L 460.160186 86.968478 
L 464.925172 87.53044 
L 466.116423 87.4169 
L 466.513503 87.214656 
L 466.728492 86.898794 
L 466.686312 86.473277 
L 466.116423 85.613027 
L 464.925172 84.639672 
L 463.710369 83.920158 
L 461.668673 83.069124 
L 459.366016 82.433683 
L 456.983523 81.995638 
L 453.806868 81.635012 
L 449.836043 81.422501 
L 446.65938 81.476336 
L 443.879806 81.749535 
L 441.420246 82.21809 
L 439.11482 82.883394 
L 437.129407 83.640233 
L 434.746914 84.787874 
L 432.364421 86.217832 
L 430.212288 87.749828 
L 427.682182 89.877413 
L 425.538268 92.005015 
L 423.727772 94.1326 
L 422.437359 96.074833 
L 422.156949 96.685719 
L 422.049364 97.111236 
L 422.437359 97.515586 
L 422.437359 97.515586 
" style="fill:none;stroke:#1764ab;stroke-width:1.5;"/>
   </g>
   <g id="LineCollection_12">
    <path clip-path="url(#p2e07915b3b)" d="M 435.143995 87.83976 
L 435.541076 87.769947 
L 435.602407 87.749828 
L 435.938157 87.494952 
L 436.335246 87.366173 
L 436.446969 87.324311 
L 436.335246 87.085639 
L 435.938157 87.200746 
L 435.541076 87.314329 
L 435.516863 87.324311 
L 435.143995 87.652217 
L 434.913775 87.749828 
L 435.143995 87.83976 
" style="fill:none;stroke:#08306b;stroke-width:1.5;"/>
    <path clip-path="url(#p2e07915b3b)" d="M 436.732326 86.987463 
L 436.989076 86.898794 
L 436.732326 86.86619 
L 436.548866 86.898794 
L 436.732326 86.987463 
" style="fill:none;stroke:#08306b;stroke-width:1.5;"/>
   </g>
   <g id="patch_8">
    <path d="M 333.490909 252 
L 333.490909 34.56 
" style="fill:none;stroke:#000000;stroke-linecap:square;stroke-linejoin:miter;stroke-width:0.8;"/>
   </g>
   <g id="patch_9">
    <path d="M 536.4 252 
L 536.4 34.56 
" style="fill:none;stroke:#000000;stroke-linecap:square;stroke-linejoin:miter;stroke-width:0.8;"/>
   </g>
   <g id="patch_10">
    <path d="M 333.490909 252 
L 536.4 252 
" style="fill:none;stroke:#000000;stroke-linecap:square;stroke-linejoin:miter;stroke-width:0.8;"/>
   </g>
   <g id="patch_11">
    <path d="M 333.490909 34.56 
L 536.4 34.56 
" style="fill:none;stroke:#000000;stroke-linecap:square;stroke-linejoin:miter;stroke-width:0.8;"/>
   </g>
   <g id="text_18">
    <!-- estimator: $r_{\theta}(\mathbf{x})$ -->
    <defs>
     <path d="M 30.90625 42.140625 
C 30.90625 43.953125 30.796875 44.046875 30.203125 44.046875 
C 29.796875 44.046875 29.703125 43.953125 28.5 42.453125 
C 28.203125 42.046875 27.296875 41.03125 27 40.640625 
C 23.796875 44.046875 19.296875 44.046875 17.59375 44.046875 
C 6.5 44.046875 2.5 38.234375 2.5 32.4375 
C 2.5 23.40625 12.703125 21.328125 15.59375 20.703125 
C 21.90625 19.421875 24.09375 19.015625 26.203125 17.203125 
C 27.5 16.015625 29.703125 13.8125 29.703125 10.21875 
C 29.703125 6 27.296875 0.59375 18.09375 0.59375 
C 9.40625 0.59375 6.296875 7.1875 4.5 15.953125 
C 4.203125 17.34375 4.203125 17.453125 3.40625 17.453125 
C 2.59375 17.453125 2.5 17.34375 2.5 15.359375 
L 2.5 0.984375 
C 2.5 -0.796875 2.59375 -0.90625 3.203125 -0.90625 
C 3.703125 -0.90625 3.796875 -0.796875 4.296875 0 
C 4.90625 0.890625 6.40625 3.296875 7 4.3125 
C 9 1.609375 12.5 -1 18.09375 -1 
C 28 -1 33.296875 4.421875 33.296875 12.25 
C 33.296875 17.375 30.59375 20.078125 29.296875 21.28125 
C 26.296875 24.390625 22.796875 25.09375 18.59375 25.890625 
C 13.09375 27.109375 6.09375 28.515625 6.09375 34.640625 
C 6.09375 37.234375 7.5 42.765625 17.59375 42.765625 
C 28.296875 42.765625 28.90625 32.71875 29.09375 29.5 
C 29.203125 29 29.703125 28.890625 30 28.890625 
C 30.90625 28.890625 30.90625 29.203125 30.90625 30.90625 
z
" id="CMR17-115"/>
     <path d="M 15.5 61.078125 
C 15.5 63.265625 13.703125 65.15625 11.40625 65.15625 
C 9.203125 65.15625 7.296875 63.375 7.296875 61.078125 
C 7.296875 58.890625 9.09375 57 11.40625 57 
C 13.59375 57 15.5 58.796875 15.5 61.078125 
M 3.796875 42.28125 
L 3.796875 39.703125 
C 9.40625 39.703125 10.203125 39.09375 10.203125 34.328125 
L 10.203125 6.671875 
C 10.203125 2.875 9.796875 2.390625 3.40625 2.390625 
L 3.40625 -0.203125 
C 5.796875 0 10.09375 0 12.59375 0 
C 15 0 19.09375 0 21.40625 -0.203125 
L 21.40625 2.390625 
C 15.5 2.390625 15.296875 2.984375 15.296875 6.5625 
L 15.296875 43.375 
z
" id="CMR17-105"/>
     <path d="M 67.59375 30.203125 
C 67.59375 35.1875 66.703125 43.59375 54.796875 43.59375 
C 48 43.59375 43.296875 39 41.5 33.609375 
L 41.40625 33.609375 
C 40.203125 41.8125 34.296875 43.59375 28.703125 43.59375 
C 20.796875 43.59375 16.703125 37.5 15.203125 33.5 
L 15.09375 33.5 
L 15.09375 43.59375 
L 3.296875 42.5 
L 3.296875 39.90625 
C 9.203125 39.90625 10.09375 39.296875 10.09375 34.5 
L 10.09375 6.6875 
C 10.09375 2.875 9.703125 2.390625 3.296875 2.390625 
L 3.296875 -0.203125 
C 5.703125 0 10.09375 0 12.703125 0 
C 15.296875 0 19.796875 0 22.203125 -0.203125 
L 22.203125 2.390625 
C 15.796875 2.390625 15.40625 2.78125 15.40625 6.6875 
L 15.40625 25.90625 
C 15.40625 35.109375 21 42 28 42 
C 35.40625 42 36.203125 35.40625 36.203125 30.59375 
L 36.203125 6.6875 
C 36.203125 2.875 35.796875 2.390625 29.40625 2.390625 
L 29.40625 -0.203125 
C 31.796875 0 36.203125 0 38.796875 0 
C 41.40625 0 45.90625 0 48.296875 -0.203125 
L 48.296875 2.390625 
C 41.90625 2.390625 41.5 2.78125 41.5 6.6875 
L 41.5 25.90625 
C 41.5 35.109375 47.09375 42 54.09375 42 
C 61.5 42 62.296875 35.40625 62.296875 30.59375 
L 62.296875 6.6875 
C 62.296875 2.875 61.90625 2.390625 55.5 2.390625 
L 55.5 -0.203125 
C 57.90625 0 62.296875 0 64.90625 0 
C 67.5 0 72 0 74.40625 -0.203125 
L 74.40625 2.390625 
C 68 2.390625 67.59375 2.78125 67.59375 6.6875 
z
" id="CMR17-109"/>
     <path d="M 36 25.828125 
C 36 32.375 36 35.84375 31.796875 39.734375 
C 28.09375 43 23.796875 44 20.40625 44 
C 12.5 44 6.796875 37.609375 6.796875 30.796875 
C 6.796875 27 9.796875 27 10.40625 27 
C 11.703125 27 14 27.78125 14 30.53125 
C 14 33 12.09375 34.078125 10.40625 34.078125 
C 10 34.078125 9.5 33.96875 9.203125 33.875 
C 11.296875 40.5 16.703125 42.40625 20.203125 42.40625 
C 25.203125 42.40625 30.703125 37.953125 30.703125 29.453125 
L 30.703125 25 
C 24.796875 25 17.703125 24.203125 12.09375 21.203125 
C 5.796875 17.703125 4 12.703125 4 8.90625 
C 4 1.203125 13 -1 18.296875 -1 
C 23.796875 -1 28.90625 2.171875 31.09375 7.984375 
C 31.296875 3.640625 34.09375 -0.28125 38.5 -0.28125 
C 40.59375 -0.28125 45.90625 1.09375 45.90625 8.859375 
L 45.90625 14.375 
L 44.09375 14.375 
L 44.09375 8.78125 
C 44.09375 2.78125 41.40625 2 40.09375 2 
C 36 2 36 7.15625 36 11.53125 
z
M 30.703125 13.59375 
C 30.703125 4.953125 24.5 0.59375 19 0.59375 
C 14 0.59375 10.09375 4.296875 10.09375 8.90625 
C 10.09375 11.890625 11.40625 17.1875 17.203125 20.390625 
C 22 23.09375 27.5 23.5 30.703125 23.5 
z
" id="CMR17-97"/>
     <path d="M 43.09375 21.1875 
C 43.09375 34 33.796875 44 22.90625 44 
C 12 44 2.703125 34 2.703125 21.1875 
C 2.703125 8.609375 12 -1 22.90625 -1 
C 33.796875 -1 43.09375 8.609375 43.09375 21.1875 
M 22.90625 0.796875 
C 18.203125 0.796875 14.203125 3.59375 11.90625 7.5 
C 9.40625 11.984375 9.09375 17.59375 9.09375 22 
C 9.09375 26.203125 9.296875 31.40625 11.90625 35.90625 
C 13.90625 39.203125 17.796875 42.40625 22.90625 42.40625 
C 27.40625 42.40625 31.203125 39.90625 33.59375 36.40625 
C 36.703125 31.703125 36.703125 25.109375 36.703125 22 
C 36.703125 18.09375 36.5 12.109375 33.796875 7.296875 
C 31 2.703125 26.703125 0.796875 22.90625 0.796875 
" id="CMR17-111"/>
     <path d="M 38.90625 40.8125 
C 35.796875 40.21875 34.203125 38.015625 34.203125 35.828125 
C 34.203125 33.421875 36.09375 32.625 37.5 32.625 
C 40.296875 32.625 42.59375 35.03125 42.59375 38.015625 
C 42.59375 41.21875 39.5 44 34.5 44 
C 30.5 44 25.90625 42.203125 21.703125 36.125 
C 21 41.40625 17 44 13 44 
C 9.09375 44 7.09375 41.015625 5.90625 38.8125 
C 4.203125 35.21875 2.703125 29.234375 2.703125 28.734375 
C 2.703125 28.34375 3.09375 27.84375 3.796875 27.84375 
C 4.59375 27.84375 4.703125 27.9375 5.296875 30.234375 
C 6.796875 36.21875 8.703125 42.015625 12.703125 42.015625 
C 15.09375 42.015625 15.796875 40.3125 15.796875 37.421875 
C 15.796875 35.21875 14.796875 31.328125 14.09375 28.234375 
L 11.296875 17.46875 
C 10.90625 15.5625 9.796875 11.078125 9.296875 9.28125 
C 8.59375 6.6875 7.5 2 7.5 1.5 
C 7.5 0.09375 8.59375 -1 10.09375 -1 
C 11.203125 -1 13.09375 -0.296875 13.703125 1.703125 
C 14 2.5 17.703125 17.5625 18.296875 19.859375 
C 18.796875 22.046875 19.40625 24.15625 19.90625 26.34375 
C 20.296875 27.734375 20.703125 29.34375 21 30.640625 
C 21.296875 31.53125 24 36.421875 26.5 38.625 
C 27.703125 39.71875 30.296875 42.015625 34.40625 42.015625 
C 36 42.015625 37.59375 41.71875 38.90625 40.8125 
" id="CMMI12-114"/>
     <path d="M 44.296875 50 
C 44.296875 60.15625 41.09375 70 32.90625 70 
C 18.90625 70 4 40.859375 4 19 
C 4 14.421875 5 -1 15.5 -1 
C 29.09375 -1 44.296875 27.4375 44.296875 50 
M 14 36 
C 15.5 41.859375 17.59375 50.21875 21.59375 57.265625 
C 24.90625 63.234375 28.40625 68 32.796875 68 
C 36.09375 68 38.296875 65.21875 38.296875 55.6875 
C 38.296875 52.09375 38 47.140625 35.09375 36 
z
M 34.40625 33.015625 
C 31.90625 23.28125 29.796875 17 26.203125 10.734375 
C 23.296875 5.671875 19.796875 1 15.59375 1 
C 12.5 1 10 3.390625 10 13.21875 
C 10 19.6875 11.59375 26.453125 13.203125 33.015625 
z
" id="CMMI12-18"/>
    </defs>
    <g transform="translate(372.483505 28.56)scale(0.192 -0.192)">
     <use transform="translate(0 14.943915)scale(0.996264)" xlink:href="#CMR17-101"/>
     <use transform="translate(40.48566 14.943915)scale(0.996264)" xlink:href="#CMR17-115"/>
     <use transform="translate(76.286998 14.943915)scale(0.996264)" xlink:href="#CMR17-116"/>
     <use transform="translate(111.567766 14.943915)scale(0.996264)" xlink:href="#CMR17-105"/>
     <use transform="translate(136.438824 14.943915)scale(0.996264)" xlink:href="#CMR17-109"/>
     <use transform="translate(213.358414 14.943915)scale(0.996264)" xlink:href="#CMR17-97"/>
     <use transform="translate(259.048891 14.943915)scale(0.996264)" xlink:href="#CMR17-116"/>
     <use transform="translate(294.329659 14.943915)scale(0.996264)" xlink:href="#CMR17-111"/>
     <use transform="translate(340.020136 14.943915)scale(0.996264)" xlink:href="#CMR17-114"/>
     <use transform="translate(375.300904 14.943915)scale(0.996264)" xlink:href="#CMR17-58"/>
     <use transform="translate(440.657623 14.943915)scale(0.996264)" xlink:href="#CMMI12-114"/>
     <use transform="translate(484.618517 0)scale(0.697382)" xlink:href="#CMMI12-18"/>
     <use transform="translate(518.835145 14.943915)scale(0.996264)" xlink:href="#CMR17-40"/>
     <use transform="translate(554.115913 14.943915)scale(0.996264)" xlink:href="#CMBX12-120"/>
     <use transform="translate(613.269089 14.943915)scale(0.996264)" xlink:href="#CMR17-41"/>
    </g>
   </g>
  </g>
  <g id="axes_3">
   <g id="patch_12">
    <path clip-path="url(#pda8398101b)" d="M 564.3 252 
L 564.3 208.512 
L 564.3 78.048 
L 564.3 34.56 
L 575.172 34.56 
L 575.172 78.048 
L 575.172 208.512 
L 575.172 252 
z
" style="fill:#ffffff;stroke:#ffffff;stroke-linejoin:miter;stroke-width:0.01;"/>
   </g>
   <g id="matplotlib.axis_5"/>
   <g id="matplotlib.axis_6">
    <g id="ytick_15">
     <g id="line2d_21">
      <defs>
       <path d="M 0 0 
L 3.5 0 
" id="m0700a5868e" style="stroke:#000000;stroke-width:0.8;"/>
      </defs>
      <g>
       <use style="stroke:#000000;stroke-width:0.8;" x="575.172" xlink:href="#m0700a5868e" y="252"/>
      </g>
     </g>
     <g id="text_19">
      <!-- $4$ -->
      <g transform="translate(582.172 257.534794)scale(0.16 -0.16)">
       <use transform="scale(0.996264)" xlink:href="#CMR17-52"/>
      </g>
     </g>
    </g>
    <g id="ytick_16">
     <g id="line2d_22">
      <g>
       <use style="stroke:#000000;stroke-width:0.8;" x="575.172" xlink:href="#m0700a5868e" y="208.512"/>
      </g>
     </g>
     <g id="text_20">
      <!-- $8$ -->
      <g transform="translate(582.172 214.046794)scale(0.16 -0.16)">
       <use transform="scale(0.996264)" xlink:href="#CMR17-56"/>
      </g>
     </g>
    </g>
    <g id="ytick_17">
     <g id="line2d_23">
      <g>
       <use style="stroke:#000000;stroke-width:0.8;" x="575.172" xlink:href="#m0700a5868e" y="165.024"/>
      </g>
     </g>
     <g id="text_21">
      <!-- $12$ -->
      <g transform="translate(582.172 170.558794)scale(0.16 -0.16)">
       <use transform="scale(0.996264)" xlink:href="#CMR17-49"/>
       <use transform="translate(45.690477 0)scale(0.996264)" xlink:href="#CMR17-50"/>
      </g>
     </g>
    </g>
    <g id="ytick_18">
     <g id="line2d_24">
      <g>
       <use style="stroke:#000000;stroke-width:0.8;" x="575.172" xlink:href="#m0700a5868e" y="121.536"/>
      </g>
     </g>
     <g id="text_22">
      <!-- $16$ -->
      <g transform="translate(582.172 127.070794)scale(0.16 -0.16)">
       <use transform="scale(0.996264)" xlink:href="#CMR17-49"/>
       <use transform="translate(45.690477 0)scale(0.996264)" xlink:href="#CMR17-54"/>
      </g>
     </g>
    </g>
    <g id="ytick_19">
     <g id="line2d_25">
      <g>
       <use style="stroke:#000000;stroke-width:0.8;" x="575.172" xlink:href="#m0700a5868e" y="78.048"/>
      </g>
     </g>
     <g id="text_23">
      <!-- $20$ -->
      <g transform="translate(582.172 83.582794)scale(0.16 -0.16)">
       <use transform="scale(0.996264)" xlink:href="#CMR17-50"/>
       <use transform="translate(45.690477 0)scale(0.996264)" xlink:href="#CMR17-48"/>
      </g>
     </g>
    </g>
    <g id="ytick_20">
     <g id="line2d_26">
      <g>
       <use style="stroke:#000000;stroke-width:0.8;" x="575.172" xlink:href="#m0700a5868e" y="34.56"/>
      </g>
     </g>
     <g id="text_24">
      <!-- $24$ -->
      <g transform="translate(582.172 40.094794)scale(0.16 -0.16)">
       <use transform="scale(0.996264)" xlink:href="#CMR17-50"/>
       <use transform="translate(45.690477 0)scale(0.996264)" xlink:href="#CMR17-52"/>
      </g>
     </g>
    </g>
   </g>
   <g id="LineCollection_13">
    <path clip-path="url(#pda8398101b)" d="M 564.3 252 
L 575.172 252 
" style="fill:none;stroke:#f7fbff;stroke-width:1.5;"/>
    <path clip-path="url(#pda8398101b)" d="M 564.3 208.512 
L 575.172 208.512 
" style="fill:none;stroke:#d0e1f2;stroke-width:1.5;"/>
    <path clip-path="url(#pda8398101b)" d="M 564.3 165.024 
L 575.172 165.024 
" style="fill:none;stroke:#94c4df;stroke-width:1.5;"/>
    <path clip-path="url(#pda8398101b)" d="M 564.3 121.536 
L 575.172 121.536 
" style="fill:none;stroke:#4a98c9;stroke-width:1.5;"/>
    <path clip-path="url(#pda8398101b)" d="M 564.3 78.048 
L 575.172 78.048 
" style="fill:none;stroke:#1764ab;stroke-width:1.5;"/>
    <path clip-path="url(#pda8398101b)" d="M 564.3 34.56 
L 575.172 34.56 
" style="fill:none;stroke:#08306b;stroke-width:1.5;"/>
   </g>
   <g id="patch_13">
    <path d="M 564.3 252 
L 564.3 208.512 
L 564.3 78.048 
L 564.3 34.56 
L 575.172 34.56 
L 575.172 78.048 
L 575.172 208.512 
L 575.172 252 
z
" style="fill:none;stroke:#000000;stroke-linejoin:miter;stroke-width:0.8;"/>
   </g>
  </g>
 </g>
 <defs>
  <clipPath id="p9b8b9a1b1f">
   <rect height="217.44" width="202.909091" x="90" y="34.56"/>
  </clipPath>
  <clipPath id="p2e07915b3b">
   <rect height="217.44" width="202.909091" x="333.490909" y="34.56"/>
  </clipPath>
  <clipPath id="pda8398101b">
   <rect height="217.44" width="10.872" x="564.3" y="34.56"/>
  </clipPath>
 </defs>
</svg>
