<?xml version="1.0" encoding="utf-8" standalone="no"?>
<!DOCTYPE svg PUBLIC "-//W3C//DTD SVG 1.1//EN"
  "http://www.w3.org/Graphics/SVG/1.1/DTD/svg11.dtd">
<!-- Created with matplotlib (http://matplotlib.org/) -->
<svg height="288pt" version="1.1" viewBox="0 0 720 288" width="720pt" xmlns="http://www.w3.org/2000/svg" xmlns:xlink="http://www.w3.org/1999/xlink">
 <defs>
  <style type="text/css">
*{stroke-linecap:butt;stroke-linejoin:round;}
  </style>
 </defs>
 <g id="figure_1">
  <g id="patch_1">
   <path d="M 0 288 
L 720 288 
L 720 0 
L 0 0 
z
" style="fill:#ffffff;"/>
  </g>
  <g id="axes_1">
   <g id="patch_2">
    <path d="M 90 252 
L 292.909091 252 
L 292.909091 34.56 
L 90 34.56 
z
" style="fill:#ffffff;"/>
   </g>
   <g id="matplotlib.axis_1">
    <g id="xtick_1">
     <g id="line2d_1">
      <defs>
       <path d="M 0 0 
L 0 3.5 
" id="m4ca0381916" style="stroke:#000000;stroke-width:0.8;"/>
      </defs>
      <g>
       <use style="stroke:#000000;stroke-width:0.8;" x="123.818182" xlink:href="#m4ca0381916" y="252"/>
      </g>
     </g>
     <g id="text_1">
      <!-- $-2$ -->
      <defs>
       <path d="M 65.90625 23 
C 67.59375 23 69.40625 23 69.40625 25 
C 69.40625 27 67.59375 27 65.90625 27 
L 11.796875 27 
C 10.09375 27 8.296875 27 8.296875 25 
C 8.296875 23 10.09375 23 11.796875 23 
z
" id="CMSY10-0"/>
       <path d="M 41.703125 15.453125 
L 39.90625 15.453125 
C 38.90625 8.375 38.09375 7.171875 37.703125 6.5625 
C 37.203125 5.765625 30 5.765625 28.59375 5.765625 
L 9.40625 5.765625 
C 13 9.671875 20 16.75 28.5 24.953125 
C 34.59375 30.734375 41.703125 37.53125 41.703125 47.421875 
C 41.703125 59.21875 32.296875 66 21.796875 66 
C 10.796875 66 4.09375 56.3125 4.09375 47.34375 
C 4.09375 43.4375 7 42.9375 8.203125 42.9375 
C 9.203125 42.9375 12.203125 43.546875 12.203125 47.03125 
C 12.203125 50.109375 9.59375 51 8.203125 51 
C 7.59375 51 7 50.90625 6.59375 50.703125 
C 8.5 59.21875 14.296875 63.40625 20.40625 63.40625 
C 29.09375 63.40625 34.796875 56.515625 34.796875 47.421875 
C 34.796875 38.734375 29.703125 31.25 24 24.75 
L 4.09375 2.28125 
L 4.09375 0 
L 39.296875 0 
z
" id="CMR17-50"/>
      </defs>
      <g transform="translate(113.71719 270.069588)scale(0.16 -0.16)">
       <use transform="scale(0.996264)" xlink:href="#CMSY10-0"/>
       <use transform="translate(77.487468 0)scale(0.996264)" xlink:href="#CMR17-50"/>
      </g>
     </g>
    </g>
    <g id="xtick_2">
     <g id="line2d_2">
      <g>
       <use style="stroke:#000000;stroke-width:0.8;" x="191.454545" xlink:href="#m4ca0381916" y="252"/>
      </g>
     </g>
     <g id="text_2">
      <!-- $0$ -->
      <defs>
       <path d="M 42 31.640625 
C 42 37.75 41.90625 48.125 37.703125 56.109375 
C 34 63.109375 28.09375 65.59375 22.90625 65.59375 
C 18.09375 65.59375 12 63.40625 8.203125 56.203125 
C 4.203125 48.71875 3.796875 39.4375 3.796875 31.640625 
C 3.796875 25.953125 3.90625 17.28125 7 9.671875 
C 11.296875 -0.609375 19 -2 22.90625 -2 
C 27.5 -2 34.5 -0.109375 38.59375 9.375 
C 41.59375 16.28125 42 24.359375 42 31.640625 
M 22.90625 -0.40625 
C 16.5 -0.40625 12.703125 5.078125 11.296875 12.6875 
C 10.203125 18.5625 10.203125 27.15625 10.203125 32.75 
C 10.203125 40.4375 10.203125 46.828125 11.5 52.921875 
C 13.40625 61.390625 19 64 22.90625 64 
C 27 64 32.296875 61.296875 34.203125 53.125 
C 35.5 47.4375 35.59375 40.734375 35.59375 32.75 
C 35.59375 26.25 35.59375 18.265625 34.40625 12.375 
C 32.296875 1.484375 26.40625 -0.40625 22.90625 -0.40625 
" id="CMR17-48"/>
      </defs>
      <g transform="translate(187.552552 270.069588)scale(0.16 -0.16)">
       <use transform="scale(0.996264)" xlink:href="#CMR17-48"/>
      </g>
     </g>
    </g>
    <g id="xtick_3">
     <g id="line2d_3">
      <g>
       <use style="stroke:#000000;stroke-width:0.8;" x="259.090909" xlink:href="#m4ca0381916" y="252"/>
      </g>
     </g>
     <g id="text_3">
      <!-- $2$ -->
      <g transform="translate(255.188916 270.069588)scale(0.16 -0.16)">
       <use transform="scale(0.996264)" xlink:href="#CMR17-50"/>
      </g>
     </g>
    </g>
    <g id="text_4">
     <!-- $x_1$ -->
     <defs>
      <path d="M 47.40625 40.71875 
C 44.203125 40.109375 43 37.71875 43 35.828125 
C 43 33.421875 44.90625 32.625 46.296875 32.625 
C 49.296875 32.625 51.40625 35.21875 51.40625 37.921875 
C 51.40625 42.109375 46.59375 44 42.40625 44 
C 36.296875 44 32.90625 38.015625 32 36.125 
C 29.703125 44 23.5 44 21.703125 44 
C 11.5 44 6.09375 30.9375 6.09375 28.734375 
C 6.09375 28.34375 6.5 27.84375 7.203125 27.84375 
C 8 27.84375 8.203125 28.4375 8.40625 28.84375 
C 11.796875 39.921875 18.5 42.015625 21.40625 42.015625 
C 25.90625 42.015625 26.796875 37.8125 26.796875 35.421875 
C 26.796875 33.234375 26.203125 30.9375 25 26.140625 
L 21.59375 12.46875 
C 20.09375 6.484375 17.203125 1 11.90625 1 
C 11.40625 1 8.90625 1 6.796875 2.296875 
C 10.40625 3 11.203125 5.984375 11.203125 7.1875 
C 11.203125 9.1875 9.703125 10.375 7.796875 10.375 
C 5.40625 10.375 2.796875 8.28125 2.796875 5.09375 
C 2.796875 0.890625 7.5 -1 11.796875 -1 
C 16.59375 -1 20 2.796875 22.09375 6.890625 
C 23.703125 1 28.703125 -1 32.40625 -1 
C 42.59375 -1 48 12.078125 48 14.265625 
C 48 14.765625 47.59375 15.171875 47 15.171875 
C 46.09375 15.171875 46 14.671875 45.703125 13.875 
C 43 5.09375 37.203125 1 32.703125 1 
C 29.203125 1 27.296875 3.59375 27.296875 7.6875 
C 27.296875 9.875 27.703125 11.46875 29.296875 18.0625 
L 32.796875 31.625 
C 34.296875 37.625 37.703125 42.015625 42.296875 42.015625 
C 42.5 42.015625 45.296875 42.015625 47.40625 40.71875 
" id="CMMI12-120"/>
      <path d="M 26.59375 63.40625 
C 26.59375 65.5 26.5 65.5 25.09375 65.5 
C 21.203125 61.1875 15.296875 59.796875 9.703125 59.796875 
C 9.40625 59.796875 8.90625 59.796875 8.796875 59.5 
C 8.703125 59.296875 8.703125 59.09375 8.703125 57 
C 11.796875 57 17 57.59375 21 59.984375 
L 21 7.203125 
C 21 3.6875 20.796875 2.5 12.203125 2.5 
L 9.203125 2.5 
L 9.203125 0 
C 14 0 19 0 23.796875 0 
C 28.59375 0 33.59375 0 38.40625 0 
L 38.40625 2.5 
L 35.40625 2.5 
C 26.796875 2.5 26.59375 3.59375 26.59375 7.15625 
z
" id="CMR17-49"/>
     </defs>
     <g transform="translate(184.230286 288.238653)scale(0.16 -0.16)">
      <use transform="translate(0 14.943915)scale(0.996264)" xlink:href="#CMMI12-120"/>
      <use transform="translate(55.43406 0)scale(0.697382)" xlink:href="#CMR17-49"/>
     </g>
    </g>
   </g>
   <g id="matplotlib.axis_2">
    <g id="ytick_1">
     <g id="line2d_4">
      <defs>
       <path d="M 0 0 
L -3.5 0 
" id="m429c97457f" style="stroke:#000000;stroke-width:0.8;"/>
      </defs>
      <g>
       <use style="stroke:#000000;stroke-width:0.8;" x="90" xlink:href="#m429c97457f" y="252"/>
      </g>
     </g>
     <g id="text_5">
      <!-- $-10$ -->
      <g transform="translate(54.99403 257.534794)scale(0.16 -0.16)">
       <use transform="scale(0.996264)" xlink:href="#CMSY10-0"/>
       <use transform="translate(77.487468 0)scale(0.996264)" xlink:href="#CMR17-49"/>
       <use transform="translate(123.177945 0)scale(0.996264)" xlink:href="#CMR17-48"/>
      </g>
     </g>
    </g>
    <g id="ytick_2">
     <g id="line2d_5">
      <g>
       <use style="stroke:#000000;stroke-width:0.8;" x="90" xlink:href="#m429c97457f" y="215.76"/>
      </g>
     </g>
     <g id="text_6">
      <!-- $-8$ -->
      <defs>
       <path d="M 27.203125 35.375 
C 33.5 38.546875 39.90625 43.328125 39.90625 50.984375 
C 39.90625 60.015625 31.09375 65.296875 23 65.296875 
C 13.90625 65.296875 5.90625 58.734375 5.90625 49.6875 
C 5.90625 47.203125 6.5 42.921875 10.40625 39.140625 
C 11.40625 38.15625 15.59375 35.171875 18.296875 33.28125 
C 13.796875 30.984375 3.296875 25.53125 3.296875 14.59375 
C 3.296875 4.359375 13.09375 -2 22.796875 -2 
C 33.5 -2 42.5 5.65625 42.5 15.78125 
C 42.5 24.84375 36.40625 29.015625 32.40625 31.703125 
z
M 14.09375 44.09375 
C 13.296875 44.59375 9.296875 47.671875 9.296875 52.359375 
C 9.296875 58.421875 15.59375 63 22.796875 63 
C 30.703125 63 36.5 57.4375 36.5 50.96875 
C 36.5 41.703125 26.09375 36.421875 25.59375 36.421875 
C 25.5 36.421875 25.40625 36.421875 24.59375 37.03125 
z
M 32.5 23.734375 
C 34 22.640625 38.796875 19.375 38.796875 13.296875 
C 38.796875 5.953125 31.40625 0.390625 23 0.390625 
C 13.90625 0.390625 7 6.84375 7 14.6875 
C 7 22.546875 13.09375 29.09375 20 32.1875 
z
" id="CMR17-56"/>
      </defs>
      <g transform="translate(62.798017 221.294794)scale(0.16 -0.16)">
       <use transform="scale(0.996264)" xlink:href="#CMSY10-0"/>
       <use transform="translate(77.487468 0)scale(0.996264)" xlink:href="#CMR17-56"/>
      </g>
     </g>
    </g>
    <g id="ytick_3">
     <g id="line2d_6">
      <g>
       <use style="stroke:#000000;stroke-width:0.8;" x="90" xlink:href="#m429c97457f" y="179.52"/>
      </g>
     </g>
     <g id="text_7">
      <!-- $-6$ -->
      <defs>
       <path d="M 10.59375 34 
C 10.59375 57.65625 21.796875 63 28.296875 63 
C 30.40625 63 35.5 62.640625 37.5 59 
C 35.90625 59 32.90625 59 32.90625 55.515625 
C 32.90625 52.828125 35.09375 51.921875 36.5 51.921875 
C 37.40625 51.921875 40.09375 52.3125 40.09375 55.625 
C 40.09375 61.78125 35.09375 65.296875 28.203125 65.296875 
C 16.296875 65.296875 3.796875 52.96875 3.796875 31 
C 3.796875 3.953125 15.09375 -2 23.09375 -2 
C 32.796875 -2 42 6.671875 42 20.046875 
C 42 32.515625 33.90625 41.59375 23.703125 41.59375 
C 17.59375 41.59375 13.09375 37.609375 10.59375 30.625 
z
M 23.09375 0.390625 
C 10.796875 0.390625 10.796875 18.75 10.796875 22.4375 
C 10.796875 29.625 14.203125 40 23.5 40 
C 25.203125 40 30.09375 40 33.40625 33.125 
C 35.203125 29.21875 35.203125 25.140625 35.203125 20.140625 
C 35.203125 14.75 35.203125 10.78125 33.09375 6.78125 
C 30.90625 2.671875 27.703125 0.390625 23.09375 0.390625 
" id="CMR17-54"/>
      </defs>
      <g transform="translate(62.798017 185.054794)scale(0.16 -0.16)">
       <use transform="scale(0.996264)" xlink:href="#CMSY10-0"/>
       <use transform="translate(77.487468 0)scale(0.996264)" xlink:href="#CMR17-54"/>
      </g>
     </g>
    </g>
    <g id="ytick_4">
     <g id="line2d_7">
      <g>
       <use style="stroke:#000000;stroke-width:0.8;" x="90" xlink:href="#m429c97457f" y="143.28"/>
      </g>
     </g>
     <g id="text_8">
      <!-- $-4$ -->
      <defs>
       <path d="M 33.59375 64.40625 
C 33.59375 66.5 33.5 66.5 31.703125 66.5 
L 2 19.59375 
L 2 17 
L 27.796875 17 
L 27.796875 7.140625 
C 27.796875 3.5 27.59375 2.5 20.59375 2.5 
L 18.703125 2.5 
L 18.703125 0 
C 21.90625 0 27.296875 0 30.703125 0 
C 34.09375 0 39.5 0 42.703125 0 
L 42.703125 2.5 
L 40.796875 2.5 
C 33.796875 2.5 33.59375 3.5 33.59375 7.140625 
L 33.59375 17 
L 43.796875 17 
L 43.796875 19.59375 
L 33.59375 19.59375 
z
M 28.09375 57.859375 
L 28.09375 19.59375 
L 4 19.59375 
z
" id="CMR17-52"/>
      </defs>
      <g transform="translate(62.798017 148.814794)scale(0.16 -0.16)">
       <use transform="scale(0.996264)" xlink:href="#CMSY10-0"/>
       <use transform="translate(77.487468 0)scale(0.996264)" xlink:href="#CMR17-52"/>
      </g>
     </g>
    </g>
    <g id="ytick_5">
     <g id="line2d_8">
      <g>
       <use style="stroke:#000000;stroke-width:0.8;" x="90" xlink:href="#m429c97457f" y="107.04"/>
      </g>
     </g>
     <g id="text_9">
      <!-- $-2$ -->
      <g transform="translate(62.798017 112.574794)scale(0.16 -0.16)">
       <use transform="scale(0.996264)" xlink:href="#CMSY10-0"/>
       <use transform="translate(77.487468 0)scale(0.996264)" xlink:href="#CMR17-50"/>
      </g>
     </g>
    </g>
    <g id="ytick_6">
     <g id="line2d_9">
      <g>
       <use style="stroke:#000000;stroke-width:0.8;" x="90" xlink:href="#m429c97457f" y="70.8"/>
      </g>
     </g>
     <g id="text_10">
      <!-- $0$ -->
      <g transform="translate(75.196013 76.334794)scale(0.16 -0.16)">
       <use transform="scale(0.996264)" xlink:href="#CMR17-48"/>
      </g>
     </g>
    </g>
    <g id="ytick_7">
     <g id="line2d_10">
      <g>
       <use style="stroke:#000000;stroke-width:0.8;" x="90" xlink:href="#m429c97457f" y="34.56"/>
      </g>
     </g>
     <g id="text_11">
      <!-- $2$ -->
      <g transform="translate(75.196013 40.094794)scale(0.16 -0.16)">
       <use transform="scale(0.996264)" xlink:href="#CMR17-50"/>
      </g>
     </g>
    </g>
    <g id="text_12">
     <!-- $x_2$ -->
     <g transform="translate(47.894554 150.504259)rotate(-90)scale(0.16 -0.16)">
      <use transform="translate(0 14.943915)scale(0.996264)" xlink:href="#CMMI12-120"/>
      <use transform="translate(55.43406 0)scale(0.697382)" xlink:href="#CMR17-50"/>
     </g>
    </g>
   </g>
   <g id="LineCollection_1">
    <path clip-path="url(#pab27df0678)" d="M 126.531576 189.49758 
L 126.566392 189.448764 
L 126.992566 189.023247 
L 127.804405 187.746696 
L 129.708239 184.193301 
L 132.184701 179.236322 
L 139.23972 165.19421 
L 144.206573 155.832802 
L 147.781189 149.450022 
L 151.150685 143.724725 
L 156.312757 135.54222 
L 161.102358 128.599613 
L 165.048564 123.364662 
L 169.019388 118.540407 
L 172.614095 114.557492 
L 175.999155 111.153348 
L 179.343531 108.109875 
L 182.520194 105.521942 
L 185.299768 103.492941 
L 188.873512 101.224403 
L 191.74283 99.664338 
L 195.22683 98.100515 
L 197.609323 97.231622 
L 199.991816 96.528863 
L 202.77139 95.914728 
L 205.153883 95.569972 
L 207.933465 95.369991 
L 210.713039 95.395047 
L 213.492614 95.647528 
L 216.272196 96.11607 
L 219.05177 96.804255 
L 221.831344 97.711658 
L 224.610926 98.830924 
L 228.048856 100.515389 
L 231.361317 102.443636 
L 234.23168 104.345042 
L 237.714642 106.938345 
L 241.288386 109.904214 
L 245.259211 113.525982 
L 249.358747 117.536128 
L 253.995022 122.063954 
L 255.583345 123.280901 
L 255.980426 123.458239 
L 256.377507 123.39452 
L 256.501506 123.067866 
L 256.443599 122.216832 
L 255.980426 120.633561 
L 255.077867 118.387162 
L 253.467087 114.983018 
L 251.428646 111.153348 
L 248.832955 106.737387 
L 246.196588 102.642974 
L 243.192464 98.387787 
L 240.097128 94.412092 
L 237.298768 91.153981 
L 234.140899 87.839811 
L 231.316368 85.196709 
L 228.581751 82.914548 
L 225.405088 80.608258 
L 222.228425 78.661595 
L 219.448851 77.252916 
L 216.272196 75.975636 
L 213.492614 75.147074 
L 210.713039 74.590954 
L 207.933465 74.295594 
L 205.550972 74.258353 
L 203.168471 74.415783 
L 200.388897 74.846607 
L 197.609323 75.542667 
L 195.22683 76.351213 
L 192.844337 77.351517 
L 189.667674 78.990155 
L 186.491019 80.978165 
L 183.711437 82.996903 
L 180.534782 85.632766 
L 177.7552 88.219908 
L 174.508697 91.579498 
L 171.401882 95.134442 
L 168.456557 98.813304 
L 165.02061 103.494008 
L 161.851099 108.174721 
L 158.892723 112.855424 
L 154.19696 120.940273 
L 149.691643 129.450647 
L 144.35907 140.514131 
L 141.315755 147.322428 
L 136.367528 159.236947 
L 132.884894 168.336959 
L 130.068039 176.257695 
L 127.325741 184.871151 
L 126.451137 188.59773 
L 126.49808 189.448764 
L 126.531576 189.49758 
L 126.531576 189.49758 
" style="fill:none;stroke:#f7fbff;stroke-width:1.5;"/>
   </g>
   <g id="LineCollection_2">
    <path clip-path="url(#pab27df0678)" d="M 140.032377 157.340258 
L 140.429462 157.267919 
L 142.442215 154.556243 
L 155.12151 134.431525 
L 159.153845 128.599613 
L 163.063151 123.329387 
L 167.033976 118.381457 
L 170.756703 114.131975 
L 174.181464 110.555905 
L 177.586022 107.323678 
L 180.931862 104.464336 
L 183.863789 102.217457 
L 186.990456 100.089872 
L 190.064754 98.27059 
L 193.241417 96.669319 
L 196.418072 95.358082 
L 199.594735 94.334321 
L 202.374309 93.668911 
L 205.153883 93.224092 
L 207.933465 92.996871 
L 210.713039 92.983376 
L 213.492614 93.182872 
L 216.272196 93.593665 
L 219.05177 94.211369 
L 222.228425 95.166402 
L 225.405088 96.37619 
L 228.581751 97.827956 
L 232.052906 99.664338 
L 236.5234 102.321938 
L 240.684113 104.770576 
L 241.685467 105.21231 
L 242.479629 105.324551 
L 242.752486 105.196093 
L 242.925795 104.770576 
L 242.789352 103.919525 
L 242.289642 102.642974 
L 241.288386 100.748227 
L 239.801381 98.387787 
L 237.644448 95.409168 
L 235.198532 92.430532 
L 232.431784 89.451896 
L 229.741601 86.898794 
L 226.993411 84.608814 
L 224.213837 82.603463 
L 221.434263 80.89745 
L 219.044404 79.664971 
L 216.669276 78.647132 
L 213.889694 77.720327 
L 211.11012 77.07471 
L 208.727627 76.739908 
L 205.948053 76.604186 
L 203.56556 76.707382 
L 201.183059 77.007289 
L 198.403485 77.611872 
L 195.903845 78.38842 
L 193.638498 79.277582 
L 191.049365 80.516005 
L 188.780846 81.792556 
L 186.491019 83.26063 
L 183.29708 85.622226 
L 180.534782 87.947346 
L 177.358119 90.956704 
L 174.181464 94.322822 
L 171.075277 97.96227 
L 168.083891 101.79194 
L 164.651483 106.59023 
L 161.640602 111.153348 
L 157.901084 117.303345 
L 155.12151 122.227378 
L 151.979281 128.174087 
L 148.636495 134.982385 
L 145.543846 141.790682 
L 142.554259 149.024505 
L 141.223624 152.588397 
L 140.119174 156.258319 
L 139.995406 157.109353 
L 140.032377 157.340258 
L 140.032377 157.340258 
" style="fill:none;stroke:#d0e1f2;stroke-width:1.5;"/>
   </g>
   <g id="LineCollection_3">
    <path clip-path="url(#pab27df0678)" d="M 150.35652 137.566389 
L 152.341932 135.389589 
L 163.618503 120.514756 
L 167.828146 115.499921 
L 171.401882 111.578154 
L 174.975625 107.984948 
L 178.152288 105.073553 
L 181.328943 102.434404 
L 184.505606 100.068725 
L 187.713586 97.96227 
L 190.858924 96.173392 
L 194.035579 94.643721 
L 196.815153 93.534284 
L 199.594735 92.637293 
L 202.374309 91.951102 
L 205.153883 91.476199 
L 207.933465 91.208434 
L 210.713039 91.144985 
L 213.492614 91.282132 
L 216.669276 91.674467 
L 219.845931 92.304291 
L 223.466339 93.281566 
L 227.787589 94.69476 
L 230.964236 95.660393 
L 232.155494 95.806447 
L 232.552575 95.714698 
L 232.896051 95.409168 
L 232.949656 94.954716 
L 232.707519 94.1326 
L 232.004938 92.856049 
L 230.753202 91.153981 
L 228.846754 89.026379 
L 226.59138 86.898794 
L 224.213837 84.986071 
L 221.831344 83.3465 
L 219.448851 81.960595 
L 217.066357 80.811668 
L 214.683864 79.890133 
L 212.301371 79.189029 
L 209.918878 78.703002 
L 207.536385 78.429511 
L 205.153883 78.364807 
L 202.77139 78.506459 
L 200.388897 78.854988 
L 198.006404 79.406445 
L 195.623911 80.163124 
L 193.241417 81.121604 
L 190.461835 82.497083 
L 187.682261 84.148439 
L 184.902687 86.077523 
L 182.123113 88.281908 
L 179.343531 90.766133 
L 176.394842 93.707083 
L 173.387294 97.035897 
L 170.525776 100.515389 
L 167.329183 104.770576 
L 164.116713 109.451271 
L 161.077747 114.271155 
L 157.901084 119.750742 
L 154.724425 125.761049 
L 151.944847 131.64 
L 150.299946 135.833427 
L 149.969647 137.109978 
L 150.042753 137.535504 
L 150.35652 137.566389 
L 150.35652 137.566389 
" style="fill:none;stroke:#94c4df;stroke-width:1.5;"/>
   </g>
   <g id="LineCollection_4">
    <path clip-path="url(#pab27df0678)" d="M 159.092335 122.676101 
L 160.287015 121.791315 
L 162.309403 119.663722 
L 171.798971 109.402944 
L 175.733452 105.62161 
L 179.143793 102.642974 
L 182.520194 99.982598 
L 185.696849 97.749255 
L 188.873512 95.781356 
L 192.050167 94.08067 
L 195.22683 92.647687 
L 198.403485 91.481624 
L 201.580148 90.579477 
L 204.756802 89.937178 
L 207.933465 89.545506 
L 211.11012 89.392766 
L 214.286783 89.45767 
L 218.257608 89.768791 
L 222.228425 90.064521 
L 223.419675 89.92696 
L 223.816756 89.708288 
L 224.030076 89.451896 
L 224.068395 89.026379 
L 223.716737 88.175345 
L 223.022594 87.265541 
L 221.789548 86.047743 
L 219.845931 84.555034 
L 218.169039 83.494641 
L 215.652408 82.21809 
L 213.480595 81.367039 
L 211.11012 80.680381 
L 208.727627 80.224596 
L 206.345134 79.996474 
L 203.962641 79.990231 
L 201.580148 80.201105 
L 199.197654 80.625631 
L 196.815153 81.261709 
L 194.162282 82.21809 
L 191.653086 83.360517 
L 188.873512 84.89744 
L 186.09393 86.719125 
L 183.314356 88.827135 
L 180.534782 91.223492 
L 177.7552 93.912778 
L 174.78912 97.111236 
L 171.93845 100.515389 
L 169.019388 104.350486 
L 165.842734 108.9689 
L 163.417942 112.855424 
L 161.027966 117.110611 
L 159.403362 120.514756 
L 158.957479 121.791315 
L 158.879701 122.216832 
L 159.092335 122.676101 
L 159.092335 122.676101 
" style="fill:none;stroke:#4a98c9;stroke-width:1.5;"/>
   </g>
   <g id="LineCollection_5">
    <path clip-path="url(#pab27df0678)" d="M 168.225227 109.922899 
L 169.084757 109.451271 
L 171.004801 107.898115 
L 178.152288 101.742927 
L 181.920154 98.813304 
L 184.951492 96.685719 
L 188.079342 94.714287 
L 191.653086 92.756424 
L 194.829749 91.278555 
L 198.403485 89.910783 
L 201.977228 88.838129 
L 205.550972 88.043887 
L 209.521789 87.416468 
L 213.095533 86.873306 
L 214.382979 86.473277 
L 214.903704 86.047743 
L 214.991389 85.622226 
L 214.683864 85.035759 
L 214.286783 84.61688 
L 213.34523 83.920158 
L 211.507201 83.022923 
L 209.521789 82.376103 
L 207.536385 81.960122 
L 205.550972 81.739832 
L 203.168471 81.716696 
L 200.785978 81.936502 
L 198.403485 82.387452 
L 195.998933 83.069124 
L 193.241417 84.136165 
L 190.858924 85.293014 
L 188.11332 86.898794 
L 185.637642 88.600862 
L 182.917275 90.749959 
L 180.111037 93.281566 
L 177.20342 96.260202 
L 174.578545 99.277682 
L 171.975879 102.642974 
L 169.938072 105.62161 
L 168.622308 107.857105 
L 168.093223 109.025754 
L 167.972227 109.451271 
L 168.070676 109.876788 
L 168.225227 109.922899 
L 168.225227 109.922899 
" style="fill:none;stroke:#1764ab;stroke-width:1.5;"/>
   </g>
   <g id="LineCollection_6">
    <path clip-path="url(#pab27df0678)" d="M 179.740612 97.112135 
L 180.137701 97.191354 
L 180.931862 96.868173 
L 182.123113 96.230848 
L 187.79294 92.856049 
L 190.461835 91.384362 
L 195.623911 88.896028 
L 202.863444 85.622226 
L 203.167264 85.196709 
L 202.77139 84.703386 
L 201.580148 84.415598 
L 200.388897 84.372124 
L 198.403485 84.582214 
L 196.418072 85.018856 
L 194.43266 85.651026 
L 191.577954 86.898794 
L 188.605072 88.600862 
L 185.624875 90.728447 
L 182.917275 93.092962 
L 181.478947 94.558117 
L 180.104356 96.260202 
L 179.740612 97.112135 
L 179.740612 97.112135 
" style="fill:none;stroke:#08306b;stroke-width:1.5;"/>
   </g>
   <g id="patch_3">
    <path d="M 90 252 
L 90 34.56 
" style="fill:none;stroke:#000000;stroke-linecap:square;stroke-linejoin:miter;stroke-width:0.8;"/>
   </g>
   <g id="patch_4">
    <path d="M 292.909091 252 
L 292.909091 34.56 
" style="fill:none;stroke:#000000;stroke-linecap:square;stroke-linejoin:miter;stroke-width:0.8;"/>
   </g>
   <g id="patch_5">
    <path d="M 90 252 
L 292.909091 252 
" style="fill:none;stroke:#000000;stroke-linecap:square;stroke-linejoin:miter;stroke-width:0.8;"/>
   </g>
   <g id="patch_6">
    <path d="M 90 34.56 
L 292.909091 34.56 
" style="fill:none;stroke:#000000;stroke-linecap:square;stroke-linejoin:miter;stroke-width:0.8;"/>
   </g>
   <g id="text_13">
    <!-- $p(\mathbf{x})$ -->
    <defs>
     <path d="M 4.296875 -12.328125 
C 3.59375 -15.3125 3.203125 -16.109375 -0.90625 -16.109375 
C -2.09375 -16.109375 -3.09375 -16.109375 -3.09375 -18 
C -3.09375 -18.203125 -3 -19 -1.90625 -19 
C -0.59375 -19 0.796875 -19 2.09375 -19 
L 6.40625 -19 
C 8.5 -19 13.59375 -19 15.703125 -19 
C 16.296875 -19 17.5 -19 17.5 -17.203125 
C 17.5 -16.109375 16.796875 -16.109375 15.09375 -16.109375 
C 10.5 -16.109375 10.203125 -15.421875 10.203125 -14.640625 
C 10.203125 -13.453125 14.703125 3.421875 15.296875 5.6875 
C 16.40625 2.890625 19.09375 -1 24.296875 -1 
C 35.59375 -1 47.796875 13.671875 47.796875 28.34375 
C 47.796875 37.515625 42.59375 44 35.09375 44 
C 28.703125 44 23.296875 37.8125 22.203125 36.421875 
C 21.40625 41.40625 17.5 44 13.5 44 
C 10.59375 44 8.296875 42.609375 6.40625 38.8125 
C 4.59375 35.21875 3.203125 29.140625 3.203125 28.734375 
C 3.203125 28.34375 3.59375 27.84375 4.296875 27.84375 
C 5.09375 27.84375 5.203125 27.9375 5.796875 30.234375 
C 7.296875 36.125 9.203125 42.015625 13.203125 42.015625 
C 15.5 42.015625 16.296875 40.421875 16.296875 37.453125 
C 16.296875 35.078125 16 34.078125 15.59375 32.296875 
z
M 21.59375 31.140625 
C 22.296875 33.921875 25.09375 36.828125 26.703125 38.21875 
C 27.796875 39.21875 31.09375 42.015625 34.90625 42.015625 
C 39.296875 42.015625 41.296875 37.625 41.296875 32.4375 
C 41.296875 27.640625 38.5 16.359375 36 11.171875 
C 33.5 5.78125 28.90625 1 24.296875 1 
C 17.5 1 16.40625 9.578125 16.40625 9.984375 
C 16.40625 10.28125 16.59375 11.078125 16.703125 11.578125 
z
" id="CMMI12-112"/>
     <path d="M 30.59375 -24.390625 
C 30.59375 -24.296875 30.59375 -24.09375 30.296875 -23.796875 
C 25.703125 -19.125 13.40625 -6.359375 13.40625 24.703125 
C 13.40625 55.765625 25.5 68.421875 30.40625 73.390625 
C 30.40625 73.5 30.59375 73.703125 30.59375 74 
C 30.59375 74.296875 30.296875 74.5 29.90625 74.5 
C 28.796875 74.5 20.296875 67.125 15.40625 56.15625 
C 10.40625 45.109375 9 34.359375 9 24.8125 
C 9 17.625 9.703125 5.484375 15.703125 -7.359375 
C 20.5 -17.734375 28.703125 -25 29.90625 -25 
C 30.40625 -25 30.59375 -24.796875 30.59375 -24.390625 
" id="CMR17-40"/>
     <path d="M 33.703125 24.484375 
L 45.296875 37.734375 
C 46.40625 39.03125 47.296875 39.828125 55.59375 39.828125 
L 55.59375 44 
C 50 44 49.796875 44 46.40625 44 
C 43.5 44 39.203125 44 36.40625 44.09375 
L 36.40625 39.828125 
C 38.296875 39.828125 40.40625 39.328125 40.40625 38.625 
C 40.40625 38.4375 39.90625 37.734375 39.703125 37.53125 
L 31 27.78125 
L 21.09375 39.828125 
L 25.296875 39.828125 
L 25.296875 44.09375 
C 23 44 16.203125 44 13.5 44 
C 10.5 44 5.09375 44 2.296875 44.09375 
L 2.296875 39.828125 
L 9.40625 39.828125 
L 25 20.90625 
L 12 6.265625 
C 10.796875 4.875 10.09375 4.171875 1.796875 4.171875 
L 1.796875 0 
C 7.796875 0 8 0 11.09375 0 
C 14 0 18.203125 0 21 -0.09375 
L 21 4.171875 
C 19.09375 4.171875 17 4.671875 17 5.375 
C 17 5.46875 17 5.5625 17.703125 6.359375 
L 27.703125 17.625 
L 38.796875 4.171875 
L 34.59375 4.171875 
L 34.59375 -0.09375 
C 37 0 43.703125 0 46.5 0 
C 49.5 0 54.796875 0 57.59375 -0.09375 
L 57.59375 4.171875 
L 50.59375 4.171875 
z
" id="CMBX12-120"/>
     <path d="M 26.296875 24.703125 
C 26.296875 31.875 25.59375 44.015625 19.59375 56.859375 
C 14.796875 67.234375 6.59375 74.5 5.40625 74.5 
C 5.09375 74.5 4.703125 74.390625 4.703125 73.890625 
C 4.703125 73.703125 4.796875 73.59375 4.90625 73.390625 
C 9.703125 68.40625 21.90625 55.75 21.90625 24.75 
C 21.90625 -6.359375 9.796875 -19.015625 4.90625 -24.015625 
C 4.796875 -24.203125 4.703125 -24.3125 4.703125 -24.5 
C 4.703125 -25 5.09375 -25 5.40625 -25 
C 6.5 -25 15 -17.625 19.90625 -6.65625 
C 24.90625 4.390625 26.296875 15.140625 26.296875 24.703125 
" id="CMR17-41"/>
    </defs>
    <g transform="translate(174.301835 28.56)scale(0.192 -0.192)">
     <use transform="scale(0.996264)" xlink:href="#CMMI12-112"/>
     <use transform="translate(48.959514 0)scale(0.996264)" xlink:href="#CMR17-40"/>
     <use transform="translate(84.240282 0)scale(0.996264)" xlink:href="#CMBX12-120"/>
     <use transform="translate(143.393457 0)scale(0.996264)" xlink:href="#CMR17-41"/>
    </g>
   </g>
  </g>
  <g id="axes_2">
   <g id="patch_7">
    <path d="M 394.363636 252 
L 597.272727 252 
L 597.272727 34.56 
L 394.363636 34.56 
z
" style="fill:#ffffff;"/>
   </g>
   <g id="matplotlib.axis_3">
    <g id="xtick_4">
     <g id="line2d_11">
      <g>
       <use style="stroke:#000000;stroke-width:0.8;" x="428.181818" xlink:href="#m4ca0381916" y="252"/>
      </g>
     </g>
     <g id="text_14">
      <!-- $-2$ -->
      <g transform="translate(418.080827 270.069588)scale(0.16 -0.16)">
       <use transform="scale(0.996264)" xlink:href="#CMSY10-0"/>
       <use transform="translate(77.487468 0)scale(0.996264)" xlink:href="#CMR17-50"/>
      </g>
     </g>
    </g>
    <g id="xtick_5">
     <g id="line2d_12">
      <g>
       <use style="stroke:#000000;stroke-width:0.8;" x="495.818182" xlink:href="#m4ca0381916" y="252"/>
      </g>
     </g>
     <g id="text_15">
      <!-- $0$ -->
      <g transform="translate(491.916188 270.069588)scale(0.16 -0.16)">
       <use transform="scale(0.996264)" xlink:href="#CMR17-48"/>
      </g>
     </g>
    </g>
    <g id="xtick_6">
     <g id="line2d_13">
      <g>
       <use style="stroke:#000000;stroke-width:0.8;" x="563.454545" xlink:href="#m4ca0381916" y="252"/>
      </g>
     </g>
     <g id="text_16">
      <!-- $2$ -->
      <g transform="translate(559.552552 270.069588)scale(0.16 -0.16)">
       <use transform="scale(0.996264)" xlink:href="#CMR17-50"/>
      </g>
     </g>
    </g>
    <g id="text_17">
     <!-- $x_1$ -->
     <g transform="translate(488.593922 288.238653)scale(0.16 -0.16)">
      <use transform="translate(0 14.943915)scale(0.996264)" xlink:href="#CMMI12-120"/>
      <use transform="translate(55.43406 0)scale(0.697382)" xlink:href="#CMR17-49"/>
     </g>
    </g>
   </g>
   <g id="matplotlib.axis_4">
    <g id="ytick_8">
     <g id="line2d_14">
      <g>
       <use style="stroke:#000000;stroke-width:0.8;" x="394.363636" xlink:href="#m429c97457f" y="252"/>
      </g>
     </g>
    </g>
    <g id="ytick_9">
     <g id="line2d_15">
      <g>
       <use style="stroke:#000000;stroke-width:0.8;" x="394.363636" xlink:href="#m429c97457f" y="215.76"/>
      </g>
     </g>
    </g>
    <g id="ytick_10">
     <g id="line2d_16">
      <g>
       <use style="stroke:#000000;stroke-width:0.8;" x="394.363636" xlink:href="#m429c97457f" y="179.52"/>
      </g>
     </g>
    </g>
    <g id="ytick_11">
     <g id="line2d_17">
      <g>
       <use style="stroke:#000000;stroke-width:0.8;" x="394.363636" xlink:href="#m429c97457f" y="143.28"/>
      </g>
     </g>
    </g>
    <g id="ytick_12">
     <g id="line2d_18">
      <g>
       <use style="stroke:#000000;stroke-width:0.8;" x="394.363636" xlink:href="#m429c97457f" y="107.04"/>
      </g>
     </g>
    </g>
    <g id="ytick_13">
     <g id="line2d_19">
      <g>
       <use style="stroke:#000000;stroke-width:0.8;" x="394.363636" xlink:href="#m429c97457f" y="70.8"/>
      </g>
     </g>
    </g>
    <g id="ytick_14">
     <g id="line2d_20">
      <g>
       <use style="stroke:#000000;stroke-width:0.8;" x="394.363636" xlink:href="#m429c97457f" y="34.56"/>
      </g>
     </g>
    </g>
   </g>
   <g id="LineCollection_7">
    <path clip-path="url(#p32ee3eac98)" d="M 394.363636 192.479806 
L 397.956044 195.831544 
L 401.934298 199.235697 
L 405.87903 202.332781 
L 410.246935 205.477131 
L 414.614841 208.354945 
L 419.379827 211.221545 
L 424.144813 213.830701 
L 429.306885 216.391951 
L 434.468956 218.699345 
L 440.028108 220.921124 
L 445.58726 222.889174 
L 451.146416 224.617425 
L 457.102649 226.21749 
L 463.058882 227.569058 
L 469.015119 228.681693 
L 474.971356 229.5635 
L 480.927593 230.219819 
L 486.88383 230.655137 
L 492.840059 230.872356 
L 498.796296 230.872358 
L 504.752533 230.655137 
L 510.70877 230.219819 
L 516.665007 229.5635 
L 522.621244 228.681693 
L 528.577473 227.569061 
L 534.53371 226.21749 
L 540.092858 224.731733 
L 545.652023 223.020095 
L 551.211171 221.070275 
L 556.770319 218.866739 
L 561.932402 216.578137 
L 567.094469 214.037148 
L 571.859456 211.448579 
L 576.635395 208.597105 
L 581.183323 205.618478 
L 585.360253 202.630255 
L 589.331078 199.538376 
L 593.301903 196.168698 
L 596.887611 192.852917 
L 597.272727 192.479806 
L 597.272727 192.479806 
" style="fill:none;stroke:#f7fbff;stroke-width:1.5;"/>
    <path clip-path="url(#p32ee3eac98)" d="M 597.272727 57.840124 
L 593.698983 54.50509 
L 589.728159 51.105601 
L 585.442406 47.751078 
L 581.286666 44.772442 
L 576.748721 41.793823 
L 572.256537 39.098322 
L 567.49155 36.489235 
L 563.652796 34.56 
L 563.652796 34.56 
" style="fill:none;stroke:#f7fbff;stroke-width:1.5;"/>
    <path clip-path="url(#p32ee3eac98)" d="M 427.983568 34.56 
L 423.350652 36.907172 
L 418.400058 39.666221 
L 413.820671 42.469755 
L 409.452765 45.393815 
L 405.069421 48.602112 
L 401.114035 51.761663 
L 397.14321 55.222166 
L 394.363636 57.840124 
L 394.363636 57.840124 
" style="fill:none;stroke:#f7fbff;stroke-width:1.5;"/>
   </g>
   <g id="LineCollection_8">
    <path clip-path="url(#p32ee3eac98)" d="M 394.363636 146.026865 
L 395.554887 149.463247 
L 397.14321 153.351118 
L 398.932089 157.109353 
L 401.027074 160.939023 
L 403.134362 164.343168 
L 405.489066 167.747321 
L 408.261515 171.336141 
L 411.041097 174.573223 
L 414.262751 177.959762 
L 417.394415 180.940212 
L 420.96815 184.026484 
L 424.636514 186.895662 
L 428.512719 189.642984 
L 432.483544 192.190939 
L 436.851449 194.717298 
L 441.219355 196.983653 
L 445.58726 199.014036 
L 450.352251 200.981801 
L 455.117237 202.711096 
L 459.882227 204.217394 
L 465.07202 205.618478 
L 470.20637 206.772082 
L 475.612357 207.746063 
L 480.530512 208.426423 
L 485.69258 208.933605 
L 491.251736 209.248031 
L 496.810884 209.324241 
L 502.37004 209.163156 
L 507.929196 208.763329 
L 513.115983 208.17158 
L 518.253331 207.373751 
L 523.415406 206.352921 
L 528.577473 205.103884 
L 533.739549 203.616048 
L 538.901616 201.875273 
L 543.666602 200.028834 
L 548.431589 197.934411 
L 552.799494 195.778023 
L 557.1674 193.373242 
L 561.138224 190.948664 
L 565.246532 188.172213 
L 569.079874 185.30337 
L 572.653618 182.35028 
L 576.068309 179.236322 
L 579.035102 176.257695 
L 582.18359 172.763287 
L 584.963172 169.329491 
L 587.356708 166.045244 
L 589.728159 162.409178 
L 591.807994 158.81143 
L 593.748508 154.98176 
L 595.423798 151.152098 
L 596.875646 147.236035 
L 597.272727 146.026865 
L 597.272727 146.026865 
" style="fill:none;stroke:#d0e1f2;stroke-width:1.5;"/>
    <path clip-path="url(#p32ee3eac98)" d="M 597.272727 104.293377 
L 595.952641 100.515389 
L 594.367544 96.685719 
L 592.507741 92.828864 
L 590.52232 89.233101 
L 588.536916 86.030373 
L 586.154415 82.582541 
L 583.582963 79.239454 
L 580.675133 75.835301 
L 577.815685 72.804429 
L 574.639038 69.742496 
L 571.065294 66.62143 
L 567.49155 63.79285 
L 563.51475 60.942156 
L 559.549901 58.372764 
L 555.181995 55.82139 
L 550.81409 53.532277 
L 546.049103 51.305985 
L 541.284117 49.338086 
L 536.519131 47.608811 
L 531.56978 46.04901 
L 526.592061 44.708162 
L 521.429994 43.548055 
L 516.267926 42.61249 
L 511.105851 41.893663 
L 505.546695 41.356204 
L 500.384628 41.072019 
L 494.825472 40.995898 
L 489.266324 41.156793 
L 483.707167 41.556652 
L 478.5451 42.144854 
L 473.383025 42.946108 
L 468.220958 43.967223 
L 463.058882 45.216272 
L 457.896815 46.703908 
L 453.131829 48.301416 
L 448.366838 50.127967 
L 443.601848 52.200898 
L 439.233942 54.335916 
L 434.866037 56.717288 
L 430.703575 59.240088 
L 426.891274 61.79319 
L 422.953571 64.705856 
L 419.379827 67.627027 
L 415.940054 70.729081 
L 412.940146 73.707717 
L 409.834903 77.111852 
L 407.039718 80.516005 
L 404.526082 83.920158 
L 402.27164 87.324311 
L 400.257676 90.728447 
L 398.261105 94.558117 
L 396.532943 98.387787 
L 395.059575 102.217457 
L 394.363636 104.293377 
L 394.363636 104.293377 
" style="fill:none;stroke:#d0e1f2;stroke-width:1.5;"/>
   </g>
   <g id="LineCollection_9">
    <path clip-path="url(#p32ee3eac98)" d="M 487.280911 193.283557 
L 492.045898 193.561241 
L 496.810884 193.623698 
L 501.575878 193.47186 
L 506.340865 193.104086 
L 511.105851 192.516875 
L 515.870838 191.704534 
L 520.635832 190.658532 
L 525.125948 189.448764 
L 529.371643 188.093892 
L 533.741005 186.470136 
L 538.107454 184.596538 
L 542.104393 182.640475 
L 546.049103 180.459864 
L 549.622847 178.243991 
L 553.196591 175.768773 
L 556.42195 173.279059 
L 559.549901 170.593609 
L 562.523518 167.747321 
L 565.306543 164.768693 
L 567.888631 161.666441 
L 570.271132 158.435118 
L 572.256537 155.387898 
L 574.188391 152.003132 
L 575.861139 148.598979 
L 577.279783 145.194835 
L 578.457296 141.790682 
L 579.404024 138.385466 
L 580.127317 134.982385 
L 580.633355 131.57824 
L 580.925925 128.174087 
L 581.007066 124.769943 
L 580.87763 121.36579 
L 580.536382 117.961645 
L 579.980951 114.557492 
L 579.206913 111.153348 
L 578.208061 107.749195 
L 576.976339 104.345042 
L 575.4332 100.798456 
L 573.767608 97.536753 
L 571.759091 94.1326 
L 569.476955 90.762048 
L 567.49155 88.151818 
L 564.991513 85.196709 
L 562.170668 82.21809 
L 559.15282 79.369104 
L 555.976157 76.680942 
L 552.402413 73.976899 
L 548.828669 71.562345 
L 545.254942 69.399764 
L 541.284117 67.258126 
L 537.313292 65.362983 
L 532.945387 63.536077 
L 528.577473 61.956371 
L 523.8926 60.516639 
L 519.444581 59.377456 
L 514.668742 58.389037 
L 509.914609 57.635487 
L 505.149614 57.103739 
L 500.384628 56.790066 
L 495.619641 56.691954 
L 490.854655 56.807931 
L 486.089661 57.139633 
L 481.324674 57.68977 
L 476.559688 58.464158 
L 471.794701 59.470402 
L 467.029707 60.719573 
L 462.661801 62.090282 
L 458.293896 63.69157 
L 453.92599 65.542119 
L 449.955166 67.460747 
L 445.984345 69.628542 
L 442.121257 72.005631 
L 438.836861 74.262262 
L 435.653479 76.686335 
L 432.483544 79.369104 
L 429.465696 82.21809 
L 426.644852 85.196709 
L 424.125953 88.175345 
L 421.76232 91.317551 
L 419.610419 94.558117 
L 417.637438 97.96227 
L 415.937303 101.366423 
L 414.492911 104.770576 
L 413.290819 108.174721 
L 412.320597 111.578865 
L 411.574135 114.983018 
L 411.041097 118.426017 
L 410.731013 121.791315 
L 410.627929 125.19546 
L 410.735405 128.599613 
L 411.05455 132.003757 
L 411.58744 135.40791 
L 412.338486 138.812055 
L 413.313473 142.216208 
L 414.520505 145.620352 
L 415.970056 149.024505 
L 417.67569 152.428649 
L 419.654585 155.832802 
L 421.76232 159.002438 
L 423.844651 161.790057 
L 426.527307 164.991262 
L 429.306885 167.942725 
L 432.232788 170.725948 
L 435.263122 173.318631 
L 438.526483 175.832169 
L 442.01352 178.243998 
L 445.677862 180.512873 
L 449.558085 182.654087 
L 453.52891 184.596538 
L 457.896815 186.470721 
L 462.264721 188.093892 
L 466.632626 189.484846 
L 471.276008 190.725323 
L 475.765518 191.70453 
L 480.530512 192.516875 
L 485.295499 193.104086 
L 487.280911 193.283557 
L 487.280911 193.283557 
" style="fill:none;stroke:#94c4df;stroke-width:1.5;"/>
   </g>
   <g id="LineCollection_10">
    <path clip-path="url(#p32ee3eac98)" d="M 490.854655 179.674015 
L 495.222561 179.817687 
L 499.590466 179.735631 
L 503.958372 179.426832 
L 508.326277 178.887375 
L 512.694183 178.1102 
L 516.970258 177.108729 
L 520.635832 176.050424 
L 524.606657 174.681084 
L 528.577473 173.060604 
L 532.151225 171.365709 
L 535.724953 169.420384 
L 539.099848 167.321804 
L 542.122073 165.19421 
L 545.254942 162.696448 
L 547.686574 160.513506 
L 550.221316 157.960396 
L 552.465381 155.407277 
L 554.451955 152.854166 
L 556.477833 149.875539 
L 558.218471 146.896912 
L 559.697209 143.918275 
L 560.931893 140.939648 
L 561.936191 137.961021 
L 562.726564 134.954852 
L 563.292353 132.003757 
L 563.657302 129.02513 
L 563.818598 126.046494 
L 563.77771 123.067866 
L 563.520726 119.977152 
L 563.086049 117.110611 
L 562.42895 114.131975 
L 561.535305 111.089368 
L 560.460585 108.174721 
L 559.129009 105.196093 
L 557.546693 102.217457 
L 555.693722 99.238821 
L 553.593672 96.324405 
L 551.43956 93.707083 
L 549.063004 91.153981 
L 546.376124 88.600862 
L 543.666602 86.316868 
L 540.489939 83.945278 
L 537.313292 81.85343 
L 534.136629 80.002138 
L 530.562886 78.171775 
L 526.98915 76.579539 
L 523.018325 75.062262 
L 519.047501 73.787503 
L 515.076676 72.737551 
L 510.70877 71.826484 
L 506.309639 71.154597 
L 501.972959 70.724515 
L 497.605054 70.51909 
L 493.237148 70.539595 
L 488.869243 70.786292 
L 484.501337 71.262286 
L 480.133424 71.97372 
L 476.065155 72.856683 
L 472.191782 73.904626 
L 468.220958 75.202766 
L 464.250133 76.745418 
L 460.623792 78.38842 
L 457.102649 80.221478 
L 453.74058 82.21809 
L 450.581061 84.345675 
L 447.572672 86.635456 
L 444.78876 89.026379 
L 442.01352 91.728277 
L 439.631027 94.363873 
L 437.445983 97.111236 
L 435.384231 100.089872 
L 433.61096 103.068491 
L 432.086463 106.081043 
L 430.839134 109.025754 
L 429.80803 112.004382 
L 428.998026 114.983018 
L 428.401158 117.961645 
L 428.011786 120.940273 
L 427.826354 123.918909 
L 427.843187 126.897536 
L 428.062446 129.876164 
L 428.512719 133.001225 
L 429.118046 135.833427 
L 429.964278 138.812055 
L 431.033188 141.790682 
L 432.336047 144.769318 
L 433.887595 147.747945 
L 435.707055 150.726573 
L 437.819747 153.705209 
L 440.028108 156.418987 
L 442.410601 159.000476 
L 444.866739 161.36454 
L 447.862399 163.917651 
L 450.749331 166.094461 
L 453.92599 168.218945 
L 457.499734 170.317947 
L 461.073474 172.148238 
L 464.647214 173.740506 
L 468.618038 175.257714 
L 472.588863 176.532486 
L 476.559688 177.582464 
L 480.927593 178.493518 
L 485.295499 179.161547 
L 489.663404 179.595487 
L 490.854655 179.674015 
L 490.854655 179.674015 
" style="fill:none;stroke:#4a98c9;stroke-width:1.5;"/>
   </g>
   <g id="LineCollection_11">
    <path clip-path="url(#p32ee3eac98)" d="M 488.869243 165.628703 
L 492.442978 165.921914 
L 496.016722 166.011899 
L 499.590466 165.899404 
L 503.164202 165.583319 
L 506.737946 165.058212 
L 510.311689 164.31629 
L 513.885425 163.344198 
L 517.459169 162.124498 
L 520.635832 160.811596 
L 523.85243 159.236947 
L 526.98915 157.428619 
L 529.768724 155.562861 
L 532.180267 153.705209 
L 534.58969 151.577615 
L 536.916212 149.198185 
L 538.901616 146.836969 
L 540.694671 144.343801 
L 542.245095 141.790682 
L 543.534371 139.237572 
L 544.583213 136.684461 
L 545.40686 134.131351 
L 546.049103 131.408369 
L 546.446184 128.78914 
L 546.621447 126.472019 
L 546.624202 123.918909 
L 546.428088 121.36579 
L 546.030523 118.812679 
L 545.426627 116.259569 
L 544.609056 113.706458 
L 543.566693 111.153348 
L 542.284313 108.600238 
L 540.741512 106.047127 
L 538.901616 103.482686 
L 536.916212 101.121823 
L 534.930791 99.069672 
L 532.548306 96.921286 
L 530.08049 94.983634 
L 527.386231 93.141763 
L 524.606657 91.491854 
L 521.429994 89.872775 
L 518.253331 88.502636 
L 514.679595 87.2246 
L 511.105851 86.199479 
L 507.532107 85.407597 
L 503.958372 84.835119 
L 500.384628 84.473109 
L 496.810884 84.315569 
L 493.237148 84.360447 
L 489.663404 84.608538 
L 486.089661 85.063163 
L 482.515925 85.731693 
L 478.942181 86.625304 
L 475.368437 87.759792 
L 472.104079 89.026379 
L 469.015119 90.449309 
L 465.838464 92.170414 
L 463.058882 93.924376 
L 460.279308 95.95312 
L 457.89075 97.96227 
L 455.514322 100.268354 
L 453.406908 102.642974 
L 451.471494 105.196093 
L 449.836134 107.749195 
L 448.469554 110.302314 
L 447.349151 112.855424 
L 446.381426 115.664123 
L 445.784008 117.961645 
L 445.318354 120.514756 
L 445.055386 123.067866 
L 444.99193 125.620977 
L 445.127158 128.174087 
L 445.462875 130.727206 
L 446.002835 133.280317 
L 446.778511 135.904669 
L 447.726529 138.386538 
L 448.933662 140.939648 
L 450.394165 143.492758 
L 452.133914 146.045869 
L 453.92599 148.295829 
L 455.911403 150.46156 
L 458.293896 152.716071 
L 460.676393 154.6756 
L 463.488522 156.683836 
L 466.244571 158.385913 
L 469.455295 160.087989 
L 472.588863 161.496382 
L 475.765518 162.698716 
L 479.339262 163.805576 
L 482.913006 164.673486 
L 486.486749 165.317757 
L 488.869243 165.628703 
L 488.869243 165.628703 
" style="fill:none;stroke:#1764ab;stroke-width:1.5;"/>
   </g>
   <g id="LineCollection_12">
    <path clip-path="url(#p32ee3eac98)" d="M 494.428391 149.452733 
L 497.272577 149.450022 
L 499.987547 149.245675 
L 502.767121 148.827644 
L 505.595924 148.173462 
L 508.326277 147.303118 
L 510.70877 146.328945 
L 513.091264 145.125945 
L 515.473757 143.647592 
L 517.459169 142.155482 
L 519.444581 140.351195 
L 521.032913 138.600945 
L 522.461882 136.684461 
L 523.497533 134.982385 
L 524.520866 132.8548 
L 525.271877 130.727206 
L 525.77156 128.599613 
L 526.031324 126.472019 
L 526.058407 124.344426 
L 525.853217 122.216832 
L 525.400818 120.053108 
L 524.719497 117.961645 
L 523.762244 115.834052 
L 522.509269 113.706458 
L 521.032913 111.718873 
L 519.444581 109.968416 
L 517.85625 108.497688 
L 515.798705 106.898161 
L 513.488344 105.420242 
L 511.105851 104.174727 
L 508.465813 103.068491 
L 505.850012 102.217457 
L 503.164202 101.569942 
L 500.384628 101.120856 
L 497.605054 100.884372 
L 494.825472 100.855142 
L 492.045898 101.031813 
L 489.266324 101.418882 
L 486.486749 102.02772 
L 483.707167 102.875436 
L 481.085539 103.919525 
L 478.942181 104.976332 
L 476.559688 106.403986 
L 474.574275 107.844181 
L 472.588863 109.578094 
L 471.000532 111.249406 
L 469.719945 112.855424 
L 468.58784 114.557492 
L 467.426788 116.752813 
L 466.609436 118.812679 
L 466.020004 120.940273 
L 465.673161 123.067866 
L 465.560949 125.19546 
L 465.680906 127.323053 
L 466.035692 129.450647 
L 466.633322 131.57824 
L 467.490604 133.705834 
L 468.630659 135.833427 
L 469.809289 137.586059 
L 471.397612 139.517102 
L 472.985944 141.11632 
L 474.971356 142.784598 
L 477.223434 144.343801 
L 479.465275 145.620352 
L 481.721755 146.677233 
L 484.104248 147.581301 
L 486.88383 148.393321 
L 489.663404 148.969655 
L 492.442978 149.326018 
L 494.428391 149.452733 
L 494.428391 149.452733 
" style="fill:none;stroke:#08306b;stroke-width:1.5;"/>
   </g>
   <g id="patch_8">
    <path d="M 394.363636 252 
L 394.363636 34.56 
" style="fill:none;stroke:#000000;stroke-linecap:square;stroke-linejoin:miter;stroke-width:0.8;"/>
   </g>
   <g id="patch_9">
    <path d="M 597.272727 252 
L 597.272727 34.56 
" style="fill:none;stroke:#000000;stroke-linecap:square;stroke-linejoin:miter;stroke-width:0.8;"/>
   </g>
   <g id="patch_10">
    <path d="M 394.363636 252 
L 597.272727 252 
" style="fill:none;stroke:#000000;stroke-linecap:square;stroke-linejoin:miter;stroke-width:0.8;"/>
   </g>
   <g id="patch_11">
    <path d="M 394.363636 34.56 
L 597.272727 34.56 
" style="fill:none;stroke:#000000;stroke-linecap:square;stroke-linejoin:miter;stroke-width:0.8;"/>
   </g>
   <g id="text_18">
    <!-- $q(\mathbf{x})$ -->
    <defs>
     <path d="M 44.09375 43.109375 
C 44.09375 43.59375 43.703125 44 43.203125 44 
C 42.40625 44 38.5 40.390625 36.59375 36.90625 
C 34.796875 41.34375 31.703125 44 27.40625 44 
C 16.09375 44 3.90625 29.4375 3.90625 14.671875 
C 3.90625 4.796875 9.703125 -1 16.5 -1 
C 21.796875 -1 26.203125 3.015625 28.296875 5.296875 
L 28.40625 5.203125 
L 24.59375 -9.609375 
L 23.703125 -13.15625 
C 22.796875 -16.109375 21.296875 -16.109375 16.59375 -16.109375 
C 15.5 -16.109375 14.5 -16.109375 14.5 -18 
C 14.5 -18.703125 15.09375 -19 15.796875 -19 
C 17.203125 -19 19 -19 20.40625 -19 
L 30.59375 -19 
C 32.09375 -19 33.796875 -19 35.296875 -19 
C 35.90625 -19 37.09375 -19 37.09375 -17.109375 
C 37.09375 -16.109375 36.296875 -16.109375 34.796875 -16.109375 
C 30.09375 -16.109375 29.796875 -15.40625 29.796875 -14.609375 
C 29.796875 -14.125 29.90625 -14.03125 30.203125 -12.734375 
z
M 30 11.90625 
C 29.5 10.1875 29.5 10 28.09375 8.09375 
C 25.90625 5.296875 21.5 1 16.796875 1 
C 12.703125 1 10.40625 4.703125 10.40625 10.59375 
C 10.40625 16.09375 13.5 27.296875 15.40625 31.5 
C 18.796875 38.5 23.5 42.109375 27.40625 42.109375 
C 34 42.109375 35.296875 33.90625 35.296875 33.109375 
C 35.296875 33.015625 35 31.6875 34.90625 31.5 
z
" id="CMMI12-113"/>
    </defs>
    <g transform="translate(478.870262 28.56)scale(0.192 -0.192)">
     <use transform="scale(0.996264)" xlink:href="#CMMI12-113"/>
     <use transform="translate(46.826324 0)scale(0.996264)" xlink:href="#CMR17-40"/>
     <use transform="translate(82.107092 0)scale(0.996264)" xlink:href="#CMBX12-120"/>
     <use transform="translate(141.260267 0)scale(0.996264)" xlink:href="#CMR17-41"/>
    </g>
   </g>
  </g>
  <g id="axes_3">
   <g id="patch_12">
    <path clip-path="url(#p1be6098e29)" d="M 305.590909 252 
L 305.590909 208.512 
L 305.590909 78.048 
L 305.590909 34.56 
L 316.462909 34.56 
L 316.462909 78.048 
L 316.462909 208.512 
L 316.462909 252 
z
" style="fill:#ffffff;stroke:#ffffff;stroke-linejoin:miter;stroke-width:0.01;"/>
   </g>
   <g id="matplotlib.axis_5"/>
   <g id="matplotlib.axis_6">
    <g id="ytick_15">
     <g id="line2d_21">
      <defs>
       <path d="M 0 0 
L 3.5 0 
" id="m98399760cf" style="stroke:#000000;stroke-width:0.8;"/>
      </defs>
      <g>
       <use style="stroke:#000000;stroke-width:0.8;" x="316.462909" xlink:href="#m98399760cf" y="252"/>
      </g>
     </g>
     <g id="text_19">
      <!-- $0.08$ -->
      <defs>
       <path d="M 18.40625 4.796875 
C 18.40625 7.6875 16 9.671875 13.59375 9.671875 
C 10.703125 9.671875 8.703125 7.28125 8.703125 4.890625 
C 8.703125 2 11.09375 0 13.5 0 
C 16.40625 0 18.40625 2.390625 18.40625 4.796875 
" id="CMMI12-58"/>
      </defs>
      <g transform="translate(323.462909 257.534794)scale(0.16 -0.16)">
       <use transform="scale(0.996264)" xlink:href="#CMR17-48"/>
       <use transform="translate(45.690477 0)scale(0.996264)" xlink:href="#CMMI12-58"/>
       <use transform="translate(72.787654 0)scale(0.996264)" xlink:href="#CMR17-48"/>
       <use transform="translate(118.478131 0)scale(0.996264)" xlink:href="#CMR17-56"/>
      </g>
     </g>
    </g>
    <g id="ytick_16">
     <g id="line2d_22">
      <g>
       <use style="stroke:#000000;stroke-width:0.8;" x="316.462909" xlink:href="#m98399760cf" y="208.512"/>
      </g>
     </g>
     <g id="text_20">
      <!-- $0.16$ -->
      <g transform="translate(323.462909 214.046794)scale(0.16 -0.16)">
       <use transform="scale(0.996264)" xlink:href="#CMR17-48"/>
       <use transform="translate(45.690477 0)scale(0.996264)" xlink:href="#CMMI12-58"/>
       <use transform="translate(72.787654 0)scale(0.996264)" xlink:href="#CMR17-49"/>
       <use transform="translate(118.478131 0)scale(0.996264)" xlink:href="#CMR17-54"/>
      </g>
     </g>
    </g>
    <g id="ytick_17">
     <g id="line2d_23">
      <g>
       <use style="stroke:#000000;stroke-width:0.8;" x="316.462909" xlink:href="#m98399760cf" y="165.024"/>
      </g>
     </g>
     <g id="text_21">
      <!-- $0.24$ -->
      <g transform="translate(323.462909 170.558794)scale(0.16 -0.16)">
       <use transform="scale(0.996264)" xlink:href="#CMR17-48"/>
       <use transform="translate(45.690477 0)scale(0.996264)" xlink:href="#CMMI12-58"/>
       <use transform="translate(72.787654 0)scale(0.996264)" xlink:href="#CMR17-50"/>
       <use transform="translate(118.478131 0)scale(0.996264)" xlink:href="#CMR17-52"/>
      </g>
     </g>
    </g>
    <g id="ytick_18">
     <g id="line2d_24">
      <g>
       <use style="stroke:#000000;stroke-width:0.8;" x="316.462909" xlink:href="#m98399760cf" y="121.536"/>
      </g>
     </g>
     <g id="text_22">
      <!-- $0.32$ -->
      <defs>
       <path d="M 22.09375 33.703125 
C 31 33.703125 34.90625 25.96875 34.90625 17.03125 
C 34.90625 5 28.5 0.390625 22.703125 0.390625 
C 17.40625 0.390625 8.796875 3.03125 6.09375 10.828125 
C 6.59375 10.625 7.09375 10.625 7.59375 10.625 
C 10 10.625 11.796875 12.21875 11.796875 14.8125 
C 11.796875 17.703125 9.59375 19 7.59375 19 
C 5.90625 19 3.296875 18.203125 3.296875 14.46875 
C 3.296875 5.234375 12.296875 -2 22.90625 -2 
C 34 -2 42.5 6.71875 42.5 16.953125 
C 42.5 26.671875 34.5 33.703125 25 34.796875 
C 32.59375 36.375 39.90625 43.0625 39.90625 52.015625 
C 39.90625 59.6875 32 65.296875 23 65.296875 
C 13.90625 65.296875 5.90625 59.828125 5.90625 52.015625 
C 5.90625 48.59375 8.5 48 9.796875 48 
C 11.90625 48 13.703125 49.296875 13.703125 51.890625 
C 13.703125 54.46875 11.90625 55.765625 9.796875 55.765625 
C 9.40625 55.765625 8.90625 55.765625 8.5 55.578125 
C 11.40625 61.859375 19.296875 63 22.796875 63 
C 26.296875 63 32.90625 61.328125 32.90625 51.875 
C 32.90625 49.109375 32.5 44.1875 29.09375 39.84375 
C 26.09375 36 22.703125 36 19.40625 35.6875 
C 18.90625 35.6875 16.59375 35.453125 16.203125 35.453125 
C 15.5 35.359375 15.09375 35.265625 15.09375 34.5 
C 15.09375 33.796875 15.203125 33.703125 17.203125 33.703125 
z
" id="CMR17-51"/>
      </defs>
      <g transform="translate(323.462909 127.070794)scale(0.16 -0.16)">
       <use transform="scale(0.996264)" xlink:href="#CMR17-48"/>
       <use transform="translate(45.690477 0)scale(0.996264)" xlink:href="#CMMI12-58"/>
       <use transform="translate(72.787654 0)scale(0.996264)" xlink:href="#CMR17-51"/>
       <use transform="translate(118.478131 0)scale(0.996264)" xlink:href="#CMR17-50"/>
      </g>
     </g>
    </g>
    <g id="ytick_19">
     <g id="line2d_25">
      <g>
       <use style="stroke:#000000;stroke-width:0.8;" x="316.462909" xlink:href="#m98399760cf" y="78.048"/>
      </g>
     </g>
     <g id="text_23">
      <!-- $0.40$ -->
      <g transform="translate(323.462909 83.582794)scale(0.16 -0.16)">
       <use transform="scale(0.996264)" xlink:href="#CMR17-48"/>
       <use transform="translate(45.690477 0)scale(0.996264)" xlink:href="#CMMI12-58"/>
       <use transform="translate(72.787654 0)scale(0.996264)" xlink:href="#CMR17-52"/>
       <use transform="translate(118.478131 0)scale(0.996264)" xlink:href="#CMR17-48"/>
      </g>
     </g>
    </g>
    <g id="ytick_20">
     <g id="line2d_26">
      <g>
       <use style="stroke:#000000;stroke-width:0.8;" x="316.462909" xlink:href="#m98399760cf" y="34.56"/>
      </g>
     </g>
     <g id="text_24">
      <!-- $0.48$ -->
      <g transform="translate(323.462909 40.094794)scale(0.16 -0.16)">
       <use transform="scale(0.996264)" xlink:href="#CMR17-48"/>
       <use transform="translate(45.690477 0)scale(0.996264)" xlink:href="#CMMI12-58"/>
       <use transform="translate(72.787654 0)scale(0.996264)" xlink:href="#CMR17-52"/>
       <use transform="translate(118.478131 0)scale(0.996264)" xlink:href="#CMR17-56"/>
      </g>
     </g>
    </g>
   </g>
   <g id="LineCollection_13">
    <path clip-path="url(#p1be6098e29)" d="M 305.590909 252 
L 316.462909 252 
" style="fill:none;stroke:#f7fbff;stroke-width:1.5;"/>
    <path clip-path="url(#p1be6098e29)" d="M 305.590909 208.512 
L 316.462909 208.512 
" style="fill:none;stroke:#d0e1f2;stroke-width:1.5;"/>
    <path clip-path="url(#p1be6098e29)" d="M 305.590909 165.024 
L 316.462909 165.024 
" style="fill:none;stroke:#94c4df;stroke-width:1.5;"/>
    <path clip-path="url(#p1be6098e29)" d="M 305.590909 121.536 
L 316.462909 121.536 
" style="fill:none;stroke:#4a98c9;stroke-width:1.5;"/>
    <path clip-path="url(#p1be6098e29)" d="M 305.590909 78.048 
L 316.462909 78.048 
" style="fill:none;stroke:#1764ab;stroke-width:1.5;"/>
    <path clip-path="url(#p1be6098e29)" d="M 305.590909 34.56 
L 316.462909 34.56 
" style="fill:none;stroke:#08306b;stroke-width:1.5;"/>
   </g>
   <g id="patch_13">
    <path d="M 305.590909 252 
L 305.590909 208.512 
L 305.590909 78.048 
L 305.590909 34.56 
L 316.462909 34.56 
L 316.462909 78.048 
L 316.462909 208.512 
L 316.462909 252 
z
" style="fill:none;stroke:#000000;stroke-linejoin:miter;stroke-width:0.8;"/>
   </g>
  </g>
  <g id="axes_4">
   <g id="patch_14">
    <path clip-path="url(#p82e40622d9)" d="M 609.954545 252 
L 609.954545 208.512 
L 609.954545 78.048 
L 609.954545 34.56 
L 620.826545 34.56 
L 620.826545 78.048 
L 620.826545 208.512 
L 620.826545 252 
z
" style="fill:#ffffff;stroke:#ffffff;stroke-linejoin:miter;stroke-width:0.01;"/>
   </g>
   <g id="matplotlib.axis_7"/>
   <g id="matplotlib.axis_8">
    <g id="ytick_21">
     <g id="line2d_27">
      <g>
       <use style="stroke:#000000;stroke-width:0.8;" x="620.826545" xlink:href="#m98399760cf" y="252"/>
      </g>
     </g>
     <g id="text_25">
      <!-- $0.004$ -->
      <g transform="translate(627.826545 257.534794)scale(0.16 -0.16)">
       <use transform="scale(0.996264)" xlink:href="#CMR17-48"/>
       <use transform="translate(45.690477 0)scale(0.996264)" xlink:href="#CMMI12-58"/>
       <use transform="translate(72.787654 0)scale(0.996264)" xlink:href="#CMR17-48"/>
       <use transform="translate(118.478131 0)scale(0.996264)" xlink:href="#CMR17-48"/>
       <use transform="translate(164.168608 0)scale(0.996264)" xlink:href="#CMR17-52"/>
      </g>
     </g>
    </g>
    <g id="ytick_22">
     <g id="line2d_28">
      <g>
       <use style="stroke:#000000;stroke-width:0.8;" x="620.826545" xlink:href="#m98399760cf" y="208.512"/>
      </g>
     </g>
     <g id="text_26">
      <!-- $0.008$ -->
      <g transform="translate(627.826545 214.046794)scale(0.16 -0.16)">
       <use transform="scale(0.996264)" xlink:href="#CMR17-48"/>
       <use transform="translate(45.690477 0)scale(0.996264)" xlink:href="#CMMI12-58"/>
       <use transform="translate(72.787654 0)scale(0.996264)" xlink:href="#CMR17-48"/>
       <use transform="translate(118.478131 0)scale(0.996264)" xlink:href="#CMR17-48"/>
       <use transform="translate(164.168608 0)scale(0.996264)" xlink:href="#CMR17-56"/>
      </g>
     </g>
    </g>
    <g id="ytick_23">
     <g id="line2d_29">
      <g>
       <use style="stroke:#000000;stroke-width:0.8;" x="620.826545" xlink:href="#m98399760cf" y="165.024"/>
      </g>
     </g>
     <g id="text_27">
      <!-- $0.012$ -->
      <g transform="translate(627.826545 170.558794)scale(0.16 -0.16)">
       <use transform="scale(0.996264)" xlink:href="#CMR17-48"/>
       <use transform="translate(45.690477 0)scale(0.996264)" xlink:href="#CMMI12-58"/>
       <use transform="translate(72.787654 0)scale(0.996264)" xlink:href="#CMR17-48"/>
       <use transform="translate(118.478131 0)scale(0.996264)" xlink:href="#CMR17-49"/>
       <use transform="translate(164.168608 0)scale(0.996264)" xlink:href="#CMR17-50"/>
      </g>
     </g>
    </g>
    <g id="ytick_24">
     <g id="line2d_30">
      <g>
       <use style="stroke:#000000;stroke-width:0.8;" x="620.826545" xlink:href="#m98399760cf" y="121.536"/>
      </g>
     </g>
     <g id="text_28">
      <!-- $0.016$ -->
      <g transform="translate(627.826545 127.070794)scale(0.16 -0.16)">
       <use transform="scale(0.996264)" xlink:href="#CMR17-48"/>
       <use transform="translate(45.690477 0)scale(0.996264)" xlink:href="#CMMI12-58"/>
       <use transform="translate(72.787654 0)scale(0.996264)" xlink:href="#CMR17-48"/>
       <use transform="translate(118.478131 0)scale(0.996264)" xlink:href="#CMR17-49"/>
       <use transform="translate(164.168608 0)scale(0.996264)" xlink:href="#CMR17-54"/>
      </g>
     </g>
    </g>
    <g id="ytick_25">
     <g id="line2d_31">
      <g>
       <use style="stroke:#000000;stroke-width:0.8;" x="620.826545" xlink:href="#m98399760cf" y="78.048"/>
      </g>
     </g>
     <g id="text_29">
      <!-- $0.020$ -->
      <g transform="translate(627.826545 83.582794)scale(0.16 -0.16)">
       <use transform="scale(0.996264)" xlink:href="#CMR17-48"/>
       <use transform="translate(45.690477 0)scale(0.996264)" xlink:href="#CMMI12-58"/>
       <use transform="translate(72.787654 0)scale(0.996264)" xlink:href="#CMR17-48"/>
       <use transform="translate(118.478131 0)scale(0.996264)" xlink:href="#CMR17-50"/>
       <use transform="translate(164.168608 0)scale(0.996264)" xlink:href="#CMR17-48"/>
      </g>
     </g>
    </g>
    <g id="ytick_26">
     <g id="line2d_32">
      <g>
       <use style="stroke:#000000;stroke-width:0.8;" x="620.826545" xlink:href="#m98399760cf" y="34.56"/>
      </g>
     </g>
     <g id="text_30">
      <!-- $0.024$ -->
      <g transform="translate(627.826545 40.094794)scale(0.16 -0.16)">
       <use transform="scale(0.996264)" xlink:href="#CMR17-48"/>
       <use transform="translate(45.690477 0)scale(0.996264)" xlink:href="#CMMI12-58"/>
       <use transform="translate(72.787654 0)scale(0.996264)" xlink:href="#CMR17-48"/>
       <use transform="translate(118.478131 0)scale(0.996264)" xlink:href="#CMR17-50"/>
       <use transform="translate(164.168608 0)scale(0.996264)" xlink:href="#CMR17-52"/>
      </g>
     </g>
    </g>
   </g>
   <g id="LineCollection_14">
    <path clip-path="url(#p82e40622d9)" d="M 609.954545 252 
L 620.826545 252 
" style="fill:none;stroke:#f7fbff;stroke-width:1.5;"/>
    <path clip-path="url(#p82e40622d9)" d="M 609.954545 208.512 
L 620.826545 208.512 
" style="fill:none;stroke:#d0e1f2;stroke-width:1.5;"/>
    <path clip-path="url(#p82e40622d9)" d="M 609.954545 165.024 
L 620.826545 165.024 
" style="fill:none;stroke:#94c4df;stroke-width:1.5;"/>
    <path clip-path="url(#p82e40622d9)" d="M 609.954545 121.536 
L 620.826545 121.536 
" style="fill:none;stroke:#4a98c9;stroke-width:1.5;"/>
    <path clip-path="url(#p82e40622d9)" d="M 609.954545 78.048 
L 620.826545 78.048 
" style="fill:none;stroke:#1764ab;stroke-width:1.5;"/>
    <path clip-path="url(#p82e40622d9)" d="M 609.954545 34.56 
L 620.826545 34.56 
" style="fill:none;stroke:#08306b;stroke-width:1.5;"/>
   </g>
   <g id="patch_15">
    <path d="M 609.954545 252 
L 609.954545 208.512 
L 609.954545 78.048 
L 609.954545 34.56 
L 620.826545 34.56 
L 620.826545 78.048 
L 620.826545 208.512 
L 620.826545 252 
z
" style="fill:none;stroke:#000000;stroke-linejoin:miter;stroke-width:0.8;"/>
   </g>
  </g>
 </g>
 <defs>
  <clipPath id="pab27df0678">
   <rect height="217.44" width="202.909091" x="90" y="34.56"/>
  </clipPath>
  <clipPath id="p32ee3eac98">
   <rect height="217.44" width="202.909091" x="394.363636" y="34.56"/>
  </clipPath>
  <clipPath id="p1be6098e29">
   <rect height="217.44" width="10.872" x="305.590909" y="34.56"/>
  </clipPath>
  <clipPath id="p82e40622d9">
   <rect height="217.44" width="10.872" x="609.954545" y="34.56"/>
  </clipPath>
 </defs>
</svg>
