<?xml version="1.0" encoding="utf-8" standalone="no"?>
<!DOCTYPE svg PUBLIC "-//W3C//DTD SVG 1.1//EN"
  "http://www.w3.org/Graphics/SVG/1.1/DTD/svg11.dtd">
<!-- Created with matplotlib (http://matplotlib.org/) -->
<svg height="355pt" version="1.1" viewBox="0 0 576 355" width="576pt" xmlns="http://www.w3.org/2000/svg" xmlns:xlink="http://www.w3.org/1999/xlink">
 <defs>
  <style type="text/css">
*{stroke-linecap:butt;stroke-linejoin:round;}
  </style>
 </defs>
 <g id="figure_1">
  <g id="patch_1">
   <path d="M 0 355.987578 
L 576 355.987578 
L 576 0 
L 0 0 
z
" style="fill:#ffffff;"/>
  </g>
  <g id="axes_1">
   <g id="patch_2">
    <path d="M 72 311.48913 
L 429.12 311.48913 
L 429.12 42.718509 
L 72 42.718509 
z
" style="fill:#ffffff;"/>
   </g>
   <g id="matplotlib.axis_1">
    <g id="xtick_1">
     <g id="line2d_1">
      <defs>
       <path d="M 0 0 
L 0 3.5 
" id="m94b4211e8b" style="stroke:#000000;stroke-width:0.8;"/>
      </defs>
      <g>
       <use style="stroke:#000000;stroke-width:0.8;" x="72" xlink:href="#m94b4211e8b" y="311.48913"/>
      </g>
     </g>
     <g id="text_1">
      <!-- $-3$ -->
      <defs>
       <path d="M 65.90625 23 
C 67.59375 23 69.40625 23 69.40625 25 
C 69.40625 27 67.59375 27 65.90625 27 
L 11.796875 27 
C 10.09375 27 8.296875 27 8.296875 25 
C 8.296875 23 10.09375 23 11.796875 23 
z
" id="CMSY10-0"/>
       <path d="M 22.09375 33.703125 
C 31 33.703125 34.90625 25.96875 34.90625 17.03125 
C 34.90625 5 28.5 0.390625 22.703125 0.390625 
C 17.40625 0.390625 8.796875 3.03125 6.09375 10.828125 
C 6.59375 10.625 7.09375 10.625 7.59375 10.625 
C 10 10.625 11.796875 12.21875 11.796875 14.8125 
C 11.796875 17.703125 9.59375 19 7.59375 19 
C 5.90625 19 3.296875 18.203125 3.296875 14.46875 
C 3.296875 5.234375 12.296875 -2 22.90625 -2 
C 34 -2 42.5 6.71875 42.5 16.953125 
C 42.5 26.671875 34.5 33.703125 25 34.796875 
C 32.59375 36.375 39.90625 43.0625 39.90625 52.015625 
C 39.90625 59.6875 32 65.296875 23 65.296875 
C 13.90625 65.296875 5.90625 59.828125 5.90625 52.015625 
C 5.90625 48.59375 8.5 48 9.796875 48 
C 11.90625 48 13.703125 49.296875 13.703125 51.890625 
C 13.703125 54.46875 11.90625 55.765625 9.796875 55.765625 
C 9.40625 55.765625 8.90625 55.765625 8.5 55.578125 
C 11.40625 61.859375 19.296875 63 22.796875 63 
C 26.296875 63 32.90625 61.328125 32.90625 51.875 
C 32.90625 49.109375 32.5 44.1875 29.09375 39.84375 
C 26.09375 36 22.703125 36 19.40625 35.6875 
C 18.90625 35.6875 16.59375 35.453125 16.203125 35.453125 
C 15.5 35.359375 15.09375 35.265625 15.09375 34.5 
C 15.09375 33.796875 15.203125 33.703125 17.203125 33.703125 
z
" id="CMR17-51"/>
      </defs>
      <g transform="translate(61.899008 329.558719)scale(0.16 -0.16)">
       <use transform="scale(0.996264)" xlink:href="#CMSY10-0"/>
       <use transform="translate(77.487468 0)scale(0.996264)" xlink:href="#CMR17-51"/>
      </g>
     </g>
    </g>
    <g id="xtick_2">
     <g id="line2d_2">
      <g>
       <use style="stroke:#000000;stroke-width:0.8;" x="131.52" xlink:href="#m94b4211e8b" y="311.48913"/>
      </g>
     </g>
     <g id="text_2">
      <!-- $-2$ -->
      <defs>
       <path d="M 41.703125 15.453125 
L 39.90625 15.453125 
C 38.90625 8.375 38.09375 7.171875 37.703125 6.5625 
C 37.203125 5.765625 30 5.765625 28.59375 5.765625 
L 9.40625 5.765625 
C 13 9.671875 20 16.75 28.5 24.953125 
C 34.59375 30.734375 41.703125 37.53125 41.703125 47.421875 
C 41.703125 59.21875 32.296875 66 21.796875 66 
C 10.796875 66 4.09375 56.3125 4.09375 47.34375 
C 4.09375 43.4375 7 42.9375 8.203125 42.9375 
C 9.203125 42.9375 12.203125 43.546875 12.203125 47.03125 
C 12.203125 50.109375 9.59375 51 8.203125 51 
C 7.59375 51 7 50.90625 6.59375 50.703125 
C 8.5 59.21875 14.296875 63.40625 20.40625 63.40625 
C 29.09375 63.40625 34.796875 56.515625 34.796875 47.421875 
C 34.796875 38.734375 29.703125 31.25 24 24.75 
L 4.09375 2.28125 
L 4.09375 0 
L 39.296875 0 
z
" id="CMR17-50"/>
      </defs>
      <g transform="translate(121.419008 329.558719)scale(0.16 -0.16)">
       <use transform="scale(0.996264)" xlink:href="#CMSY10-0"/>
       <use transform="translate(77.487468 0)scale(0.996264)" xlink:href="#CMR17-50"/>
      </g>
     </g>
    </g>
    <g id="xtick_3">
     <g id="line2d_3">
      <g>
       <use style="stroke:#000000;stroke-width:0.8;" x="191.04" xlink:href="#m94b4211e8b" y="311.48913"/>
      </g>
     </g>
     <g id="text_3">
      <!-- $-1$ -->
      <defs>
       <path d="M 26.59375 63.40625 
C 26.59375 65.5 26.5 65.5 25.09375 65.5 
C 21.203125 61.1875 15.296875 59.796875 9.703125 59.796875 
C 9.40625 59.796875 8.90625 59.796875 8.796875 59.5 
C 8.703125 59.296875 8.703125 59.09375 8.703125 57 
C 11.796875 57 17 57.59375 21 59.984375 
L 21 7.203125 
C 21 3.6875 20.796875 2.5 12.203125 2.5 
L 9.203125 2.5 
L 9.203125 0 
C 14 0 19 0 23.796875 0 
C 28.59375 0 33.59375 0 38.40625 0 
L 38.40625 2.5 
L 35.40625 2.5 
C 26.796875 2.5 26.59375 3.59375 26.59375 7.15625 
z
" id="CMR17-49"/>
      </defs>
      <g transform="translate(180.939008 329.558719)scale(0.16 -0.16)">
       <use transform="scale(0.996264)" xlink:href="#CMSY10-0"/>
       <use transform="translate(77.487468 0)scale(0.996264)" xlink:href="#CMR17-49"/>
      </g>
     </g>
    </g>
    <g id="xtick_4">
     <g id="line2d_4">
      <g>
       <use style="stroke:#000000;stroke-width:0.8;" x="250.56" xlink:href="#m94b4211e8b" y="311.48913"/>
      </g>
     </g>
     <g id="text_4">
      <!-- $0$ -->
      <defs>
       <path d="M 42 31.640625 
C 42 37.75 41.90625 48.125 37.703125 56.109375 
C 34 63.109375 28.09375 65.59375 22.90625 65.59375 
C 18.09375 65.59375 12 63.40625 8.203125 56.203125 
C 4.203125 48.71875 3.796875 39.4375 3.796875 31.640625 
C 3.796875 25.953125 3.90625 17.28125 7 9.671875 
C 11.296875 -0.609375 19 -2 22.90625 -2 
C 27.5 -2 34.5 -0.109375 38.59375 9.375 
C 41.59375 16.28125 42 24.359375 42 31.640625 
M 22.90625 -0.40625 
C 16.5 -0.40625 12.703125 5.078125 11.296875 12.6875 
C 10.203125 18.5625 10.203125 27.15625 10.203125 32.75 
C 10.203125 40.4375 10.203125 46.828125 11.5 52.921875 
C 13.40625 61.390625 19 64 22.90625 64 
C 27 64 32.296875 61.296875 34.203125 53.125 
C 35.5 47.4375 35.59375 40.734375 35.59375 32.75 
C 35.59375 26.25 35.59375 18.265625 34.40625 12.375 
C 32.296875 1.484375 26.40625 -0.40625 22.90625 -0.40625 
" id="CMR17-48"/>
      </defs>
      <g transform="translate(246.658006 329.558719)scale(0.16 -0.16)">
       <use transform="scale(0.996264)" xlink:href="#CMR17-48"/>
      </g>
     </g>
    </g>
    <g id="xtick_5">
     <g id="line2d_5">
      <g>
       <use style="stroke:#000000;stroke-width:0.8;" x="310.08" xlink:href="#m94b4211e8b" y="311.48913"/>
      </g>
     </g>
     <g id="text_5">
      <!-- $1$ -->
      <g transform="translate(306.178006 329.558719)scale(0.16 -0.16)">
       <use transform="scale(0.996264)" xlink:href="#CMR17-49"/>
      </g>
     </g>
    </g>
    <g id="xtick_6">
     <g id="line2d_6">
      <g>
       <use style="stroke:#000000;stroke-width:0.8;" x="369.6" xlink:href="#m94b4211e8b" y="311.48913"/>
      </g>
     </g>
     <g id="text_6">
      <!-- $2$ -->
      <g transform="translate(365.698006 329.558719)scale(0.16 -0.16)">
       <use transform="scale(0.996264)" xlink:href="#CMR17-50"/>
      </g>
     </g>
    </g>
    <g id="xtick_7">
     <g id="line2d_7">
      <g>
       <use style="stroke:#000000;stroke-width:0.8;" x="429.12" xlink:href="#m94b4211e8b" y="311.48913"/>
      </g>
     </g>
     <g id="text_7">
      <!-- $3$ -->
      <g transform="translate(425.218006 329.558719)scale(0.16 -0.16)">
       <use transform="scale(0.996264)" xlink:href="#CMR17-51"/>
      </g>
     </g>
    </g>
    <g id="text_8">
     <!-- $x_1$ -->
     <defs>
      <path d="M 47.40625 40.71875 
C 44.203125 40.109375 43 37.71875 43 35.828125 
C 43 33.421875 44.90625 32.625 46.296875 32.625 
C 49.296875 32.625 51.40625 35.21875 51.40625 37.921875 
C 51.40625 42.109375 46.59375 44 42.40625 44 
C 36.296875 44 32.90625 38.015625 32 36.125 
C 29.703125 44 23.5 44 21.703125 44 
C 11.5 44 6.09375 30.9375 6.09375 28.734375 
C 6.09375 28.34375 6.5 27.84375 7.203125 27.84375 
C 8 27.84375 8.203125 28.4375 8.40625 28.84375 
C 11.796875 39.921875 18.5 42.015625 21.40625 42.015625 
C 25.90625 42.015625 26.796875 37.8125 26.796875 35.421875 
C 26.796875 33.234375 26.203125 30.9375 25 26.140625 
L 21.59375 12.46875 
C 20.09375 6.484375 17.203125 1 11.90625 1 
C 11.40625 1 8.90625 1 6.796875 2.296875 
C 10.40625 3 11.203125 5.984375 11.203125 7.1875 
C 11.203125 9.1875 9.703125 10.375 7.796875 10.375 
C 5.40625 10.375 2.796875 8.28125 2.796875 5.09375 
C 2.796875 0.890625 7.5 -1 11.796875 -1 
C 16.59375 -1 20 2.796875 22.09375 6.890625 
C 23.703125 1 28.703125 -1 32.40625 -1 
C 42.59375 -1 48 12.078125 48 14.265625 
C 48 14.765625 47.59375 15.171875 47 15.171875 
C 46.09375 15.171875 46 14.671875 45.703125 13.875 
C 43 5.09375 37.203125 1 32.703125 1 
C 29.203125 1 27.296875 3.59375 27.296875 7.6875 
C 27.296875 9.875 27.703125 11.46875 29.296875 18.0625 
L 32.796875 31.625 
C 34.296875 37.625 37.703125 42.015625 42.296875 42.015625 
C 42.5 42.015625 45.296875 42.015625 47.40625 40.71875 
" id="CMMI12-120"/>
     </defs>
     <g transform="translate(243.335741 347.727783)scale(0.16 -0.16)">
      <use transform="translate(0 14.943915)scale(0.996264)" xlink:href="#CMMI12-120"/>
      <use transform="translate(55.43406 0)scale(0.697382)" xlink:href="#CMR17-49"/>
     </g>
    </g>
   </g>
   <g id="matplotlib.axis_2">
    <g id="ytick_1">
     <g id="line2d_8">
      <defs>
       <path d="M 0 0 
L -3.5 0 
" id="me039e7bb49" style="stroke:#000000;stroke-width:0.8;"/>
      </defs>
      <g>
       <use style="stroke:#000000;stroke-width:0.8;" x="72" xlink:href="#me039e7bb49" y="311.48913"/>
      </g>
     </g>
     <g id="text_9">
      <!-- $-10$ -->
      <g transform="translate(36.99403 317.023924)scale(0.16 -0.16)">
       <use transform="scale(0.996264)" xlink:href="#CMSY10-0"/>
       <use transform="translate(77.487468 0)scale(0.996264)" xlink:href="#CMR17-49"/>
       <use transform="translate(123.177945 0)scale(0.996264)" xlink:href="#CMR17-48"/>
      </g>
     </g>
    </g>
    <g id="ytick_2">
     <g id="line2d_9">
      <g>
       <use style="stroke:#000000;stroke-width:0.8;" x="72" xlink:href="#me039e7bb49" y="266.694027"/>
      </g>
     </g>
     <g id="text_10">
      <!-- $-8$ -->
      <defs>
       <path d="M 27.203125 35.375 
C 33.5 38.546875 39.90625 43.328125 39.90625 50.984375 
C 39.90625 60.015625 31.09375 65.296875 23 65.296875 
C 13.90625 65.296875 5.90625 58.734375 5.90625 49.6875 
C 5.90625 47.203125 6.5 42.921875 10.40625 39.140625 
C 11.40625 38.15625 15.59375 35.171875 18.296875 33.28125 
C 13.796875 30.984375 3.296875 25.53125 3.296875 14.59375 
C 3.296875 4.359375 13.09375 -2 22.796875 -2 
C 33.5 -2 42.5 5.65625 42.5 15.78125 
C 42.5 24.84375 36.40625 29.015625 32.40625 31.703125 
z
M 14.09375 44.09375 
C 13.296875 44.59375 9.296875 47.671875 9.296875 52.359375 
C 9.296875 58.421875 15.59375 63 22.796875 63 
C 30.703125 63 36.5 57.4375 36.5 50.96875 
C 36.5 41.703125 26.09375 36.421875 25.59375 36.421875 
C 25.5 36.421875 25.40625 36.421875 24.59375 37.03125 
z
M 32.5 23.734375 
C 34 22.640625 38.796875 19.375 38.796875 13.296875 
C 38.796875 5.953125 31.40625 0.390625 23 0.390625 
C 13.90625 0.390625 7 6.84375 7 14.6875 
C 7 22.546875 13.09375 29.09375 20 32.1875 
z
" id="CMR17-56"/>
      </defs>
      <g transform="translate(44.798017 272.228821)scale(0.16 -0.16)">
       <use transform="scale(0.996264)" xlink:href="#CMSY10-0"/>
       <use transform="translate(77.487468 0)scale(0.996264)" xlink:href="#CMR17-56"/>
      </g>
     </g>
    </g>
    <g id="ytick_3">
     <g id="line2d_10">
      <g>
       <use style="stroke:#000000;stroke-width:0.8;" x="72" xlink:href="#me039e7bb49" y="221.898923"/>
      </g>
     </g>
     <g id="text_11">
      <!-- $-6$ -->
      <defs>
       <path d="M 10.59375 34 
C 10.59375 57.65625 21.796875 63 28.296875 63 
C 30.40625 63 35.5 62.640625 37.5 59 
C 35.90625 59 32.90625 59 32.90625 55.515625 
C 32.90625 52.828125 35.09375 51.921875 36.5 51.921875 
C 37.40625 51.921875 40.09375 52.3125 40.09375 55.625 
C 40.09375 61.78125 35.09375 65.296875 28.203125 65.296875 
C 16.296875 65.296875 3.796875 52.96875 3.796875 31 
C 3.796875 3.953125 15.09375 -2 23.09375 -2 
C 32.796875 -2 42 6.671875 42 20.046875 
C 42 32.515625 33.90625 41.59375 23.703125 41.59375 
C 17.59375 41.59375 13.09375 37.609375 10.59375 30.625 
z
M 23.09375 0.390625 
C 10.796875 0.390625 10.796875 18.75 10.796875 22.4375 
C 10.796875 29.625 14.203125 40 23.5 40 
C 25.203125 40 30.09375 40 33.40625 33.125 
C 35.203125 29.21875 35.203125 25.140625 35.203125 20.140625 
C 35.203125 14.75 35.203125 10.78125 33.09375 6.78125 
C 30.90625 2.671875 27.703125 0.390625 23.09375 0.390625 
" id="CMR17-54"/>
      </defs>
      <g transform="translate(44.798017 227.433717)scale(0.16 -0.16)">
       <use transform="scale(0.996264)" xlink:href="#CMSY10-0"/>
       <use transform="translate(77.487468 0)scale(0.996264)" xlink:href="#CMR17-54"/>
      </g>
     </g>
    </g>
    <g id="ytick_4">
     <g id="line2d_11">
      <g>
       <use style="stroke:#000000;stroke-width:0.8;" x="72" xlink:href="#me039e7bb49" y="177.10382"/>
      </g>
     </g>
     <g id="text_12">
      <!-- $-4$ -->
      <defs>
       <path d="M 33.59375 64.40625 
C 33.59375 66.5 33.5 66.5 31.703125 66.5 
L 2 19.59375 
L 2 17 
L 27.796875 17 
L 27.796875 7.140625 
C 27.796875 3.5 27.59375 2.5 20.59375 2.5 
L 18.703125 2.5 
L 18.703125 0 
C 21.90625 0 27.296875 0 30.703125 0 
C 34.09375 0 39.5 0 42.703125 0 
L 42.703125 2.5 
L 40.796875 2.5 
C 33.796875 2.5 33.59375 3.5 33.59375 7.140625 
L 33.59375 17 
L 43.796875 17 
L 43.796875 19.59375 
L 33.59375 19.59375 
z
M 28.09375 57.859375 
L 28.09375 19.59375 
L 4 19.59375 
z
" id="CMR17-52"/>
      </defs>
      <g transform="translate(44.798017 182.638614)scale(0.16 -0.16)">
       <use transform="scale(0.996264)" xlink:href="#CMSY10-0"/>
       <use transform="translate(77.487468 0)scale(0.996264)" xlink:href="#CMR17-52"/>
      </g>
     </g>
    </g>
    <g id="ytick_5">
     <g id="line2d_12">
      <g>
       <use style="stroke:#000000;stroke-width:0.8;" x="72" xlink:href="#me039e7bb49" y="132.308716"/>
      </g>
     </g>
     <g id="text_13">
      <!-- $-2$ -->
      <g transform="translate(44.798017 137.84351)scale(0.16 -0.16)">
       <use transform="scale(0.996264)" xlink:href="#CMSY10-0"/>
       <use transform="translate(77.487468 0)scale(0.996264)" xlink:href="#CMR17-50"/>
      </g>
     </g>
    </g>
    <g id="ytick_6">
     <g id="line2d_13">
      <g>
       <use style="stroke:#000000;stroke-width:0.8;" x="72" xlink:href="#me039e7bb49" y="87.513613"/>
      </g>
     </g>
     <g id="text_14">
      <!-- $0$ -->
      <g transform="translate(57.196013 93.048407)scale(0.16 -0.16)">
       <use transform="scale(0.996264)" xlink:href="#CMR17-48"/>
      </g>
     </g>
    </g>
    <g id="ytick_7">
     <g id="line2d_14">
      <g>
       <use style="stroke:#000000;stroke-width:0.8;" x="72" xlink:href="#me039e7bb49" y="42.718509"/>
      </g>
     </g>
     <g id="text_15">
      <!-- $2$ -->
      <g transform="translate(57.196013 48.253303)scale(0.16 -0.16)">
       <use transform="scale(0.996264)" xlink:href="#CMR17-50"/>
      </g>
     </g>
    </g>
    <g id="text_16">
     <!-- $x_2$ -->
     <g transform="translate(29.894554 184.328079)rotate(-90)scale(0.16 -0.16)">
      <use transform="translate(0 14.943915)scale(0.996264)" xlink:href="#CMMI12-120"/>
      <use transform="translate(55.43406 0)scale(0.697382)" xlink:href="#CMR17-50"/>
     </g>
    </g>
   </g>
   <g id="LineCollection_1">
    <path clip-path="url(#pe85fb389cb)" d="M 104.338681 311.48913 
L 114.630771 287.727377 
L 116.511146 283.612725 
L 118.193238 279.930928 
L 122.149318 271.515421 
L 123.918467 267.833624 
L 130.005798 255.532251 
L 133.988351 247.84678 
L 136.507094 243.113047 
L 141.424417 234.17155 
L 146.079688 226.058653 
L 155.304877 211.028877 
L 160.852861 202.613359 
L 167.045635 193.754331 
L 174.733149 183.520435 
L 181.877084 174.736954 
L 186.613858 169.280309 
L 193.267787 162.113681 
L 197.437243 157.905917 
L 201.290023 154.203786 
L 207.124082 148.96443 
L 211.773 145.081422 
L 216.939956 141.07488 
L 221.557101 137.764816 
L 226.090197 134.763244 
L 231.341216 131.587324 
L 236.233266 128.926367 
L 241.125316 126.549133 
L 245.318504 124.726868 
L 250.778813 122.665929 
L 255.801481 121.076054 
L 260.693546 119.815038 
L 264.886734 118.944261 
L 269.778784 118.194585 
L 273.971972 117.765724 
L 278.864037 117.519669 
L 283.057225 117.527718 
L 287.250413 117.737317 
L 291.443601 118.145362 
L 295.636789 118.752529 
L 299.829977 119.554026 
L 304.722027 120.747298 
L 309.425583 122.139961 
L 314.506156 123.928854 
L 318.69933 125.616744 
L 322.892532 127.495926 
L 327.973276 130.029522 
L 333.375495 133.028523 
L 337.966614 135.81518 
L 343.555728 139.496976 
L 349.449385 143.705234 
L 355.627872 148.438463 
L 370.244581 160.009799 
L 371.114202 160.542244 
L 371.813064 160.789202 
L 372.378464 160.535767 
L 372.391858 160.009799 
L 371.813064 158.338601 
L 369.842183 154.750099 
L 367.828995 151.594281 
L 365.288449 147.912495 
L 362.028963 143.501256 
L 357.835761 138.212496 
L 354.022679 133.711308 
L 349.250738 128.451597 
L 344.557349 123.654732 
L 340.364147 119.665717 
L 336.642504 116.354293 
L 331.977771 112.505357 
L 327.784568 109.323774 
L 323.522472 106.36086 
L 319.372135 103.73102 
L 315.205019 101.338645 
L 310.312954 98.858108 
L 305.83554 96.893416 
L 302.62544 95.655849 
L 298.401693 94.263556 
L 294.937927 93.304408 
L 290.045862 92.246375 
L 285.852674 91.612963 
L 282.358348 91.269066 
L 278.16516 91.09521 
L 273.971972 91.163042 
L 269.778784 91.477823 
L 265.585596 92.04425 
L 260.693546 93.014475 
L 255.801481 94.325476 
L 252.307156 95.461773 
L 248.113968 97.053187 
L 243.7 98.997288 
L 240.426454 100.610801 
L 236.233266 102.890089 
L 231.341216 105.866352 
L 226.694758 108.990721 
L 222.954825 111.723501 
L 218.404678 115.302357 
L 213.869587 119.153249 
L 209.425692 123.191897 
L 204.037669 128.451597 
L 199.484357 133.185329 
L 193.331479 140.022944 
L 186.296709 148.438463 
L 178.546397 158.431885 
L 169.841092 170.538285 
L 166.243691 175.7889 
L 161.018515 183.67844 
L 150.785466 199.983509 
L 143.896617 211.554845 
L 138.742047 220.496342 
L 126.848023 242.061101 
L 112.147826 270.463485 
L 108.246121 278.353025 
L 105.158847 284.664661 
L 102.051193 291.167654 
L 100.643437 294.132126 
L 99.141802 297.287954 
L 96.672209 302.547633 
L 95.447869 305.177494 
L 92.546221 311.48913 
L 92.546221 311.48913 
" style="fill:none;stroke:#f7fbff;stroke-width:1.5;"/>
   </g>
   <g id="LineCollection_2">
    <path clip-path="url(#pe85fb389cb)" d="M 103.056749 311.48913 
L 106.943257 302.008729 
L 109.595954 295.710029 
L 112.294629 289.398393 
L 115.73471 281.508853 
L 119.973336 272.041388 
L 126.093345 258.892138 
L 131.403523 248.017727 
L 134.682435 241.535133 
L 145.899802 221.02231 
L 148.391938 216.814546 
L 153.278397 208.924995 
L 158.466891 201.035455 
L 169.453063 185.782322 
L 176.99466 176.314868 
L 182.420663 169.961342 
L 187.127426 164.743531 
L 192.903633 158.714045 
L 198.028535 153.698163 
L 203.185457 148.96443 
L 208.278674 144.595424 
L 213.345241 140.548912 
L 218.317053 136.867126 
L 222.954825 133.687255 
L 227.925943 130.55549 
L 232.73894 127.793852 
L 237.546751 125.29579 
L 242.061186 123.191897 
L 247.171886 121.088025 
L 251.608293 119.500283 
L 256.778467 117.932218 
L 261.392408 116.787021 
L 266.292576 115.828325 
L 271.176509 115.144954 
L 276.068573 114.720826 
L 280.960624 114.565059 
L 285.852674 114.668408 
L 290.045862 114.966384 
L 294.937927 115.552652 
L 299.829977 116.391685 
L 304.722027 117.484385 
L 309.614092 118.822145 
L 314.506156 120.396695 
L 319.398192 122.197392 
L 324.989119 124.509906 
L 331.320624 127.399661 
L 341.063009 131.889062 
L 342.460734 132.355802 
L 343.159596 132.507746 
L 343.858458 132.52079 
L 344.391789 132.133394 
L 344.429985 131.607426 
L 344.061579 130.55549 
L 343.145227 128.977565 
L 341.063009 126.23598 
L 338.369622 123.191897 
L 334.700753 119.510121 
L 331.220017 116.354293 
L 327.404817 113.198485 
L 323.198128 110.042657 
L 319.321773 107.412817 
L 315.009758 104.782956 
L 311.011816 102.613313 
L 306.742507 100.575192 
L 302.942472 98.997288 
L 299.131115 97.632938 
L 294.852566 96.367448 
L 291.443601 95.548956 
L 287.250413 94.785403 
L 283.756087 94.342436 
L 279.562899 94.046969 
L 275.369711 94.009383 
L 271.176509 94.230125 
L 266.983321 94.700839 
L 262.790133 95.425997 
L 258.748571 96.367448 
L 255.801481 97.195293 
L 251.608293 98.594642 
L 247.415105 100.243263 
L 243.209105 102.153117 
L 239.102232 104.256988 
L 235.396231 106.36086 
L 231.181059 108.990721 
L 227.148028 111.741942 
L 222.954825 114.847528 
L 218.448767 118.458186 
L 213.869587 122.422041 
L 209.637018 126.347725 
L 204.784349 131.154175 
L 200.3635 135.81518 
L 195.000234 141.835757 
L 190.337954 147.386527 
L 184.906257 154.224131 
L 179.625206 161.245515 
L 173.752848 169.477253 
L 169.084639 176.314868 
L 160.056984 190.236767 
L 142.384376 219.444396 
L 132.040763 237.327379 
L 128.202414 244.164983 
L 125.812596 248.448321 
L 119.563369 259.944084 
L 117.047528 264.677817 
L 111.832663 274.671249 
L 105.706612 286.768554 
L 95.994101 306.755398 
L 93.770578 311.48913 
L 93.770578 311.48913 
" style="fill:none;stroke:#d0e1f2;stroke-width:1.5;"/>
   </g>
   <g id="LineCollection_3">
    <path clip-path="url(#pe85fb389cb)" d="M 102.108866 311.48913 
L 118.981039 269.411528 
L 120.364262 265.203784 
L 120.402813 264.677817 
L 120.221684 264.258846 
L 119.986001 264.677817 
L 119.43552 265.203784 
L 118.36956 266.781688 
L 117.999862 267.307656 
L 111.576771 278.353025 
L 107.601987 285.716597 
L 96.187777 308.333302 
L 94.663567 311.48913 
L 94.663567 311.48913 
" style="fill:none;stroke:#94c4df;stroke-width:1.5;"/>
    <path clip-path="url(#pe85fb389cb)" d="M 183.818394 162.70363 
L 187.335945 160.009799 
L 199.892284 148.707174 
L 204.55211 144.756677 
L 211.074124 139.574707 
L 215.439331 136.341158 
L 220.858239 132.603578 
L 225.750289 129.495814 
L 230.642353 126.644978 
L 235.534404 124.052332 
L 240.426454 121.719172 
L 244.619642 119.926496 
L 249.511707 118.077489 
L 253.704895 116.699637 
L 258.596945 115.332362 
L 262.790133 114.368556 
L 266.983321 113.593464 
L 271.875385 112.928091 
L 276.767436 112.516506 
L 281.659486 112.357335 
L 286.551551 112.445797 
L 291.443601 112.777012 
L 296.335651 113.344027 
L 301.227716 114.135863 
L 306.843621 115.302357 
L 312.409541 116.684239 
L 323.272167 119.510121 
L 324.290257 119.660345 
L 325.687982 119.664645 
L 326.176257 119.510121 
L 326.386844 119.312954 
L 326.540882 118.984154 
L 326.386844 118.222215 
L 325.957016 117.406228 
L 324.989119 116.151011 
L 323.591395 114.668211 
L 321.392557 112.672517 
L 318.69933 110.535606 
L 315.767805 108.464753 
L 312.409541 106.348897 
L 308.644292 104.256988 
L 304.722027 102.36147 
L 301.227716 100.899271 
L 297.367903 99.523256 
L 293.540188 98.397299 
L 290.045862 97.573155 
L 285.852674 96.835986 
L 282.358348 96.428392 
L 278.16516 96.1836 
L 273.971972 96.204854 
L 269.778784 96.489671 
L 265.585596 97.035694 
L 261.392408 97.842506 
L 257.19922 98.90889 
L 253.006032 100.233587 
L 248.81283 101.817214 
L 244.469663 103.73102 
L 240.285906 105.834892 
L 236.233266 108.117281 
L 232.040078 110.734201 
L 227.688126 113.724453 
L 223.482679 116.880261 
L 218.9677 120.562057 
L 214.568449 124.444661 
L 210.341331 128.451597 
L 205.690393 133.185329 
L 201.290023 137.979996 
L 196.392607 143.70473 
L 190.807046 150.813413 
L 186.513771 156.853981 
L 184.260922 160.535767 
L 183.717303 161.587713 
L 183.567529 162.113681 
L 183.657888 162.639649 
L 183.818394 162.70363 
L 183.818394 162.70363 
" style="fill:none;stroke:#94c4df;stroke-width:1.5;"/>
   </g>
   <g id="LineCollection_4">
    <path clip-path="url(#pe85fb389cb)" d="M 101.272538 311.48913 
L 106.379468 297.813922 
L 109.23438 289.398393 
L 109.780086 286.768554 
L 109.738706 286.578325 
L 109.570253 286.768554 
L 109.039844 286.983892 
L 108.863615 287.294522 
L 108.084479 288.346457 
L 107.38297 289.398393 
L 106.244381 291.181446 
L 105.170773 293.08019 
L 104.14778 294.839786 
L 102.252271 298.33989 
L 101.128045 300.443762 
L 96.000463 310.437195 
L 95.474363 311.48913 
L 95.474363 311.48913 
" style="fill:none;stroke:#4a98c9;stroke-width:1.5;"/>
    <path clip-path="url(#pe85fb389cb)" d="M 206.182073 138.703461 
L 206.880936 138.556948 
L 207.116186 138.44503 
L 208.278674 137.894621 
L 211.773 135.778671 
L 223.653702 128.340121 
L 229.973466 124.769822 
L 235.094651 122.139961 
L 239.727592 119.980161 
L 244.619642 117.932216 
L 249.511707 116.125028 
L 254.403757 114.56394 
L 259.50649 113.198485 
L 264.187872 112.178588 
L 269.079922 111.350847 
L 273.971972 110.764139 
L 278.864037 110.412622 
L 283.756087 110.288759 
L 288.648138 110.38119 
L 294.239064 110.726887 
L 300.528839 111.3518 
L 307.517491 112.057866 
L 309.614092 112.060277 
L 310.312954 111.950644 
L 311.126201 111.62056 
L 311.368838 111.094592 
L 311.244561 110.568624 
L 310.496621 109.516689 
L 308.713986 107.938785 
L 306.119766 106.188943 
L 303.640245 104.782956 
L 300.348083 103.205053 
L 296.335651 101.623585 
L 292.841326 100.512269 
L 288.886582 99.523256 
L 285.153812 98.840288 
L 281.659486 98.410183 
L 278.16516 98.180707 
L 274.670835 98.145369 
L 271.176509 98.302361 
L 267.682183 98.650242 
L 264.187872 99.186964 
L 259.994669 100.078497 
L 255.801481 101.24064 
L 251.585749 102.679085 
L 247.415105 104.37135 
L 243.181931 106.36086 
L 239.028729 108.583991 
L 234.835541 111.09972 
L 230.642353 113.898878 
L 226.449151 116.982122 
L 222.255963 120.36634 
L 218.445755 123.717886 
L 214.568449 127.424525 
L 210.62182 131.607426 
L 208.278674 134.370899 
L 206.49332 136.867126 
L 206.158066 137.393094 
L 205.951799 137.919062 
L 205.879626 138.44503 
L 206.182073 138.703461 
L 206.182073 138.703461 
" style="fill:none;stroke:#4a98c9;stroke-width:1.5;"/>
   </g>
   <g id="LineCollection_5">
    <path clip-path="url(#pe85fb389cb)" d="M 100.401105 311.48913 
L 100.593203 310.963162 
L 100.653468 310.801151 
L 100.772541 310.437195 
L 100.943955 309.911227 
L 101.122635 309.385259 
L 101.315882 308.859291 
L 101.35233 308.760794 
L 101.485577 308.333302 
L 101.650633 307.807334 
L 101.824545 307.281366 
L 102.016056 306.755398 
L 102.051193 306.659334 
L 102.176696 306.22943 
L 102.330782 305.703462 
L 102.493566 305.177494 
L 102.674775 304.651526 
L 102.750055 304.440889 
L 102.833837 304.125558 
L 102.96679 303.599591 
L 103.102741 303.073601 
L 103.248084 302.547633 
L 103.418411 302.021665 
L 103.448917 301.920661 
L 103.522578 301.495698 
L 103.588784 300.96973 
L 103.608081 300.443762 
L 103.474676 299.917794 
L 103.448917 299.886801 
L 103.428918 299.917794 
L 102.905403 300.443762 
L 102.750055 300.511661 
L 102.485176 300.96973 
L 102.051193 301.450359 
L 102.027213 301.495698 
L 101.733667 302.021665 
L 101.35233 302.513704 
L 101.334745 302.547633 
L 101.053126 303.073601 
L 100.69307 303.599591 
L 100.653468 303.650476 
L 100.407163 304.125558 
L 100.0857 304.651526 
L 99.954606 304.838759 
L 99.78156 305.177494 
L 99.486635 305.703462 
L 99.255729 306.059811 
L 99.169989 306.22943 
L 98.893246 306.755398 
L 98.57435 307.281366 
L 98.556867 307.308366 
L 98.304862 307.807334 
L 98.012689 308.333302 
L 97.858005 308.587256 
L 97.7217 308.859291 
L 97.446987 309.385259 
L 97.159142 309.8819 
L 97.144533 309.911227 
L 96.880622 310.437195 
L 96.596842 310.963162 
L 96.460266 311.199448 
L 96.316158 311.48913 
" style="fill:none;stroke:#1764ab;stroke-width:1.5;"/>
    <path clip-path="url(#pe85fb389cb)" d="M 225.051427 123.272348 
L 225.750289 123.281582 
L 226.152819 123.191897 
L 227.148028 122.891092 
L 229.244615 122.100702 
L 241.824193 116.807587 
L 246.716243 114.982068 
L 253.006032 112.932731 
L 258.596945 111.407107 
L 263.488995 110.304754 
L 269.079922 109.308646 
L 273.971972 108.659323 
L 279.562899 108.149135 
L 286.551551 107.780065 
L 293.021056 107.412817 
L 294.937927 107.021738 
L 295.332857 106.886849 
L 295.898167 106.36086 
L 295.838458 105.834892 
L 295.430305 105.308924 
L 293.932421 104.256988 
L 291.443601 103.109776 
L 288.648138 102.152793 
L 285.153812 101.296503 
L 282.358348 100.809045 
L 278.864037 100.42211 
L 275.369711 100.267347 
L 271.875385 100.329397 
L 268.38106 100.597884 
L 264.187872 101.198208 
L 259.994669 102.087005 
L 256.500358 103.051602 
L 252.884999 104.256988 
L 248.81283 105.878818 
L 244.429527 107.938785 
L 240.426454 110.116579 
L 236.932128 112.264116 
L 234.007552 114.250421 
L 230.538413 116.880261 
L 227.84689 119.211994 
L 226.449151 120.565407 
L 225.160837 122.139961 
L 224.892547 122.665929 
L 224.920454 123.191897 
L 225.051427 123.272348 
L 225.051427 123.272348 
" style="fill:none;stroke:#1764ab;stroke-width:1.5;"/>
   </g>
   <g id="LineCollection_6">
    <path clip-path="url(#pe85fb389cb)" d="M 99.241324 311.48913 
L 99.255729 311.435949 
L 99.329245 310.963162 
L 99.385815 310.437195 
L 99.392493 309.911227 
L 99.255729 309.403796 
L 98.704667 309.911227 
L 98.556867 309.96784 
L 98.279567 310.437195 
L 97.858005 310.895967 
L 97.822336 310.963162 
L 97.523861 311.48913 
" style="fill:none;stroke:#08306b;stroke-width:1.5;"/>
    <path clip-path="url(#pe85fb389cb)" d="M 250.210569 109.736625 
L 250.909431 109.828254 
L 251.608293 109.766604 
L 252.307156 109.671702 
L 253.006032 109.565346 
L 253.283963 109.516689 
L 253.704895 109.419545 
L 254.403757 109.263976 
L 255.102619 109.122665 
L 255.798323 108.990721 
L 255.801481 108.989944 
L 256.500358 108.812419 
L 257.19922 108.656502 
L 257.898083 108.51444 
L 258.143821 108.464753 
L 258.596945 108.349755 
L 259.295807 108.186539 
L 259.994669 108.039621 
L 260.503029 107.938785 
L 260.693546 107.890707 
L 261.392408 107.72197 
L 262.091271 107.571299 
L 262.790133 107.433694 
L 262.897582 107.412817 
L 263.488995 107.266366 
L 264.187872 107.110427 
L 264.886734 106.969126 
L 265.317065 106.886849 
L 265.585596 106.818783 
L 266.284459 106.653018 
L 266.983321 106.504086 
L 267.682183 106.367742 
L 267.718168 106.36086 
L 268.38106 106.18574 
L 269.079922 106.020807 
L 269.778784 105.870811 
L 269.952174 105.834892 
L 270.477647 105.667343 
L 271.176509 105.467385 
L 271.784648 105.308924 
L 271.875385 105.259826 
L 272.574248 104.917168 
L 272.880615 104.782956 
L 272.822552 104.256988 
L 272.574248 104.181668 
L 271.875385 104.018366 
L 271.176509 103.907789 
L 270.477647 103.840648 
L 269.778784 103.808869 
L 269.079922 103.805666 
L 268.38106 103.825514 
L 267.682183 103.863968 
L 266.983321 103.917511 
L 266.284459 103.983351 
L 265.585596 104.059341 
L 264.886734 104.143828 
L 264.187872 104.235521 
L 264.043174 104.256988 
L 263.488995 104.362751 
L 262.790133 104.498523 
L 262.091271 104.634049 
L 261.392408 104.76979 
L 261.329763 104.782956 
L 260.693546 104.950618 
L 259.994669 105.126497 
L 259.295807 105.29528 
L 259.242426 105.308924 
L 258.596945 105.514159 
L 257.898083 105.719187 
L 257.495271 105.834892 
L 257.19922 105.94272 
L 256.500358 106.185666 
L 255.955736 106.36086 
L 255.801481 106.424923 
L 255.102619 106.703235 
L 254.590833 106.886849 
L 254.403757 106.974857 
L 253.704895 107.279486 
L 253.369985 107.412817 
L 253.006032 107.60495 
L 252.307156 107.919003 
L 252.26207 107.938785 
L 251.608293 108.321099 
L 251.316141 108.464753 
L 250.909431 108.762816 
L 250.521332 108.990721 
L 250.210569 109.342998 
L 250.004123 109.516689 
L 250.210569 109.736625 
" style="fill:none;stroke:#08306b;stroke-width:1.5;"/>
   </g>
   <g id="patch_3">
    <path d="M 72 311.48913 
L 72 42.718509 
" style="fill:none;stroke:#000000;stroke-linecap:square;stroke-linejoin:miter;stroke-width:0.8;"/>
   </g>
   <g id="patch_4">
    <path d="M 429.12 311.48913 
L 429.12 42.718509 
" style="fill:none;stroke:#000000;stroke-linecap:square;stroke-linejoin:miter;stroke-width:0.8;"/>
   </g>
   <g id="patch_5">
    <path d="M 72 311.48913 
L 429.12 311.48913 
" style="fill:none;stroke:#000000;stroke-linecap:square;stroke-linejoin:miter;stroke-width:0.8;"/>
   </g>
   <g id="patch_6">
    <path d="M 72 42.718509 
L 429.12 42.718509 
" style="fill:none;stroke:#000000;stroke-linecap:square;stroke-linejoin:miter;stroke-width:0.8;"/>
   </g>
  </g>
  <g id="axes_2">
   <g id="patch_7">
    <path clip-path="url(#p05995d176a)" d="M 451.44 311.48913 
L 451.44 257.735006 
L 451.44 96.472634 
L 451.44 42.718509 
L 464.878531 42.718509 
L 464.878531 96.472634 
L 464.878531 257.735006 
L 464.878531 311.48913 
z
" style="fill:#ffffff;stroke:#ffffff;stroke-linejoin:miter;stroke-width:0.01;"/>
   </g>
   <g id="matplotlib.axis_3"/>
   <g id="matplotlib.axis_4">
    <g id="ytick_8">
     <g id="line2d_15">
      <defs>
       <path d="M 0 0 
L 3.5 0 
" id="maeac4cc34d" style="stroke:#000000;stroke-width:0.8;"/>
      </defs>
      <g>
       <use style="stroke:#000000;stroke-width:0.8;" x="464.878531" xlink:href="#maeac4cc34d" y="311.48913"/>
      </g>
     </g>
     <g id="text_17">
      <!-- $4$ -->
      <g transform="translate(471.878531 317.023924)scale(0.16 -0.16)">
       <use transform="scale(0.996264)" xlink:href="#CMR17-52"/>
      </g>
     </g>
    </g>
    <g id="ytick_9">
     <g id="line2d_16">
      <g>
       <use style="stroke:#000000;stroke-width:0.8;" x="464.878531" xlink:href="#maeac4cc34d" y="257.735006"/>
      </g>
     </g>
     <g id="text_18">
      <!-- $8$ -->
      <g transform="translate(471.878531 263.2698)scale(0.16 -0.16)">
       <use transform="scale(0.996264)" xlink:href="#CMR17-56"/>
      </g>
     </g>
    </g>
    <g id="ytick_10">
     <g id="line2d_17">
      <g>
       <use style="stroke:#000000;stroke-width:0.8;" x="464.878531" xlink:href="#maeac4cc34d" y="203.980882"/>
      </g>
     </g>
     <g id="text_19">
      <!-- $12$ -->
      <g transform="translate(471.878531 209.515676)scale(0.16 -0.16)">
       <use transform="scale(0.996264)" xlink:href="#CMR17-49"/>
       <use transform="translate(45.690477 0)scale(0.996264)" xlink:href="#CMR17-50"/>
      </g>
     </g>
    </g>
    <g id="ytick_11">
     <g id="line2d_18">
      <g>
       <use style="stroke:#000000;stroke-width:0.8;" x="464.878531" xlink:href="#maeac4cc34d" y="150.226758"/>
      </g>
     </g>
     <g id="text_20">
      <!-- $16$ -->
      <g transform="translate(471.878531 155.761552)scale(0.16 -0.16)">
       <use transform="scale(0.996264)" xlink:href="#CMR17-49"/>
       <use transform="translate(45.690477 0)scale(0.996264)" xlink:href="#CMR17-54"/>
      </g>
     </g>
    </g>
    <g id="ytick_12">
     <g id="line2d_19">
      <g>
       <use style="stroke:#000000;stroke-width:0.8;" x="464.878531" xlink:href="#maeac4cc34d" y="96.472634"/>
      </g>
     </g>
     <g id="text_21">
      <!-- $20$ -->
      <g transform="translate(471.878531 102.007428)scale(0.16 -0.16)">
       <use transform="scale(0.996264)" xlink:href="#CMR17-50"/>
       <use transform="translate(45.690477 0)scale(0.996264)" xlink:href="#CMR17-48"/>
      </g>
     </g>
    </g>
    <g id="ytick_13">
     <g id="line2d_20">
      <g>
       <use style="stroke:#000000;stroke-width:0.8;" x="464.878531" xlink:href="#maeac4cc34d" y="42.718509"/>
      </g>
     </g>
     <g id="text_22">
      <!-- $24$ -->
      <g transform="translate(471.878531 48.253303)scale(0.16 -0.16)">
       <use transform="scale(0.996264)" xlink:href="#CMR17-50"/>
       <use transform="translate(45.690477 0)scale(0.996264)" xlink:href="#CMR17-52"/>
      </g>
     </g>
    </g>
   </g>
   <g id="LineCollection_7">
    <path clip-path="url(#p05995d176a)" d="M 451.44 311.48913 
L 464.878531 311.48913 
" style="fill:none;stroke:#f7fbff;stroke-width:1.5;"/>
    <path clip-path="url(#p05995d176a)" d="M 451.44 257.735006 
L 464.878531 257.735006 
" style="fill:none;stroke:#d0e1f2;stroke-width:1.5;"/>
    <path clip-path="url(#p05995d176a)" d="M 451.44 203.980882 
L 464.878531 203.980882 
" style="fill:none;stroke:#94c4df;stroke-width:1.5;"/>
    <path clip-path="url(#p05995d176a)" d="M 451.44 150.226758 
L 464.878531 150.226758 
" style="fill:none;stroke:#4a98c9;stroke-width:1.5;"/>
    <path clip-path="url(#p05995d176a)" d="M 451.44 96.472634 
L 464.878531 96.472634 
" style="fill:none;stroke:#1764ab;stroke-width:1.5;"/>
    <path clip-path="url(#p05995d176a)" d="M 451.44 42.718509 
L 464.878531 42.718509 
" style="fill:none;stroke:#08306b;stroke-width:1.5;"/>
   </g>
   <g id="patch_8">
    <path d="M 451.44 311.48913 
L 451.44 257.735006 
L 451.44 96.472634 
L 451.44 42.718509 
L 464.878531 42.718509 
L 464.878531 96.472634 
L 464.878531 257.735006 
L 464.878531 311.48913 
z
" style="fill:none;stroke:#000000;stroke-linejoin:miter;stroke-width:0.8;"/>
   </g>
  </g>
 </g>
 <defs>
  <clipPath id="pe85fb389cb">
   <rect height="268.770621" width="357.12" x="72" y="42.718509"/>
  </clipPath>
  <clipPath id="p05995d176a">
   <rect height="268.770621" width="13.438531" x="451.44" y="42.718509"/>
  </clipPath>
 </defs>
</svg>
