<?xml version="1.0" encoding="utf-8" standalone="no"?>
<!DOCTYPE svg PUBLIC "-//W3C//DTD SVG 1.1//EN"
  "http://www.w3.org/Graphics/SVG/1.1/DTD/svg11.dtd">
<!-- Created with matplotlib (http://matplotlib.org/) -->
<svg height="355pt" version="1.1" viewBox="0 0 576 355" width="576pt" xmlns="http://www.w3.org/2000/svg" xmlns:xlink="http://www.w3.org/1999/xlink">
 <defs>
  <style type="text/css">
*{stroke-linecap:butt;stroke-linejoin:round;}
  </style>
 </defs>
 <g id="figure_1">
  <g id="patch_1">
   <path d="M 0 355.987578 
L 576 355.987578 
L 576 0 
L 0 0 
z
" style="fill:#ffffff;"/>
  </g>
  <g id="axes_1">
   <g id="patch_2">
    <path d="M 72 311.48913 
L 429.12 311.48913 
L 429.12 42.718509 
L 72 42.718509 
z
" style="fill:#ffffff;"/>
   </g>
   <g id="matplotlib.axis_1">
    <g id="xtick_1">
     <g id="line2d_1">
      <defs>
       <path d="M 0 0 
L 0 3.5 
" id="m0d7f6c5d8c" style="stroke:#000000;stroke-width:0.8;"/>
      </defs>
      <g>
       <use style="stroke:#000000;stroke-width:0.8;" x="72" xlink:href="#m0d7f6c5d8c" y="311.48913"/>
      </g>
     </g>
     <g id="text_1">
      <!-- $-3$ -->
      <defs>
       <path d="M 65.90625 23 
C 67.59375 23 69.40625 23 69.40625 25 
C 69.40625 27 67.59375 27 65.90625 27 
L 11.796875 27 
C 10.09375 27 8.296875 27 8.296875 25 
C 8.296875 23 10.09375 23 11.796875 23 
z
" id="CMSY10-0"/>
       <path d="M 22.09375 33.703125 
C 31 33.703125 34.90625 25.96875 34.90625 17.03125 
C 34.90625 5 28.5 0.390625 22.703125 0.390625 
C 17.40625 0.390625 8.796875 3.03125 6.09375 10.828125 
C 6.59375 10.625 7.09375 10.625 7.59375 10.625 
C 10 10.625 11.796875 12.21875 11.796875 14.8125 
C 11.796875 17.703125 9.59375 19 7.59375 19 
C 5.90625 19 3.296875 18.203125 3.296875 14.46875 
C 3.296875 5.234375 12.296875 -2 22.90625 -2 
C 34 -2 42.5 6.71875 42.5 16.953125 
C 42.5 26.671875 34.5 33.703125 25 34.796875 
C 32.59375 36.375 39.90625 43.0625 39.90625 52.015625 
C 39.90625 59.6875 32 65.296875 23 65.296875 
C 13.90625 65.296875 5.90625 59.828125 5.90625 52.015625 
C 5.90625 48.59375 8.5 48 9.796875 48 
C 11.90625 48 13.703125 49.296875 13.703125 51.890625 
C 13.703125 54.46875 11.90625 55.765625 9.796875 55.765625 
C 9.40625 55.765625 8.90625 55.765625 8.5 55.578125 
C 11.40625 61.859375 19.296875 63 22.796875 63 
C 26.296875 63 32.90625 61.328125 32.90625 51.875 
C 32.90625 49.109375 32.5 44.1875 29.09375 39.84375 
C 26.09375 36 22.703125 36 19.40625 35.6875 
C 18.90625 35.6875 16.59375 35.453125 16.203125 35.453125 
C 15.5 35.359375 15.09375 35.265625 15.09375 34.5 
C 15.09375 33.796875 15.203125 33.703125 17.203125 33.703125 
z
" id="CMR17-51"/>
      </defs>
      <g transform="translate(61.899008 329.558719)scale(0.16 -0.16)">
       <use transform="scale(0.996264)" xlink:href="#CMSY10-0"/>
       <use transform="translate(77.487468 0)scale(0.996264)" xlink:href="#CMR17-51"/>
      </g>
     </g>
    </g>
    <g id="xtick_2">
     <g id="line2d_2">
      <g>
       <use style="stroke:#000000;stroke-width:0.8;" x="131.52" xlink:href="#m0d7f6c5d8c" y="311.48913"/>
      </g>
     </g>
     <g id="text_2">
      <!-- $-2$ -->
      <defs>
       <path d="M 41.703125 15.453125 
L 39.90625 15.453125 
C 38.90625 8.375 38.09375 7.171875 37.703125 6.5625 
C 37.203125 5.765625 30 5.765625 28.59375 5.765625 
L 9.40625 5.765625 
C 13 9.671875 20 16.75 28.5 24.953125 
C 34.59375 30.734375 41.703125 37.53125 41.703125 47.421875 
C 41.703125 59.21875 32.296875 66 21.796875 66 
C 10.796875 66 4.09375 56.3125 4.09375 47.34375 
C 4.09375 43.4375 7 42.9375 8.203125 42.9375 
C 9.203125 42.9375 12.203125 43.546875 12.203125 47.03125 
C 12.203125 50.109375 9.59375 51 8.203125 51 
C 7.59375 51 7 50.90625 6.59375 50.703125 
C 8.5 59.21875 14.296875 63.40625 20.40625 63.40625 
C 29.09375 63.40625 34.796875 56.515625 34.796875 47.421875 
C 34.796875 38.734375 29.703125 31.25 24 24.75 
L 4.09375 2.28125 
L 4.09375 0 
L 39.296875 0 
z
" id="CMR17-50"/>
      </defs>
      <g transform="translate(121.419008 329.558719)scale(0.16 -0.16)">
       <use transform="scale(0.996264)" xlink:href="#CMSY10-0"/>
       <use transform="translate(77.487468 0)scale(0.996264)" xlink:href="#CMR17-50"/>
      </g>
     </g>
    </g>
    <g id="xtick_3">
     <g id="line2d_3">
      <g>
       <use style="stroke:#000000;stroke-width:0.8;" x="191.04" xlink:href="#m0d7f6c5d8c" y="311.48913"/>
      </g>
     </g>
     <g id="text_3">
      <!-- $-1$ -->
      <defs>
       <path d="M 26.59375 63.40625 
C 26.59375 65.5 26.5 65.5 25.09375 65.5 
C 21.203125 61.1875 15.296875 59.796875 9.703125 59.796875 
C 9.40625 59.796875 8.90625 59.796875 8.796875 59.5 
C 8.703125 59.296875 8.703125 59.09375 8.703125 57 
C 11.796875 57 17 57.59375 21 59.984375 
L 21 7.203125 
C 21 3.6875 20.796875 2.5 12.203125 2.5 
L 9.203125 2.5 
L 9.203125 0 
C 14 0 19 0 23.796875 0 
C 28.59375 0 33.59375 0 38.40625 0 
L 38.40625 2.5 
L 35.40625 2.5 
C 26.796875 2.5 26.59375 3.59375 26.59375 7.15625 
z
" id="CMR17-49"/>
      </defs>
      <g transform="translate(180.939008 329.558719)scale(0.16 -0.16)">
       <use transform="scale(0.996264)" xlink:href="#CMSY10-0"/>
       <use transform="translate(77.487468 0)scale(0.996264)" xlink:href="#CMR17-49"/>
      </g>
     </g>
    </g>
    <g id="xtick_4">
     <g id="line2d_4">
      <g>
       <use style="stroke:#000000;stroke-width:0.8;" x="250.56" xlink:href="#m0d7f6c5d8c" y="311.48913"/>
      </g>
     </g>
     <g id="text_4">
      <!-- $0$ -->
      <defs>
       <path d="M 42 31.640625 
C 42 37.75 41.90625 48.125 37.703125 56.109375 
C 34 63.109375 28.09375 65.59375 22.90625 65.59375 
C 18.09375 65.59375 12 63.40625 8.203125 56.203125 
C 4.203125 48.71875 3.796875 39.4375 3.796875 31.640625 
C 3.796875 25.953125 3.90625 17.28125 7 9.671875 
C 11.296875 -0.609375 19 -2 22.90625 -2 
C 27.5 -2 34.5 -0.109375 38.59375 9.375 
C 41.59375 16.28125 42 24.359375 42 31.640625 
M 22.90625 -0.40625 
C 16.5 -0.40625 12.703125 5.078125 11.296875 12.6875 
C 10.203125 18.5625 10.203125 27.15625 10.203125 32.75 
C 10.203125 40.4375 10.203125 46.828125 11.5 52.921875 
C 13.40625 61.390625 19 64 22.90625 64 
C 27 64 32.296875 61.296875 34.203125 53.125 
C 35.5 47.4375 35.59375 40.734375 35.59375 32.75 
C 35.59375 26.25 35.59375 18.265625 34.40625 12.375 
C 32.296875 1.484375 26.40625 -0.40625 22.90625 -0.40625 
" id="CMR17-48"/>
      </defs>
      <g transform="translate(246.658006 329.558719)scale(0.16 -0.16)">
       <use transform="scale(0.996264)" xlink:href="#CMR17-48"/>
      </g>
     </g>
    </g>
    <g id="xtick_5">
     <g id="line2d_5">
      <g>
       <use style="stroke:#000000;stroke-width:0.8;" x="310.08" xlink:href="#m0d7f6c5d8c" y="311.48913"/>
      </g>
     </g>
     <g id="text_5">
      <!-- $1$ -->
      <g transform="translate(306.178006 329.558719)scale(0.16 -0.16)">
       <use transform="scale(0.996264)" xlink:href="#CMR17-49"/>
      </g>
     </g>
    </g>
    <g id="xtick_6">
     <g id="line2d_6">
      <g>
       <use style="stroke:#000000;stroke-width:0.8;" x="369.6" xlink:href="#m0d7f6c5d8c" y="311.48913"/>
      </g>
     </g>
     <g id="text_6">
      <!-- $2$ -->
      <g transform="translate(365.698006 329.558719)scale(0.16 -0.16)">
       <use transform="scale(0.996264)" xlink:href="#CMR17-50"/>
      </g>
     </g>
    </g>
    <g id="xtick_7">
     <g id="line2d_7">
      <g>
       <use style="stroke:#000000;stroke-width:0.8;" x="429.12" xlink:href="#m0d7f6c5d8c" y="311.48913"/>
      </g>
     </g>
     <g id="text_7">
      <!-- $3$ -->
      <g transform="translate(425.218006 329.558719)scale(0.16 -0.16)">
       <use transform="scale(0.996264)" xlink:href="#CMR17-51"/>
      </g>
     </g>
    </g>
    <g id="text_8">
     <!-- $x_1$ -->
     <defs>
      <path d="M 47.40625 40.71875 
C 44.203125 40.109375 43 37.71875 43 35.828125 
C 43 33.421875 44.90625 32.625 46.296875 32.625 
C 49.296875 32.625 51.40625 35.21875 51.40625 37.921875 
C 51.40625 42.109375 46.59375 44 42.40625 44 
C 36.296875 44 32.90625 38.015625 32 36.125 
C 29.703125 44 23.5 44 21.703125 44 
C 11.5 44 6.09375 30.9375 6.09375 28.734375 
C 6.09375 28.34375 6.5 27.84375 7.203125 27.84375 
C 8 27.84375 8.203125 28.4375 8.40625 28.84375 
C 11.796875 39.921875 18.5 42.015625 21.40625 42.015625 
C 25.90625 42.015625 26.796875 37.8125 26.796875 35.421875 
C 26.796875 33.234375 26.203125 30.9375 25 26.140625 
L 21.59375 12.46875 
C 20.09375 6.484375 17.203125 1 11.90625 1 
C 11.40625 1 8.90625 1 6.796875 2.296875 
C 10.40625 3 11.203125 5.984375 11.203125 7.1875 
C 11.203125 9.1875 9.703125 10.375 7.796875 10.375 
C 5.40625 10.375 2.796875 8.28125 2.796875 5.09375 
C 2.796875 0.890625 7.5 -1 11.796875 -1 
C 16.59375 -1 20 2.796875 22.09375 6.890625 
C 23.703125 1 28.703125 -1 32.40625 -1 
C 42.59375 -1 48 12.078125 48 14.265625 
C 48 14.765625 47.59375 15.171875 47 15.171875 
C 46.09375 15.171875 46 14.671875 45.703125 13.875 
C 43 5.09375 37.203125 1 32.703125 1 
C 29.203125 1 27.296875 3.59375 27.296875 7.6875 
C 27.296875 9.875 27.703125 11.46875 29.296875 18.0625 
L 32.796875 31.625 
C 34.296875 37.625 37.703125 42.015625 42.296875 42.015625 
C 42.5 42.015625 45.296875 42.015625 47.40625 40.71875 
" id="CMMI12-120"/>
     </defs>
     <g transform="translate(243.335741 347.727783)scale(0.16 -0.16)">
      <use transform="translate(0 14.943915)scale(0.996264)" xlink:href="#CMMI12-120"/>
      <use transform="translate(55.43406 0)scale(0.697382)" xlink:href="#CMR17-49"/>
     </g>
    </g>
   </g>
   <g id="matplotlib.axis_2">
    <g id="ytick_1">
     <g id="line2d_8">
      <defs>
       <path d="M 0 0 
L -3.5 0 
" id="mcb5c3aed91" style="stroke:#000000;stroke-width:0.8;"/>
      </defs>
      <g>
       <use style="stroke:#000000;stroke-width:0.8;" x="72" xlink:href="#mcb5c3aed91" y="311.48913"/>
      </g>
     </g>
     <g id="text_9">
      <!-- $-10$ -->
      <g transform="translate(36.99403 317.023924)scale(0.16 -0.16)">
       <use transform="scale(0.996264)" xlink:href="#CMSY10-0"/>
       <use transform="translate(77.487468 0)scale(0.996264)" xlink:href="#CMR17-49"/>
       <use transform="translate(123.177945 0)scale(0.996264)" xlink:href="#CMR17-48"/>
      </g>
     </g>
    </g>
    <g id="ytick_2">
     <g id="line2d_9">
      <g>
       <use style="stroke:#000000;stroke-width:0.8;" x="72" xlink:href="#mcb5c3aed91" y="266.694027"/>
      </g>
     </g>
     <g id="text_10">
      <!-- $-8$ -->
      <defs>
       <path d="M 27.203125 35.375 
C 33.5 38.546875 39.90625 43.328125 39.90625 50.984375 
C 39.90625 60.015625 31.09375 65.296875 23 65.296875 
C 13.90625 65.296875 5.90625 58.734375 5.90625 49.6875 
C 5.90625 47.203125 6.5 42.921875 10.40625 39.140625 
C 11.40625 38.15625 15.59375 35.171875 18.296875 33.28125 
C 13.796875 30.984375 3.296875 25.53125 3.296875 14.59375 
C 3.296875 4.359375 13.09375 -2 22.796875 -2 
C 33.5 -2 42.5 5.65625 42.5 15.78125 
C 42.5 24.84375 36.40625 29.015625 32.40625 31.703125 
z
M 14.09375 44.09375 
C 13.296875 44.59375 9.296875 47.671875 9.296875 52.359375 
C 9.296875 58.421875 15.59375 63 22.796875 63 
C 30.703125 63 36.5 57.4375 36.5 50.96875 
C 36.5 41.703125 26.09375 36.421875 25.59375 36.421875 
C 25.5 36.421875 25.40625 36.421875 24.59375 37.03125 
z
M 32.5 23.734375 
C 34 22.640625 38.796875 19.375 38.796875 13.296875 
C 38.796875 5.953125 31.40625 0.390625 23 0.390625 
C 13.90625 0.390625 7 6.84375 7 14.6875 
C 7 22.546875 13.09375 29.09375 20 32.1875 
z
" id="CMR17-56"/>
      </defs>
      <g transform="translate(44.798017 272.228821)scale(0.16 -0.16)">
       <use transform="scale(0.996264)" xlink:href="#CMSY10-0"/>
       <use transform="translate(77.487468 0)scale(0.996264)" xlink:href="#CMR17-56"/>
      </g>
     </g>
    </g>
    <g id="ytick_3">
     <g id="line2d_10">
      <g>
       <use style="stroke:#000000;stroke-width:0.8;" x="72" xlink:href="#mcb5c3aed91" y="221.898923"/>
      </g>
     </g>
     <g id="text_11">
      <!-- $-6$ -->
      <defs>
       <path d="M 10.59375 34 
C 10.59375 57.65625 21.796875 63 28.296875 63 
C 30.40625 63 35.5 62.640625 37.5 59 
C 35.90625 59 32.90625 59 32.90625 55.515625 
C 32.90625 52.828125 35.09375 51.921875 36.5 51.921875 
C 37.40625 51.921875 40.09375 52.3125 40.09375 55.625 
C 40.09375 61.78125 35.09375 65.296875 28.203125 65.296875 
C 16.296875 65.296875 3.796875 52.96875 3.796875 31 
C 3.796875 3.953125 15.09375 -2 23.09375 -2 
C 32.796875 -2 42 6.671875 42 20.046875 
C 42 32.515625 33.90625 41.59375 23.703125 41.59375 
C 17.59375 41.59375 13.09375 37.609375 10.59375 30.625 
z
M 23.09375 0.390625 
C 10.796875 0.390625 10.796875 18.75 10.796875 22.4375 
C 10.796875 29.625 14.203125 40 23.5 40 
C 25.203125 40 30.09375 40 33.40625 33.125 
C 35.203125 29.21875 35.203125 25.140625 35.203125 20.140625 
C 35.203125 14.75 35.203125 10.78125 33.09375 6.78125 
C 30.90625 2.671875 27.703125 0.390625 23.09375 0.390625 
" id="CMR17-54"/>
      </defs>
      <g transform="translate(44.798017 227.433717)scale(0.16 -0.16)">
       <use transform="scale(0.996264)" xlink:href="#CMSY10-0"/>
       <use transform="translate(77.487468 0)scale(0.996264)" xlink:href="#CMR17-54"/>
      </g>
     </g>
    </g>
    <g id="ytick_4">
     <g id="line2d_11">
      <g>
       <use style="stroke:#000000;stroke-width:0.8;" x="72" xlink:href="#mcb5c3aed91" y="177.10382"/>
      </g>
     </g>
     <g id="text_12">
      <!-- $-4$ -->
      <defs>
       <path d="M 33.59375 64.40625 
C 33.59375 66.5 33.5 66.5 31.703125 66.5 
L 2 19.59375 
L 2 17 
L 27.796875 17 
L 27.796875 7.140625 
C 27.796875 3.5 27.59375 2.5 20.59375 2.5 
L 18.703125 2.5 
L 18.703125 0 
C 21.90625 0 27.296875 0 30.703125 0 
C 34.09375 0 39.5 0 42.703125 0 
L 42.703125 2.5 
L 40.796875 2.5 
C 33.796875 2.5 33.59375 3.5 33.59375 7.140625 
L 33.59375 17 
L 43.796875 17 
L 43.796875 19.59375 
L 33.59375 19.59375 
z
M 28.09375 57.859375 
L 28.09375 19.59375 
L 4 19.59375 
z
" id="CMR17-52"/>
      </defs>
      <g transform="translate(44.798017 182.638614)scale(0.16 -0.16)">
       <use transform="scale(0.996264)" xlink:href="#CMSY10-0"/>
       <use transform="translate(77.487468 0)scale(0.996264)" xlink:href="#CMR17-52"/>
      </g>
     </g>
    </g>
    <g id="ytick_5">
     <g id="line2d_12">
      <g>
       <use style="stroke:#000000;stroke-width:0.8;" x="72" xlink:href="#mcb5c3aed91" y="132.308716"/>
      </g>
     </g>
     <g id="text_13">
      <!-- $-2$ -->
      <g transform="translate(44.798017 137.84351)scale(0.16 -0.16)">
       <use transform="scale(0.996264)" xlink:href="#CMSY10-0"/>
       <use transform="translate(77.487468 0)scale(0.996264)" xlink:href="#CMR17-50"/>
      </g>
     </g>
    </g>
    <g id="ytick_6">
     <g id="line2d_13">
      <g>
       <use style="stroke:#000000;stroke-width:0.8;" x="72" xlink:href="#mcb5c3aed91" y="87.513613"/>
      </g>
     </g>
     <g id="text_14">
      <!-- $0$ -->
      <g transform="translate(57.196013 93.048407)scale(0.16 -0.16)">
       <use transform="scale(0.996264)" xlink:href="#CMR17-48"/>
      </g>
     </g>
    </g>
    <g id="ytick_7">
     <g id="line2d_14">
      <g>
       <use style="stroke:#000000;stroke-width:0.8;" x="72" xlink:href="#mcb5c3aed91" y="42.718509"/>
      </g>
     </g>
     <g id="text_15">
      <!-- $2$ -->
      <g transform="translate(57.196013 48.253303)scale(0.16 -0.16)">
       <use transform="scale(0.996264)" xlink:href="#CMR17-50"/>
      </g>
     </g>
    </g>
    <g id="text_16">
     <!-- $x_2$ -->
     <g transform="translate(29.894554 184.328079)rotate(-90)scale(0.16 -0.16)">
      <use transform="translate(0 14.943915)scale(0.996264)" xlink:href="#CMMI12-120"/>
      <use transform="translate(55.43406 0)scale(0.697382)" xlink:href="#CMR17-50"/>
     </g>
    </g>
   </g>
   <g id="LineCollection_1">
    <path clip-path="url(#pa18bb8f649)" d="M 76.618054 42.718509 
L 76.413612 43.244477 
L 76.208824 43.770445 
L 76.193188 43.810599 
L 76.005398 44.296413 
L 75.801787 44.822381 
L 75.597827 45.34837 
L 75.494326 45.615064 
L 75.39445 45.874338 
L 75.191669 46.400306 
L 74.988559 46.926274 
L 74.795463 47.425554 
L 74.785218 47.452242 
L 74.58326 47.97821 
L 74.380979 48.504178 
L 74.178366 49.030145 
L 74.096601 49.242245 
L 73.976498 49.556113 
L 73.775047 50.082081 
L 73.573256 50.60807 
L 73.397725 51.064954 
L 73.371379 51.134038 
L 73.170751 51.660006 
L 72.969798 52.185974 
L 72.768511 52.711942 
L 72.698862 52.893832 
L 72.568083 53.23791 
L 72.367962 53.763878 
L 72.167502 54.289846 
L 72 54.728744 
" style="fill:none;stroke:#f7fbff;stroke-width:1.5;"/>
   </g>
   <g id="LineCollection_2">
    <path clip-path="url(#pa18bb8f649)" d="M 86.111107 42.718509 
L 85.977303 43.045667 
L 85.896604 43.244477 
L 85.682967 43.770445 
L 85.46895 44.296413 
L 85.278441 44.763867 
L 85.254774 44.822381 
L 85.041989 45.34837 
L 84.828838 45.874338 
L 84.615308 46.400306 
L 84.579564 46.488322 
L 84.403056 46.926274 
L 84.190762 47.452242 
L 83.978091 47.97821 
L 83.880702 48.218871 
L 83.766117 48.504178 
L 83.554671 49.030145 
L 83.342855 49.556113 
L 83.181839 49.955391 
L 83.13114 50.082081 
L 82.920558 50.60807 
L 82.709603 51.134038 
L 82.498275 51.660006 
L 82.482977 51.698074 
L 82.288405 52.185974 
L 82.078309 52.711942 
L 81.867837 53.23791 
L 81.784115 53.446981 
L 81.658177 53.763878 
L 81.448933 54.289846 
L 81.239311 54.815814 
L 81.085238 55.201894 
L 81.029839 55.341782 
L 80.821447 55.867749 
L 80.612672 56.393739 
L 80.403538 56.919707 
L 80.386376 56.962861 
L 80.195833 57.445675 
L 79.987922 57.971642 
L 79.779637 58.49761 
L 79.687514 58.730064 
L 79.572077 59.023578 
L 79.365011 59.549546 
L 79.157577 60.075514 
L 78.988651 60.503242 
L 78.950149 60.601482 
L 78.743927 61.12745 
L 78.537345 61.653418 
L 78.330388 62.179407 
L 78.289789 62.282551 
L 78.124638 62.705375 
L 77.918905 63.231343 
L 77.712809 63.757311 
L 77.590927 64.068031 
L 77.507139 64.283279 
L 77.302252 64.809246 
L 77.096999 65.335214 
L 76.89205 65.859478 
L 76.891389 65.861182 
L 76.687341 66.38715 
L 76.482937 66.913118 
L 76.278165 67.439086 
L 76.193188 67.657194 
L 76.074151 67.965075 
L 75.870584 68.491043 
L 75.666652 69.017011 
L 75.494326 69.460806 
L 75.462664 69.542979 
L 75.259944 70.068947 
L 75.056871 70.594915 
L 74.853435 71.120883 
L 74.795463 71.270686 
L 74.65101 71.64685 
L 74.44877 72.172818 
L 74.246168 72.698786 
L 74.096601 73.086564 
L 74.043703 73.224776 
L 73.842301 73.750743 
L 73.640543 74.276711 
L 73.438422 74.802679 
L 73.397725 74.908545 
L 73.237476 75.328647 
L 73.036558 75.854615 
L 72.835278 76.380583 
L 72.698862 76.736634 
L 72.634263 76.906551 
L 72.434191 77.432519 
L 72.233751 77.958487 
L 72.032953 78.484455 
L 72 78.570752 
" style="fill:none;stroke:#dbe9f6;stroke-width:1.5;"/>
   </g>
   <g id="LineCollection_3">
    <path clip-path="url(#pa18bb8f649)" d="M 96.990471 42.718509 
L 90.077811 59.023578 
L 82.772134 76.906551 
L 76.193188 93.577394 
L 72 104.485299 
L 72 104.485299 
" style="fill:none;stroke:#bad6eb;stroke-width:1.5;"/>
   </g>
   <g id="LineCollection_4">
    <path clip-path="url(#pa18bb8f649)" d="M 109.827828 42.718509 
L 104.063486 55.341782 
L 97.1107 71.120883 
L 89.972018 87.951919 
L 83.087755 104.782956 
L 75.616255 123.717886 
L 72 133.129892 
L 72 133.129892 
" style="fill:none;stroke:#89bedc;stroke-width:1.5;"/>
   </g>
   <g id="LineCollection_5">
    <path clip-path="url(#pa18bb8f649)" d="M 125.678502 42.718509 
L 119.347222 55.341782 
L 113.005026 68.491043 
L 106.652626 82.166251 
L 100.290554 96.367448 
L 93.919312 111.094592 
L 87.756033 125.821758 
L 81.085238 142.290188 
L 73.13577 162.639649 
L 72 165.607994 
L 72 165.607994 
" style="fill:none;stroke:#539ecd;stroke-width:1.5;"/>
   </g>
   <g id="LineCollection_6">
    <path clip-path="url(#pa18bb8f649)" d="M 205.747834 311.48913 
L 210.41873 307.281366 
L 215.434239 303.073601 
L 220.173143 299.391826 
L 225.051427 295.90065 
L 229.943477 292.703972 
L 234.835541 289.811737 
L 239.58674 287.294522 
L 243.221917 285.561189 
L 247.815201 283.612725 
L 251.608293 282.204038 
L 255.801481 280.860327 
L 259.994669 279.739672 
L 264.187872 278.842283 
L 268.38106 278.167652 
L 272.574248 277.716256 
L 276.767436 277.487736 
L 280.960624 277.482265 
L 285.153812 277.699837 
L 289.347 278.140344 
L 293.540188 278.803986 
L 297.73339 279.690474 
L 301.926578 280.80018 
L 306.119766 282.133048 
L 310.312954 283.689093 
L 314.506156 285.468244 
L 318.69933 287.470861 
L 323.297204 289.924361 
L 327.085706 292.146436 
L 331.977771 295.286859 
L 336.869835 298.7318 
L 341.844286 302.547633 
L 346.653936 306.536122 
L 351.618385 310.963162 
L 352.185813 311.48913 
L 352.185813 311.48913 
" style="fill:none;stroke:#2b7bba;stroke-width:1.5;"/>
    <path clip-path="url(#pa18bb8f649)" d="M 429.12 76.273109 
L 428.901089 75.854615 
L 428.62663 75.328647 
L 428.421138 74.933941 
L 428.352164 74.802679 
L 428.075995 74.276711 
L 427.80067 73.750743 
L 427.722275 73.600854 
L 427.523746 73.224776 
L 427.246685 72.698786 
L 427.023413 72.273868 
L 426.969822 72.172818 
L 426.691047 71.64685 
L 426.41312 71.120883 
L 426.324551 70.953106 
L 426.133709 70.594915 
L 425.854061 70.068947 
L 425.62566 69.638293 
L 425.57464 69.542979 
L 425.293255 69.017011 
L 425.012724 68.491043 
L 424.926798 68.32979 
L 424.730657 67.965075 
L 424.448384 67.439086 
L 424.227935 67.027319 
L 424.16623 66.913118 
L 423.882225 66.38715 
L 423.599087 65.861182 
L 423.529073 65.731024 
L 423.314195 65.335214 
L 423.029315 64.809246 
L 422.830211 64.440869 
L 422.744248 64.283279 
L 422.457607 63.757311 
L 422.171837 63.231343 
L 422.131349 63.15679 
L 421.883937 62.705375 
L 421.596418 62.179407 
L 421.432486 61.879009 
L 421.308248 61.653418 
L 421.018969 61.12745 
L 420.733624 60.607074 
L 420.730529 60.601482 
L 420.439484 60.075514 
L 420.14932 59.549546 
L 420.034762 59.341642 
L 419.857894 59.023578 
L 419.565953 58.49761 
L 419.335899 58.082138 
L 419.274158 57.971642 
L 418.980444 57.445675 
L 418.687622 56.919707 
L 418.637009 56.828746 
L 418.392741 56.393739 
L 418.098133 55.867749 
L 417.938146 55.581647 
L 417.802791 55.341782 
L 417.506398 54.815814 
L 417.239284 54.340488 
L 417.210565 54.289846 
L 416.912371 53.763878 
L 416.615085 53.23791 
L 416.540422 53.105707 
L 416.316011 52.711942 
L 416.016927 52.185974 
L 415.841559 51.877021 
L 415.717256 51.660006 
L 415.416366 51.134038 
L 415.142697 50.65433 
L 415.116067 50.60807 
L 414.813353 50.082081 
L 414.511574 49.556113 
L 414.443835 49.437974 
L 414.207872 49.030145 
L 413.904275 48.504178 
L 413.744973 48.227759 
L 413.599851 47.97821 
L 413.29443 47.452242 
L 413.04611 47.023555 
L 412.989247 46.926274 
L 412.681974 46.400306 
L 412.375642 45.874338 
L 412.347248 45.825572 
L 412.066883 45.34837 
L 411.758718 44.822381 
L 411.648386 44.63387 
L 411.449093 44.296413 
L 411.139082 43.770445 
L 410.949495 43.448193 
L 410.828561 43.244477 
L 410.516688 42.718509 
" style="fill:none;stroke:#2b7bba;stroke-width:1.5;"/>
    <path clip-path="url(#pa18bb8f649)" d="M 146.878902 42.718509 
L 141.67891 51.660006 
L 135.596711 62.54839 
L 129.043983 74.802679 
L 123.017147 86.545474 
L 116.028495 100.733249 
L 108.902678 115.828325 
L 101.986507 131.081458 
L 94.650032 147.912495 
L 88.455952 162.639649 
L 81.784115 179.029019 
L 73.765215 199.457541 
L 72 204.05668 
L 72 204.05668 
" style="fill:none;stroke:#2b7bba;stroke-width:1.5;"/>
   </g>
   <g id="LineCollection_7">
    <path clip-path="url(#pa18bb8f649)" d="M 163.879905 311.48913 
L 169.393858 303.599591 
L 174.806893 296.235997 
L 180.324069 289.118523 
L 185.699456 282.560789 
L 190.807046 276.672646 
L 196.037809 270.989453 
L 200.662545 266.25572 
L 205.580239 261.521988 
L 210.375261 257.203003 
L 215.267312 253.099072 
L 220.159376 249.299392 
L 225.141899 245.742887 
L 229.985817 242.587079 
L 234.424784 239.957219 
L 238.329867 237.849267 
L 242.637184 235.749465 
L 246.716243 233.976652 
L 250.909431 232.374503 
L 255.102619 230.995155 
L 259.295807 229.837898 
L 263.488995 228.90341 
L 267.682183 228.19087 
L 271.875385 227.700895 
L 276.068573 227.433243 
L 280.261761 227.387881 
L 284.454949 227.564558 
L 288.648138 227.963779 
L 292.841326 228.585108 
L 297.071974 229.437829 
L 301.227716 230.495299 
L 305.420904 231.783638 
L 309.614092 233.294821 
L 314.245474 235.223497 
L 318.000468 236.98508 
L 322.677928 239.431251 
L 326.386844 241.566918 
L 330.580046 244.192353 
L 335.472082 247.537314 
L 340.364147 251.186716 
L 345.338791 255.210352 
L 350.168915 259.418116 
L 355.235459 264.151838 
L 359.983961 268.88556 
L 364.950532 274.14526 
L 370.09904 279.930928 
L 375.307404 286.129343 
L 380.420918 292.554222 
L 385.790367 299.662338 
L 391.257109 307.281366 
L 394.163474 311.48913 
L 394.163474 311.48913 
" style="fill:none;stroke:#0b559f;stroke-width:1.5;"/>
    <path clip-path="url(#pa18bb8f649)" d="M 429.12 126.657294 
L 422.131349 113.540041 
L 415.481791 101.627149 
L 409.96372 92.159684 
L 404.208309 82.692219 
L 398.865657 74.276711 
L 393.278369 65.861182 
L 387.785231 57.971642 
L 382.003595 50.082081 
L 376.705128 43.222253 
L 376.303577 42.718509 
L 376.303577 42.718509 
" style="fill:none;stroke:#0b559f;stroke-width:1.5;"/>
    <path clip-path="url(#pa18bb8f649)" d="M 180.983809 42.718509 
L 175.283999 50.082081 
L 169.841092 57.49695 
L 164.008981 65.861182 
L 158.421304 74.276711 
L 152.751758 83.218187 
L 147.322074 92.159684 
L 141.187631 102.706051 
L 134.482358 114.776389 
L 129.151832 124.769822 
L 122.673231 137.393094 
L 116.699616 149.490398 
L 109.46194 164.743531 
L 103.217784 178.41875 
L 96.460266 193.754185 
L 88.472635 212.606792 
L 81.784115 228.983338 
L 73.324587 250.476619 
L 72 253.918598 
L 72 253.918598 
" style="fill:none;stroke:#0b559f;stroke-width:1.5;"/>
   </g>
   <g id="LineCollection_8">
    <path clip-path="url(#pa18bb8f649)" d="M 106.299558 311.48913 
L 109.978553 303.073601 
L 115.934359 289.924361 
L 126.293655 268.359592 
L 135.84774 249.950651 
L 141.962515 238.905283 
L 146.21781 231.541711 
L 150.971738 223.640449 
L 154.571509 217.866492 
L 158.994208 211.028877 
L 166.346773 200.284914 
L 170.364639 194.723808 
L 176.829743 186.245142 
L 181.022931 181.043382 
L 185.45815 175.7889 
L 191.505908 169.045827 
L 196.116115 164.217564 
L 201.465265 158.957863 
L 206.880936 153.998801 
L 211.773 149.833897 
L 216.665051 145.965223 
L 221.557101 142.390251 
L 226.449151 139.108408 
L 231.341216 136.116422 
L 236.233266 133.414149 
L 241.125316 131.00083 
L 245.764507 128.977565 
L 249.873017 127.399661 
L 253.704895 126.106995 
L 258.596945 124.714409 
L 262.931117 123.717886 
L 266.983321 122.984111 
L 271.176509 122.431412 
L 275.369711 122.087551 
L 279.562899 121.948645 
L 283.756087 122.018335 
L 287.949275 122.294247 
L 292.142463 122.777438 
L 296.335651 123.466257 
L 300.528839 124.362866 
L 304.722027 125.465005 
L 309.204012 126.873693 
L 313.108403 128.289468 
L 318.000468 130.318301 
L 322.949528 132.659362 
L 327.085706 134.834471 
L 331.977771 137.667115 
L 336.869835 140.783391 
L 341.825821 144.230698 
L 346.711377 147.912495 
L 351.886566 152.120249 
L 357.136899 156.719994 
L 361.780893 161.061735 
L 367.063593 166.321435 
L 372.51234 172.107103 
L 376.736262 176.840836 
L 381.216808 182.100536 
L 388.37102 191.042023 
L 396.17057 201.561423 
L 404.80684 214.184695 
L 409.201515 221.02231 
L 418.366373 236.275433 
L 429.12 256.031051 
L 429.12 256.031051 
" style="fill:none;stroke:#08306b;stroke-width:1.5;"/>
    <path clip-path="url(#pa18bb8f649)" d="M 429.12 241.317066 
L 426.731448 236.801411 
L 422.131349 228.150403 
L 419.407844 223.126182 
L 417.099824 218.918428 
L 406.689867 200.509477 
L 395.570843 182.100536 
L 385.091505 166.09134 
L 376.671458 154.224131 
L 369.716477 145.119437 
L 363.390448 137.393094 
L 357.835761 131.051808 
L 352.244863 125.092977 
L 347.154009 120.036089 
L 342.619604 115.828325 
L 338.26756 112.054197 
L 333.375495 108.124286 
L 328.85181 104.782956 
L 324.290257 101.697393 
L 319.894267 98.997288 
L 315.903881 96.776758 
L 311.710679 94.680375 
L 307.173249 92.685652 
L 303.015902 91.107748 
L 299.131115 89.850127 
L 294.937927 88.726008 
L 290.744739 87.844087 
L 286.551551 87.206377 
L 282.358348 86.809977 
L 278.16516 86.657809 
L 273.971972 86.74686 
L 269.778784 87.078536 
L 265.585596 87.652114 
L 261.336918 88.477887 
L 257.169766 89.529823 
L 253.006032 90.820287 
L 248.81283 92.357518 
L 244.619642 94.134291 
L 240.426454 96.151158 
L 236.116874 98.47132 
L 231.71713 101.10116 
L 227.148028 104.106931 
L 222.554409 107.412817 
L 218.062775 110.916297 
L 213.170725 115.038327 
L 208.241378 119.510121 
L 203.369576 124.243854 
L 197.795697 130.038654 
L 192.130024 136.341158 
L 186.613858 142.867943 
L 180.101738 151.068313 
L 175.347587 157.379949 
L 168.944384 166.321435 
L 163.55131 174.220528 
L 154.731319 187.886204 
L 150.833588 194.197841 
L 143.328835 206.821124 
L 140.010134 212.606792 
L 136.457268 218.918428 
L 133.266006 224.704096 
L 127.044632 236.275433 
L 118.823945 252.155381 
L 103.23468 284.138693 
L 95.697757 300.443762 
L 90.739329 311.48913 
L 90.739329 311.48913 
" style="fill:none;stroke:#08306b;stroke-width:1.5;"/>
   </g>
   <g id="patch_3">
    <path d="M 72 311.48913 
L 72 42.718509 
" style="fill:none;stroke:#000000;stroke-linecap:square;stroke-linejoin:miter;stroke-width:0.8;"/>
   </g>
   <g id="patch_4">
    <path d="M 429.12 311.48913 
L 429.12 42.718509 
" style="fill:none;stroke:#000000;stroke-linecap:square;stroke-linejoin:miter;stroke-width:0.8;"/>
   </g>
   <g id="patch_5">
    <path d="M 72 311.48913 
L 429.12 311.48913 
" style="fill:none;stroke:#000000;stroke-linecap:square;stroke-linejoin:miter;stroke-width:0.8;"/>
   </g>
   <g id="patch_6">
    <path d="M 72 42.718509 
L 429.12 42.718509 
" style="fill:none;stroke:#000000;stroke-linecap:square;stroke-linejoin:miter;stroke-width:0.8;"/>
   </g>
  </g>
  <g id="axes_2">
   <g id="patch_7">
    <path clip-path="url(#p34c7afb20f)" d="M 451.44 311.48913 
L 451.44 273.093327 
L 451.44 81.114312 
L 451.44 42.718509 
L 464.878531 42.718509 
L 464.878531 81.114312 
L 464.878531 273.093327 
L 464.878531 311.48913 
z
" style="fill:#ffffff;stroke:#ffffff;stroke-linejoin:miter;stroke-width:0.01;"/>
   </g>
   <g id="matplotlib.axis_3"/>
   <g id="matplotlib.axis_4">
    <g id="ytick_8">
     <g id="line2d_15">
      <defs>
       <path d="M 0 0 
L 3.5 0 
" id="m67508e7656" style="stroke:#000000;stroke-width:0.8;"/>
      </defs>
      <g>
       <use style="stroke:#000000;stroke-width:0.8;" x="464.878531" xlink:href="#m67508e7656" y="311.48913"/>
      </g>
     </g>
     <g id="text_17">
      <!-- $-1050$ -->
      <defs>
       <path d="M 11.40625 57.6875 
C 12.40625 57.28125 16.5 56 20.703125 56 
C 30 56 35.09375 61.109375 38 64.0625 
C 38 64.953125 38 65.5 37.40625 65.5 
C 37.296875 65.5 37.09375 65.5 36.296875 65.046875 
C 32.796875 63.40625 28.703125 62.078125 23.703125 62.078125 
C 20.703125 62.078125 16.203125 62.484375 11.296875 64.671875 
C 10.203125 65.171875 10 65.171875 9.90625 65.171875 
C 9.40625 65.171875 9.296875 65.0625 9.296875 63.078125 
L 9.296875 34.421875 
C 9.296875 32.640625 9.296875 32.140625 10.296875 32.140625 
C 10.796875 32.140625 11 32.34375 11.5 33.03125 
C 14.703125 37.515625 19.09375 39.40625 24.09375 39.40625 
C 27.59375 39.40625 35.09375 37.21875 35.09375 20.140625 
C 35.09375 16.953125 35.09375 11.171875 32.09375 6.578125 
C 29.59375 2.484375 25.703125 0.390625 21.40625 0.390625 
C 14.796875 0.390625 8.09375 5 6.296875 12.71875 
C 6.703125 12.609375 7.5 12.421875 7.90625 12.421875 
C 9.203125 12.421875 11.703125 13.125 11.703125 16.21875 
C 11.703125 18.90625 9.796875 20 7.90625 20 
C 5.59375 20 4.09375 18.59375 4.09375 15.796875 
C 4.09375 7.09375 11 -2 21.59375 -2 
C 31.90625 -2 41.703125 6.875 41.703125 19.75 
C 41.703125 31.71875 33.90625 41 24.203125 41 
C 19.09375 41 14.796875 39.109375 11.40625 35.53125 
z
" id="CMR17-53"/>
      </defs>
      <g transform="translate(471.878531 317.023924)scale(0.16 -0.16)">
       <use transform="scale(0.996264)" xlink:href="#CMSY10-0"/>
       <use transform="translate(77.487468 0)scale(0.996264)" xlink:href="#CMR17-49"/>
       <use transform="translate(123.177945 0)scale(0.996264)" xlink:href="#CMR17-48"/>
       <use transform="translate(168.868422 0)scale(0.996264)" xlink:href="#CMR17-53"/>
       <use transform="translate(214.558899 0)scale(0.996264)" xlink:href="#CMR17-48"/>
      </g>
     </g>
    </g>
    <g id="ytick_9">
     <g id="line2d_16">
      <g>
       <use style="stroke:#000000;stroke-width:0.8;" x="464.878531" xlink:href="#m67508e7656" y="273.093327"/>
      </g>
     </g>
     <g id="text_18">
      <!-- $-900$ -->
      <defs>
       <path d="M 35.203125 29.125 
C 35.203125 7.25 26.09375 0.484375 18.59375 0.484375 
C 16.296875 0.484375 10.703125 0.484375 8.40625 4.59375 
C 11 4.1875 12.90625 5.578125 12.90625 8.09375 
C 12.90625 10.8125 10.703125 11.703125 9.296875 11.703125 
C 8.40625 11.703125 5.703125 11.296875 5.703125 7.90625 
C 5.703125 1.109375 11.59375 -2 18.796875 -2 
C 30.296875 -2 42 10.53125 42 32.390625 
C 42 59.640625 30.796875 65.296875 23.203125 65.296875 
C 13.296875 65.296875 3.796875 56.6875 3.796875 43.40625 
C 3.796875 31.109375 11.90625 22 22.09375 22 
C 30.5 22 34.203125 29.734375 35.203125 33 
z
M 22.296875 23.59375 
C 19.59375 23.59375 15.796875 24.09375 12.703125 30.03125 
C 10.59375 33.890625 10.59375 38.453125 10.59375 43.296875 
C 10.59375 49.15625 10.59375 53.203125 13.40625 57.5625 
C 14.796875 59.640625 17.40625 63 23.203125 63 
C 35 63 35 45.078125 35 41.125 
C 35 34.09375 31.796875 23.59375 22.296875 23.59375 
" id="CMR17-57"/>
      </defs>
      <g transform="translate(471.878531 278.628121)scale(0.16 -0.16)">
       <use transform="scale(0.996264)" xlink:href="#CMSY10-0"/>
       <use transform="translate(77.487468 0)scale(0.996264)" xlink:href="#CMR17-57"/>
       <use transform="translate(123.177945 0)scale(0.996264)" xlink:href="#CMR17-48"/>
       <use transform="translate(168.868422 0)scale(0.996264)" xlink:href="#CMR17-48"/>
      </g>
     </g>
    </g>
    <g id="ytick_10">
     <g id="line2d_17">
      <g>
       <use style="stroke:#000000;stroke-width:0.8;" x="464.878531" xlink:href="#m67508e7656" y="234.697524"/>
      </g>
     </g>
     <g id="text_19">
      <!-- $-750$ -->
      <defs>
       <path d="M 45.09375 61.578125 
L 45.09375 63.765625 
L 21.59375 63.765625 
C 9.90625 63.765625 9.703125 65.078125 9.296875 67 
L 7.5 67 
L 4.59375 48.34375 
L 6.40625 48.34375 
C 6.703125 50.234375 7.40625 55.3125 8.59375 57.203125 
C 9.203125 58 16.59375 58 18.296875 58 
L 40.296875 58 
L 29.203125 41.578125 
C 21.796875 30.53125 16.703125 15.609375 16.703125 2.578125 
C 16.703125 1.390625 16.703125 -2 20.296875 -2 
C 23.90625 -2 23.90625 1.390625 23.90625 2.671875 
L 23.90625 7.265625 
C 23.90625 23.5625 26.703125 34.3125 31.296875 41.1875 
z
" id="CMR17-55"/>
      </defs>
      <g transform="translate(471.878531 240.232318)scale(0.16 -0.16)">
       <use transform="scale(0.996264)" xlink:href="#CMSY10-0"/>
       <use transform="translate(77.487468 0)scale(0.996264)" xlink:href="#CMR17-55"/>
       <use transform="translate(123.177945 0)scale(0.996264)" xlink:href="#CMR17-53"/>
       <use transform="translate(168.868422 0)scale(0.996264)" xlink:href="#CMR17-48"/>
      </g>
     </g>
    </g>
    <g id="ytick_11">
     <g id="line2d_18">
      <g>
       <use style="stroke:#000000;stroke-width:0.8;" x="464.878531" xlink:href="#m67508e7656" y="196.301721"/>
      </g>
     </g>
     <g id="text_20">
      <!-- $-600$ -->
      <g transform="translate(471.878531 201.836515)scale(0.16 -0.16)">
       <use transform="scale(0.996264)" xlink:href="#CMSY10-0"/>
       <use transform="translate(77.487468 0)scale(0.996264)" xlink:href="#CMR17-54"/>
       <use transform="translate(123.177945 0)scale(0.996264)" xlink:href="#CMR17-48"/>
       <use transform="translate(168.868422 0)scale(0.996264)" xlink:href="#CMR17-48"/>
      </g>
     </g>
    </g>
    <g id="ytick_12">
     <g id="line2d_19">
      <g>
       <use style="stroke:#000000;stroke-width:0.8;" x="464.878531" xlink:href="#m67508e7656" y="157.905918"/>
      </g>
     </g>
     <g id="text_21">
      <!-- $-450$ -->
      <g transform="translate(471.878531 163.440712)scale(0.16 -0.16)">
       <use transform="scale(0.996264)" xlink:href="#CMSY10-0"/>
       <use transform="translate(77.487468 0)scale(0.996264)" xlink:href="#CMR17-52"/>
       <use transform="translate(123.177945 0)scale(0.996264)" xlink:href="#CMR17-53"/>
       <use transform="translate(168.868422 0)scale(0.996264)" xlink:href="#CMR17-48"/>
      </g>
     </g>
    </g>
    <g id="ytick_13">
     <g id="line2d_20">
      <g>
       <use style="stroke:#000000;stroke-width:0.8;" x="464.878531" xlink:href="#m67508e7656" y="119.510115"/>
      </g>
     </g>
     <g id="text_22">
      <!-- $-300$ -->
      <g transform="translate(471.878531 125.044909)scale(0.16 -0.16)">
       <use transform="scale(0.996264)" xlink:href="#CMSY10-0"/>
       <use transform="translate(77.487468 0)scale(0.996264)" xlink:href="#CMR17-51"/>
       <use transform="translate(123.177945 0)scale(0.996264)" xlink:href="#CMR17-48"/>
       <use transform="translate(168.868422 0)scale(0.996264)" xlink:href="#CMR17-48"/>
      </g>
     </g>
    </g>
    <g id="ytick_14">
     <g id="line2d_21">
      <g>
       <use style="stroke:#000000;stroke-width:0.8;" x="464.878531" xlink:href="#m67508e7656" y="81.114312"/>
      </g>
     </g>
     <g id="text_23">
      <!-- $-150$ -->
      <g transform="translate(471.878531 86.649106)scale(0.16 -0.16)">
       <use transform="scale(0.996264)" xlink:href="#CMSY10-0"/>
       <use transform="translate(77.487468 0)scale(0.996264)" xlink:href="#CMR17-49"/>
       <use transform="translate(123.177945 0)scale(0.996264)" xlink:href="#CMR17-53"/>
       <use transform="translate(168.868422 0)scale(0.996264)" xlink:href="#CMR17-48"/>
      </g>
     </g>
    </g>
    <g id="ytick_15">
     <g id="line2d_22">
      <g>
       <use style="stroke:#000000;stroke-width:0.8;" x="464.878531" xlink:href="#m67508e7656" y="42.718509"/>
      </g>
     </g>
     <g id="text_24">
      <!-- $0$ -->
      <g transform="translate(471.878531 48.253303)scale(0.16 -0.16)">
       <use transform="scale(0.996264)" xlink:href="#CMR17-48"/>
      </g>
     </g>
    </g>
   </g>
   <g id="LineCollection_9">
    <path clip-path="url(#p34c7afb20f)" d="M 451.44 311.48913 
L 464.878531 311.48913 
" style="fill:none;stroke:#f7fbff;stroke-width:1.5;"/>
    <path clip-path="url(#p34c7afb20f)" d="M 451.44 273.093327 
L 464.878531 273.093327 
" style="fill:none;stroke:#dbe9f6;stroke-width:1.5;"/>
    <path clip-path="url(#p34c7afb20f)" d="M 451.44 234.697524 
L 464.878531 234.697524 
" style="fill:none;stroke:#bad6eb;stroke-width:1.5;"/>
    <path clip-path="url(#p34c7afb20f)" d="M 451.44 196.301721 
L 464.878531 196.301721 
" style="fill:none;stroke:#89bedc;stroke-width:1.5;"/>
    <path clip-path="url(#p34c7afb20f)" d="M 451.44 157.905918 
L 464.878531 157.905918 
" style="fill:none;stroke:#539ecd;stroke-width:1.5;"/>
    <path clip-path="url(#p34c7afb20f)" d="M 451.44 119.510115 
L 464.878531 119.510115 
" style="fill:none;stroke:#2b7bba;stroke-width:1.5;"/>
    <path clip-path="url(#p34c7afb20f)" d="M 451.44 81.114312 
L 464.878531 81.114312 
" style="fill:none;stroke:#0b559f;stroke-width:1.5;"/>
    <path clip-path="url(#p34c7afb20f)" d="M 451.44 42.718509 
L 464.878531 42.718509 
" style="fill:none;stroke:#08306b;stroke-width:1.5;"/>
   </g>
   <g id="patch_8">
    <path d="M 451.44 311.48913 
L 451.44 273.093327 
L 451.44 81.114312 
L 451.44 42.718509 
L 464.878531 42.718509 
L 464.878531 81.114312 
L 464.878531 273.093327 
L 464.878531 311.48913 
z
" style="fill:none;stroke:#000000;stroke-linejoin:miter;stroke-width:0.8;"/>
   </g>
  </g>
 </g>
 <defs>
  <clipPath id="pa18bb8f649">
   <rect height="268.770621" width="357.12" x="72" y="42.718509"/>
  </clipPath>
  <clipPath id="p34c7afb20f">
   <rect height="268.770621" width="13.438531" x="451.44" y="42.718509"/>
  </clipPath>
 </defs>
</svg>
