<?xml version="1.0" encoding="utf-8" standalone="no"?>
<!DOCTYPE svg PUBLIC "-//W3C//DTD SVG 1.1//EN"
  "http://www.w3.org/Graphics/SVG/1.1/DTD/svg11.dtd">
<!-- Created with matplotlib (http://matplotlib.org/) -->
<svg height="288pt" version="1.1" viewBox="0 0 720 288" width="720pt" xmlns="http://www.w3.org/2000/svg" xmlns:xlink="http://www.w3.org/1999/xlink">
 <defs>
  <style type="text/css">
*{stroke-linecap:butt;stroke-linejoin:round;}
  </style>
 </defs>
 <g id="figure_1">
  <g id="patch_1">
   <path d="M 0 288 
L 720 288 
L 720 0 
L 0 0 
z
" style="fill:#ffffff;"/>
  </g>
  <g id="axes_1">
   <g id="patch_2">
    <path d="M 90 252 
L 292.909091 252 
L 292.909091 34.56 
L 90 34.56 
z
" style="fill:#ffffff;"/>
   </g>
   <g id="matplotlib.axis_1">
    <g id="xtick_1">
     <g id="line2d_1">
      <defs>
       <path d="M 0 0 
L 0 3.5 
" id="m7ed3928e7a" style="stroke:#000000;stroke-width:0.8;"/>
      </defs>
      <g>
       <use style="stroke:#000000;stroke-width:0.8;" x="123.818182" xlink:href="#m7ed3928e7a" y="252"/>
      </g>
     </g>
     <g id="text_1">
      <!-- $-2$ -->
      <defs>
       <path d="M 65.90625 23 
C 67.59375 23 69.40625 23 69.40625 25 
C 69.40625 27 67.59375 27 65.90625 27 
L 11.796875 27 
C 10.09375 27 8.296875 27 8.296875 25 
C 8.296875 23 10.09375 23 11.796875 23 
z
" id="CMSY10-0"/>
       <path d="M 41.703125 15.453125 
L 39.90625 15.453125 
C 38.90625 8.375 38.09375 7.171875 37.703125 6.5625 
C 37.203125 5.765625 30 5.765625 28.59375 5.765625 
L 9.40625 5.765625 
C 13 9.671875 20 16.75 28.5 24.953125 
C 34.59375 30.734375 41.703125 37.53125 41.703125 47.421875 
C 41.703125 59.21875 32.296875 66 21.796875 66 
C 10.796875 66 4.09375 56.3125 4.09375 47.34375 
C 4.09375 43.4375 7 42.9375 8.203125 42.9375 
C 9.203125 42.9375 12.203125 43.546875 12.203125 47.03125 
C 12.203125 50.109375 9.59375 51 8.203125 51 
C 7.59375 51 7 50.90625 6.59375 50.703125 
C 8.5 59.21875 14.296875 63.40625 20.40625 63.40625 
C 29.09375 63.40625 34.796875 56.515625 34.796875 47.421875 
C 34.796875 38.734375 29.703125 31.25 24 24.75 
L 4.09375 2.28125 
L 4.09375 0 
L 39.296875 0 
z
" id="CMR17-50"/>
      </defs>
      <g transform="translate(113.71719 270.069588)scale(0.16 -0.16)">
       <use transform="scale(0.996264)" xlink:href="#CMSY10-0"/>
       <use transform="translate(77.487468 0)scale(0.996264)" xlink:href="#CMR17-50"/>
      </g>
     </g>
    </g>
    <g id="xtick_2">
     <g id="line2d_2">
      <g>
       <use style="stroke:#000000;stroke-width:0.8;" x="191.454545" xlink:href="#m7ed3928e7a" y="252"/>
      </g>
     </g>
     <g id="text_2">
      <!-- $0$ -->
      <defs>
       <path d="M 42 31.640625 
C 42 37.75 41.90625 48.125 37.703125 56.109375 
C 34 63.109375 28.09375 65.59375 22.90625 65.59375 
C 18.09375 65.59375 12 63.40625 8.203125 56.203125 
C 4.203125 48.71875 3.796875 39.4375 3.796875 31.640625 
C 3.796875 25.953125 3.90625 17.28125 7 9.671875 
C 11.296875 -0.609375 19 -2 22.90625 -2 
C 27.5 -2 34.5 -0.109375 38.59375 9.375 
C 41.59375 16.28125 42 24.359375 42 31.640625 
M 22.90625 -0.40625 
C 16.5 -0.40625 12.703125 5.078125 11.296875 12.6875 
C 10.203125 18.5625 10.203125 27.15625 10.203125 32.75 
C 10.203125 40.4375 10.203125 46.828125 11.5 52.921875 
C 13.40625 61.390625 19 64 22.90625 64 
C 27 64 32.296875 61.296875 34.203125 53.125 
C 35.5 47.4375 35.59375 40.734375 35.59375 32.75 
C 35.59375 26.25 35.59375 18.265625 34.40625 12.375 
C 32.296875 1.484375 26.40625 -0.40625 22.90625 -0.40625 
" id="CMR17-48"/>
      </defs>
      <g transform="translate(187.552552 270.069588)scale(0.16 -0.16)">
       <use transform="scale(0.996264)" xlink:href="#CMR17-48"/>
      </g>
     </g>
    </g>
    <g id="xtick_3">
     <g id="line2d_3">
      <g>
       <use style="stroke:#000000;stroke-width:0.8;" x="259.090909" xlink:href="#m7ed3928e7a" y="252"/>
      </g>
     </g>
     <g id="text_3">
      <!-- $2$ -->
      <g transform="translate(255.188916 270.069588)scale(0.16 -0.16)">
       <use transform="scale(0.996264)" xlink:href="#CMR17-50"/>
      </g>
     </g>
    </g>
    <g id="text_4">
     <!-- $x_1$ -->
     <defs>
      <path d="M 47.40625 40.71875 
C 44.203125 40.109375 43 37.71875 43 35.828125 
C 43 33.421875 44.90625 32.625 46.296875 32.625 
C 49.296875 32.625 51.40625 35.21875 51.40625 37.921875 
C 51.40625 42.109375 46.59375 44 42.40625 44 
C 36.296875 44 32.90625 38.015625 32 36.125 
C 29.703125 44 23.5 44 21.703125 44 
C 11.5 44 6.09375 30.9375 6.09375 28.734375 
C 6.09375 28.34375 6.5 27.84375 7.203125 27.84375 
C 8 27.84375 8.203125 28.4375 8.40625 28.84375 
C 11.796875 39.921875 18.5 42.015625 21.40625 42.015625 
C 25.90625 42.015625 26.796875 37.8125 26.796875 35.421875 
C 26.796875 33.234375 26.203125 30.9375 25 26.140625 
L 21.59375 12.46875 
C 20.09375 6.484375 17.203125 1 11.90625 1 
C 11.40625 1 8.90625 1 6.796875 2.296875 
C 10.40625 3 11.203125 5.984375 11.203125 7.1875 
C 11.203125 9.1875 9.703125 10.375 7.796875 10.375 
C 5.40625 10.375 2.796875 8.28125 2.796875 5.09375 
C 2.796875 0.890625 7.5 -1 11.796875 -1 
C 16.59375 -1 20 2.796875 22.09375 6.890625 
C 23.703125 1 28.703125 -1 32.40625 -1 
C 42.59375 -1 48 12.078125 48 14.265625 
C 48 14.765625 47.59375 15.171875 47 15.171875 
C 46.09375 15.171875 46 14.671875 45.703125 13.875 
C 43 5.09375 37.203125 1 32.703125 1 
C 29.203125 1 27.296875 3.59375 27.296875 7.6875 
C 27.296875 9.875 27.703125 11.46875 29.296875 18.0625 
L 32.796875 31.625 
C 34.296875 37.625 37.703125 42.015625 42.296875 42.015625 
C 42.5 42.015625 45.296875 42.015625 47.40625 40.71875 
" id="CMMI12-120"/>
      <path d="M 26.59375 63.40625 
C 26.59375 65.5 26.5 65.5 25.09375 65.5 
C 21.203125 61.1875 15.296875 59.796875 9.703125 59.796875 
C 9.40625 59.796875 8.90625 59.796875 8.796875 59.5 
C 8.703125 59.296875 8.703125 59.09375 8.703125 57 
C 11.796875 57 17 57.59375 21 59.984375 
L 21 7.203125 
C 21 3.6875 20.796875 2.5 12.203125 2.5 
L 9.203125 2.5 
L 9.203125 0 
C 14 0 19 0 23.796875 0 
C 28.59375 0 33.59375 0 38.40625 0 
L 38.40625 2.5 
L 35.40625 2.5 
C 26.796875 2.5 26.59375 3.59375 26.59375 7.15625 
z
" id="CMR17-49"/>
     </defs>
     <g transform="translate(184.230286 288.238653)scale(0.16 -0.16)">
      <use transform="translate(0 14.943915)scale(0.996264)" xlink:href="#CMMI12-120"/>
      <use transform="translate(55.43406 0)scale(0.697382)" xlink:href="#CMR17-49"/>
     </g>
    </g>
   </g>
   <g id="matplotlib.axis_2">
    <g id="ytick_1">
     <g id="line2d_4">
      <defs>
       <path d="M 0 0 
L -3.5 0 
" id="m2f6e7def2b" style="stroke:#000000;stroke-width:0.8;"/>
      </defs>
      <g>
       <use style="stroke:#000000;stroke-width:0.8;" x="90" xlink:href="#m2f6e7def2b" y="252"/>
      </g>
     </g>
     <g id="text_5">
      <!-- $-10$ -->
      <g transform="translate(54.99403 257.534794)scale(0.16 -0.16)">
       <use transform="scale(0.996264)" xlink:href="#CMSY10-0"/>
       <use transform="translate(77.487468 0)scale(0.996264)" xlink:href="#CMR17-49"/>
       <use transform="translate(123.177945 0)scale(0.996264)" xlink:href="#CMR17-48"/>
      </g>
     </g>
    </g>
    <g id="ytick_2">
     <g id="line2d_5">
      <g>
       <use style="stroke:#000000;stroke-width:0.8;" x="90" xlink:href="#m2f6e7def2b" y="215.76"/>
      </g>
     </g>
     <g id="text_6">
      <!-- $-8$ -->
      <defs>
       <path d="M 27.203125 35.375 
C 33.5 38.546875 39.90625 43.328125 39.90625 50.984375 
C 39.90625 60.015625 31.09375 65.296875 23 65.296875 
C 13.90625 65.296875 5.90625 58.734375 5.90625 49.6875 
C 5.90625 47.203125 6.5 42.921875 10.40625 39.140625 
C 11.40625 38.15625 15.59375 35.171875 18.296875 33.28125 
C 13.796875 30.984375 3.296875 25.53125 3.296875 14.59375 
C 3.296875 4.359375 13.09375 -2 22.796875 -2 
C 33.5 -2 42.5 5.65625 42.5 15.78125 
C 42.5 24.84375 36.40625 29.015625 32.40625 31.703125 
z
M 14.09375 44.09375 
C 13.296875 44.59375 9.296875 47.671875 9.296875 52.359375 
C 9.296875 58.421875 15.59375 63 22.796875 63 
C 30.703125 63 36.5 57.4375 36.5 50.96875 
C 36.5 41.703125 26.09375 36.421875 25.59375 36.421875 
C 25.5 36.421875 25.40625 36.421875 24.59375 37.03125 
z
M 32.5 23.734375 
C 34 22.640625 38.796875 19.375 38.796875 13.296875 
C 38.796875 5.953125 31.40625 0.390625 23 0.390625 
C 13.90625 0.390625 7 6.84375 7 14.6875 
C 7 22.546875 13.09375 29.09375 20 32.1875 
z
" id="CMR17-56"/>
      </defs>
      <g transform="translate(62.798017 221.294794)scale(0.16 -0.16)">
       <use transform="scale(0.996264)" xlink:href="#CMSY10-0"/>
       <use transform="translate(77.487468 0)scale(0.996264)" xlink:href="#CMR17-56"/>
      </g>
     </g>
    </g>
    <g id="ytick_3">
     <g id="line2d_6">
      <g>
       <use style="stroke:#000000;stroke-width:0.8;" x="90" xlink:href="#m2f6e7def2b" y="179.52"/>
      </g>
     </g>
     <g id="text_7">
      <!-- $-6$ -->
      <defs>
       <path d="M 10.59375 34 
C 10.59375 57.65625 21.796875 63 28.296875 63 
C 30.40625 63 35.5 62.640625 37.5 59 
C 35.90625 59 32.90625 59 32.90625 55.515625 
C 32.90625 52.828125 35.09375 51.921875 36.5 51.921875 
C 37.40625 51.921875 40.09375 52.3125 40.09375 55.625 
C 40.09375 61.78125 35.09375 65.296875 28.203125 65.296875 
C 16.296875 65.296875 3.796875 52.96875 3.796875 31 
C 3.796875 3.953125 15.09375 -2 23.09375 -2 
C 32.796875 -2 42 6.671875 42 20.046875 
C 42 32.515625 33.90625 41.59375 23.703125 41.59375 
C 17.59375 41.59375 13.09375 37.609375 10.59375 30.625 
z
M 23.09375 0.390625 
C 10.796875 0.390625 10.796875 18.75 10.796875 22.4375 
C 10.796875 29.625 14.203125 40 23.5 40 
C 25.203125 40 30.09375 40 33.40625 33.125 
C 35.203125 29.21875 35.203125 25.140625 35.203125 20.140625 
C 35.203125 14.75 35.203125 10.78125 33.09375 6.78125 
C 30.90625 2.671875 27.703125 0.390625 23.09375 0.390625 
" id="CMR17-54"/>
      </defs>
      <g transform="translate(62.798017 185.054794)scale(0.16 -0.16)">
       <use transform="scale(0.996264)" xlink:href="#CMSY10-0"/>
       <use transform="translate(77.487468 0)scale(0.996264)" xlink:href="#CMR17-54"/>
      </g>
     </g>
    </g>
    <g id="ytick_4">
     <g id="line2d_7">
      <g>
       <use style="stroke:#000000;stroke-width:0.8;" x="90" xlink:href="#m2f6e7def2b" y="143.28"/>
      </g>
     </g>
     <g id="text_8">
      <!-- $-4$ -->
      <defs>
       <path d="M 33.59375 64.40625 
C 33.59375 66.5 33.5 66.5 31.703125 66.5 
L 2 19.59375 
L 2 17 
L 27.796875 17 
L 27.796875 7.140625 
C 27.796875 3.5 27.59375 2.5 20.59375 2.5 
L 18.703125 2.5 
L 18.703125 0 
C 21.90625 0 27.296875 0 30.703125 0 
C 34.09375 0 39.5 0 42.703125 0 
L 42.703125 2.5 
L 40.796875 2.5 
C 33.796875 2.5 33.59375 3.5 33.59375 7.140625 
L 33.59375 17 
L 43.796875 17 
L 43.796875 19.59375 
L 33.59375 19.59375 
z
M 28.09375 57.859375 
L 28.09375 19.59375 
L 4 19.59375 
z
" id="CMR17-52"/>
      </defs>
      <g transform="translate(62.798017 148.814794)scale(0.16 -0.16)">
       <use transform="scale(0.996264)" xlink:href="#CMSY10-0"/>
       <use transform="translate(77.487468 0)scale(0.996264)" xlink:href="#CMR17-52"/>
      </g>
     </g>
    </g>
    <g id="ytick_5">
     <g id="line2d_8">
      <g>
       <use style="stroke:#000000;stroke-width:0.8;" x="90" xlink:href="#m2f6e7def2b" y="107.04"/>
      </g>
     </g>
     <g id="text_9">
      <!-- $-2$ -->
      <g transform="translate(62.798017 112.574794)scale(0.16 -0.16)">
       <use transform="scale(0.996264)" xlink:href="#CMSY10-0"/>
       <use transform="translate(77.487468 0)scale(0.996264)" xlink:href="#CMR17-50"/>
      </g>
     </g>
    </g>
    <g id="ytick_6">
     <g id="line2d_9">
      <g>
       <use style="stroke:#000000;stroke-width:0.8;" x="90" xlink:href="#m2f6e7def2b" y="70.8"/>
      </g>
     </g>
     <g id="text_10">
      <!-- $0$ -->
      <g transform="translate(75.196013 76.334794)scale(0.16 -0.16)">
       <use transform="scale(0.996264)" xlink:href="#CMR17-48"/>
      </g>
     </g>
    </g>
    <g id="ytick_7">
     <g id="line2d_10">
      <g>
       <use style="stroke:#000000;stroke-width:0.8;" x="90" xlink:href="#m2f6e7def2b" y="34.56"/>
      </g>
     </g>
     <g id="text_11">
      <!-- $2$ -->
      <g transform="translate(75.196013 40.094794)scale(0.16 -0.16)">
       <use transform="scale(0.996264)" xlink:href="#CMR17-50"/>
      </g>
     </g>
    </g>
    <g id="text_12">
     <!-- $x_2$ -->
     <g transform="translate(47.894554 150.504259)rotate(-90)scale(0.16 -0.16)">
      <use transform="translate(0 14.943915)scale(0.996264)" xlink:href="#CMMI12-120"/>
      <use transform="translate(55.43406 0)scale(0.697382)" xlink:href="#CMR17-50"/>
     </g>
    </g>
   </g>
   <g id="LineCollection_1">
    <path clip-path="url(#pf983e5131a)" d="M 92.623894 34.56 
L 92.507734 34.985517 
L 92.391377 35.411034 
L 92.382493 35.443519 
L 92.275794 35.836551 
L 92.160106 36.262068 
L 92.04422 36.687602 
L 91.985412 36.903362 
L 91.928665 37.113119 
L 91.813448 37.538636 
L 91.698045 37.964153 
L 91.588331 38.368079 
L 91.58251 38.38967 
L 91.467761 38.815187 
L 91.352829 39.240704 
L 91.237708 39.666221 
L 91.191251 39.837813 
L 91.12301 40.091738 
L 91.00855 40.517255 
L 90.893896 40.942789 
L 90.794162 41.312416 
L 90.779193 41.368306 
L 90.6652 41.793823 
L 90.551022 42.21934 
L 90.436654 42.644857 
L 90.397081 42.792009 
L 90.322774 43.070374 
L 90.209069 43.495891 
L 90.095172 43.921408 
L 90 44.276484 
" style="fill:none;stroke:#f7fbff;stroke-width:1.5;"/>
   </g>
   <g id="LineCollection_2">
    <path clip-path="url(#pf983e5131a)" d="M 98.017674 34.56 
L 97.941649 34.824676 
L 97.895798 34.985517 
L 97.774413 35.411034 
L 97.652813 35.836551 
L 97.544568 36.214729 
L 97.531122 36.262068 
L 97.410221 36.687602 
L 97.289112 37.113119 
L 97.167788 37.538636 
L 97.14748 37.609843 
L 97.047191 37.964153 
L 96.926569 38.38967 
L 96.805733 38.815187 
L 96.750399 39.009886 
L 96.685293 39.240704 
L 96.565154 39.666221 
L 96.444804 40.091738 
L 96.353318 40.414761 
L 96.324511 40.517255 
L 96.204863 40.942789 
L 96.085002 41.368306 
L 95.964929 41.793823 
L 95.956237 41.82462 
L 95.845685 42.21934 
L 95.726312 42.644857 
L 95.606725 43.070374 
L 95.559156 43.239516 
L 95.487601 43.495891 
L 95.368712 43.921408 
L 95.249609 44.346925 
L 95.162067 44.65927 
L 95.13059 44.772442 
L 95.012186 45.197959 
L 94.893564 45.623493 
L 94.774737 46.04901 
L 94.764986 46.083922 
L 94.656724 46.474527 
L 94.538592 46.900044 
L 94.420248 47.325561 
L 94.367906 47.51362 
L 94.302317 47.751078 
L 94.184665 48.176595 
L 94.066805 48.602112 
L 93.970825 48.948151 
L 93.948948 49.027629 
L 93.831777 49.453146 
L 93.7144 49.878663 
L 93.596811 50.304197 
L 93.573744 50.387642 
L 93.479908 50.729714 
L 93.363014 51.155231 
L 93.245914 51.580748 
L 93.176663 51.832125 
L 93.129056 52.006265 
L 93.012643 52.431782 
L 92.896022 52.857299 
L 92.779574 53.281437 
L 92.779199 53.282816 
L 92.663262 53.708333 
L 92.547123 54.13385 
L 92.430776 54.559367 
L 92.382493 54.735819 
L 92.314858 54.984901 
L 92.199195 55.410418 
L 92.083325 55.835935 
L 91.985412 56.194973 
L 91.967423 56.261452 
L 91.852241 56.686969 
L 91.736859 57.112486 
L 91.62127 57.538003 
L 91.588331 57.659196 
L 91.506255 57.96352 
L 91.391346 58.389037 
L 91.276232 58.814554 
L 91.191251 59.128273 
L 91.161195 59.240088 
L 91.046762 59.665605 
L 90.932126 60.091122 
L 90.817285 60.516639 
L 90.794162 60.602286 
L 90.703111 60.942156 
L 90.588953 61.367673 
L 90.47459 61.79319 
L 90.397081 62.081241 
L 90.360377 62.218707 
L 90.2467 62.644224 
L 90.132813 63.069741 
L 90.018723 63.495257 
L 90 63.565073 
" style="fill:none;stroke:#dbe9f6;stroke-width:1.5;"/>
   </g>
   <g id="LineCollection_3">
    <path clip-path="url(#pf983e5131a)" d="M 104.199132 34.56 
L 99.132892 51.66484 
L 93.63049 71.154597 
L 90 84.530382 
L 90 84.530382 
" style="fill:none;stroke:#bad6eb;stroke-width:1.5;"/>
   </g>
   <g id="LineCollection_4">
    <path clip-path="url(#pf983e5131a)" d="M 111.493084 34.56 
L 107.074541 48.416249 
L 101.840729 65.62286 
L 96.660932 83.494641 
L 91.362129 102.642974 
L 90 107.704345 
L 90 107.704345 
" style="fill:none;stroke:#89bedc;stroke-width:1.5;"/>
   </g>
   <g id="LineCollection_5">
    <path clip-path="url(#pf983e5131a)" d="M 120.499149 34.56 
L 115.733472 48.176595 
L 110.923332 62.644224 
L 106.074179 77.962904 
L 101.441898 93.281566 
L 96.276149 111.153348 
L 90.874483 130.727206 
L 90 133.979682 
L 90 133.979682 
" style="fill:none;stroke:#539ecd;stroke-width:1.5;"/>
   </g>
   <g id="LineCollection_6">
    <path clip-path="url(#pf983e5131a)" d="M 165.993088 252 
L 169.416477 247.650842 
L 172.625155 243.915143 
L 175.830877 240.511007 
L 178.94645 237.516369 
L 182.123113 234.781748 
L 185.299768 232.368875 
L 188.079342 230.520999 
L 190.858924 228.919144 
L 193.638498 227.563043 
L 196.418072 226.452831 
L 199.197654 225.588146 
L 201.977228 224.968938 
L 204.756802 224.595457 
L 207.536385 224.467541 
L 210.315959 224.585154 
L 213.095533 224.94833 
L 215.875107 225.557163 
L 218.654689 226.41151 
L 221.434263 227.511465 
L 224.213837 228.857216 
L 226.993411 230.448791 
L 229.969491 232.42615 
L 232.782502 234.553735 
L 235.729222 237.052227 
L 238.934862 240.085473 
L 242.179699 243.489626 
L 245.498794 247.319296 
L 248.549018 251.148966 
L 249.196485 252 
L 249.196485 252 
" style="fill:none;stroke:#2b7bba;stroke-width:1.5;"/>
    <path clip-path="url(#pf983e5131a)" d="M 292.909091 61.706241 
L 292.78471 61.367673 
L 292.628767 60.942156 
L 292.51201 60.622832 
L 292.47282 60.516639 
L 292.315906 60.091122 
L 292.159472 59.665605 
L 292.114929 59.544342 
L 292.002129 59.240088 
L 291.844707 58.814554 
L 291.717848 58.470787 
L 291.687399 58.389037 
L 291.529004 57.96352 
L 291.371091 57.538003 
L 291.320767 57.402269 
L 291.212334 57.112486 
L 291.053444 56.686969 
L 290.923671 56.338563 
L 290.894682 56.261452 
L 290.734804 55.835935 
L 290.575411 55.410418 
L 290.52659 55.279961 
L 290.415146 54.984901 
L 290.254764 54.559367 
L 290.129509 54.22624 
L 290.094449 54.13385 
L 289.933083 53.708333 
L 289.772209 53.282816 
L 289.732428 53.177516 
L 289.610338 52.857299 
L 289.448474 52.431782 
L 289.335347 52.133758 
L 289.286505 52.006265 
L 289.12364 51.580748 
L 288.961271 51.155231 
L 288.938266 51.094917 
L 288.797692 50.729714 
L 288.634328 50.304197 
L 288.541185 50.06117 
L 288.470595 49.878663 
L 288.306233 49.453146 
L 288.144105 49.032153 
L 288.142346 49.027629 
L 287.97698 48.602112 
L 287.812114 48.176595 
L 287.747024 48.008397 
L 287.646531 47.751078 
L 287.480655 47.325561 
L 287.349943 46.989437 
L 287.314862 46.900044 
L 287.14798 46.474527 
L 286.981604 46.04901 
L 286.952846 45.975421 
L 286.814057 45.623493 
L 286.646666 45.197959 
L 286.555765 44.966497 
L 286.478858 44.772442 
L 286.310454 44.346925 
L 286.158684 43.962379 
L 286.142366 43.921408 
L 285.972938 43.495891 
L 285.804026 43.070374 
L 285.761603 42.96342 
L 285.634097 42.644857 
L 285.464163 42.21934 
L 285.364522 41.969391 
L 285.293895 41.793823 
L 285.122935 41.368306 
L 284.967442 40.980214 
L 284.952311 40.942789 
L 284.780314 40.517255 
L 284.608849 40.091738 
L 284.570361 39.996161 
L 284.436291 39.666221 
L 284.263792 39.240704 
L 284.17328 39.017076 
L 284.090824 38.815187 
L 283.917289 38.38967 
L 283.776199 38.042855 
L 283.74389 37.964153 
L 283.569304 37.538636 
L 283.395251 37.113119 
L 283.379118 37.073667 
L 283.21982 36.687602 
L 283.044726 36.262068 
L 282.982037 36.109559 
L 282.868803 35.836551 
L 282.69266 35.411034 
L 282.58494 35.150327 
L 282.516228 34.985517 
L 282.339027 34.56 
" style="fill:none;stroke:#2b7bba;stroke-width:1.5;"/>
    <path clip-path="url(#pf983e5131a)" d="M 132.544831 34.56 
L 128.573272 44.346925 
L 124.546167 54.778177 
L 119.781177 67.780316 
L 114.772142 82.21809 
L 110.41642 95.409168 
L 105.848442 109.876788 
L 100.59388 127.323053 
L 95.459225 145.194835 
L 90.085408 164.768693 
L 90 165.085322 
L 90 165.085322 
" style="fill:none;stroke:#2b7bba;stroke-width:1.5;"/>
   </g>
   <g id="LineCollection_7">
    <path clip-path="url(#pf983e5131a)" d="M 142.204492 252 
L 146.20023 243.915143 
L 150.013092 236.681337 
L 153.851086 229.873031 
L 157.504003 223.832872 
L 161.077747 218.338351 
L 164.651483 213.253014 
L 168.225227 208.576161 
L 171.401882 204.761451 
L 174.578545 201.268423 
L 177.901708 197.959138 
L 180.931862 195.246834 
L 184.108517 192.717537 
L 186.952945 190.725323 
L 189.737814 189.023247 
L 192.447248 187.602902 
L 195.22683 186.388347 
L 198.006404 185.4186 
L 200.785978 184.693922 
L 203.56556 184.213894 
L 206.345134 183.978789 
L 209.124708 183.988336 
L 211.90429 184.242619 
L 214.683864 184.741839 
L 217.463438 185.485621 
L 220.24302 186.474614 
L 223.100171 187.746696 
L 225.802168 189.186991 
L 228.581751 190.910987 
L 231.361317 192.880468 
L 234.507619 195.406027 
L 237.35113 197.959138 
L 240.494225 201.08035 
L 243.855509 204.767435 
L 247.043705 208.597105 
L 250.306371 212.852292 
L 253.62725 217.532987 
L 257.264236 223.064743 
L 260.901833 229.021997 
L 264.539478 235.404769 
L 268.289981 242.431924 
L 272.227119 250.297932 
L 273.047429 252 
L 273.047429 252 
" style="fill:none;stroke:#0b559f;stroke-width:1.5;"/>
    <path clip-path="url(#pf983e5131a)" d="M 292.909091 102.467904 
L 288.011667 89.451896 
L 283.608284 78.38842 
L 279.408293 68.40195 
L 274.939297 58.389037 
L 270.898531 49.878663 
L 267.032092 42.21934 
L 263.127914 34.967537 
L 262.899759 34.56 
L 262.899759 34.56 
" style="fill:none;stroke:#0b559f;stroke-width:1.5;"/>
    <path clip-path="url(#pf983e5131a)" d="M 151.922619 34.56 
L 147.974027 41.86712 
L 143.923626 49.878663 
L 139.882966 58.389037 
L 135.88168 67.324927 
L 131.913089 76.686335 
L 127.722826 87.10622 
L 122.943354 99.664338 
L 118.043211 113.280941 
L 113.427859 126.784336 
L 108.140463 143.067242 
L 103.145179 159.236947 
L 98.864117 173.704584 
L 94.367906 189.495495 
L 90 205.424461 
L 90 205.424461 
" style="fill:none;stroke:#0b559f;stroke-width:1.5;"/>
   </g>
   <g id="LineCollection_8">
    <path clip-path="url(#pf983e5131a)" d="M 109.488386 252 
L 112.511622 242.213075 
L 119.516126 220.93714 
L 123.752002 209.010406 
L 126.531576 201.551538 
L 129.411586 194.129468 
L 133.281978 184.657225 
L 136.161186 177.959762 
L 140.032377 169.437755 
L 143.092698 163.066617 
L 147.680691 154.130726 
L 151.694323 146.896912 
L 155.915672 139.866836 
L 159.092335 134.958672 
L 162.319551 130.301681 
L 165.842734 125.595941 
L 169.290543 121.36579 
L 172.593132 117.660695 
L 175.769787 114.413534 
L 178.94645 111.47515 
L 182.123113 108.842661 
L 185.364626 106.472644 
L 188.079342 104.729211 
L 191.064214 103.068491 
L 193.771095 101.79194 
L 196.418072 100.752793 
L 199.197654 99.887634 
L 202.05614 99.238821 
L 204.756802 98.845447 
L 207.536385 98.665501 
L 210.315959 98.714907 
L 213.095533 98.99139 
L 215.875107 99.495932 
L 218.654689 100.228058 
L 221.434263 101.187284 
L 224.213837 102.374101 
L 227.227927 103.919525 
L 229.772993 105.42972 
L 232.949656 107.584632 
L 236.126303 110.037123 
L 239.375818 112.855424 
L 242.479629 115.838905 
L 245.702388 119.238205 
L 249.230036 123.313784 
L 252.419956 127.323053 
L 255.872219 132.003757 
L 259.643949 137.535504 
L 263.666869 143.918275 
L 268.119025 151.577615 
L 273.111284 160.939023 
L 276.490287 167.747321 
L 282.337989 180.512873 
L 287.141966 192.001883 
L 292.909091 207.133472 
L 292.909091 207.133472 
" style="fill:none;stroke:#08306b;stroke-width:1.5;"/>
    <path clip-path="url(#pf983e5131a)" d="M 292.909091 195.229607 
L 290.604575 189.023247 
L 288.527307 183.491509 
L 284.255056 172.428025 
L 282.057402 166.896278 
L 277.819954 156.557081 
L 269.878305 138.568736 
L 263.983226 126.472019 
L 261.087925 120.940273 
L 257.059282 113.706458 
L 253.597941 107.921417 
L 249.627116 101.784556 
L 246.025958 96.685719 
L 242.747279 92.430532 
L 239.700047 88.804801 
L 236.5234 85.366115 
L 233.743818 82.64135 
L 230.567155 79.857959 
L 227.787589 77.707349 
L 225.008007 75.822859 
L 222.087274 74.133234 
L 219.442461 72.856683 
L 216.669276 71.780848 
L 214.286783 71.06736 
L 211.507201 70.484471 
L 209.124708 70.196785 
L 206.742215 70.106079 
L 204.359722 70.210565 
L 201.977228 70.511911 
L 199.594735 71.008254 
L 197.212242 71.699982 
L 194.43266 72.753604 
L 192.050167 73.868066 
L 189.270593 75.412 
L 186.491019 77.222352 
L 183.711437 79.294013 
L 180.74837 81.792556 
L 177.7552 84.616481 
L 174.578545 87.943318 
L 171.401882 91.606151 
L 168.052614 95.834685 
L 164.942266 100.089872 
L 161.760284 104.770576 
L 158.518239 109.876788 
L 155.223145 115.408535 
L 152.115901 120.940273 
L 148.942569 126.897536 
L 145.710071 133.280317 
L 142.626091 139.663088 
L 139.474798 146.471395 
L 135.89249 154.556243 
L 132.456079 162.6411 
L 125.961199 178.810805 
L 122.16367 188.760619 
L 113.056147 214.128852 
L 110.587606 221.362657 
L 102.926111 244.766177 
L 100.647346 252 
L 100.647346 252 
" style="fill:none;stroke:#08306b;stroke-width:1.5;"/>
   </g>
   <g id="patch_3">
    <path d="M 90 252 
L 90 34.56 
" style="fill:none;stroke:#000000;stroke-linecap:square;stroke-linejoin:miter;stroke-width:0.8;"/>
   </g>
   <g id="patch_4">
    <path d="M 292.909091 252 
L 292.909091 34.56 
" style="fill:none;stroke:#000000;stroke-linecap:square;stroke-linejoin:miter;stroke-width:0.8;"/>
   </g>
   <g id="patch_5">
    <path d="M 90 252 
L 292.909091 252 
" style="fill:none;stroke:#000000;stroke-linecap:square;stroke-linejoin:miter;stroke-width:0.8;"/>
   </g>
   <g id="patch_6">
    <path d="M 90 34.56 
L 292.909091 34.56 
" style="fill:none;stroke:#000000;stroke-linecap:square;stroke-linejoin:miter;stroke-width:0.8;"/>
   </g>
   <g id="text_13">
    <!-- true: $\log p(\mathbf{x}) - \log q(\mathbf{x})$ -->
    <defs>
     <path d="M 15.09375 40 
L 29.09375 40 
L 29.09375 42.578125 
L 15.09375 42.578125 
L 15.09375 61 
L 13.296875 61 
C 13.09375 50.703125 9.59375 41.6875 1.09375 41.6875 
L 1.09375 40 
L 9.796875 40 
L 9.796875 12.046875 
C 9.796875 10.15625 9.796875 -1 21.40625 -1 
C 27.296875 -1 30.703125 4.78125 30.703125 12.140625 
L 30.703125 17.8125 
L 28.90625 17.8125 
L 28.90625 12.234375 
C 28.90625 5.375 26.203125 0.796875 22 0.796875 
C 19.09375 0.796875 15.09375 2.78125 15.09375 11.84375 
z
" id="CMR17-116"/>
     <path d="M 15 23.390625 
C 15 33 19.09375 42 26.59375 42 
C 27.296875 42 28 41.90625 28.703125 41.59375 
C 28.703125 41.59375 26.5 40.890625 26.5 38.3125 
C 26.5 35.90625 28.40625 34.90625 29.90625 34.90625 
C 31.09375 34.90625 33.296875 35.609375 33.296875 38.40625 
C 33.296875 41.609375 30.09375 43.59375 26.703125 43.59375 
C 19.09375 43.59375 15.796875 36.203125 14.796875 32.703125 
L 14.703125 32.703125 
L 14.703125 43.59375 
L 3.09375 42.5 
L 3.09375 39.90625 
C 9 39.90625 9.90625 39.296875 9.90625 34.5 
L 9.90625 6.6875 
C 9.90625 2.875 9.5 2.390625 3.09375 2.390625 
L 3.09375 -0.203125 
C 5.5 0 10.09375 0 12.703125 0 
C 15.59375 0 20.703125 0 23.40625 -0.203125 
L 23.40625 2.390625 
C 16.203125 2.390625 15 2.390625 15 6.875 
z
" id="CMR17-114"/>
     <path d="M 29.40625 42.078125 
L 29.40625 39.5 
C 35.296875 39.5 36.203125 38.890625 36.203125 34.15625 
L 36.203125 16.125 
C 36.203125 7.8125 31.703125 0.59375 24.296875 0.59375 
C 16.09375 0.59375 15.40625 5.4375 15.40625 10.59375 
L 15.40625 43.171875 
L 3.296875 42.078125 
L 3.296875 39.5 
C 7.296875 39.5 10 39.5 10.09375 35.53125 
L 10.09375 16.53125 
C 10.09375 9.890625 10.09375 5.640625 12.703125 2.859375 
C 14 1.578125 16.5 -1 23.703125 -1 
C 32.203125 -1 35.5 5.890625 36.296875 7.90625 
L 36.40625 7.90625 
L 36.40625 -0.984375 
L 48.296875 -0.984375 
L 48.296875 2 
C 42.40625 2 41.5 2.59375 41.5 7.390625 
L 41.5 43.171875 
z
" id="CMR17-117"/>
     <path d="M 38.09375 23 
C 38.5 23.40625 38.5 23.609375 38.5 24.625 
C 38.5 34.96875 33.09375 44 21.703125 44 
C 11.09375 44 2.703125 33.890625 2.703125 21.609375 
C 2.703125 8.609375 12.203125 -1 22.796875 -1 
C 34 -1 38.40625 9.484375 38.40625 11.5625 
C 38.40625 12.25 37.796875 12.25 37.59375 12.25 
C 36.90625 12.25 36.796875 12.046875 36.40625 10.875 
C 34.203125 4.140625 28.703125 0.796875 23.5 0.796875 
C 19.203125 0.796875 14.90625 3.171875 12.203125 7.5 
C 9.09375 12.546875 9.09375 18.375 9.09375 23 
z
M 9.203125 24.5 
C 9.90625 39.140625 17.59375 42.40625 21.59375 42.40625 
C 28.40625 42.40625 33 35.890625 33.09375 24.5 
z
" id="CMR17-101"/>
     <path d="M 16.59375 38.921875 
C 16.59375 41.40625 14.59375 43 12.5 43 
C 10.5 43 8.40625 41.40625 8.40625 38.921875 
C 8.40625 36.4375 10.40625 34.84375 12.5 34.84375 
C 14.5 34.84375 16.59375 36.4375 16.59375 38.921875 
M 16.59375 4.078125 
C 16.59375 6.5625 14.59375 8.15625 12.5 8.15625 
C 10.5 8.15625 8.40625 6.5625 8.40625 4.078125 
C 8.40625 1.59375 10.40625 0 12.5 0 
C 14.5 0 16.59375 1.59375 16.59375 4.078125 
" id="CMR17-58"/>
     <path d="M 15.296875 68.6875 
L 3.40625 67.59375 
L 3.40625 65 
C 9.296875 65 10.203125 64.40625 10.203125 59.640625 
L 10.203125 6.65625 
C 10.203125 2.875 9.796875 2.390625 3.40625 2.390625 
L 3.40625 -0.203125 
C 5.796875 0 10.203125 0 12.703125 0 
C 15.296875 0 19.703125 0 22.09375 -0.203125 
L 22.09375 2.390625 
C 15.703125 2.390625 15.296875 2.78125 15.296875 6.65625 
z
" id="CMR17-108"/>
     <path d="M 43.09375 21.1875 
C 43.09375 34 33.796875 44 22.90625 44 
C 12 44 2.703125 34 2.703125 21.1875 
C 2.703125 8.609375 12 -1 22.90625 -1 
C 33.796875 -1 43.09375 8.609375 43.09375 21.1875 
M 22.90625 0.796875 
C 18.203125 0.796875 14.203125 3.59375 11.90625 7.5 
C 9.40625 11.984375 9.09375 17.59375 9.09375 22 
C 9.09375 26.203125 9.296875 31.40625 11.90625 35.90625 
C 13.90625 39.203125 17.796875 42.40625 22.90625 42.40625 
C 27.40625 42.40625 31.203125 39.90625 33.59375 36.40625 
C 36.703125 31.703125 36.703125 25.109375 36.703125 22 
C 36.703125 18.09375 36.5 12.109375 33.796875 7.296875 
C 31 2.703125 26.703125 0.796875 22.90625 0.796875 
" id="CMR17-111"/>
     <path d="M 11.09375 18.1875 
C 13 16.6875 16.296875 15 20.296875 15 
C 28.203125 15 35 21.203125 35 29.5 
C 35 32.09375 34.203125 36.09375 31.203125 39.203125 
C 34 42.0625 38.09375 43 40.40625 43 
C 40.796875 43 41.40625 43 41.90625 42.71875 
C 41.5 42.625 40.59375 42.234375 40.59375 40.703125 
C 40.59375 39.484375 41.5 38.609375 42.796875 38.609375 
C 44.296875 38.609375 45.09375 39.578125 45.09375 40.84375 
C 45.09375 42.671875 43.59375 44.59375 40.40625 44.59375 
C 36.40625 44.59375 32.90625 42.78125 30.09375 40.3125 
C 27.09375 43.015625 23.5 44 20.296875 44 
C 12.40625 44 5.59375 37.796875 5.59375 29.5 
C 5.59375 23.78125 8.90625 20.1875 9.90625 19.1875 
C 6.90625 15.6875 6.90625 11.609375 6.90625 11.109375 
C 6.90625 8.515625 7.90625 4.71875 11.296875 2.625 
C 6.09375 1.328125 2 -2.640625 2 -7.59375 
C 2 -14.734375 11.5 -20 22.90625 -20 
C 33.90625 -20 43.796875 -14.9375 43.796875 -7.484375 
C 43.796875 6 29 6 21.296875 6 
C 19 6 14.90625 6 14.40625 6.109375 
C 11.296875 6.609375 9.203125 9.40625 9.203125 12.90625 
C 9.203125 13.796875 9.203125 16 11.09375 18.1875 
M 20.296875 16.6875 
C 11.5 16.6875 11.5 27.5 11.5 29.515625 
C 11.5 31.5 11.5 42.3125 20.296875 42.3125 
C 29.09375 42.3125 29.09375 31.5 29.09375 29.515625 
C 29.09375 27.5 29.09375 16.6875 20.296875 16.6875 
M 22.90625 -18.296875 
C 12.90625 -18.296875 6 -13.046875 6 -7.59375 
C 6 -4.515625 7.703125 -1.640625 9.90625 -0.0625 
C 12.40625 1.625 13.40625 1.625 20.203125 1.625 
C 28.40625 1.625 39.796875 1.625 39.796875 -7.59375 
C 39.796875 -13.046875 32.90625 -18.296875 22.90625 -18.296875 
" id="CMR17-103"/>
     <path d="M 4.296875 -12.328125 
C 3.59375 -15.3125 3.203125 -16.109375 -0.90625 -16.109375 
C -2.09375 -16.109375 -3.09375 -16.109375 -3.09375 -18 
C -3.09375 -18.203125 -3 -19 -1.90625 -19 
C -0.59375 -19 0.796875 -19 2.09375 -19 
L 6.40625 -19 
C 8.5 -19 13.59375 -19 15.703125 -19 
C 16.296875 -19 17.5 -19 17.5 -17.203125 
C 17.5 -16.109375 16.796875 -16.109375 15.09375 -16.109375 
C 10.5 -16.109375 10.203125 -15.421875 10.203125 -14.640625 
C 10.203125 -13.453125 14.703125 3.421875 15.296875 5.6875 
C 16.40625 2.890625 19.09375 -1 24.296875 -1 
C 35.59375 -1 47.796875 13.671875 47.796875 28.34375 
C 47.796875 37.515625 42.59375 44 35.09375 44 
C 28.703125 44 23.296875 37.8125 22.203125 36.421875 
C 21.40625 41.40625 17.5 44 13.5 44 
C 10.59375 44 8.296875 42.609375 6.40625 38.8125 
C 4.59375 35.21875 3.203125 29.140625 3.203125 28.734375 
C 3.203125 28.34375 3.59375 27.84375 4.296875 27.84375 
C 5.09375 27.84375 5.203125 27.9375 5.796875 30.234375 
C 7.296875 36.125 9.203125 42.015625 13.203125 42.015625 
C 15.5 42.015625 16.296875 40.421875 16.296875 37.453125 
C 16.296875 35.078125 16 34.078125 15.59375 32.296875 
z
M 21.59375 31.140625 
C 22.296875 33.921875 25.09375 36.828125 26.703125 38.21875 
C 27.796875 39.21875 31.09375 42.015625 34.90625 42.015625 
C 39.296875 42.015625 41.296875 37.625 41.296875 32.4375 
C 41.296875 27.640625 38.5 16.359375 36 11.171875 
C 33.5 5.78125 28.90625 1 24.296875 1 
C 17.5 1 16.40625 9.578125 16.40625 9.984375 
C 16.40625 10.28125 16.59375 11.078125 16.703125 11.578125 
z
" id="CMMI12-112"/>
     <path d="M 30.59375 -24.390625 
C 30.59375 -24.296875 30.59375 -24.09375 30.296875 -23.796875 
C 25.703125 -19.125 13.40625 -6.359375 13.40625 24.703125 
C 13.40625 55.765625 25.5 68.421875 30.40625 73.390625 
C 30.40625 73.5 30.59375 73.703125 30.59375 74 
C 30.59375 74.296875 30.296875 74.5 29.90625 74.5 
C 28.796875 74.5 20.296875 67.125 15.40625 56.15625 
C 10.40625 45.109375 9 34.359375 9 24.8125 
C 9 17.625 9.703125 5.484375 15.703125 -7.359375 
C 20.5 -17.734375 28.703125 -25 29.90625 -25 
C 30.40625 -25 30.59375 -24.796875 30.59375 -24.390625 
" id="CMR17-40"/>
     <path d="M 33.703125 24.484375 
L 45.296875 37.734375 
C 46.40625 39.03125 47.296875 39.828125 55.59375 39.828125 
L 55.59375 44 
C 50 44 49.796875 44 46.40625 44 
C 43.5 44 39.203125 44 36.40625 44.09375 
L 36.40625 39.828125 
C 38.296875 39.828125 40.40625 39.328125 40.40625 38.625 
C 40.40625 38.4375 39.90625 37.734375 39.703125 37.53125 
L 31 27.78125 
L 21.09375 39.828125 
L 25.296875 39.828125 
L 25.296875 44.09375 
C 23 44 16.203125 44 13.5 44 
C 10.5 44 5.09375 44 2.296875 44.09375 
L 2.296875 39.828125 
L 9.40625 39.828125 
L 25 20.90625 
L 12 6.265625 
C 10.796875 4.875 10.09375 4.171875 1.796875 4.171875 
L 1.796875 0 
C 7.796875 0 8 0 11.09375 0 
C 14 0 18.203125 0 21 -0.09375 
L 21 4.171875 
C 19.09375 4.171875 17 4.671875 17 5.375 
C 17 5.46875 17 5.5625 17.703125 6.359375 
L 27.703125 17.625 
L 38.796875 4.171875 
L 34.59375 4.171875 
L 34.59375 -0.09375 
C 37 0 43.703125 0 46.5 0 
C 49.5 0 54.796875 0 57.59375 -0.09375 
L 57.59375 4.171875 
L 50.59375 4.171875 
z
" id="CMBX12-120"/>
     <path d="M 26.296875 24.703125 
C 26.296875 31.875 25.59375 44.015625 19.59375 56.859375 
C 14.796875 67.234375 6.59375 74.5 5.40625 74.5 
C 5.09375 74.5 4.703125 74.390625 4.703125 73.890625 
C 4.703125 73.703125 4.796875 73.59375 4.90625 73.390625 
C 9.703125 68.40625 21.90625 55.75 21.90625 24.75 
C 21.90625 -6.359375 9.796875 -19.015625 4.90625 -24.015625 
C 4.796875 -24.203125 4.703125 -24.3125 4.703125 -24.5 
C 4.703125 -25 5.09375 -25 5.40625 -25 
C 6.5 -25 15 -17.625 19.90625 -6.65625 
C 24.90625 4.390625 26.296875 15.140625 26.296875 24.703125 
" id="CMR17-41"/>
     <path d="M 44.09375 43.109375 
C 44.09375 43.59375 43.703125 44 43.203125 44 
C 42.40625 44 38.5 40.390625 36.59375 36.90625 
C 34.796875 41.34375 31.703125 44 27.40625 44 
C 16.09375 44 3.90625 29.4375 3.90625 14.671875 
C 3.90625 4.796875 9.703125 -1 16.5 -1 
C 21.796875 -1 26.203125 3.015625 28.296875 5.296875 
L 28.40625 5.203125 
L 24.59375 -9.609375 
L 23.703125 -13.15625 
C 22.796875 -16.109375 21.296875 -16.109375 16.59375 -16.109375 
C 15.5 -16.109375 14.5 -16.109375 14.5 -18 
C 14.5 -18.703125 15.09375 -19 15.796875 -19 
C 17.203125 -19 19 -19 20.40625 -19 
L 30.59375 -19 
C 32.09375 -19 33.796875 -19 35.296875 -19 
C 35.90625 -19 37.09375 -19 37.09375 -17.109375 
C 37.09375 -16.109375 36.296875 -16.109375 34.796875 -16.109375 
C 30.09375 -16.109375 29.796875 -15.40625 29.796875 -14.609375 
C 29.796875 -14.125 29.90625 -14.03125 30.203125 -12.734375 
z
M 30 11.90625 
C 29.5 10.1875 29.5 10 28.09375 8.09375 
C 25.90625 5.296875 21.5 1 16.796875 1 
C 12.703125 1 10.40625 4.703125 10.40625 10.59375 
C 10.40625 16.09375 13.5 27.296875 15.40625 31.5 
C 18.796875 38.5 23.5 42.109375 27.40625 42.109375 
C 34 42.109375 35.296875 33.90625 35.296875 33.109375 
C 35.296875 33.015625 35 31.6875 34.90625 31.5 
z
" id="CMMI12-113"/>
    </defs>
    <g transform="translate(98.085479 28.56)scale(0.192 -0.192)">
     <use transform="scale(0.996264)" xlink:href="#CMR17-116"/>
     <use transform="translate(35.280768 0)scale(0.996264)" xlink:href="#CMR17-114"/>
     <use transform="translate(70.561536 0)scale(0.996264)" xlink:href="#CMR17-117"/>
     <use transform="translate(121.456905 0)scale(0.996264)" xlink:href="#CMR17-101"/>
     <use transform="translate(161.942566 0)scale(0.996264)" xlink:href="#CMR17-58"/>
     <use transform="translate(227.299285 0)scale(0.996264)" xlink:href="#CMR17-108"/>
     <use transform="translate(252.170343 0)scale(0.996264)" xlink:href="#CMR17-111"/>
     <use transform="translate(297.86082 0)scale(0.996264)" xlink:href="#CMR17-103"/>
     <use transform="translate(361.456869 0)scale(0.996264)" xlink:href="#CMMI12-112"/>
     <use transform="translate(410.416383 0)scale(0.996264)" xlink:href="#CMR17-40"/>
     <use transform="translate(445.697151 0)scale(0.996264)" xlink:href="#CMBX12-120"/>
     <use transform="translate(504.850326 0)scale(0.996264)" xlink:href="#CMR17-41"/>
     <use transform="translate(562.270301 0)scale(0.996264)" xlink:href="#CMSY10-0"/>
     <use transform="translate(661.896976 0)scale(0.996264)" xlink:href="#CMR17-108"/>
     <use transform="translate(686.768034 0)scale(0.996264)" xlink:href="#CMR17-111"/>
     <use transform="translate(732.458511 0)scale(0.996264)" xlink:href="#CMR17-103"/>
     <use transform="translate(796.05456 0)scale(0.996264)" xlink:href="#CMMI12-113"/>
     <use transform="translate(842.880884 0)scale(0.996264)" xlink:href="#CMR17-40"/>
     <use transform="translate(878.161651 0)scale(0.996264)" xlink:href="#CMBX12-120"/>
     <use transform="translate(937.314827 0)scale(0.996264)" xlink:href="#CMR17-41"/>
    </g>
   </g>
  </g>
  <g id="axes_2">
   <g id="patch_7">
    <path d="M 333.490909 252 
L 536.4 252 
L 536.4 34.56 
L 333.490909 34.56 
z
" style="fill:#ffffff;"/>
   </g>
   <g id="matplotlib.axis_3">
    <g id="xtick_4">
     <g id="line2d_11">
      <g>
       <use style="stroke:#000000;stroke-width:0.8;" x="367.309091" xlink:href="#m7ed3928e7a" y="252"/>
      </g>
     </g>
     <g id="text_14">
      <!-- $-2$ -->
      <g transform="translate(357.208099 270.069588)scale(0.16 -0.16)">
       <use transform="scale(0.996264)" xlink:href="#CMSY10-0"/>
       <use transform="translate(77.487468 0)scale(0.996264)" xlink:href="#CMR17-50"/>
      </g>
     </g>
    </g>
    <g id="xtick_5">
     <g id="line2d_12">
      <g>
       <use style="stroke:#000000;stroke-width:0.8;" x="434.945455" xlink:href="#m7ed3928e7a" y="252"/>
      </g>
     </g>
     <g id="text_15">
      <!-- $0$ -->
      <g transform="translate(431.043461 270.069588)scale(0.16 -0.16)">
       <use transform="scale(0.996264)" xlink:href="#CMR17-48"/>
      </g>
     </g>
    </g>
    <g id="xtick_6">
     <g id="line2d_13">
      <g>
       <use style="stroke:#000000;stroke-width:0.8;" x="502.581818" xlink:href="#m7ed3928e7a" y="252"/>
      </g>
     </g>
     <g id="text_16">
      <!-- $2$ -->
      <g transform="translate(498.679825 270.069588)scale(0.16 -0.16)">
       <use transform="scale(0.996264)" xlink:href="#CMR17-50"/>
      </g>
     </g>
    </g>
    <g id="text_17">
     <!-- $x_1$ -->
     <g transform="translate(427.721195 288.238653)scale(0.16 -0.16)">
      <use transform="translate(0 14.943915)scale(0.996264)" xlink:href="#CMMI12-120"/>
      <use transform="translate(55.43406 0)scale(0.697382)" xlink:href="#CMR17-49"/>
     </g>
    </g>
   </g>
   <g id="matplotlib.axis_4">
    <g id="ytick_8">
     <g id="line2d_14">
      <g>
       <use style="stroke:#000000;stroke-width:0.8;" x="333.490909" xlink:href="#m2f6e7def2b" y="252"/>
      </g>
     </g>
    </g>
    <g id="ytick_9">
     <g id="line2d_15">
      <g>
       <use style="stroke:#000000;stroke-width:0.8;" x="333.490909" xlink:href="#m2f6e7def2b" y="215.76"/>
      </g>
     </g>
    </g>
    <g id="ytick_10">
     <g id="line2d_16">
      <g>
       <use style="stroke:#000000;stroke-width:0.8;" x="333.490909" xlink:href="#m2f6e7def2b" y="179.52"/>
      </g>
     </g>
    </g>
    <g id="ytick_11">
     <g id="line2d_17">
      <g>
       <use style="stroke:#000000;stroke-width:0.8;" x="333.490909" xlink:href="#m2f6e7def2b" y="143.28"/>
      </g>
     </g>
    </g>
    <g id="ytick_12">
     <g id="line2d_18">
      <g>
       <use style="stroke:#000000;stroke-width:0.8;" x="333.490909" xlink:href="#m2f6e7def2b" y="107.04"/>
      </g>
     </g>
    </g>
    <g id="ytick_13">
     <g id="line2d_19">
      <g>
       <use style="stroke:#000000;stroke-width:0.8;" x="333.490909" xlink:href="#m2f6e7def2b" y="70.8"/>
      </g>
     </g>
    </g>
    <g id="ytick_14">
     <g id="line2d_20">
      <g>
       <use style="stroke:#000000;stroke-width:0.8;" x="333.490909" xlink:href="#m2f6e7def2b" y="34.56"/>
      </g>
     </g>
    </g>
   </g>
   <g id="LineCollection_9"/>
   <g id="LineCollection_10"/>
   <g id="LineCollection_11"/>
   <g id="LineCollection_12"/>
   <g id="LineCollection_13"/>
   <g id="LineCollection_14"/>
   <g id="LineCollection_15"/>
   <g id="LineCollection_16">
    <path clip-path="url(#p4a73de9390)" d="M 352.101852 252 
L 357.712938 233.845641 
L 361.374013 222.639226 
L 365.18963 211.575733 
L 369.744013 199.235697 
L 373.45992 189.874281 
L 377.823843 179.661839 
L 382.151807 170.300431 
L 386.389497 161.790057 
L 390.273689 154.491749 
L 394.088535 147.747945 
L 398.215334 140.914055 
L 401.789074 135.383836 
L 405.362818 130.229274 
L 408.817244 125.620977 
L 412.113217 121.579755 
L 415.346186 117.961645 
L 418.466535 114.793295 
L 421.643198 111.890793 
L 424.819852 109.301835 
L 428.16545 106.898161 
L 431.17317 105.001955 
L 434.349833 103.260222 
L 437.526488 101.777955 
L 440.703151 100.552741 
L 443.879806 99.591027 
L 446.65938 98.974076 
L 449.438962 98.576184 
L 452.218536 98.406675 
L 454.99811 98.472214 
L 457.777692 98.781757 
L 460.557266 99.340822 
L 463.33684 100.15678 
L 466.116423 101.234647 
L 468.895997 102.580752 
L 471.675579 104.198034 
L 474.455145 106.09004 
L 477.234727 108.25429 
L 480.058155 110.727831 
L 483.190956 113.784207 
L 486.367619 117.200997 
L 489.915409 121.36579 
L 493.604731 126.046494 
L 497.98044 132.003757 
L 503.252859 139.663088 
L 511.557049 152.428649 
L 515.422252 158.385913 
L 517.798459 161.790057 
L 518.928378 163.15816 
L 519.325459 163.52369 
L 519.72254 163.715521 
L 519.973366 163.492134 
L 520.052403 162.6411 
L 519.701847 160.513506 
L 518.227733 154.98176 
L 516.940804 150.726573 
L 513.063371 139.237572 
L 511.132017 134.131351 
L 509.205538 129.450647 
L 507.09452 124.769943 
L 504.9852 120.514756 
L 502.184911 115.408535 
L 499.346064 110.727831 
L 496.542697 106.472644 
L 493.118026 101.635043 
L 488.720714 95.834685 
L 484.233725 90.30293 
L 480.808471 86.401577 
L 477.984158 83.494641 
L 475.167429 80.941522 
L 472.452683 78.813937 
L 469.690158 76.955184 
L 466.910584 75.341301 
L 463.622097 73.707717 
L 460.557266 72.417245 
L 457.380603 71.330362 
L 454.99811 70.721255 
L 452.615617 70.334325 
L 450.233124 70.195084 
L 447.850631 70.311897 
L 445.468138 70.681525 
L 443.085644 71.282485 
L 440.306062 72.239608 
L 437.526488 73.436528 
L 434.349833 75.065063 
L 431.17317 76.95579 
L 427.996515 79.108761 
L 425.036056 81.367039 
L 422.040278 83.923934 
L 418.933727 86.898794 
L 416.084041 89.942459 
L 413.254906 93.281566 
L 410.302099 97.111236 
L 407.34823 101.281878 
L 403.691171 106.898161 
L 400.200747 112.677257 
L 395.038675 121.869189 
L 388.188931 134.982385 
L 383.357763 144.769318 
L 379.935295 152.003132 
L 373.993309 165.340603 
L 367.639992 180.786845 
L 355.948096 211.150216 
L 346.100308 237.106854 
L 340.464826 252 
L 340.464826 252 
" style="fill:none;stroke:#08306b;stroke-width:1.5;"/>
   </g>
   <g id="patch_8">
    <path d="M 333.490909 252 
L 333.490909 34.56 
" style="fill:none;stroke:#000000;stroke-linecap:square;stroke-linejoin:miter;stroke-width:0.8;"/>
   </g>
   <g id="patch_9">
    <path d="M 536.4 252 
L 536.4 34.56 
" style="fill:none;stroke:#000000;stroke-linecap:square;stroke-linejoin:miter;stroke-width:0.8;"/>
   </g>
   <g id="patch_10">
    <path d="M 333.490909 252 
L 536.4 252 
" style="fill:none;stroke:#000000;stroke-linecap:square;stroke-linejoin:miter;stroke-width:0.8;"/>
   </g>
   <g id="patch_11">
    <path d="M 333.490909 34.56 
L 536.4 34.56 
" style="fill:none;stroke:#000000;stroke-linecap:square;stroke-linejoin:miter;stroke-width:0.8;"/>
   </g>
   <g id="text_18">
    <!-- estimator: $\log r_{\theta}(\mathbf{x})$ -->
    <defs>
     <path d="M 30.90625 42.140625 
C 30.90625 43.953125 30.796875 44.046875 30.203125 44.046875 
C 29.796875 44.046875 29.703125 43.953125 28.5 42.453125 
C 28.203125 42.046875 27.296875 41.03125 27 40.640625 
C 23.796875 44.046875 19.296875 44.046875 17.59375 44.046875 
C 6.5 44.046875 2.5 38.234375 2.5 32.4375 
C 2.5 23.40625 12.703125 21.328125 15.59375 20.703125 
C 21.90625 19.421875 24.09375 19.015625 26.203125 17.203125 
C 27.5 16.015625 29.703125 13.8125 29.703125 10.21875 
C 29.703125 6 27.296875 0.59375 18.09375 0.59375 
C 9.40625 0.59375 6.296875 7.1875 4.5 15.953125 
C 4.203125 17.34375 4.203125 17.453125 3.40625 17.453125 
C 2.59375 17.453125 2.5 17.34375 2.5 15.359375 
L 2.5 0.984375 
C 2.5 -0.796875 2.59375 -0.90625 3.203125 -0.90625 
C 3.703125 -0.90625 3.796875 -0.796875 4.296875 0 
C 4.90625 0.890625 6.40625 3.296875 7 4.3125 
C 9 1.609375 12.5 -1 18.09375 -1 
C 28 -1 33.296875 4.421875 33.296875 12.25 
C 33.296875 17.375 30.59375 20.078125 29.296875 21.28125 
C 26.296875 24.390625 22.796875 25.09375 18.59375 25.890625 
C 13.09375 27.109375 6.09375 28.515625 6.09375 34.640625 
C 6.09375 37.234375 7.5 42.765625 17.59375 42.765625 
C 28.296875 42.765625 28.90625 32.71875 29.09375 29.5 
C 29.203125 29 29.703125 28.890625 30 28.890625 
C 30.90625 28.890625 30.90625 29.203125 30.90625 30.90625 
z
" id="CMR17-115"/>
     <path d="M 15.5 61.078125 
C 15.5 63.265625 13.703125 65.15625 11.40625 65.15625 
C 9.203125 65.15625 7.296875 63.375 7.296875 61.078125 
C 7.296875 58.890625 9.09375 57 11.40625 57 
C 13.59375 57 15.5 58.796875 15.5 61.078125 
M 3.796875 42.28125 
L 3.796875 39.703125 
C 9.40625 39.703125 10.203125 39.09375 10.203125 34.328125 
L 10.203125 6.671875 
C 10.203125 2.875 9.796875 2.390625 3.40625 2.390625 
L 3.40625 -0.203125 
C 5.796875 0 10.09375 0 12.59375 0 
C 15 0 19.09375 0 21.40625 -0.203125 
L 21.40625 2.390625 
C 15.5 2.390625 15.296875 2.984375 15.296875 6.5625 
L 15.296875 43.375 
z
" id="CMR17-105"/>
     <path d="M 67.59375 30.203125 
C 67.59375 35.1875 66.703125 43.59375 54.796875 43.59375 
C 48 43.59375 43.296875 39 41.5 33.609375 
L 41.40625 33.609375 
C 40.203125 41.8125 34.296875 43.59375 28.703125 43.59375 
C 20.796875 43.59375 16.703125 37.5 15.203125 33.5 
L 15.09375 33.5 
L 15.09375 43.59375 
L 3.296875 42.5 
L 3.296875 39.90625 
C 9.203125 39.90625 10.09375 39.296875 10.09375 34.5 
L 10.09375 6.6875 
C 10.09375 2.875 9.703125 2.390625 3.296875 2.390625 
L 3.296875 -0.203125 
C 5.703125 0 10.09375 0 12.703125 0 
C 15.296875 0 19.796875 0 22.203125 -0.203125 
L 22.203125 2.390625 
C 15.796875 2.390625 15.40625 2.78125 15.40625 6.6875 
L 15.40625 25.90625 
C 15.40625 35.109375 21 42 28 42 
C 35.40625 42 36.203125 35.40625 36.203125 30.59375 
L 36.203125 6.6875 
C 36.203125 2.875 35.796875 2.390625 29.40625 2.390625 
L 29.40625 -0.203125 
C 31.796875 0 36.203125 0 38.796875 0 
C 41.40625 0 45.90625 0 48.296875 -0.203125 
L 48.296875 2.390625 
C 41.90625 2.390625 41.5 2.78125 41.5 6.6875 
L 41.5 25.90625 
C 41.5 35.109375 47.09375 42 54.09375 42 
C 61.5 42 62.296875 35.40625 62.296875 30.59375 
L 62.296875 6.6875 
C 62.296875 2.875 61.90625 2.390625 55.5 2.390625 
L 55.5 -0.203125 
C 57.90625 0 62.296875 0 64.90625 0 
C 67.5 0 72 0 74.40625 -0.203125 
L 74.40625 2.390625 
C 68 2.390625 67.59375 2.78125 67.59375 6.6875 
z
" id="CMR17-109"/>
     <path d="M 36 25.828125 
C 36 32.375 36 35.84375 31.796875 39.734375 
C 28.09375 43 23.796875 44 20.40625 44 
C 12.5 44 6.796875 37.609375 6.796875 30.796875 
C 6.796875 27 9.796875 27 10.40625 27 
C 11.703125 27 14 27.78125 14 30.53125 
C 14 33 12.09375 34.078125 10.40625 34.078125 
C 10 34.078125 9.5 33.96875 9.203125 33.875 
C 11.296875 40.5 16.703125 42.40625 20.203125 42.40625 
C 25.203125 42.40625 30.703125 37.953125 30.703125 29.453125 
L 30.703125 25 
C 24.796875 25 17.703125 24.203125 12.09375 21.203125 
C 5.796875 17.703125 4 12.703125 4 8.90625 
C 4 1.203125 13 -1 18.296875 -1 
C 23.796875 -1 28.90625 2.171875 31.09375 7.984375 
C 31.296875 3.640625 34.09375 -0.28125 38.5 -0.28125 
C 40.59375 -0.28125 45.90625 1.09375 45.90625 8.859375 
L 45.90625 14.375 
L 44.09375 14.375 
L 44.09375 8.78125 
C 44.09375 2.78125 41.40625 2 40.09375 2 
C 36 2 36 7.15625 36 11.53125 
z
M 30.703125 13.59375 
C 30.703125 4.953125 24.5 0.59375 19 0.59375 
C 14 0.59375 10.09375 4.296875 10.09375 8.90625 
C 10.09375 11.890625 11.40625 17.1875 17.203125 20.390625 
C 22 23.09375 27.5 23.5 30.703125 23.5 
z
" id="CMR17-97"/>
     <path d="M 38.90625 40.8125 
C 35.796875 40.21875 34.203125 38.015625 34.203125 35.828125 
C 34.203125 33.421875 36.09375 32.625 37.5 32.625 
C 40.296875 32.625 42.59375 35.03125 42.59375 38.015625 
C 42.59375 41.21875 39.5 44 34.5 44 
C 30.5 44 25.90625 42.203125 21.703125 36.125 
C 21 41.40625 17 44 13 44 
C 9.09375 44 7.09375 41.015625 5.90625 38.8125 
C 4.203125 35.21875 2.703125 29.234375 2.703125 28.734375 
C 2.703125 28.34375 3.09375 27.84375 3.796875 27.84375 
C 4.59375 27.84375 4.703125 27.9375 5.296875 30.234375 
C 6.796875 36.21875 8.703125 42.015625 12.703125 42.015625 
C 15.09375 42.015625 15.796875 40.3125 15.796875 37.421875 
C 15.796875 35.21875 14.796875 31.328125 14.09375 28.234375 
L 11.296875 17.46875 
C 10.90625 15.5625 9.796875 11.078125 9.296875 9.28125 
C 8.59375 6.6875 7.5 2 7.5 1.5 
C 7.5 0.09375 8.59375 -1 10.09375 -1 
C 11.203125 -1 13.09375 -0.296875 13.703125 1.703125 
C 14 2.5 17.703125 17.5625 18.296875 19.859375 
C 18.796875 22.046875 19.40625 24.15625 19.90625 26.34375 
C 20.296875 27.734375 20.703125 29.34375 21 30.640625 
C 21.296875 31.53125 24 36.421875 26.5 38.625 
C 27.703125 39.71875 30.296875 42.015625 34.40625 42.015625 
C 36 42.015625 37.59375 41.71875 38.90625 40.8125 
" id="CMMI12-114"/>
     <path d="M 44.296875 50 
C 44.296875 60.15625 41.09375 70 32.90625 70 
C 18.90625 70 4 40.859375 4 19 
C 4 14.421875 5 -1 15.5 -1 
C 29.09375 -1 44.296875 27.4375 44.296875 50 
M 14 36 
C 15.5 41.859375 17.59375 50.21875 21.59375 57.265625 
C 24.90625 63.234375 28.40625 68 32.796875 68 
C 36.09375 68 38.296875 65.21875 38.296875 55.6875 
C 38.296875 52.09375 38 47.140625 35.09375 36 
z
M 34.40625 33.015625 
C 31.90625 23.28125 29.796875 17 26.203125 10.734375 
C 23.296875 5.671875 19.796875 1 15.59375 1 
C 12.5 1 10 3.390625 10 13.21875 
C 10 19.6875 11.59375 26.453125 13.203125 33.015625 
z
" id="CMMI12-18"/>
    </defs>
    <g transform="translate(359.604395 28.56)scale(0.192 -0.192)">
     <use transform="translate(0 14.943915)scale(0.996264)" xlink:href="#CMR17-101"/>
     <use transform="translate(40.48566 14.943915)scale(0.996264)" xlink:href="#CMR17-115"/>
     <use transform="translate(76.286998 14.943915)scale(0.996264)" xlink:href="#CMR17-116"/>
     <use transform="translate(111.567766 14.943915)scale(0.996264)" xlink:href="#CMR17-105"/>
     <use transform="translate(136.438824 14.943915)scale(0.996264)" xlink:href="#CMR17-109"/>
     <use transform="translate(213.358414 14.943915)scale(0.996264)" xlink:href="#CMR17-97"/>
     <use transform="translate(259.048891 14.943915)scale(0.996264)" xlink:href="#CMR17-116"/>
     <use transform="translate(294.329659 14.943915)scale(0.996264)" xlink:href="#CMR17-111"/>
     <use transform="translate(340.020136 14.943915)scale(0.996264)" xlink:href="#CMR17-114"/>
     <use transform="translate(375.300904 14.943915)scale(0.996264)" xlink:href="#CMR17-58"/>
     <use transform="translate(440.657623 14.943915)scale(0.996264)" xlink:href="#CMR17-108"/>
     <use transform="translate(465.528682 14.943915)scale(0.996264)" xlink:href="#CMR17-111"/>
     <use transform="translate(511.219159 14.943915)scale(0.996264)" xlink:href="#CMR17-103"/>
     <use transform="translate(574.815207 14.943915)scale(0.996264)" xlink:href="#CMMI12-114"/>
     <use transform="translate(618.776101 0)scale(0.697382)" xlink:href="#CMMI12-18"/>
     <use transform="translate(652.992729 14.943915)scale(0.996264)" xlink:href="#CMR17-40"/>
     <use transform="translate(688.273497 14.943915)scale(0.996264)" xlink:href="#CMBX12-120"/>
     <use transform="translate(747.426673 14.943915)scale(0.996264)" xlink:href="#CMR17-41"/>
    </g>
   </g>
  </g>
  <g id="axes_3">
   <g id="patch_12">
    <path clip-path="url(#pcddd6784e5)" d="M 564.3 252 
L 564.3 220.937143 
L 564.3 65.622857 
L 564.3 34.56 
L 575.172 34.56 
L 575.172 65.622857 
L 575.172 220.937143 
L 575.172 252 
z
" style="fill:#ffffff;stroke:#ffffff;stroke-linejoin:miter;stroke-width:0.01;"/>
   </g>
   <g id="matplotlib.axis_5"/>
   <g id="matplotlib.axis_6">
    <g id="ytick_15">
     <g id="line2d_21">
      <defs>
       <path d="M 0 0 
L 3.5 0 
" id="m33d12ef0a4" style="stroke:#000000;stroke-width:0.8;"/>
      </defs>
      <g>
       <use style="stroke:#000000;stroke-width:0.8;" x="575.172" xlink:href="#m33d12ef0a4" y="252"/>
      </g>
     </g>
     <g id="text_19">
      <!-- $-1050$ -->
      <defs>
       <path d="M 11.40625 57.6875 
C 12.40625 57.28125 16.5 56 20.703125 56 
C 30 56 35.09375 61.109375 38 64.0625 
C 38 64.953125 38 65.5 37.40625 65.5 
C 37.296875 65.5 37.09375 65.5 36.296875 65.046875 
C 32.796875 63.40625 28.703125 62.078125 23.703125 62.078125 
C 20.703125 62.078125 16.203125 62.484375 11.296875 64.671875 
C 10.203125 65.171875 10 65.171875 9.90625 65.171875 
C 9.40625 65.171875 9.296875 65.0625 9.296875 63.078125 
L 9.296875 34.421875 
C 9.296875 32.640625 9.296875 32.140625 10.296875 32.140625 
C 10.796875 32.140625 11 32.34375 11.5 33.03125 
C 14.703125 37.515625 19.09375 39.40625 24.09375 39.40625 
C 27.59375 39.40625 35.09375 37.21875 35.09375 20.140625 
C 35.09375 16.953125 35.09375 11.171875 32.09375 6.578125 
C 29.59375 2.484375 25.703125 0.390625 21.40625 0.390625 
C 14.796875 0.390625 8.09375 5 6.296875 12.71875 
C 6.703125 12.609375 7.5 12.421875 7.90625 12.421875 
C 9.203125 12.421875 11.703125 13.125 11.703125 16.21875 
C 11.703125 18.90625 9.796875 20 7.90625 20 
C 5.59375 20 4.09375 18.59375 4.09375 15.796875 
C 4.09375 7.09375 11 -2 21.59375 -2 
C 31.90625 -2 41.703125 6.875 41.703125 19.75 
C 41.703125 31.71875 33.90625 41 24.203125 41 
C 19.09375 41 14.796875 39.109375 11.40625 35.53125 
z
" id="CMR17-53"/>
      </defs>
      <g transform="translate(582.172 257.534794)scale(0.16 -0.16)">
       <use transform="scale(0.996264)" xlink:href="#CMSY10-0"/>
       <use transform="translate(77.487468 0)scale(0.996264)" xlink:href="#CMR17-49"/>
       <use transform="translate(123.177945 0)scale(0.996264)" xlink:href="#CMR17-48"/>
       <use transform="translate(168.868422 0)scale(0.996264)" xlink:href="#CMR17-53"/>
       <use transform="translate(214.558899 0)scale(0.996264)" xlink:href="#CMR17-48"/>
      </g>
     </g>
    </g>
    <g id="ytick_16">
     <g id="line2d_22">
      <g>
       <use style="stroke:#000000;stroke-width:0.8;" x="575.172" xlink:href="#m33d12ef0a4" y="220.937143"/>
      </g>
     </g>
     <g id="text_20">
      <!-- $-900$ -->
      <defs>
       <path d="M 35.203125 29.125 
C 35.203125 7.25 26.09375 0.484375 18.59375 0.484375 
C 16.296875 0.484375 10.703125 0.484375 8.40625 4.59375 
C 11 4.1875 12.90625 5.578125 12.90625 8.09375 
C 12.90625 10.8125 10.703125 11.703125 9.296875 11.703125 
C 8.40625 11.703125 5.703125 11.296875 5.703125 7.90625 
C 5.703125 1.109375 11.59375 -2 18.796875 -2 
C 30.296875 -2 42 10.53125 42 32.390625 
C 42 59.640625 30.796875 65.296875 23.203125 65.296875 
C 13.296875 65.296875 3.796875 56.6875 3.796875 43.40625 
C 3.796875 31.109375 11.90625 22 22.09375 22 
C 30.5 22 34.203125 29.734375 35.203125 33 
z
M 22.296875 23.59375 
C 19.59375 23.59375 15.796875 24.09375 12.703125 30.03125 
C 10.59375 33.890625 10.59375 38.453125 10.59375 43.296875 
C 10.59375 49.15625 10.59375 53.203125 13.40625 57.5625 
C 14.796875 59.640625 17.40625 63 23.203125 63 
C 35 63 35 45.078125 35 41.125 
C 35 34.09375 31.796875 23.59375 22.296875 23.59375 
" id="CMR17-57"/>
      </defs>
      <g transform="translate(582.172 226.471937)scale(0.16 -0.16)">
       <use transform="scale(0.996264)" xlink:href="#CMSY10-0"/>
       <use transform="translate(77.487468 0)scale(0.996264)" xlink:href="#CMR17-57"/>
       <use transform="translate(123.177945 0)scale(0.996264)" xlink:href="#CMR17-48"/>
       <use transform="translate(168.868422 0)scale(0.996264)" xlink:href="#CMR17-48"/>
      </g>
     </g>
    </g>
    <g id="ytick_17">
     <g id="line2d_23">
      <g>
       <use style="stroke:#000000;stroke-width:0.8;" x="575.172" xlink:href="#m33d12ef0a4" y="189.874286"/>
      </g>
     </g>
     <g id="text_21">
      <!-- $-750$ -->
      <defs>
       <path d="M 45.09375 61.578125 
L 45.09375 63.765625 
L 21.59375 63.765625 
C 9.90625 63.765625 9.703125 65.078125 9.296875 67 
L 7.5 67 
L 4.59375 48.34375 
L 6.40625 48.34375 
C 6.703125 50.234375 7.40625 55.3125 8.59375 57.203125 
C 9.203125 58 16.59375 58 18.296875 58 
L 40.296875 58 
L 29.203125 41.578125 
C 21.796875 30.53125 16.703125 15.609375 16.703125 2.578125 
C 16.703125 1.390625 16.703125 -2 20.296875 -2 
C 23.90625 -2 23.90625 1.390625 23.90625 2.671875 
L 23.90625 7.265625 
C 23.90625 23.5625 26.703125 34.3125 31.296875 41.1875 
z
" id="CMR17-55"/>
      </defs>
      <g transform="translate(582.172 195.40908)scale(0.16 -0.16)">
       <use transform="scale(0.996264)" xlink:href="#CMSY10-0"/>
       <use transform="translate(77.487468 0)scale(0.996264)" xlink:href="#CMR17-55"/>
       <use transform="translate(123.177945 0)scale(0.996264)" xlink:href="#CMR17-53"/>
       <use transform="translate(168.868422 0)scale(0.996264)" xlink:href="#CMR17-48"/>
      </g>
     </g>
    </g>
    <g id="ytick_18">
     <g id="line2d_24">
      <g>
       <use style="stroke:#000000;stroke-width:0.8;" x="575.172" xlink:href="#m33d12ef0a4" y="158.811429"/>
      </g>
     </g>
     <g id="text_22">
      <!-- $-600$ -->
      <g transform="translate(582.172 164.346223)scale(0.16 -0.16)">
       <use transform="scale(0.996264)" xlink:href="#CMSY10-0"/>
       <use transform="translate(77.487468 0)scale(0.996264)" xlink:href="#CMR17-54"/>
       <use transform="translate(123.177945 0)scale(0.996264)" xlink:href="#CMR17-48"/>
       <use transform="translate(168.868422 0)scale(0.996264)" xlink:href="#CMR17-48"/>
      </g>
     </g>
    </g>
    <g id="ytick_19">
     <g id="line2d_25">
      <g>
       <use style="stroke:#000000;stroke-width:0.8;" x="575.172" xlink:href="#m33d12ef0a4" y="127.748571"/>
      </g>
     </g>
     <g id="text_23">
      <!-- $-450$ -->
      <g transform="translate(582.172 133.283366)scale(0.16 -0.16)">
       <use transform="scale(0.996264)" xlink:href="#CMSY10-0"/>
       <use transform="translate(77.487468 0)scale(0.996264)" xlink:href="#CMR17-52"/>
       <use transform="translate(123.177945 0)scale(0.996264)" xlink:href="#CMR17-53"/>
       <use transform="translate(168.868422 0)scale(0.996264)" xlink:href="#CMR17-48"/>
      </g>
     </g>
    </g>
    <g id="ytick_20">
     <g id="line2d_26">
      <g>
       <use style="stroke:#000000;stroke-width:0.8;" x="575.172" xlink:href="#m33d12ef0a4" y="96.685714"/>
      </g>
     </g>
     <g id="text_24">
      <!-- $-300$ -->
      <defs>
       <path d="M 22.09375 33.703125 
C 31 33.703125 34.90625 25.96875 34.90625 17.03125 
C 34.90625 5 28.5 0.390625 22.703125 0.390625 
C 17.40625 0.390625 8.796875 3.03125 6.09375 10.828125 
C 6.59375 10.625 7.09375 10.625 7.59375 10.625 
C 10 10.625 11.796875 12.21875 11.796875 14.8125 
C 11.796875 17.703125 9.59375 19 7.59375 19 
C 5.90625 19 3.296875 18.203125 3.296875 14.46875 
C 3.296875 5.234375 12.296875 -2 22.90625 -2 
C 34 -2 42.5 6.71875 42.5 16.953125 
C 42.5 26.671875 34.5 33.703125 25 34.796875 
C 32.59375 36.375 39.90625 43.0625 39.90625 52.015625 
C 39.90625 59.6875 32 65.296875 23 65.296875 
C 13.90625 65.296875 5.90625 59.828125 5.90625 52.015625 
C 5.90625 48.59375 8.5 48 9.796875 48 
C 11.90625 48 13.703125 49.296875 13.703125 51.890625 
C 13.703125 54.46875 11.90625 55.765625 9.796875 55.765625 
C 9.40625 55.765625 8.90625 55.765625 8.5 55.578125 
C 11.40625 61.859375 19.296875 63 22.796875 63 
C 26.296875 63 32.90625 61.328125 32.90625 51.875 
C 32.90625 49.109375 32.5 44.1875 29.09375 39.84375 
C 26.09375 36 22.703125 36 19.40625 35.6875 
C 18.90625 35.6875 16.59375 35.453125 16.203125 35.453125 
C 15.5 35.359375 15.09375 35.265625 15.09375 34.5 
C 15.09375 33.796875 15.203125 33.703125 17.203125 33.703125 
z
" id="CMR17-51"/>
      </defs>
      <g transform="translate(582.172 102.220508)scale(0.16 -0.16)">
       <use transform="scale(0.996264)" xlink:href="#CMSY10-0"/>
       <use transform="translate(77.487468 0)scale(0.996264)" xlink:href="#CMR17-51"/>
       <use transform="translate(123.177945 0)scale(0.996264)" xlink:href="#CMR17-48"/>
       <use transform="translate(168.868422 0)scale(0.996264)" xlink:href="#CMR17-48"/>
      </g>
     </g>
    </g>
    <g id="ytick_21">
     <g id="line2d_27">
      <g>
       <use style="stroke:#000000;stroke-width:0.8;" x="575.172" xlink:href="#m33d12ef0a4" y="65.622857"/>
      </g>
     </g>
     <g id="text_25">
      <!-- $-150$ -->
      <g transform="translate(582.172 71.157651)scale(0.16 -0.16)">
       <use transform="scale(0.996264)" xlink:href="#CMSY10-0"/>
       <use transform="translate(77.487468 0)scale(0.996264)" xlink:href="#CMR17-49"/>
       <use transform="translate(123.177945 0)scale(0.996264)" xlink:href="#CMR17-53"/>
       <use transform="translate(168.868422 0)scale(0.996264)" xlink:href="#CMR17-48"/>
      </g>
     </g>
    </g>
    <g id="ytick_22">
     <g id="line2d_28">
      <g>
       <use style="stroke:#000000;stroke-width:0.8;" x="575.172" xlink:href="#m33d12ef0a4" y="34.56"/>
      </g>
     </g>
     <g id="text_26">
      <!-- $0$ -->
      <g transform="translate(582.172 40.094794)scale(0.16 -0.16)">
       <use transform="scale(0.996264)" xlink:href="#CMR17-48"/>
      </g>
     </g>
    </g>
   </g>
   <g id="LineCollection_17">
    <path clip-path="url(#pcddd6784e5)" d="M 564.3 252 
L 575.172 252 
" style="fill:none;stroke:#f7fbff;stroke-width:1.5;"/>
    <path clip-path="url(#pcddd6784e5)" d="M 564.3 220.937143 
L 575.172 220.937143 
" style="fill:none;stroke:#dbe9f6;stroke-width:1.5;"/>
    <path clip-path="url(#pcddd6784e5)" d="M 564.3 189.874286 
L 575.172 189.874286 
" style="fill:none;stroke:#bad6eb;stroke-width:1.5;"/>
    <path clip-path="url(#pcddd6784e5)" d="M 564.3 158.811429 
L 575.172 158.811429 
" style="fill:none;stroke:#89bedc;stroke-width:1.5;"/>
    <path clip-path="url(#pcddd6784e5)" d="M 564.3 127.748571 
L 575.172 127.748571 
" style="fill:none;stroke:#539ecd;stroke-width:1.5;"/>
    <path clip-path="url(#pcddd6784e5)" d="M 564.3 96.685714 
L 575.172 96.685714 
" style="fill:none;stroke:#2b7bba;stroke-width:1.5;"/>
    <path clip-path="url(#pcddd6784e5)" d="M 564.3 65.622857 
L 575.172 65.622857 
" style="fill:none;stroke:#0b559f;stroke-width:1.5;"/>
    <path clip-path="url(#pcddd6784e5)" d="M 564.3 34.56 
L 575.172 34.56 
" style="fill:none;stroke:#08306b;stroke-width:1.5;"/>
   </g>
   <g id="patch_13">
    <path d="M 564.3 252 
L 564.3 220.937143 
L 564.3 65.622857 
L 564.3 34.56 
L 575.172 34.56 
L 575.172 65.622857 
L 575.172 220.937143 
L 575.172 252 
z
" style="fill:none;stroke:#000000;stroke-linejoin:miter;stroke-width:0.8;"/>
   </g>
  </g>
 </g>
 <defs>
  <clipPath id="pf983e5131a">
   <rect height="217.44" width="202.909091" x="90" y="34.56"/>
  </clipPath>
  <clipPath id="p4a73de9390">
   <rect height="217.44" width="202.909091" x="333.490909" y="34.56"/>
  </clipPath>
  <clipPath id="pcddd6784e5">
   <rect height="217.44" width="10.872" x="564.3" y="34.56"/>
  </clipPath>
 </defs>
</svg>
