<?xml version="1.0" encoding="utf-8" standalone="no"?>
<!DOCTYPE svg PUBLIC "-//W3C//DTD SVG 1.1//EN"
  "http://www.w3.org/Graphics/SVG/1.1/DTD/svg11.dtd">
<!-- Created with matplotlib (http://matplotlib.org/) -->
<svg height="288pt" version="1.1" viewBox="0 0 720 288" width="720pt" xmlns="http://www.w3.org/2000/svg" xmlns:xlink="http://www.w3.org/1999/xlink">
 <defs>
  <style type="text/css">
*{stroke-linecap:butt;stroke-linejoin:round;}
  </style>
 </defs>
 <g id="figure_1">
  <g id="patch_1">
   <path d="M 0 288 
L 720 288 
L 720 0 
L 0 0 
z
" style="fill:#ffffff;"/>
  </g>
  <g id="axes_1">
   <g id="patch_2">
    <path d="M 90 252 
L 292.909091 252 
L 292.909091 34.56 
L 90 34.56 
z
" style="fill:#ffffff;"/>
   </g>
   <g id="matplotlib.axis_1">
    <g id="xtick_1">
     <g id="line2d_1">
      <defs>
       <path d="M 0 0 
L 0 3.5 
" id="m643ce8f1a3" style="stroke:#000000;stroke-width:0.8;"/>
      </defs>
      <g>
       <use style="stroke:#000000;stroke-width:0.8;" x="123.818182" xlink:href="#m643ce8f1a3" y="252"/>
      </g>
     </g>
     <g id="text_1">
      <!-- $-2$ -->
      <defs>
       <path d="M 65.90625 23 
C 67.59375 23 69.40625 23 69.40625 25 
C 69.40625 27 67.59375 27 65.90625 27 
L 11.796875 27 
C 10.09375 27 8.296875 27 8.296875 25 
C 8.296875 23 10.09375 23 11.796875 23 
z
" id="CMSY10-0"/>
       <path d="M 41.703125 15.453125 
L 39.90625 15.453125 
C 38.90625 8.375 38.09375 7.171875 37.703125 6.5625 
C 37.203125 5.765625 30 5.765625 28.59375 5.765625 
L 9.40625 5.765625 
C 13 9.671875 20 16.75 28.5 24.953125 
C 34.59375 30.734375 41.703125 37.53125 41.703125 47.421875 
C 41.703125 59.21875 32.296875 66 21.796875 66 
C 10.796875 66 4.09375 56.3125 4.09375 47.34375 
C 4.09375 43.4375 7 42.9375 8.203125 42.9375 
C 9.203125 42.9375 12.203125 43.546875 12.203125 47.03125 
C 12.203125 50.109375 9.59375 51 8.203125 51 
C 7.59375 51 7 50.90625 6.59375 50.703125 
C 8.5 59.21875 14.296875 63.40625 20.40625 63.40625 
C 29.09375 63.40625 34.796875 56.515625 34.796875 47.421875 
C 34.796875 38.734375 29.703125 31.25 24 24.75 
L 4.09375 2.28125 
L 4.09375 0 
L 39.296875 0 
z
" id="CMR17-50"/>
      </defs>
      <g transform="translate(113.71719 270.069588)scale(0.16 -0.16)">
       <use transform="scale(0.996264)" xlink:href="#CMSY10-0"/>
       <use transform="translate(77.487468 0)scale(0.996264)" xlink:href="#CMR17-50"/>
      </g>
     </g>
    </g>
    <g id="xtick_2">
     <g id="line2d_2">
      <g>
       <use style="stroke:#000000;stroke-width:0.8;" x="191.454545" xlink:href="#m643ce8f1a3" y="252"/>
      </g>
     </g>
     <g id="text_2">
      <!-- $0$ -->
      <defs>
       <path d="M 42 31.640625 
C 42 37.75 41.90625 48.125 37.703125 56.109375 
C 34 63.109375 28.09375 65.59375 22.90625 65.59375 
C 18.09375 65.59375 12 63.40625 8.203125 56.203125 
C 4.203125 48.71875 3.796875 39.4375 3.796875 31.640625 
C 3.796875 25.953125 3.90625 17.28125 7 9.671875 
C 11.296875 -0.609375 19 -2 22.90625 -2 
C 27.5 -2 34.5 -0.109375 38.59375 9.375 
C 41.59375 16.28125 42 24.359375 42 31.640625 
M 22.90625 -0.40625 
C 16.5 -0.40625 12.703125 5.078125 11.296875 12.6875 
C 10.203125 18.5625 10.203125 27.15625 10.203125 32.75 
C 10.203125 40.4375 10.203125 46.828125 11.5 52.921875 
C 13.40625 61.390625 19 64 22.90625 64 
C 27 64 32.296875 61.296875 34.203125 53.125 
C 35.5 47.4375 35.59375 40.734375 35.59375 32.75 
C 35.59375 26.25 35.59375 18.265625 34.40625 12.375 
C 32.296875 1.484375 26.40625 -0.40625 22.90625 -0.40625 
" id="CMR17-48"/>
      </defs>
      <g transform="translate(187.552552 270.069588)scale(0.16 -0.16)">
       <use transform="scale(0.996264)" xlink:href="#CMR17-48"/>
      </g>
     </g>
    </g>
    <g id="xtick_3">
     <g id="line2d_3">
      <g>
       <use style="stroke:#000000;stroke-width:0.8;" x="259.090909" xlink:href="#m643ce8f1a3" y="252"/>
      </g>
     </g>
     <g id="text_3">
      <!-- $2$ -->
      <g transform="translate(255.188916 270.069588)scale(0.16 -0.16)">
       <use transform="scale(0.996264)" xlink:href="#CMR17-50"/>
      </g>
     </g>
    </g>
    <g id="text_4">
     <!-- $x_1$ -->
     <defs>
      <path d="M 47.40625 40.71875 
C 44.203125 40.109375 43 37.71875 43 35.828125 
C 43 33.421875 44.90625 32.625 46.296875 32.625 
C 49.296875 32.625 51.40625 35.21875 51.40625 37.921875 
C 51.40625 42.109375 46.59375 44 42.40625 44 
C 36.296875 44 32.90625 38.015625 32 36.125 
C 29.703125 44 23.5 44 21.703125 44 
C 11.5 44 6.09375 30.9375 6.09375 28.734375 
C 6.09375 28.34375 6.5 27.84375 7.203125 27.84375 
C 8 27.84375 8.203125 28.4375 8.40625 28.84375 
C 11.796875 39.921875 18.5 42.015625 21.40625 42.015625 
C 25.90625 42.015625 26.796875 37.8125 26.796875 35.421875 
C 26.796875 33.234375 26.203125 30.9375 25 26.140625 
L 21.59375 12.46875 
C 20.09375 6.484375 17.203125 1 11.90625 1 
C 11.40625 1 8.90625 1 6.796875 2.296875 
C 10.40625 3 11.203125 5.984375 11.203125 7.1875 
C 11.203125 9.1875 9.703125 10.375 7.796875 10.375 
C 5.40625 10.375 2.796875 8.28125 2.796875 5.09375 
C 2.796875 0.890625 7.5 -1 11.796875 -1 
C 16.59375 -1 20 2.796875 22.09375 6.890625 
C 23.703125 1 28.703125 -1 32.40625 -1 
C 42.59375 -1 48 12.078125 48 14.265625 
C 48 14.765625 47.59375 15.171875 47 15.171875 
C 46.09375 15.171875 46 14.671875 45.703125 13.875 
C 43 5.09375 37.203125 1 32.703125 1 
C 29.203125 1 27.296875 3.59375 27.296875 7.6875 
C 27.296875 9.875 27.703125 11.46875 29.296875 18.0625 
L 32.796875 31.625 
C 34.296875 37.625 37.703125 42.015625 42.296875 42.015625 
C 42.5 42.015625 45.296875 42.015625 47.40625 40.71875 
" id="CMMI12-120"/>
      <path d="M 26.59375 63.40625 
C 26.59375 65.5 26.5 65.5 25.09375 65.5 
C 21.203125 61.1875 15.296875 59.796875 9.703125 59.796875 
C 9.40625 59.796875 8.90625 59.796875 8.796875 59.5 
C 8.703125 59.296875 8.703125 59.09375 8.703125 57 
C 11.796875 57 17 57.59375 21 59.984375 
L 21 7.203125 
C 21 3.6875 20.796875 2.5 12.203125 2.5 
L 9.203125 2.5 
L 9.203125 0 
C 14 0 19 0 23.796875 0 
C 28.59375 0 33.59375 0 38.40625 0 
L 38.40625 2.5 
L 35.40625 2.5 
C 26.796875 2.5 26.59375 3.59375 26.59375 7.15625 
z
" id="CMR17-49"/>
     </defs>
     <g transform="translate(184.230286 288.238653)scale(0.16 -0.16)">
      <use transform="translate(0 14.943915)scale(0.996264)" xlink:href="#CMMI12-120"/>
      <use transform="translate(55.43406 0)scale(0.697382)" xlink:href="#CMR17-49"/>
     </g>
    </g>
   </g>
   <g id="matplotlib.axis_2">
    <g id="ytick_1">
     <g id="line2d_4">
      <defs>
       <path d="M 0 0 
L -3.5 0 
" id="m4495299920" style="stroke:#000000;stroke-width:0.8;"/>
      </defs>
      <g>
       <use style="stroke:#000000;stroke-width:0.8;" x="90" xlink:href="#m4495299920" y="252"/>
      </g>
     </g>
     <g id="text_5">
      <!-- $-10$ -->
      <g transform="translate(54.99403 257.534794)scale(0.16 -0.16)">
       <use transform="scale(0.996264)" xlink:href="#CMSY10-0"/>
       <use transform="translate(77.487468 0)scale(0.996264)" xlink:href="#CMR17-49"/>
       <use transform="translate(123.177945 0)scale(0.996264)" xlink:href="#CMR17-48"/>
      </g>
     </g>
    </g>
    <g id="ytick_2">
     <g id="line2d_5">
      <g>
       <use style="stroke:#000000;stroke-width:0.8;" x="90" xlink:href="#m4495299920" y="215.76"/>
      </g>
     </g>
     <g id="text_6">
      <!-- $-8$ -->
      <defs>
       <path d="M 27.203125 35.375 
C 33.5 38.546875 39.90625 43.328125 39.90625 50.984375 
C 39.90625 60.015625 31.09375 65.296875 23 65.296875 
C 13.90625 65.296875 5.90625 58.734375 5.90625 49.6875 
C 5.90625 47.203125 6.5 42.921875 10.40625 39.140625 
C 11.40625 38.15625 15.59375 35.171875 18.296875 33.28125 
C 13.796875 30.984375 3.296875 25.53125 3.296875 14.59375 
C 3.296875 4.359375 13.09375 -2 22.796875 -2 
C 33.5 -2 42.5 5.65625 42.5 15.78125 
C 42.5 24.84375 36.40625 29.015625 32.40625 31.703125 
z
M 14.09375 44.09375 
C 13.296875 44.59375 9.296875 47.671875 9.296875 52.359375 
C 9.296875 58.421875 15.59375 63 22.796875 63 
C 30.703125 63 36.5 57.4375 36.5 50.96875 
C 36.5 41.703125 26.09375 36.421875 25.59375 36.421875 
C 25.5 36.421875 25.40625 36.421875 24.59375 37.03125 
z
M 32.5 23.734375 
C 34 22.640625 38.796875 19.375 38.796875 13.296875 
C 38.796875 5.953125 31.40625 0.390625 23 0.390625 
C 13.90625 0.390625 7 6.84375 7 14.6875 
C 7 22.546875 13.09375 29.09375 20 32.1875 
z
" id="CMR17-56"/>
      </defs>
      <g transform="translate(62.798017 221.294794)scale(0.16 -0.16)">
       <use transform="scale(0.996264)" xlink:href="#CMSY10-0"/>
       <use transform="translate(77.487468 0)scale(0.996264)" xlink:href="#CMR17-56"/>
      </g>
     </g>
    </g>
    <g id="ytick_3">
     <g id="line2d_6">
      <g>
       <use style="stroke:#000000;stroke-width:0.8;" x="90" xlink:href="#m4495299920" y="179.52"/>
      </g>
     </g>
     <g id="text_7">
      <!-- $-6$ -->
      <defs>
       <path d="M 10.59375 34 
C 10.59375 57.65625 21.796875 63 28.296875 63 
C 30.40625 63 35.5 62.640625 37.5 59 
C 35.90625 59 32.90625 59 32.90625 55.515625 
C 32.90625 52.828125 35.09375 51.921875 36.5 51.921875 
C 37.40625 51.921875 40.09375 52.3125 40.09375 55.625 
C 40.09375 61.78125 35.09375 65.296875 28.203125 65.296875 
C 16.296875 65.296875 3.796875 52.96875 3.796875 31 
C 3.796875 3.953125 15.09375 -2 23.09375 -2 
C 32.796875 -2 42 6.671875 42 20.046875 
C 42 32.515625 33.90625 41.59375 23.703125 41.59375 
C 17.59375 41.59375 13.09375 37.609375 10.59375 30.625 
z
M 23.09375 0.390625 
C 10.796875 0.390625 10.796875 18.75 10.796875 22.4375 
C 10.796875 29.625 14.203125 40 23.5 40 
C 25.203125 40 30.09375 40 33.40625 33.125 
C 35.203125 29.21875 35.203125 25.140625 35.203125 20.140625 
C 35.203125 14.75 35.203125 10.78125 33.09375 6.78125 
C 30.90625 2.671875 27.703125 0.390625 23.09375 0.390625 
" id="CMR17-54"/>
      </defs>
      <g transform="translate(62.798017 185.054794)scale(0.16 -0.16)">
       <use transform="scale(0.996264)" xlink:href="#CMSY10-0"/>
       <use transform="translate(77.487468 0)scale(0.996264)" xlink:href="#CMR17-54"/>
      </g>
     </g>
    </g>
    <g id="ytick_4">
     <g id="line2d_7">
      <g>
       <use style="stroke:#000000;stroke-width:0.8;" x="90" xlink:href="#m4495299920" y="143.28"/>
      </g>
     </g>
     <g id="text_8">
      <!-- $-4$ -->
      <defs>
       <path d="M 33.59375 64.40625 
C 33.59375 66.5 33.5 66.5 31.703125 66.5 
L 2 19.59375 
L 2 17 
L 27.796875 17 
L 27.796875 7.140625 
C 27.796875 3.5 27.59375 2.5 20.59375 2.5 
L 18.703125 2.5 
L 18.703125 0 
C 21.90625 0 27.296875 0 30.703125 0 
C 34.09375 0 39.5 0 42.703125 0 
L 42.703125 2.5 
L 40.796875 2.5 
C 33.796875 2.5 33.59375 3.5 33.59375 7.140625 
L 33.59375 17 
L 43.796875 17 
L 43.796875 19.59375 
L 33.59375 19.59375 
z
M 28.09375 57.859375 
L 28.09375 19.59375 
L 4 19.59375 
z
" id="CMR17-52"/>
      </defs>
      <g transform="translate(62.798017 148.814794)scale(0.16 -0.16)">
       <use transform="scale(0.996264)" xlink:href="#CMSY10-0"/>
       <use transform="translate(77.487468 0)scale(0.996264)" xlink:href="#CMR17-52"/>
      </g>
     </g>
    </g>
    <g id="ytick_5">
     <g id="line2d_8">
      <g>
       <use style="stroke:#000000;stroke-width:0.8;" x="90" xlink:href="#m4495299920" y="107.04"/>
      </g>
     </g>
     <g id="text_9">
      <!-- $-2$ -->
      <g transform="translate(62.798017 112.574794)scale(0.16 -0.16)">
       <use transform="scale(0.996264)" xlink:href="#CMSY10-0"/>
       <use transform="translate(77.487468 0)scale(0.996264)" xlink:href="#CMR17-50"/>
      </g>
     </g>
    </g>
    <g id="ytick_6">
     <g id="line2d_9">
      <g>
       <use style="stroke:#000000;stroke-width:0.8;" x="90" xlink:href="#m4495299920" y="70.8"/>
      </g>
     </g>
     <g id="text_10">
      <!-- $0$ -->
      <g transform="translate(75.196013 76.334794)scale(0.16 -0.16)">
       <use transform="scale(0.996264)" xlink:href="#CMR17-48"/>
      </g>
     </g>
    </g>
    <g id="ytick_7">
     <g id="line2d_10">
      <g>
       <use style="stroke:#000000;stroke-width:0.8;" x="90" xlink:href="#m4495299920" y="34.56"/>
      </g>
     </g>
     <g id="text_11">
      <!-- $2$ -->
      <g transform="translate(75.196013 40.094794)scale(0.16 -0.16)">
       <use transform="scale(0.996264)" xlink:href="#CMR17-50"/>
      </g>
     </g>
    </g>
    <g id="text_12">
     <!-- $x_2$ -->
     <g transform="translate(47.894554 150.504259)rotate(-90)scale(0.16 -0.16)">
      <use transform="translate(0 14.943915)scale(0.996264)" xlink:href="#CMMI12-120"/>
      <use transform="translate(55.43406 0)scale(0.697382)" xlink:href="#CMR17-50"/>
     </g>
    </g>
   </g>
   <g id="LineCollection_1">
    <path clip-path="url(#p2892e5e502)" d="M 126.531576 189.49758 
L 126.566392 189.448764 
L 126.992566 189.023247 
L 127.804405 187.746696 
L 129.708239 184.193301 
L 132.184701 179.236322 
L 139.23972 165.19421 
L 144.206573 155.832802 
L 147.781189 149.450022 
L 151.150685 143.724725 
L 156.312757 135.54222 
L 161.102358 128.599613 
L 165.048564 123.364662 
L 169.019388 118.540407 
L 172.614095 114.557492 
L 175.999155 111.153348 
L 179.343531 108.109875 
L 182.520194 105.521942 
L 185.299768 103.492941 
L 188.873512 101.224403 
L 191.74283 99.664338 
L 195.22683 98.100515 
L 197.609323 97.231622 
L 199.991816 96.528863 
L 202.77139 95.914728 
L 205.153883 95.569972 
L 207.933465 95.369991 
L 210.713039 95.395047 
L 213.492614 95.647528 
L 216.272196 96.11607 
L 219.05177 96.804255 
L 221.831344 97.711658 
L 224.610926 98.830924 
L 228.048856 100.515389 
L 231.361317 102.443636 
L 234.23168 104.345042 
L 237.714642 106.938345 
L 241.288386 109.904214 
L 245.259211 113.525982 
L 249.358747 117.536128 
L 253.995022 122.063954 
L 255.583345 123.280901 
L 255.980426 123.458239 
L 256.377507 123.39452 
L 256.501506 123.067866 
L 256.443599 122.216832 
L 255.980426 120.633561 
L 255.077867 118.387162 
L 253.467087 114.983018 
L 251.428646 111.153348 
L 248.832955 106.737387 
L 246.196588 102.642974 
L 243.192464 98.387787 
L 240.097128 94.412092 
L 237.298768 91.153981 
L 234.140899 87.839811 
L 231.316368 85.196709 
L 228.581751 82.914548 
L 225.405088 80.608258 
L 222.228425 78.661595 
L 219.448851 77.252916 
L 216.272196 75.975636 
L 213.492614 75.147074 
L 210.713039 74.590954 
L 207.933465 74.295594 
L 205.550972 74.258353 
L 203.168471 74.415783 
L 200.388897 74.846607 
L 197.609323 75.542667 
L 195.22683 76.351213 
L 192.844337 77.351517 
L 189.667674 78.990155 
L 186.491019 80.978165 
L 183.711437 82.996903 
L 180.534782 85.632766 
L 177.7552 88.219908 
L 174.508697 91.579498 
L 171.401882 95.134442 
L 168.456557 98.813304 
L 165.02061 103.494008 
L 161.851099 108.174721 
L 158.892723 112.855424 
L 154.19696 120.940273 
L 149.691643 129.450647 
L 144.35907 140.514131 
L 141.315755 147.322428 
L 136.367528 159.236947 
L 132.884894 168.336959 
L 130.068039 176.257695 
L 127.325741 184.871151 
L 126.451137 188.59773 
L 126.49808 189.448764 
L 126.531576 189.49758 
L 126.531576 189.49758 
" style="fill:none;stroke:#f7fbff;stroke-width:1.5;"/>
   </g>
   <g id="LineCollection_2">
    <path clip-path="url(#p2892e5e502)" d="M 140.032377 157.340258 
L 140.429462 157.267919 
L 142.442215 154.556243 
L 155.12151 134.431525 
L 159.153845 128.599613 
L 163.063151 123.329387 
L 167.033976 118.381457 
L 170.756703 114.131975 
L 174.181464 110.555905 
L 177.586022 107.323678 
L 180.931862 104.464336 
L 183.863789 102.217457 
L 186.990456 100.089872 
L 190.064754 98.27059 
L 193.241417 96.669319 
L 196.418072 95.358082 
L 199.594735 94.334321 
L 202.374309 93.668911 
L 205.153883 93.224092 
L 207.933465 92.996871 
L 210.713039 92.983376 
L 213.492614 93.182872 
L 216.272196 93.593665 
L 219.05177 94.211369 
L 222.228425 95.166402 
L 225.405088 96.37619 
L 228.581751 97.827956 
L 232.052906 99.664338 
L 236.5234 102.321938 
L 240.684113 104.770576 
L 241.685467 105.21231 
L 242.479629 105.324551 
L 242.752486 105.196093 
L 242.925795 104.770576 
L 242.789352 103.919525 
L 242.289642 102.642974 
L 241.288386 100.748227 
L 239.801381 98.387787 
L 237.644448 95.409168 
L 235.198532 92.430532 
L 232.431784 89.451896 
L 229.741601 86.898794 
L 226.993411 84.608814 
L 224.213837 82.603463 
L 221.434263 80.89745 
L 219.044404 79.664971 
L 216.669276 78.647132 
L 213.889694 77.720327 
L 211.11012 77.07471 
L 208.727627 76.739908 
L 205.948053 76.604186 
L 203.56556 76.707382 
L 201.183059 77.007289 
L 198.403485 77.611872 
L 195.903845 78.38842 
L 193.638498 79.277582 
L 191.049365 80.516005 
L 188.780846 81.792556 
L 186.491019 83.26063 
L 183.29708 85.622226 
L 180.534782 87.947346 
L 177.358119 90.956704 
L 174.181464 94.322822 
L 171.075277 97.96227 
L 168.083891 101.79194 
L 164.651483 106.59023 
L 161.640602 111.153348 
L 157.901084 117.303345 
L 155.12151 122.227378 
L 151.979281 128.174087 
L 148.636495 134.982385 
L 145.543846 141.790682 
L 142.554259 149.024505 
L 141.223624 152.588397 
L 140.119174 156.258319 
L 139.995406 157.109353 
L 140.032377 157.340258 
L 140.032377 157.340258 
" style="fill:none;stroke:#d0e1f2;stroke-width:1.5;"/>
   </g>
   <g id="LineCollection_3">
    <path clip-path="url(#p2892e5e502)" d="M 150.35652 137.566389 
L 152.341932 135.389589 
L 163.618503 120.514756 
L 167.828146 115.499921 
L 171.401882 111.578154 
L 174.975625 107.984948 
L 178.152288 105.073553 
L 181.328943 102.434404 
L 184.505606 100.068725 
L 187.713586 97.96227 
L 190.858924 96.173392 
L 194.035579 94.643721 
L 196.815153 93.534284 
L 199.594735 92.637293 
L 202.374309 91.951102 
L 205.153883 91.476199 
L 207.933465 91.208434 
L 210.713039 91.144985 
L 213.492614 91.282132 
L 216.669276 91.674467 
L 219.845931 92.304291 
L 223.466339 93.281566 
L 227.787589 94.69476 
L 230.964236 95.660393 
L 232.155494 95.806447 
L 232.552575 95.714698 
L 232.896051 95.409168 
L 232.949656 94.954716 
L 232.707519 94.1326 
L 232.004938 92.856049 
L 230.753202 91.153981 
L 228.846754 89.026379 
L 226.59138 86.898794 
L 224.213837 84.986071 
L 221.831344 83.3465 
L 219.448851 81.960595 
L 217.066357 80.811668 
L 214.683864 79.890133 
L 212.301371 79.189029 
L 209.918878 78.703002 
L 207.536385 78.429511 
L 205.153883 78.364807 
L 202.77139 78.506459 
L 200.388897 78.854988 
L 198.006404 79.406445 
L 195.623911 80.163124 
L 193.241417 81.121604 
L 190.461835 82.497083 
L 187.682261 84.148439 
L 184.902687 86.077523 
L 182.123113 88.281908 
L 179.343531 90.766133 
L 176.394842 93.707083 
L 173.387294 97.035897 
L 170.525776 100.515389 
L 167.329183 104.770576 
L 164.116713 109.451271 
L 161.077747 114.271155 
L 157.901084 119.750742 
L 154.724425 125.761049 
L 151.944847 131.64 
L 150.299946 135.833427 
L 149.969647 137.109978 
L 150.042753 137.535504 
L 150.35652 137.566389 
L 150.35652 137.566389 
" style="fill:none;stroke:#94c4df;stroke-width:1.5;"/>
   </g>
   <g id="LineCollection_4">
    <path clip-path="url(#p2892e5e502)" d="M 159.092335 122.676101 
L 160.287015 121.791315 
L 162.309403 119.663722 
L 171.798971 109.402944 
L 175.733452 105.62161 
L 179.143793 102.642974 
L 182.520194 99.982598 
L 185.696849 97.749255 
L 188.873512 95.781356 
L 192.050167 94.08067 
L 195.22683 92.647687 
L 198.403485 91.481624 
L 201.580148 90.579477 
L 204.756802 89.937178 
L 207.933465 89.545506 
L 211.11012 89.392766 
L 214.286783 89.45767 
L 218.257608 89.768791 
L 222.228425 90.064521 
L 223.419675 89.92696 
L 223.816756 89.708288 
L 224.030076 89.451896 
L 224.068395 89.026379 
L 223.716737 88.175345 
L 223.022594 87.265541 
L 221.789548 86.047743 
L 219.845931 84.555034 
L 218.169039 83.494641 
L 215.652408 82.21809 
L 213.480595 81.367039 
L 211.11012 80.680381 
L 208.727627 80.224596 
L 206.345134 79.996474 
L 203.962641 79.990231 
L 201.580148 80.201105 
L 199.197654 80.625631 
L 196.815153 81.261709 
L 194.162282 82.21809 
L 191.653086 83.360517 
L 188.873512 84.89744 
L 186.09393 86.719125 
L 183.314356 88.827135 
L 180.534782 91.223492 
L 177.7552 93.912778 
L 174.78912 97.111236 
L 171.93845 100.515389 
L 169.019388 104.350486 
L 165.842734 108.9689 
L 163.417942 112.855424 
L 161.027966 117.110611 
L 159.403362 120.514756 
L 158.957479 121.791315 
L 158.879701 122.216832 
L 159.092335 122.676101 
L 159.092335 122.676101 
" style="fill:none;stroke:#4a98c9;stroke-width:1.5;"/>
   </g>
   <g id="LineCollection_5">
    <path clip-path="url(#p2892e5e502)" d="M 168.225227 109.922899 
L 169.084757 109.451271 
L 171.004801 107.898115 
L 178.152288 101.742927 
L 181.920154 98.813304 
L 184.951492 96.685719 
L 188.079342 94.714287 
L 191.653086 92.756424 
L 194.829749 91.278555 
L 198.403485 89.910783 
L 201.977228 88.838129 
L 205.550972 88.043887 
L 209.521789 87.416468 
L 213.095533 86.873306 
L 214.382979 86.473277 
L 214.903704 86.047743 
L 214.991389 85.622226 
L 214.683864 85.035759 
L 214.286783 84.61688 
L 213.34523 83.920158 
L 211.507201 83.022923 
L 209.521789 82.376103 
L 207.536385 81.960122 
L 205.550972 81.739832 
L 203.168471 81.716696 
L 200.785978 81.936502 
L 198.403485 82.387452 
L 195.998933 83.069124 
L 193.241417 84.136165 
L 190.858924 85.293014 
L 188.11332 86.898794 
L 185.637642 88.600862 
L 182.917275 90.749959 
L 180.111037 93.281566 
L 177.20342 96.260202 
L 174.578545 99.277682 
L 171.975879 102.642974 
L 169.938072 105.62161 
L 168.622308 107.857105 
L 168.093223 109.025754 
L 167.972227 109.451271 
L 168.070676 109.876788 
L 168.225227 109.922899 
L 168.225227 109.922899 
" style="fill:none;stroke:#1764ab;stroke-width:1.5;"/>
   </g>
   <g id="LineCollection_6">
    <path clip-path="url(#p2892e5e502)" d="M 179.740612 97.112135 
L 180.137701 97.191354 
L 180.931862 96.868173 
L 182.123113 96.230848 
L 187.79294 92.856049 
L 190.461835 91.384362 
L 195.623911 88.896028 
L 202.863444 85.622226 
L 203.167264 85.196709 
L 202.77139 84.703386 
L 201.580148 84.415598 
L 200.388897 84.372124 
L 198.403485 84.582214 
L 196.418072 85.018856 
L 194.43266 85.651026 
L 191.577954 86.898794 
L 188.605072 88.600862 
L 185.624875 90.728447 
L 182.917275 93.092962 
L 181.478947 94.558117 
L 180.104356 96.260202 
L 179.740612 97.112135 
L 179.740612 97.112135 
" style="fill:none;stroke:#08306b;stroke-width:1.5;"/>
   </g>
   <g id="patch_3">
    <path d="M 90 252 
L 90 34.56 
" style="fill:none;stroke:#000000;stroke-linecap:square;stroke-linejoin:miter;stroke-width:0.8;"/>
   </g>
   <g id="patch_4">
    <path d="M 292.909091 252 
L 292.909091 34.56 
" style="fill:none;stroke:#000000;stroke-linecap:square;stroke-linejoin:miter;stroke-width:0.8;"/>
   </g>
   <g id="patch_5">
    <path d="M 90 252 
L 292.909091 252 
" style="fill:none;stroke:#000000;stroke-linecap:square;stroke-linejoin:miter;stroke-width:0.8;"/>
   </g>
   <g id="patch_6">
    <path d="M 90 34.56 
L 292.909091 34.56 
" style="fill:none;stroke:#000000;stroke-linecap:square;stroke-linejoin:miter;stroke-width:0.8;"/>
   </g>
   <g id="text_13">
    <!-- true: $p(\mathbf{x})$ -->
    <defs>
     <path d="M 15.09375 40 
L 29.09375 40 
L 29.09375 42.578125 
L 15.09375 42.578125 
L 15.09375 61 
L 13.296875 61 
C 13.09375 50.703125 9.59375 41.6875 1.09375 41.6875 
L 1.09375 40 
L 9.796875 40 
L 9.796875 12.046875 
C 9.796875 10.15625 9.796875 -1 21.40625 -1 
C 27.296875 -1 30.703125 4.78125 30.703125 12.140625 
L 30.703125 17.8125 
L 28.90625 17.8125 
L 28.90625 12.234375 
C 28.90625 5.375 26.203125 0.796875 22 0.796875 
C 19.09375 0.796875 15.09375 2.78125 15.09375 11.84375 
z
" id="CMR17-116"/>
     <path d="M 15 23.390625 
C 15 33 19.09375 42 26.59375 42 
C 27.296875 42 28 41.90625 28.703125 41.59375 
C 28.703125 41.59375 26.5 40.890625 26.5 38.3125 
C 26.5 35.90625 28.40625 34.90625 29.90625 34.90625 
C 31.09375 34.90625 33.296875 35.609375 33.296875 38.40625 
C 33.296875 41.609375 30.09375 43.59375 26.703125 43.59375 
C 19.09375 43.59375 15.796875 36.203125 14.796875 32.703125 
L 14.703125 32.703125 
L 14.703125 43.59375 
L 3.09375 42.5 
L 3.09375 39.90625 
C 9 39.90625 9.90625 39.296875 9.90625 34.5 
L 9.90625 6.6875 
C 9.90625 2.875 9.5 2.390625 3.09375 2.390625 
L 3.09375 -0.203125 
C 5.5 0 10.09375 0 12.703125 0 
C 15.59375 0 20.703125 0 23.40625 -0.203125 
L 23.40625 2.390625 
C 16.203125 2.390625 15 2.390625 15 6.875 
z
" id="CMR17-114"/>
     <path d="M 29.40625 42.078125 
L 29.40625 39.5 
C 35.296875 39.5 36.203125 38.890625 36.203125 34.15625 
L 36.203125 16.125 
C 36.203125 7.8125 31.703125 0.59375 24.296875 0.59375 
C 16.09375 0.59375 15.40625 5.4375 15.40625 10.59375 
L 15.40625 43.171875 
L 3.296875 42.078125 
L 3.296875 39.5 
C 7.296875 39.5 10 39.5 10.09375 35.53125 
L 10.09375 16.53125 
C 10.09375 9.890625 10.09375 5.640625 12.703125 2.859375 
C 14 1.578125 16.5 -1 23.703125 -1 
C 32.203125 -1 35.5 5.890625 36.296875 7.90625 
L 36.40625 7.90625 
L 36.40625 -0.984375 
L 48.296875 -0.984375 
L 48.296875 2 
C 42.40625 2 41.5 2.59375 41.5 7.390625 
L 41.5 43.171875 
z
" id="CMR17-117"/>
     <path d="M 38.09375 23 
C 38.5 23.40625 38.5 23.609375 38.5 24.625 
C 38.5 34.96875 33.09375 44 21.703125 44 
C 11.09375 44 2.703125 33.890625 2.703125 21.609375 
C 2.703125 8.609375 12.203125 -1 22.796875 -1 
C 34 -1 38.40625 9.484375 38.40625 11.5625 
C 38.40625 12.25 37.796875 12.25 37.59375 12.25 
C 36.90625 12.25 36.796875 12.046875 36.40625 10.875 
C 34.203125 4.140625 28.703125 0.796875 23.5 0.796875 
C 19.203125 0.796875 14.90625 3.171875 12.203125 7.5 
C 9.09375 12.546875 9.09375 18.375 9.09375 23 
z
M 9.203125 24.5 
C 9.90625 39.140625 17.59375 42.40625 21.59375 42.40625 
C 28.40625 42.40625 33 35.890625 33.09375 24.5 
z
" id="CMR17-101"/>
     <path d="M 16.59375 38.921875 
C 16.59375 41.40625 14.59375 43 12.5 43 
C 10.5 43 8.40625 41.40625 8.40625 38.921875 
C 8.40625 36.4375 10.40625 34.84375 12.5 34.84375 
C 14.5 34.84375 16.59375 36.4375 16.59375 38.921875 
M 16.59375 4.078125 
C 16.59375 6.5625 14.59375 8.15625 12.5 8.15625 
C 10.5 8.15625 8.40625 6.5625 8.40625 4.078125 
C 8.40625 1.59375 10.40625 0 12.5 0 
C 14.5 0 16.59375 1.59375 16.59375 4.078125 
" id="CMR17-58"/>
     <path d="M 4.296875 -12.328125 
C 3.59375 -15.3125 3.203125 -16.109375 -0.90625 -16.109375 
C -2.09375 -16.109375 -3.09375 -16.109375 -3.09375 -18 
C -3.09375 -18.203125 -3 -19 -1.90625 -19 
C -0.59375 -19 0.796875 -19 2.09375 -19 
L 6.40625 -19 
C 8.5 -19 13.59375 -19 15.703125 -19 
C 16.296875 -19 17.5 -19 17.5 -17.203125 
C 17.5 -16.109375 16.796875 -16.109375 15.09375 -16.109375 
C 10.5 -16.109375 10.203125 -15.421875 10.203125 -14.640625 
C 10.203125 -13.453125 14.703125 3.421875 15.296875 5.6875 
C 16.40625 2.890625 19.09375 -1 24.296875 -1 
C 35.59375 -1 47.796875 13.671875 47.796875 28.34375 
C 47.796875 37.515625 42.59375 44 35.09375 44 
C 28.703125 44 23.296875 37.8125 22.203125 36.421875 
C 21.40625 41.40625 17.5 44 13.5 44 
C 10.59375 44 8.296875 42.609375 6.40625 38.8125 
C 4.59375 35.21875 3.203125 29.140625 3.203125 28.734375 
C 3.203125 28.34375 3.59375 27.84375 4.296875 27.84375 
C 5.09375 27.84375 5.203125 27.9375 5.796875 30.234375 
C 7.296875 36.125 9.203125 42.015625 13.203125 42.015625 
C 15.5 42.015625 16.296875 40.421875 16.296875 37.453125 
C 16.296875 35.078125 16 34.078125 15.59375 32.296875 
z
M 21.59375 31.140625 
C 22.296875 33.921875 25.09375 36.828125 26.703125 38.21875 
C 27.796875 39.21875 31.09375 42.015625 34.90625 42.015625 
C 39.296875 42.015625 41.296875 37.625 41.296875 32.4375 
C 41.296875 27.640625 38.5 16.359375 36 11.171875 
C 33.5 5.78125 28.90625 1 24.296875 1 
C 17.5 1 16.40625 9.578125 16.40625 9.984375 
C 16.40625 10.28125 16.59375 11.078125 16.703125 11.578125 
z
" id="CMMI12-112"/>
     <path d="M 30.59375 -24.390625 
C 30.59375 -24.296875 30.59375 -24.09375 30.296875 -23.796875 
C 25.703125 -19.125 13.40625 -6.359375 13.40625 24.703125 
C 13.40625 55.765625 25.5 68.421875 30.40625 73.390625 
C 30.40625 73.5 30.59375 73.703125 30.59375 74 
C 30.59375 74.296875 30.296875 74.5 29.90625 74.5 
C 28.796875 74.5 20.296875 67.125 15.40625 56.15625 
C 10.40625 45.109375 9 34.359375 9 24.8125 
C 9 17.625 9.703125 5.484375 15.703125 -7.359375 
C 20.5 -17.734375 28.703125 -25 29.90625 -25 
C 30.40625 -25 30.59375 -24.796875 30.59375 -24.390625 
" id="CMR17-40"/>
     <path d="M 33.703125 24.484375 
L 45.296875 37.734375 
C 46.40625 39.03125 47.296875 39.828125 55.59375 39.828125 
L 55.59375 44 
C 50 44 49.796875 44 46.40625 44 
C 43.5 44 39.203125 44 36.40625 44.09375 
L 36.40625 39.828125 
C 38.296875 39.828125 40.40625 39.328125 40.40625 38.625 
C 40.40625 38.4375 39.90625 37.734375 39.703125 37.53125 
L 31 27.78125 
L 21.09375 39.828125 
L 25.296875 39.828125 
L 25.296875 44.09375 
C 23 44 16.203125 44 13.5 44 
C 10.5 44 5.09375 44 2.296875 44.09375 
L 2.296875 39.828125 
L 9.40625 39.828125 
L 25 20.90625 
L 12 6.265625 
C 10.796875 4.875 10.09375 4.171875 1.796875 4.171875 
L 1.796875 0 
C 7.796875 0 8 0 11.09375 0 
C 14 0 18.203125 0 21 -0.09375 
L 21 4.171875 
C 19.09375 4.171875 17 4.671875 17 5.375 
C 17 5.46875 17 5.5625 17.703125 6.359375 
L 27.703125 17.625 
L 38.796875 4.171875 
L 34.59375 4.171875 
L 34.59375 -0.09375 
C 37 0 43.703125 0 46.5 0 
C 49.5 0 54.796875 0 57.59375 -0.09375 
L 57.59375 4.171875 
L 50.59375 4.171875 
z
" id="CMBX12-120"/>
     <path d="M 26.296875 24.703125 
C 26.296875 31.875 25.59375 44.015625 19.59375 56.859375 
C 14.796875 67.234375 6.59375 74.5 5.40625 74.5 
C 5.09375 74.5 4.703125 74.390625 4.703125 73.890625 
C 4.703125 73.703125 4.796875 73.59375 4.90625 73.390625 
C 9.703125 68.40625 21.90625 55.75 21.90625 24.75 
C 21.90625 -6.359375 9.796875 -19.015625 4.90625 -24.015625 
C 4.796875 -24.203125 4.703125 -24.3125 4.703125 -24.5 
C 4.703125 -25 5.09375 -25 5.40625 -25 
C 6.5 -25 15 -17.625 19.90625 -6.65625 
C 24.90625 4.390625 26.296875 15.140625 26.296875 24.703125 
" id="CMR17-41"/>
    </defs>
    <g transform="translate(152.481136 28.56)scale(0.192 -0.192)">
     <use transform="scale(0.996264)" xlink:href="#CMR17-116"/>
     <use transform="translate(35.280768 0)scale(0.996264)" xlink:href="#CMR17-114"/>
     <use transform="translate(70.561536 0)scale(0.996264)" xlink:href="#CMR17-117"/>
     <use transform="translate(121.456905 0)scale(0.996264)" xlink:href="#CMR17-101"/>
     <use transform="translate(161.942566 0)scale(0.996264)" xlink:href="#CMR17-58"/>
     <use transform="translate(227.299285 0)scale(0.996264)" xlink:href="#CMMI12-112"/>
     <use transform="translate(276.258799 0)scale(0.996264)" xlink:href="#CMR17-40"/>
     <use transform="translate(311.539567 0)scale(0.996264)" xlink:href="#CMBX12-120"/>
     <use transform="translate(370.692742 0)scale(0.996264)" xlink:href="#CMR17-41"/>
    </g>
   </g>
  </g>
  <g id="axes_2">
   <g id="patch_7">
    <path d="M 333.490909 252 
L 536.4 252 
L 536.4 34.56 
L 333.490909 34.56 
z
" style="fill:#ffffff;"/>
   </g>
   <g id="matplotlib.axis_3">
    <g id="xtick_4">
     <g id="line2d_11">
      <g>
       <use style="stroke:#000000;stroke-width:0.8;" x="367.309091" xlink:href="#m643ce8f1a3" y="252"/>
      </g>
     </g>
     <g id="text_14">
      <!-- $-2$ -->
      <g transform="translate(357.208099 270.069588)scale(0.16 -0.16)">
       <use transform="scale(0.996264)" xlink:href="#CMSY10-0"/>
       <use transform="translate(77.487468 0)scale(0.996264)" xlink:href="#CMR17-50"/>
      </g>
     </g>
    </g>
    <g id="xtick_5">
     <g id="line2d_12">
      <g>
       <use style="stroke:#000000;stroke-width:0.8;" x="434.945455" xlink:href="#m643ce8f1a3" y="252"/>
      </g>
     </g>
     <g id="text_15">
      <!-- $0$ -->
      <g transform="translate(431.043461 270.069588)scale(0.16 -0.16)">
       <use transform="scale(0.996264)" xlink:href="#CMR17-48"/>
      </g>
     </g>
    </g>
    <g id="xtick_6">
     <g id="line2d_13">
      <g>
       <use style="stroke:#000000;stroke-width:0.8;" x="502.581818" xlink:href="#m643ce8f1a3" y="252"/>
      </g>
     </g>
     <g id="text_16">
      <!-- $2$ -->
      <g transform="translate(498.679825 270.069588)scale(0.16 -0.16)">
       <use transform="scale(0.996264)" xlink:href="#CMR17-50"/>
      </g>
     </g>
    </g>
    <g id="text_17">
     <!-- $x_1$ -->
     <g transform="translate(427.721195 288.238653)scale(0.16 -0.16)">
      <use transform="translate(0 14.943915)scale(0.996264)" xlink:href="#CMMI12-120"/>
      <use transform="translate(55.43406 0)scale(0.697382)" xlink:href="#CMR17-49"/>
     </g>
    </g>
   </g>
   <g id="matplotlib.axis_4">
    <g id="ytick_8">
     <g id="line2d_14">
      <g>
       <use style="stroke:#000000;stroke-width:0.8;" x="333.490909" xlink:href="#m4495299920" y="252"/>
      </g>
     </g>
    </g>
    <g id="ytick_9">
     <g id="line2d_15">
      <g>
       <use style="stroke:#000000;stroke-width:0.8;" x="333.490909" xlink:href="#m4495299920" y="215.76"/>
      </g>
     </g>
    </g>
    <g id="ytick_10">
     <g id="line2d_16">
      <g>
       <use style="stroke:#000000;stroke-width:0.8;" x="333.490909" xlink:href="#m4495299920" y="179.52"/>
      </g>
     </g>
    </g>
    <g id="ytick_11">
     <g id="line2d_17">
      <g>
       <use style="stroke:#000000;stroke-width:0.8;" x="333.490909" xlink:href="#m4495299920" y="143.28"/>
      </g>
     </g>
    </g>
    <g id="ytick_12">
     <g id="line2d_18">
      <g>
       <use style="stroke:#000000;stroke-width:0.8;" x="333.490909" xlink:href="#m4495299920" y="107.04"/>
      </g>
     </g>
    </g>
    <g id="ytick_13">
     <g id="line2d_19">
      <g>
       <use style="stroke:#000000;stroke-width:0.8;" x="333.490909" xlink:href="#m4495299920" y="70.8"/>
      </g>
     </g>
    </g>
    <g id="ytick_14">
     <g id="line2d_20">
      <g>
       <use style="stroke:#000000;stroke-width:0.8;" x="333.490909" xlink:href="#m4495299920" y="34.56"/>
      </g>
     </g>
    </g>
   </g>
   <g id="LineCollection_7">
    <path clip-path="url(#p89d7a37754)" d="M 373.993309 176.490063 
L 374.787475 175.717941 
L 377.175149 172.002508 
L 390.915993 148.173462 
L 394.641595 142.09308 
L 400.379686 133.280317 
L 403.647176 128.599613 
L 406.804028 124.344426 
L 409.84056 120.514756 
L 413.121771 116.685086 
L 416.305 113.280941 
L 419.361591 110.302314 
L 422.83444 107.260249 
L 426.028213 104.770576 
L 429.77128 102.217457 
L 433.406746 100.089872 
L 436.846937 98.387787 
L 440.306062 96.98386 
L 443.482725 95.965288 
L 446.262299 95.296167 
L 449.041881 94.842704 
L 451.821455 94.6069 
L 454.601029 94.598467 
L 457.380603 94.821149 
L 460.160186 95.269257 
L 462.93976 95.946764 
L 465.719334 96.85624 
L 468.498916 97.993381 
L 471.825765 99.664338 
L 474.852226 101.475087 
L 477.79794 103.494008 
L 481.205552 106.134071 
L 484.779295 109.207108 
L 489.182516 113.280941 
L 493.515106 117.228914 
L 495.10343 118.439785 
L 495.897592 118.889208 
L 496.691769 119.064929 
L 497.105152 118.812679 
L 497.240794 117.961645 
L 497.026716 116.685086 
L 496.294672 114.525627 
L 494.94985 111.578865 
L 493.350053 108.600238 
L 491.034814 104.770576 
L 488.200138 100.515389 
L 484.382214 95.24859 
L 481.205552 91.199749 
L 478.62474 88.175345 
L 476.043484 85.46812 
L 473.660983 83.293439 
L 471.170986 81.367039 
L 469.23088 80.090488 
L 466.954009 78.813937 
L 464.925172 77.846556 
L 462.145598 76.753896 
L 458.571854 75.663286 
L 455.395199 74.970188 
L 452.615617 74.579249 
L 449.836043 74.420337 
L 447.45355 74.49793 
L 445.071057 74.777219 
L 442.688563 75.275023 
L 439.908981 76.12501 
L 436.732326 77.432742 
L 433.158583 79.294728 
L 430.379009 81.008487 
L 427.44732 83.069124 
L 424.819852 85.143199 
L 421.643198 87.954743 
L 418.851831 90.728447 
L 415.756853 94.1326 
L 412.608646 97.96227 
L 409.102834 102.642974 
L 405.307914 108.174721 
L 401.788222 113.706458 
L 398.727284 118.812679 
L 393.741899 127.74857 
L 389.347633 136.258944 
L 384.869683 145.620352 
L 380.596907 155.407277 
L 377.741211 162.6411 
L 375.770469 168.172838 
L 374.56703 172.002508 
L 373.908931 174.555618 
L 373.730527 175.832169 
L 373.773075 176.257695 
L 373.993309 176.490063 
L 373.993309 176.490063 
" style="fill:none;stroke:#f7fbff;stroke-width:1.5;"/>
   </g>
   <g id="LineCollection_8">
    <path clip-path="url(#p89d7a37754)" d="M 383.920371 154.325583 
L 384.315245 154.130726 
L 384.317452 154.129994 
L 385.111618 153.249153 
L 387.760323 149.450022 
L 389.876604 146.191268 
L 394.889604 138.386538 
L 400.306119 130.301681 
L 404.273895 124.769943 
L 407.884508 120.089239 
L 411.319055 115.976028 
L 414.539823 112.429899 
L 417.932094 109.025754 
L 421.246109 106.018533 
L 424.422772 103.42866 
L 427.599426 101.113833 
L 430.481675 99.238821 
L 433.952744 97.266423 
L 436.878836 95.834685 
L 440.306062 94.437579 
L 443.482725 93.413464 
L 446.262299 92.739778 
L 449.041881 92.281485 
L 451.821455 92.040125 
L 454.601029 92.020288 
L 457.380603 92.220995 
L 460.160186 92.630681 
L 463.09185 93.281566 
L 466.116423 94.184041 
L 469.398521 95.409168 
L 473.179926 97.111236 
L 478.096948 99.664338 
L 481.602632 101.422506 
L 482.793875 101.804373 
L 483.395533 101.79194 
L 483.588037 101.717184 
L 483.825382 101.366423 
L 483.806016 100.515389 
L 483.387776 99.238821 
L 482.569411 97.536753 
L 481.067455 94.983634 
L 479.036105 92.005015 
L 476.706224 89.026379 
L 474.379418 86.473277 
L 472.46974 84.684999 
L 470.437489 83.069124 
L 468.498916 81.776354 
L 466.199304 80.516005 
L 464.13101 79.593491 
L 461.748517 78.73846 
L 458.945395 77.962904 
L 456.189361 77.392212 
L 453.012698 76.956053 
L 450.233124 76.780169 
L 447.45355 76.82364 
L 445.071057 77.06103 
L 442.291475 77.590782 
L 439.908981 78.274322 
L 437.129407 79.344605 
L 434.695176 80.516005 
L 432.364421 81.82713 
L 429.584839 83.629222 
L 426.365401 86.047743 
L 423.62861 88.383016 
L 420.73543 91.153981 
L 417.937723 94.1326 
L 414.892791 97.711547 
L 412.040906 101.366423 
L 408.361138 106.472644 
L 404.171567 112.765063 
L 400.672118 118.387162 
L 396.947275 124.769943 
L 393.252879 131.57824 
L 390.250868 137.535504 
L 387.09703 144.374847 
L 384.714533 150.302527 
L 383.834107 153.279683 
L 383.801084 154.130726 
L 383.920371 154.325583 
L 383.920371 154.325583 
" style="fill:none;stroke:#d0e1f2;stroke-width:1.5;"/>
   </g>
   <g id="LineCollection_9">
    <path clip-path="url(#p89d7a37754)" d="M 393.847429 135.784297 
L 394.663837 134.982385 
L 396.341114 132.8548 
L 398.860084 129.450647 
L 407.745311 117.945784 
L 411.319055 113.830582 
L 414.648028 110.302314 
L 418.161403 106.898161 
L 421.643198 103.843427 
L 424.819852 101.327481 
L 428.393596 98.799338 
L 431.967332 96.585838 
L 435.143995 94.877299 
L 438.320658 93.415744 
L 441.100232 92.343891 
L 444.276887 91.367206 
L 447.102113 90.728447 
L 450.064822 90.30293 
L 452.615617 90.138463 
L 455.395199 90.16795 
L 458.174773 90.405305 
L 461.351428 90.909607 
L 464.528091 91.630575 
L 468.788109 92.856049 
L 473.660983 94.282809 
L 474.852226 94.463056 
L 475.646403 94.400991 
L 476.132222 94.1326 
L 476.339544 93.707083 
L 476.293749 92.856049 
L 475.818851 91.579498 
L 474.832122 89.877413 
L 473.561638 88.175345 
L 472.01712 86.473277 
L 470.087239 84.73976 
L 468.101835 83.308228 
L 466.116423 82.159028 
L 463.733929 81.081058 
L 461.351428 80.260154 
L 458.571854 79.550627 
L 455.395199 78.986596 
L 452.218536 78.639576 
L 449.041881 78.519251 
L 446.262299 78.635167 
L 443.482725 78.994741 
L 441.100232 79.520748 
L 438.717739 80.263507 
L 436.335246 81.228866 
L 433.539119 82.643607 
L 431.17317 84.067301 
L 428.339991 86.047743 
L 425.614022 88.233897 
L 422.83444 90.758259 
L 419.945006 93.707083 
L 416.957722 97.111236 
L 413.91267 100.940906 
L 410.50508 105.62161 
L 406.78028 111.153348 
L 403.290418 116.685086 
L 399.766323 122.642349 
L 396.229922 129.183556 
L 393.96742 134.131351 
L 393.686577 134.982385 
L 393.59256 135.40791 
L 393.847429 135.784297 
L 393.847429 135.784297 
" style="fill:none;stroke:#94c4df;stroke-width:1.5;"/>
   </g>
   <g id="LineCollection_10">
    <path clip-path="url(#p89d7a37754)" d="M 407.745311 114.454649 
L 408.539473 113.938948 
L 410.703992 112.004382 
L 420.064752 103.494008 
L 423.804512 100.515389 
L 427.356991 97.96227 
L 430.776089 95.764569 
L 434.349833 93.746057 
L 437.526488 92.197083 
L 440.703151 90.889253 
L 443.879806 89.837076 
L 446.65938 89.139395 
L 449.438962 88.663718 
L 452.218536 88.415005 
L 454.99811 88.391565 
L 458.020584 88.600862 
L 461.168494 89.026379 
L 469.293078 90.27726 
L 470.087239 90.149815 
L 470.585219 89.877413 
L 470.808312 89.451896 
L 470.811629 89.026379 
L 470.48432 88.120615 
L 469.690158 86.959233 
L 468.895997 86.099951 
L 467.8724 85.196709 
L 466.021151 83.920158 
L 464.13101 82.938549 
L 462.145598 82.149653 
L 459.426652 81.367039 
L 456.983523 80.875235 
L 453.409787 80.400619 
L 449.836043 80.16791 
L 446.65938 80.20042 
L 443.879806 80.463991 
L 441.313158 80.941522 
L 439.11482 81.549133 
L 436.732326 82.429454 
L 434.349833 83.545679 
L 431.967332 84.897088 
L 429.584839 86.480046 
L 426.805265 88.621425 
L 424.025691 91.087606 
L 421.419625 93.707083 
L 418.771002 96.685719 
L 416.048502 100.089872 
L 413.279423 103.919525 
L 410.500788 108.174721 
L 408.31513 112.004382 
L 407.701973 113.280941 
L 407.444923 114.131975 
L 407.745311 114.454649 
L 407.745311 114.454649 
" style="fill:none;stroke:#4a98c9;stroke-width:1.5;"/>
   </g>
   <g id="LineCollection_11">
    <path clip-path="url(#p89d7a37754)" d="M 416.481122 103.266845 
L 416.878203 103.407005 
L 417.698523 103.068491 
L 420.054866 101.518181 
L 428.790677 95.475322 
L 432.761502 93.081738 
L 436.732326 90.98845 
L 440.306062 89.383433 
L 443.482725 88.196246 
L 447.056469 87.150303 
L 449.836043 86.585746 
L 452.615617 86.254799 
L 455.395199 86.166237 
L 458.968935 86.304739 
L 461.748517 86.376595 
L 462.542679 86.243917 
L 462.977863 86.047743 
L 462.93976 85.533854 
L 462.542679 85.101362 
L 461.748517 84.587082 
L 460.557266 84.041902 
L 459.366016 83.641532 
L 457.777692 83.234047 
L 455.395199 82.786225 
L 452.218536 82.363545 
L 448.644792 82.075245 
L 445.865218 82.046472 
L 443.085644 82.251702 
L 440.703151 82.657183 
L 438.320658 83.302206 
L 436.335246 84.028335 
L 433.841624 85.196709 
L 431.570251 86.512468 
L 429.154076 88.175345 
L 426.524406 90.30293 
L 424.025691 92.648439 
L 421.838977 94.983634 
L 419.657785 97.631486 
L 417.90653 100.089872 
L 416.878203 101.820871 
L 416.433076 103.068491 
L 416.481122 103.266845 
L 416.481122 103.266845 
" style="fill:none;stroke:#1764ab;stroke-width:1.5;"/>
   </g>
   <g id="LineCollection_12">
    <path clip-path="url(#p89d7a37754)" d="M 425.216933 95.139246 
L 425.614022 95.062715 
L 425.83612 94.983634 
L 426.011103 94.91368 
L 426.408184 94.727072 
L 426.783411 94.558117 
L 426.805265 94.547231 
L 427.202346 94.325289 
L 427.585312 94.1326 
L 427.599426 94.12481 
L 427.996515 93.891421 
L 428.341902 93.707083 
L 428.393596 93.676964 
L 428.790677 93.441198 
L 429.080334 93.281566 
L 429.187758 93.21712 
L 429.584839 92.982863 
L 429.811331 92.856049 
L 429.981928 92.752177 
L 430.379009 92.521115 
L 430.539896 92.430532 
L 430.776089 92.28589 
L 431.17317 92.058778 
L 431.268801 92.005015 
L 431.570251 91.820451 
L 431.967332 91.597623 
L 431.99978 91.579498 
L 432.364421 91.357139 
L 432.731055 91.153981 
L 432.761502 91.135259 
L 433.158583 90.896613 
L 433.464192 90.728447 
L 433.555663 90.67234 
L 433.952744 90.439091 
L 434.202498 90.30293 
L 434.349833 90.212826 
L 434.746914 89.984402 
L 434.94518 89.877413 
L 435.143995 89.756087 
L 435.541076 89.531883 
L 435.690844 89.451896 
L 435.938157 89.300991 
L 436.335246 89.080392 
L 436.437307 89.026379 
L 436.732326 88.845632 
L 437.129407 88.62795 
L 437.180927 88.600862 
L 437.526488 88.386933 
L 437.915628 88.175345 
L 437.923569 88.170029 
L 438.320658 87.91974 
L 438.629214 87.749828 
L 438.717739 87.687739 
L 439.11482 87.435245 
L 439.311002 87.324311 
L 439.511901 87.172425 
L 439.908981 86.916484 
L 439.938785 86.898794 
L 440.306062 86.584887 
L 440.462803 86.473277 
L 440.703151 86.159037 
L 440.808776 86.047743 
L 440.748359 85.622226 
L 440.703151 85.599361 
L 440.306062 85.473587 
L 439.908981 85.419563 
L 439.511901 85.409521 
L 439.11482 85.428537 
L 438.717739 85.468186 
L 438.320658 85.523276 
L 437.923569 85.590537 
L 437.770511 85.622226 
L 437.526488 85.683065 
L 437.129407 85.791637 
L 436.732326 85.903692 
L 436.335246 86.01936 
L 436.247645 86.047743 
L 435.938157 86.162928 
L 435.541076 86.311385 
L 435.143995 86.458169 
L 435.106489 86.473277 
L 434.746914 86.636062 
L 434.349833 86.809996 
L 434.151797 86.898794 
L 433.952744 86.998745 
L 433.555663 87.197732 
L 433.300676 87.324311 
L 433.158583 87.402892 
L 432.761502 87.623187 
L 432.529597 87.749828 
L 432.364421 87.84964 
L 431.967332 88.086354 
L 431.818105 88.175345 
L 431.570251 88.337605 
L 431.17317 88.585593 
L 431.149536 88.600862 
L 430.776089 88.863425 
L 430.533398 89.026379 
L 430.379009 89.14017 
L 429.981928 89.422538 
L 429.941221 89.451896 
L 429.584839 89.730947 
L 429.389803 89.877413 
L 429.187758 90.043364 
L 428.85683 90.30293 
L 428.790677 90.360127 
L 428.393596 90.693312 
L 428.351333 90.728447 
L 427.996515 91.048768 
L 427.875326 91.153981 
L 427.599426 91.415623 
L 427.419245 91.579498 
L 427.202346 91.796359 
L 426.984108 92.005015 
L 426.805265 92.194302 
L 426.571224 92.430532 
L 426.408184 92.614055 
L 426.182209 92.856049 
L 426.011103 93.062173 
L 425.819188 93.281566 
L 425.614022 93.547932 
L 425.484517 93.707083 
L 425.216933 94.084886 
L 425.181156 94.1326 
L 424.958863 94.558117 
L 424.841426 94.983634 
L 425.216933 95.139246 
" style="fill:none;stroke:#08306b;stroke-width:1.5;"/>
   </g>
   <g id="patch_8">
    <path d="M 333.490909 252 
L 333.490909 34.56 
" style="fill:none;stroke:#000000;stroke-linecap:square;stroke-linejoin:miter;stroke-width:0.8;"/>
   </g>
   <g id="patch_9">
    <path d="M 536.4 252 
L 536.4 34.56 
" style="fill:none;stroke:#000000;stroke-linecap:square;stroke-linejoin:miter;stroke-width:0.8;"/>
   </g>
   <g id="patch_10">
    <path d="M 333.490909 252 
L 536.4 252 
" style="fill:none;stroke:#000000;stroke-linecap:square;stroke-linejoin:miter;stroke-width:0.8;"/>
   </g>
   <g id="patch_11">
    <path d="M 333.490909 34.56 
L 536.4 34.56 
" style="fill:none;stroke:#000000;stroke-linecap:square;stroke-linejoin:miter;stroke-width:0.8;"/>
   </g>
   <g id="text_18">
    <!-- estimator: $p_{\theta}(\mathbf{x})$ -->
    <defs>
     <path d="M 30.90625 42.140625 
C 30.90625 43.953125 30.796875 44.046875 30.203125 44.046875 
C 29.796875 44.046875 29.703125 43.953125 28.5 42.453125 
C 28.203125 42.046875 27.296875 41.03125 27 40.640625 
C 23.796875 44.046875 19.296875 44.046875 17.59375 44.046875 
C 6.5 44.046875 2.5 38.234375 2.5 32.4375 
C 2.5 23.40625 12.703125 21.328125 15.59375 20.703125 
C 21.90625 19.421875 24.09375 19.015625 26.203125 17.203125 
C 27.5 16.015625 29.703125 13.8125 29.703125 10.21875 
C 29.703125 6 27.296875 0.59375 18.09375 0.59375 
C 9.40625 0.59375 6.296875 7.1875 4.5 15.953125 
C 4.203125 17.34375 4.203125 17.453125 3.40625 17.453125 
C 2.59375 17.453125 2.5 17.34375 2.5 15.359375 
L 2.5 0.984375 
C 2.5 -0.796875 2.59375 -0.90625 3.203125 -0.90625 
C 3.703125 -0.90625 3.796875 -0.796875 4.296875 0 
C 4.90625 0.890625 6.40625 3.296875 7 4.3125 
C 9 1.609375 12.5 -1 18.09375 -1 
C 28 -1 33.296875 4.421875 33.296875 12.25 
C 33.296875 17.375 30.59375 20.078125 29.296875 21.28125 
C 26.296875 24.390625 22.796875 25.09375 18.59375 25.890625 
C 13.09375 27.109375 6.09375 28.515625 6.09375 34.640625 
C 6.09375 37.234375 7.5 42.765625 17.59375 42.765625 
C 28.296875 42.765625 28.90625 32.71875 29.09375 29.5 
C 29.203125 29 29.703125 28.890625 30 28.890625 
C 30.90625 28.890625 30.90625 29.203125 30.90625 30.90625 
z
" id="CMR17-115"/>
     <path d="M 15.5 61.078125 
C 15.5 63.265625 13.703125 65.15625 11.40625 65.15625 
C 9.203125 65.15625 7.296875 63.375 7.296875 61.078125 
C 7.296875 58.890625 9.09375 57 11.40625 57 
C 13.59375 57 15.5 58.796875 15.5 61.078125 
M 3.796875 42.28125 
L 3.796875 39.703125 
C 9.40625 39.703125 10.203125 39.09375 10.203125 34.328125 
L 10.203125 6.671875 
C 10.203125 2.875 9.796875 2.390625 3.40625 2.390625 
L 3.40625 -0.203125 
C 5.796875 0 10.09375 0 12.59375 0 
C 15 0 19.09375 0 21.40625 -0.203125 
L 21.40625 2.390625 
C 15.5 2.390625 15.296875 2.984375 15.296875 6.5625 
L 15.296875 43.375 
z
" id="CMR17-105"/>
     <path d="M 67.59375 30.203125 
C 67.59375 35.1875 66.703125 43.59375 54.796875 43.59375 
C 48 43.59375 43.296875 39 41.5 33.609375 
L 41.40625 33.609375 
C 40.203125 41.8125 34.296875 43.59375 28.703125 43.59375 
C 20.796875 43.59375 16.703125 37.5 15.203125 33.5 
L 15.09375 33.5 
L 15.09375 43.59375 
L 3.296875 42.5 
L 3.296875 39.90625 
C 9.203125 39.90625 10.09375 39.296875 10.09375 34.5 
L 10.09375 6.6875 
C 10.09375 2.875 9.703125 2.390625 3.296875 2.390625 
L 3.296875 -0.203125 
C 5.703125 0 10.09375 0 12.703125 0 
C 15.296875 0 19.796875 0 22.203125 -0.203125 
L 22.203125 2.390625 
C 15.796875 2.390625 15.40625 2.78125 15.40625 6.6875 
L 15.40625 25.90625 
C 15.40625 35.109375 21 42 28 42 
C 35.40625 42 36.203125 35.40625 36.203125 30.59375 
L 36.203125 6.6875 
C 36.203125 2.875 35.796875 2.390625 29.40625 2.390625 
L 29.40625 -0.203125 
C 31.796875 0 36.203125 0 38.796875 0 
C 41.40625 0 45.90625 0 48.296875 -0.203125 
L 48.296875 2.390625 
C 41.90625 2.390625 41.5 2.78125 41.5 6.6875 
L 41.5 25.90625 
C 41.5 35.109375 47.09375 42 54.09375 42 
C 61.5 42 62.296875 35.40625 62.296875 30.59375 
L 62.296875 6.6875 
C 62.296875 2.875 61.90625 2.390625 55.5 2.390625 
L 55.5 -0.203125 
C 57.90625 0 62.296875 0 64.90625 0 
C 67.5 0 72 0 74.40625 -0.203125 
L 74.40625 2.390625 
C 68 2.390625 67.59375 2.78125 67.59375 6.6875 
z
" id="CMR17-109"/>
     <path d="M 36 25.828125 
C 36 32.375 36 35.84375 31.796875 39.734375 
C 28.09375 43 23.796875 44 20.40625 44 
C 12.5 44 6.796875 37.609375 6.796875 30.796875 
C 6.796875 27 9.796875 27 10.40625 27 
C 11.703125 27 14 27.78125 14 30.53125 
C 14 33 12.09375 34.078125 10.40625 34.078125 
C 10 34.078125 9.5 33.96875 9.203125 33.875 
C 11.296875 40.5 16.703125 42.40625 20.203125 42.40625 
C 25.203125 42.40625 30.703125 37.953125 30.703125 29.453125 
L 30.703125 25 
C 24.796875 25 17.703125 24.203125 12.09375 21.203125 
C 5.796875 17.703125 4 12.703125 4 8.90625 
C 4 1.203125 13 -1 18.296875 -1 
C 23.796875 -1 28.90625 2.171875 31.09375 7.984375 
C 31.296875 3.640625 34.09375 -0.28125 38.5 -0.28125 
C 40.59375 -0.28125 45.90625 1.09375 45.90625 8.859375 
L 45.90625 14.375 
L 44.09375 14.375 
L 44.09375 8.78125 
C 44.09375 2.78125 41.40625 2 40.09375 2 
C 36 2 36 7.15625 36 11.53125 
z
M 30.703125 13.59375 
C 30.703125 4.953125 24.5 0.59375 19 0.59375 
C 14 0.59375 10.09375 4.296875 10.09375 8.90625 
C 10.09375 11.890625 11.40625 17.1875 17.203125 20.390625 
C 22 23.09375 27.5 23.5 30.703125 23.5 
z
" id="CMR17-97"/>
     <path d="M 43.09375 21.1875 
C 43.09375 34 33.796875 44 22.90625 44 
C 12 44 2.703125 34 2.703125 21.1875 
C 2.703125 8.609375 12 -1 22.90625 -1 
C 33.796875 -1 43.09375 8.609375 43.09375 21.1875 
M 22.90625 0.796875 
C 18.203125 0.796875 14.203125 3.59375 11.90625 7.5 
C 9.40625 11.984375 9.09375 17.59375 9.09375 22 
C 9.09375 26.203125 9.296875 31.40625 11.90625 35.90625 
C 13.90625 39.203125 17.796875 42.40625 22.90625 42.40625 
C 27.40625 42.40625 31.203125 39.90625 33.59375 36.40625 
C 36.703125 31.703125 36.703125 25.109375 36.703125 22 
C 36.703125 18.09375 36.5 12.109375 33.796875 7.296875 
C 31 2.703125 26.703125 0.796875 22.90625 0.796875 
" id="CMR17-111"/>
     <path d="M 44.296875 50 
C 44.296875 60.15625 41.09375 70 32.90625 70 
C 18.90625 70 4 40.859375 4 19 
C 4 14.421875 5 -1 15.5 -1 
C 29.09375 -1 44.296875 27.4375 44.296875 50 
M 14 36 
C 15.5 41.859375 17.59375 50.21875 21.59375 57.265625 
C 24.90625 63.234375 28.40625 68 32.796875 68 
C 36.09375 68 38.296875 65.21875 38.296875 55.6875 
C 38.296875 52.09375 38 47.140625 35.09375 36 
z
M 34.40625 33.015625 
C 31.90625 23.28125 29.796875 17 26.203125 10.734375 
C 23.296875 5.671875 19.796875 1 15.59375 1 
C 12.5 1 10 3.390625 10 13.21875 
C 10 19.6875 11.59375 26.453125 13.203125 33.015625 
z
" id="CMMI12-18"/>
    </defs>
    <g transform="translate(372.003638 28.56)scale(0.192 -0.192)">
     <use transform="translate(0 14.943915)scale(0.996264)" xlink:href="#CMR17-101"/>
     <use transform="translate(40.48566 14.943915)scale(0.996264)" xlink:href="#CMR17-115"/>
     <use transform="translate(76.286998 14.943915)scale(0.996264)" xlink:href="#CMR17-116"/>
     <use transform="translate(111.567766 14.943915)scale(0.996264)" xlink:href="#CMR17-105"/>
     <use transform="translate(136.438824 14.943915)scale(0.996264)" xlink:href="#CMR17-109"/>
     <use transform="translate(213.358414 14.943915)scale(0.996264)" xlink:href="#CMR17-97"/>
     <use transform="translate(259.048891 14.943915)scale(0.996264)" xlink:href="#CMR17-116"/>
     <use transform="translate(294.329659 14.943915)scale(0.996264)" xlink:href="#CMR17-111"/>
     <use transform="translate(340.020136 14.943915)scale(0.996264)" xlink:href="#CMR17-114"/>
     <use transform="translate(375.300904 14.943915)scale(0.996264)" xlink:href="#CMR17-58"/>
     <use transform="translate(440.657623 14.943915)scale(0.996264)" xlink:href="#CMMI12-112"/>
     <use transform="translate(489.617137 0)scale(0.697382)" xlink:href="#CMMI12-18"/>
     <use transform="translate(523.833765 14.943915)scale(0.996264)" xlink:href="#CMR17-40"/>
     <use transform="translate(559.114533 14.943915)scale(0.996264)" xlink:href="#CMBX12-120"/>
     <use transform="translate(618.267708 14.943915)scale(0.996264)" xlink:href="#CMR17-41"/>
    </g>
   </g>
  </g>
  <g id="axes_3">
   <g id="patch_12">
    <path clip-path="url(#p7fead12b6a)" d="M 564.3 252 
L 564.3 208.512 
L 564.3 78.048 
L 564.3 34.56 
L 575.172 34.56 
L 575.172 78.048 
L 575.172 208.512 
L 575.172 252 
z
" style="fill:#ffffff;stroke:#ffffff;stroke-linejoin:miter;stroke-width:0.01;"/>
   </g>
   <g id="matplotlib.axis_5"/>
   <g id="matplotlib.axis_6">
    <g id="ytick_15">
     <g id="line2d_21">
      <defs>
       <path d="M 0 0 
L 3.5 0 
" id="m90d8074fa3" style="stroke:#000000;stroke-width:0.8;"/>
      </defs>
      <g>
       <use style="stroke:#000000;stroke-width:0.8;" x="575.172" xlink:href="#m90d8074fa3" y="252"/>
      </g>
     </g>
     <g id="text_19">
      <!-- $0.08$ -->
      <defs>
       <path d="M 18.40625 4.796875 
C 18.40625 7.6875 16 9.671875 13.59375 9.671875 
C 10.703125 9.671875 8.703125 7.28125 8.703125 4.890625 
C 8.703125 2 11.09375 0 13.5 0 
C 16.40625 0 18.40625 2.390625 18.40625 4.796875 
" id="CMMI12-58"/>
      </defs>
      <g transform="translate(582.172 257.534794)scale(0.16 -0.16)">
       <use transform="scale(0.996264)" xlink:href="#CMR17-48"/>
       <use transform="translate(45.690477 0)scale(0.996264)" xlink:href="#CMMI12-58"/>
       <use transform="translate(72.787654 0)scale(0.996264)" xlink:href="#CMR17-48"/>
       <use transform="translate(118.478131 0)scale(0.996264)" xlink:href="#CMR17-56"/>
      </g>
     </g>
    </g>
    <g id="ytick_16">
     <g id="line2d_22">
      <g>
       <use style="stroke:#000000;stroke-width:0.8;" x="575.172" xlink:href="#m90d8074fa3" y="208.512"/>
      </g>
     </g>
     <g id="text_20">
      <!-- $0.16$ -->
      <g transform="translate(582.172 214.046794)scale(0.16 -0.16)">
       <use transform="scale(0.996264)" xlink:href="#CMR17-48"/>
       <use transform="translate(45.690477 0)scale(0.996264)" xlink:href="#CMMI12-58"/>
       <use transform="translate(72.787654 0)scale(0.996264)" xlink:href="#CMR17-49"/>
       <use transform="translate(118.478131 0)scale(0.996264)" xlink:href="#CMR17-54"/>
      </g>
     </g>
    </g>
    <g id="ytick_17">
     <g id="line2d_23">
      <g>
       <use style="stroke:#000000;stroke-width:0.8;" x="575.172" xlink:href="#m90d8074fa3" y="165.024"/>
      </g>
     </g>
     <g id="text_21">
      <!-- $0.24$ -->
      <g transform="translate(582.172 170.558794)scale(0.16 -0.16)">
       <use transform="scale(0.996264)" xlink:href="#CMR17-48"/>
       <use transform="translate(45.690477 0)scale(0.996264)" xlink:href="#CMMI12-58"/>
       <use transform="translate(72.787654 0)scale(0.996264)" xlink:href="#CMR17-50"/>
       <use transform="translate(118.478131 0)scale(0.996264)" xlink:href="#CMR17-52"/>
      </g>
     </g>
    </g>
    <g id="ytick_18">
     <g id="line2d_24">
      <g>
       <use style="stroke:#000000;stroke-width:0.8;" x="575.172" xlink:href="#m90d8074fa3" y="121.536"/>
      </g>
     </g>
     <g id="text_22">
      <!-- $0.32$ -->
      <defs>
       <path d="M 22.09375 33.703125 
C 31 33.703125 34.90625 25.96875 34.90625 17.03125 
C 34.90625 5 28.5 0.390625 22.703125 0.390625 
C 17.40625 0.390625 8.796875 3.03125 6.09375 10.828125 
C 6.59375 10.625 7.09375 10.625 7.59375 10.625 
C 10 10.625 11.796875 12.21875 11.796875 14.8125 
C 11.796875 17.703125 9.59375 19 7.59375 19 
C 5.90625 19 3.296875 18.203125 3.296875 14.46875 
C 3.296875 5.234375 12.296875 -2 22.90625 -2 
C 34 -2 42.5 6.71875 42.5 16.953125 
C 42.5 26.671875 34.5 33.703125 25 34.796875 
C 32.59375 36.375 39.90625 43.0625 39.90625 52.015625 
C 39.90625 59.6875 32 65.296875 23 65.296875 
C 13.90625 65.296875 5.90625 59.828125 5.90625 52.015625 
C 5.90625 48.59375 8.5 48 9.796875 48 
C 11.90625 48 13.703125 49.296875 13.703125 51.890625 
C 13.703125 54.46875 11.90625 55.765625 9.796875 55.765625 
C 9.40625 55.765625 8.90625 55.765625 8.5 55.578125 
C 11.40625 61.859375 19.296875 63 22.796875 63 
C 26.296875 63 32.90625 61.328125 32.90625 51.875 
C 32.90625 49.109375 32.5 44.1875 29.09375 39.84375 
C 26.09375 36 22.703125 36 19.40625 35.6875 
C 18.90625 35.6875 16.59375 35.453125 16.203125 35.453125 
C 15.5 35.359375 15.09375 35.265625 15.09375 34.5 
C 15.09375 33.796875 15.203125 33.703125 17.203125 33.703125 
z
" id="CMR17-51"/>
      </defs>
      <g transform="translate(582.172 127.070794)scale(0.16 -0.16)">
       <use transform="scale(0.996264)" xlink:href="#CMR17-48"/>
       <use transform="translate(45.690477 0)scale(0.996264)" xlink:href="#CMMI12-58"/>
       <use transform="translate(72.787654 0)scale(0.996264)" xlink:href="#CMR17-51"/>
       <use transform="translate(118.478131 0)scale(0.996264)" xlink:href="#CMR17-50"/>
      </g>
     </g>
    </g>
    <g id="ytick_19">
     <g id="line2d_25">
      <g>
       <use style="stroke:#000000;stroke-width:0.8;" x="575.172" xlink:href="#m90d8074fa3" y="78.048"/>
      </g>
     </g>
     <g id="text_23">
      <!-- $0.40$ -->
      <g transform="translate(582.172 83.582794)scale(0.16 -0.16)">
       <use transform="scale(0.996264)" xlink:href="#CMR17-48"/>
       <use transform="translate(45.690477 0)scale(0.996264)" xlink:href="#CMMI12-58"/>
       <use transform="translate(72.787654 0)scale(0.996264)" xlink:href="#CMR17-52"/>
       <use transform="translate(118.478131 0)scale(0.996264)" xlink:href="#CMR17-48"/>
      </g>
     </g>
    </g>
    <g id="ytick_20">
     <g id="line2d_26">
      <g>
       <use style="stroke:#000000;stroke-width:0.8;" x="575.172" xlink:href="#m90d8074fa3" y="34.56"/>
      </g>
     </g>
     <g id="text_24">
      <!-- $0.48$ -->
      <g transform="translate(582.172 40.094794)scale(0.16 -0.16)">
       <use transform="scale(0.996264)" xlink:href="#CMR17-48"/>
       <use transform="translate(45.690477 0)scale(0.996264)" xlink:href="#CMMI12-58"/>
       <use transform="translate(72.787654 0)scale(0.996264)" xlink:href="#CMR17-52"/>
       <use transform="translate(118.478131 0)scale(0.996264)" xlink:href="#CMR17-56"/>
      </g>
     </g>
    </g>
   </g>
   <g id="LineCollection_13">
    <path clip-path="url(#p7fead12b6a)" d="M 564.3 252 
L 575.172 252 
" style="fill:none;stroke:#f7fbff;stroke-width:1.5;"/>
    <path clip-path="url(#p7fead12b6a)" d="M 564.3 208.512 
L 575.172 208.512 
" style="fill:none;stroke:#d0e1f2;stroke-width:1.5;"/>
    <path clip-path="url(#p7fead12b6a)" d="M 564.3 165.024 
L 575.172 165.024 
" style="fill:none;stroke:#94c4df;stroke-width:1.5;"/>
    <path clip-path="url(#p7fead12b6a)" d="M 564.3 121.536 
L 575.172 121.536 
" style="fill:none;stroke:#4a98c9;stroke-width:1.5;"/>
    <path clip-path="url(#p7fead12b6a)" d="M 564.3 78.048 
L 575.172 78.048 
" style="fill:none;stroke:#1764ab;stroke-width:1.5;"/>
    <path clip-path="url(#p7fead12b6a)" d="M 564.3 34.56 
L 575.172 34.56 
" style="fill:none;stroke:#08306b;stroke-width:1.5;"/>
   </g>
   <g id="patch_13">
    <path d="M 564.3 252 
L 564.3 208.512 
L 564.3 78.048 
L 564.3 34.56 
L 575.172 34.56 
L 575.172 78.048 
L 575.172 208.512 
L 575.172 252 
z
" style="fill:none;stroke:#000000;stroke-linejoin:miter;stroke-width:0.8;"/>
   </g>
  </g>
 </g>
 <defs>
  <clipPath id="p2892e5e502">
   <rect height="217.44" width="202.909091" x="90" y="34.56"/>
  </clipPath>
  <clipPath id="p89d7a37754">
   <rect height="217.44" width="202.909091" x="333.490909" y="34.56"/>
  </clipPath>
  <clipPath id="p7fead12b6a">
   <rect height="217.44" width="10.872" x="564.3" y="34.56"/>
  </clipPath>
 </defs>
</svg>
